<svg xmlns="http://www.w3.org/2000/svg" xmlns:xlink="http://www.w3.org/1999/xlink" width="206.527" height="250.469" viewBox="0 0 206.527 250.469">
  <defs>
    <linearGradient id="linear-gradient" x1="0.67" y1="-0.404" x2="0.127" y2="1.509" gradientUnits="objectBoundingBox">
      <stop offset="0" stop-color="#f46898"/>
      <stop offset="1" stop-color="#fff"/>
    </linearGradient>
    <linearGradient id="linear-gradient-2" x1="0.652" y1="0.41" x2="1.388" y2="1.989" gradientUnits="objectBoundingBox">
      <stop offset="0" stop-color="#fff"/>
      <stop offset="1" stop-color="#f46898"/>
    </linearGradient>
  </defs>
  <g id="Group_39493" data-name="Group 39493" transform="translate(18792.914 -6478.184)">
    <path id="Icon_weather-stars" data-name="Icon weather-stars" d="M25.492,39.084A32.9,32.9,0,0,0,48.474,28.559,32.773,32.773,0,0,0,57.925,5.076a32.773,32.773,0,0,0,9.451,23.483A33.228,33.228,0,0,0,90.429,39.084a33.183,33.183,0,0,0-16.4,5.083A34.4,34.4,0,0,0,62.221,56.553a33.667,33.667,0,0,0-4.3,16.682A32.938,32.938,0,0,0,48.474,49.68,32.688,32.688,0,0,0,25.492,39.084Z" transform="translate(-18818.406 6473.108)" fill="url(#linear-gradient)"/>
    <path id="Path_56487" data-name="Path 56487" d="M74.373,127.744H32.317l-6.959,20.12H3.12L41.091,42.12H65.75l37.971,105.744H81.331ZM68.624,110.8,53.345,66.627,38.065,110.8Zm70.5-68.529V147.864H117.941V42.271Z" transform="translate(-18753.121 6516.797)" fill="url(#linear-gradient-2)"/>
    <path id="Icon_weather-stars-2" data-name="Icon weather-stars" d="M25.492,27.916a22.1,22.1,0,0,0,15.435-7.068A22.011,22.011,0,0,0,47.275,5.076a22.011,22.011,0,0,0,6.347,15.772A22.317,22.317,0,0,0,69.1,27.916,22.286,22.286,0,0,0,58.094,31.33a23.107,23.107,0,0,0-7.934,8.319,22.611,22.611,0,0,0-2.885,11.2,22.122,22.122,0,0,0-6.347-15.82A21.954,21.954,0,0,0,25.492,27.916Z" transform="translate(-18655.492 6677.801)" fill="#fff"/>
  </g>
</svg>
