<?xml version="1.0" encoding="UTF-8"?>
<svg xmlns="http://www.w3.org/2000/svg" version="1.1" xmlns:xlink="http://www.w3.org/1999/xlink" viewBox="0 0 479.5 479.5">
  <defs>
    <style>
      .cls-1 {
        fill: #fff;
      }

      .cls-2 {
        fill: none;
      }

      .cls-3 {
        clip-path: url(#clippath);
      }
    </style>
    <clipPath id="clippath">
      <rect class="cls-2" width="479.5" height="479.5"/>
    </clipPath>
  </defs>
  <!-- Generator: Adobe Illustrator 28.6.0, SVG Export Plug-In . SVG Version: 1.2.0 Build 709)  -->
  <g>
    <g id="Group_39521">
      <g class="cls-3">
        <g id="Group_39520">
          <path id="Path_56498" class="cls-1" d="M478.9.6v-.6H.6v.6h-.6v478.3h.6v.6h478.3v-.6h.6V.6h-.6ZM262.1,1.2h20.5v20.5h-20.5V1.2ZM262.1,22.9h20.5v20.5h-20.5v-20.5ZM262.1,44.7h20.5v20.5h-20.5v-20.5ZM262.1,66.4h20.5v20.5h-20.5v-20.5ZM262.1,88.2h20.5v20.5h-20.5v-20.5ZM262.1,109.9h20.5v20.5h-20.5v-20.5ZM262.1,131.6h20.5v20.5h-20.5v-20.5ZM262.1,153.4h20.5v20.5h-20.5v-20.5ZM240.3,1.2h20.5v20.5h-20.5V1.2ZM240.3,22.9h20.5v20.5h-20.5v-20.5ZM240.3,44.7h20.5v20.5h-20.5v-20.5ZM240.3,66.4h20.5v20.5h-20.5v-20.5ZM240.3,88.2h20.5v20.5h-20.5v-20.5ZM240.3,109.9h20.5v20.5h-20.5v-20.5ZM240.3,131.6h20.5v20.5h-20.5v-20.5ZM240.3,153.4h20.5v20.5h-20.5v-20.5ZM240.3,175.1h20.5v20.5h-20.5v-20.5ZM240.3,196.9h20.5v20.5h-20.5v-20.5ZM218.6,1.2h20.5v20.5h-20.5V1.2ZM218.6,22.9h20.5v20.5h-20.5v-20.5ZM218.6,44.7h20.5v20.5h-20.5v-20.5ZM218.6,66.4h20.5v20.5h-20.5v-20.5ZM218.6,88.2h20.5v20.5h-20.5v-20.5ZM218.6,109.9h20.5v20.5h-20.5v-20.5ZM218.6,131.6h20.5v20.5h-20.5v-20.5ZM218.6,153.4h20.5v20.5h-20.5v-20.5ZM196.9,1.2h20.5v20.5h-20.5V1.2ZM196.9,22.9h20.5v20.5h-20.5v-20.5ZM196.9,44.7h20.5v20.5h-20.5v-20.5ZM196.9,66.4h20.5v20.5h-20.5v-20.5ZM196.9,88.2h20.5v20.5h-20.5v-20.5ZM196.9,109.9h20.5v20.5h-20.5v-20.5ZM196.9,131.6h20.5v20.5h-20.5v-20.5ZM196.9,153.4h20.5v20.5h-20.5v-20.5ZM175.1,1.2h20.5v20.5h-20.5V1.2ZM175.1,22.9h20.5v20.5h-20.5v-20.5ZM175.1,44.7h20.5v20.5h-20.5v-20.5ZM175.1,66.4h20.5v20.5h-20.5v-20.5ZM175.1,88.2h20.5v20.5h-20.5v-20.5ZM175.1,109.9h20.5v20.5h-20.5v-20.5ZM175.1,131.6h20.5v20.5h-20.5v-20.5ZM175.1,153.4h20.5v20.5h-20.5v-20.5ZM175.1,175.1h20.5v20.5h-20.5v-20.5ZM175.1,196.9h20.5v20.5h-20.5v-20.5ZM21.7,478.3H1.2v-20.5h20.5v20.5ZM21.7,456.6H1.2v-20.5h20.5v20.5ZM21.7,434.8H1.2v-20.5h20.5v20.5ZM21.7,413.1H1.2v-20.5h20.5v20.5ZM21.7,391.3H1.2v-20.5h20.5v20.5ZM21.7,369.6H1.2v-20.5h20.5v20.5ZM21.7,347.8H1.2v-20.5h20.5v20.5ZM21.7,326.1H1.2v-20.5h20.5v20.5ZM21.7,304.4H1.2v-20.5h20.5v20.5ZM21.7,282.6H1.2v-20.5h20.5v20.5ZM21.7,260.9H1.2v-20.5h20.5v20.5ZM21.7,239.1H1.2v-20.5h20.5v20.5ZM21.7,217.4H1.2v-20.5h20.5v20.5ZM21.7,195.7H1.2v-20.5h20.5v20.5ZM21.7,173.9H1.2v-20.5h20.5v20.5ZM21.7,152.2H1.2v-20.5h20.5v20.5ZM21.7,130.4H1.2v-20.5h20.5v20.5ZM21.7,108.7H1.2v-20.5h20.5v20.5ZM21.7,87H1.2v-20.5h20.5v20.5ZM21.7,65.2H1.2v-20.5h20.5v20.5ZM21.7,43.5H1.2v-20.5h20.5v20.5ZM21.7,21.7H1.2V1.2h20.5v20.5ZM43.5,478.3h-20.5v-20.5h20.5v20.5ZM43.5,456.6h-20.5v-20.5h20.5v20.5ZM43.5,434.8h-20.5v-20.5h20.5v20.5ZM43.5,413.1h-20.5v-20.5h20.5v20.5ZM43.5,391.3h-20.5v-20.5h20.5v20.5ZM43.5,369.6h-20.5v-20.5h20.5v20.5ZM43.5,347.8h-20.5v-20.5h20.5v20.5ZM43.5,326.1h-20.5v-20.5h20.5v20.5ZM43.5,304.4h-20.5v-20.5h20.5v20.5ZM43.5,282.6h-20.5v-20.5h20.5v20.5ZM43.5,260.9h-20.5v-20.5h20.5v20.5ZM43.5,239.1h-20.5v-20.5h20.5v20.5ZM43.5,217.4h-20.5v-20.5h20.5v20.5ZM43.5,195.7h-20.5v-20.5h20.5v20.5ZM43.5,173.9h-20.5v-20.5h20.5v20.5ZM43.5,152.2h-20.5v-20.5h20.5v20.5ZM43.5,130.4h-20.5v-20.5h20.5v20.5ZM43.5,108.7h-20.5v-20.5h20.5v20.5ZM43.5,87h-20.5v-20.5h20.5v20.5ZM43.5,65.2h-20.5v-20.5h20.5v20.5ZM43.5,43.5h-20.5v-20.5h20.5v20.5ZM43.5,21.7h-20.5V1.2h20.5v20.5ZM65.2,478.3h-20.5v-20.5h20.5v20.5ZM65.2,456.6h-20.5v-20.5h20.5v20.5ZM65.2,434.8h-20.5v-20.5h20.5v20.5ZM65.2,413.1h-20.5v-20.5h20.5v20.5ZM65.2,391.3h-20.5v-20.5h20.5v20.5ZM65.2,369.6h-20.5v-20.5h20.5v20.5ZM65.2,347.8h-20.5v-20.5h20.5v20.5ZM65.2,326.1h-20.5v-20.5h20.5v20.5ZM65.2,304.4h-20.5v-20.5h20.5v20.5ZM65.2,282.6h-20.5v-20.5h20.5v20.5ZM65.2,260.9h-20.5v-20.5h20.5v20.5ZM65.2,239.1h-20.5v-20.5h20.5v20.5ZM65.2,217.4h-20.5v-20.5h20.5v20.5ZM65.2,195.7h-20.5v-20.5h20.5v20.5ZM65.2,173.9h-20.5v-20.5h20.5v20.5ZM65.2,152.2h-20.5v-20.5h20.5v20.5ZM65.2,130.4h-20.5v-20.5h20.5v20.5ZM65.2,108.7h-20.5v-20.5h20.5v20.5ZM65.2,87h-20.5v-20.5h20.5v20.5ZM65.2,65.2h-20.5v-20.5h20.5v20.5ZM65.2,43.5h-20.5v-20.5h20.5v20.5ZM65.2,21.7h-20.5V1.2h20.5v20.5ZM87,478.3h-20.5v-20.5h20.5v20.5ZM87,456.6h-20.5v-20.5h20.5v20.5ZM87,434.8h-20.5v-20.5h20.5v20.5ZM87,413.1h-20.5v-20.5h20.5v20.5ZM87,391.3h-20.5v-20.5h20.5v20.5ZM87,369.6h-20.5v-20.5h20.5v20.5ZM87,347.8h-20.5v-20.5h20.5v20.5ZM87,326.1h-20.5v-20.5h20.5v20.5ZM87,304.4h-20.5v-20.5h20.5v20.5ZM87,282.6h-20.5v-20.5h20.5v20.5ZM87,260.9h-20.5v-20.5h20.5v20.5ZM87,239.1h-20.5v-20.5h20.5v20.5ZM87,217.4h-20.5v-20.5h20.5v20.5ZM87,195.7h-20.5v-20.5h20.5v20.5ZM87,173.9h-20.5v-20.5h20.5v20.5ZM87,152.2h-20.5v-20.5h20.5v20.5ZM87,130.4h-20.5v-20.5h20.5v20.5ZM87,108.7h-20.5v-20.5h20.5v20.5ZM87,87h-20.5v-20.5h20.5v20.5ZM87,65.2h-20.5v-20.5h20.5v20.5ZM87,43.5h-20.5v-20.5h20.5v20.5ZM87,21.7h-20.5V1.2h20.5v20.5ZM108.7,478.3h-20.5v-20.5h20.5v20.5ZM108.7,456.6h-20.5v-20.5h20.5v20.5ZM108.7,434.8h-20.5v-20.5h20.5v20.5ZM108.7,413.1h-20.5v-20.5h20.5v20.5ZM108.7,391.3h-20.5v-20.5h20.5v20.5ZM108.7,369.6h-20.5v-20.5h20.5v20.5ZM108.7,347.8h-20.5v-20.5h20.5v20.5ZM108.7,326.1h-20.5v-20.5h20.5v20.5ZM108.7,304.4h-20.5v-20.5h20.5v20.5ZM108.7,282.6h-20.5v-20.5h20.5v20.5ZM108.7,260.9h-20.5v-20.5h20.5v20.5ZM108.7,239.1h-20.5v-20.5h20.5v20.5ZM108.7,217.4h-20.5v-20.5h20.5v20.5ZM108.7,195.7h-20.5v-20.5h20.5v20.5ZM108.7,173.9h-20.5v-20.5h20.5v20.5ZM108.7,152.2h-20.5v-20.5h20.5v20.5ZM108.7,130.4h-20.5v-20.5h20.5v20.5ZM108.7,108.7h-20.5v-20.5h20.5v20.5ZM108.7,87h-20.5v-20.5h20.5v20.5ZM108.7,65.2h-20.5v-20.5h20.5v20.5ZM108.7,43.5h-20.5v-20.5h20.5v20.5ZM108.7,21.7h-20.5V1.2h20.5v20.5ZM130.4,478.3h-20.5v-20.5h20.5v20.5ZM130.4,456.6h-20.5v-20.5h20.5v20.5ZM130.4,434.8h-20.5v-20.5h20.5v20.5ZM130.4,413.1h-20.5v-20.5h20.5v20.5ZM130.4,391.3h-20.5v-20.5h20.5v20.5ZM130.4,369.6h-20.5v-20.5h20.5v20.5ZM130.4,347.8h-20.5v-20.5h20.5v20.5ZM130.4,326.1h-20.5v-20.5h20.5v20.5ZM130.4,304.4h-20.5v-20.5h20.5v20.5ZM130.4,282.6h-20.5v-20.5h20.5v20.5ZM130.4,260.9h-20.5v-20.5h20.5v20.5ZM130.4,239.1h-20.5v-20.5h20.5v20.5ZM130.4,217.4h-20.5v-20.5h20.5v20.5ZM130.4,195.7h-20.5v-20.5h20.5v20.5ZM130.4,173.9h-20.5v-20.5h20.5v20.5ZM130.4,152.2h-20.5v-20.5h3.5c4.2,1,8.1,3.2,11.1,6.3,2.9,2.8,5,6.4,5.9,10.4v3.8ZM130.4,113.7c-.9,4-3,7.6-5.9,10.4-3.1,3.2-7.1,5.4-11.5,6.3h-3.1v-20.5h20.5v3.8ZM130.4,108.7h-20.5v-20.5h20.5v20.5ZM130.4,87h-20.5v-20.5h20.5v20.5ZM130.4,65.2h-20.5v-20.5h20.5v20.5ZM130.4,43.5h-20.5v-20.5h20.5v20.5ZM130.4,21.7h-20.5V1.2h20.5v20.5ZM152.2,478.3h-20.5v-20.5h20.5v20.5ZM152.2,456.5h-20.5v-20.5h20.5v20.5ZM152.2,434.8h-20.5v-20.5h20.5v20.5ZM152.2,413.1h-20.5v-20.5h20.5v20.5ZM152.2,391.3h-20.5v-20.5h20.5v20.5ZM152.2,369.6h-20.5v-20.5h20.5v20.5ZM152.2,347.8h-20.5v-20.5h20.5v20.5ZM152.2,326.1h-20.5v-20.5h20.5v20.5ZM152.2,304.4h-20.5v-20.5h20.5v20.5ZM152.2,282.6h-20.5v-20.5h20.5v20.5ZM152.2,260.9h-20.5v-20.5h20.5v20.5ZM152.2,239.1h-20.5v-20.5h20.5v20.5ZM152.2,217.4h-20.5v-20.5h20.5v20.5ZM152.2,195.7h-20.5v-20.5h20.5v20.5ZM152.2,173.9h-20.5v-20.5h20.5v20.5ZM152.2,152.2h-20.5v-3.9c.5-2.1,1.3-4,2.3-5.8,2-3.3,4.8-6.1,8.1-8.1,2.1-1.2,4.4-2.2,6.8-2.7h3.3v20.5ZM152.2,130.4h-3.1c-4.4-1-8.4-3.2-11.6-6.3-2.9-2.8-4.9-6.3-5.9-10.2v-4h20.5v20.5ZM152.2,108.7h-20.5v-20.5h20.5v20.5ZM152.2,87h-20.5v-20.5h20.5v20.5ZM152.2,65.2h-20.5v-20.5h20.5v20.5ZM152.2,43.5h-20.5v-20.5h20.5v20.5ZM152.2,21.7h-20.5V1.2h20.5v20.5ZM173.9,478.3h-20.5v-20.5h20.5v20.5ZM173.9,456.5h-20.5v-20.5h20.5v20.5ZM173.9,434.8h-20.5v-20.5h20.5v20.5ZM173.9,413.1h-20.5v-20.5h20.5v20.5ZM173.9,391.3h-20.5v-20.5h20.5v20.5ZM173.9,369.6h-20.5v-20.5h20.5v20.5ZM173.9,347.8h-20.5v-20.5h20.5v20.5ZM173.9,326.1h-20.5v-20.5h20.5v20.5ZM173.9,304.4h-20.5v-20.5h20.5v20.5ZM173.9,282.6h-20.5v-20.5h20.5v20.5ZM173.9,260.9h-20.5v-20.5h20.5v20.5ZM173.9,239.1h-20.5v-20.5h20.5v20.5ZM173.9,217.4h-20.5v-20.5h20.5v20.5ZM173.9,195.7h-20.5v-20.5h20.5v20.5ZM173.9,173.9h-20.5v-20.5h20.5v20.5ZM173.9,152.2h-20.5v-20.5h20.5v20.5ZM173.9,130.4h-20.5v-20.5h20.5v20.5ZM173.9,108.7h-20.5v-20.5h20.5v20.5ZM173.9,87h-20.5v-20.5h20.5v20.5ZM173.9,65.2h-20.5v-20.5h20.5v20.5ZM173.9,43.5h-20.5v-20.5h20.5v20.5ZM173.9,21.7h-20.5V1.2h20.5v20.5ZM195.7,478.3h-20.5v-20.5h20.5v20.5ZM195.7,456.5h-20.5v-20.5h20.5v20.5ZM195.7,434.8h-20.5v-20.5h20.5v20.5ZM195.7,413.1h-20.5v-20.5h20.5v20.5ZM195.7,391.3h-20.5v-20.5h20.5v20.5ZM195.7,369.6h-20.5v-20.5h20.5v20.5ZM195.7,347.8h-20.5v-20.5h20.5v20.5ZM195.7,326.1h-20.5v-20.5h20.5v20.5ZM217.4,478.3h-20.5v-20.5h20.5v20.5ZM217.4,456.5h-20.5v-20.5h20.5v20.5ZM217.4,434.8h-20.5v-20.5h20.5v20.5ZM217.4,413.1h-20.5v-20.5h20.5v20.5ZM217.4,391.3h-20.5v-20.5h20.5v20.5ZM217.4,369.6h-20.5v-20.5h20.5v20.5ZM217.4,347.8h-20.5v-20.5h20.5v20.5ZM217.4,326.1h-20.5v-20.5h20.5v20.5ZM217.4,304.4h-20.5v-20.5h20.5v20.5ZM239.1,478.3h-20.5v-20.5h20.5v20.5ZM239.1,456.5h-20.5v-20.5h20.5v20.5ZM239.1,434.8h-20.5v-20.5h20.5v20.5ZM239.1,413.1h-20.5v-20.5h20.5v20.5ZM239.1,391.3h-20.5v-20.5h20.5v20.5ZM239.1,369.6h-20.5v-20.5h20.5v20.5ZM239.1,347.8h-20.5v-20.5h20.5v20.5ZM239.1,326.1h-20.5v-20.5h20.5v20.5ZM239.1,304.4h-20.5v-20.5h20.5v20.5ZM260.9,478.3h-20.5v-20.5h20.5v20.5ZM260.9,456.5h-20.5v-20.5h20.5v20.5ZM260.9,434.8h-20.5v-20.5h20.5v20.5ZM260.9,413.1h-20.5v-20.5h20.5v20.5ZM260.9,391.3h-20.5v-20.5h20.5v20.5ZM260.9,369.6h-20.5v-20.5h20.5v20.5ZM260.9,347.8h-20.5v-20.5h20.5v20.5ZM260.9,326.1h-20.5v-20.5h20.5v20.5ZM282.6,478.3h-20.5v-20.5h20.5v20.5ZM282.6,456.5h-20.5v-20.5h20.5v20.5ZM282.6,434.8h-20.5v-20.5h20.5v20.5ZM282.6,413.1h-20.5v-20.5h20.5v20.5ZM282.6,391.3h-20.5v-20.5h20.5v20.5ZM282.6,369.6h-20.5v-20.5h20.5v20.5ZM282.6,347.8h-20.5v-20.5h20.5v20.5ZM282.6,326.1h-20.5v-20.5h20.5v20.5ZM304.4,478.3h-20.5v-20.5h20.5v20.5ZM304.4,456.5h-20.5v-20.5h20.5v20.5ZM304.4,434.8h-20.5v-20.5h20.5v20.5ZM304.4,413.1h-20.5v-20.5h20.5v20.5ZM304.4,391.3h-20.5v-20.5h20.5v20.5ZM304.4,369.6h-20.5v-20.5h20.5v20.5ZM304.4,347.8h-20.5v-20.5h20.5v20.5ZM304.4,326.1h-20.5v-20.5h20.5v20.5ZM304.4,195.7h-6.4v1.2h6.4v20.5h-6.4v1.2h6.4v20.5h-6.4v1.2h6.4v20.5h-6.4v1.2h6.4v20.5h-6.4v1.2h6.4v20.5h-20.5v-11.5h-1.2v11.5h-20.5v-11.5h-1.2v11.5h-20.5v-20.5h5.3l-.4-1.2h-4.9v-10.2h-1.2v10.2h-20.5v-10.2h-1.2v10.2h-20.5v-1.5l-1.2,3.4v19.8h-20.5v-20.5h3.8l.4-1.2h-4.2v-20.5h11.6l.4-1.2h-12v-20.5h19.3l.4-1.2h-19.8v-20.5h20.5v18.4l1.2-3.3v-15h5.4l.4-1.2h-5.8v-20.5h13.2l.4-1.2h-13.6v-20.5h20.5v17.8h1.2v-17.8h20.5v20.5h-7.8l.4,1.2h7.4v20.5h0l1.3,3.5v-2.3h20.5v20.5h-14l.4,1.2h13.6v20.5h-6.2l.4,1.2h5.8v16.2l1.2,3.3v-19.6h19.5v-1.2h-19.5v-20.5h19.5v-1.2h-19.5v-20.5h19.5v-1.2h-19.5v-20.5h19.5v-1.2h-19.5v-20.5h20.5v18h1.2v-18h20.5v20.5ZM304.4,173.9h-20.5v-20.5h20.5v20.5ZM304.4,152.2h-20.5v-20.5h20.5v20.5ZM304.4,130.4h-20.5v-20.5h20.5v20.5ZM304.4,108.7h-20.5v-20.5h20.5v20.5ZM304.4,87h-20.5v-20.5h20.5v20.5ZM304.4,65.2h-20.5v-20.5h20.5v20.5ZM304.4,43.5h-20.5v-20.5h20.5v20.5ZM304.4,21.7h-20.5V1.2h20.5v20.5ZM326.1,478.3h-20.5v-20.5h20.5v20.5ZM326.1,456.5h-20.5v-20.5h20.5v20.5ZM326.1,434.8h-20.5v-20.5h20.5v20.5ZM326.1,413.1h-20.5v-20.5h20.5v20.5ZM326.1,391.3h-20.5v-20.5h20.5v20.5ZM326.1,369.6h-20.5v-20.5h20.5v20.5ZM326.1,347.8h-20.5v-20.5h20.5v20.5ZM326.1,326.1h-20.5v-20.5h20.5v20.5ZM326.1,304.4h-20.5v-20.5h20.5v20.5ZM326.1,282.6h-20.5v-20.5h20.5v20.5ZM326.1,260.9h-20.5v-20.5h20.5v20.5ZM326.1,239.1h-20.5v-20.5h20.5v20.5ZM326.1,217.4h-20.5v-20.5h20.5v20.5ZM326.1,195.7h-20.5v-20.5h20.5v20.5ZM326.1,173.9h-20.5v-20.5h20.5v20.5ZM326.1,152.2h-20.5v-20.5h20.5v20.5ZM326.1,130.4h-20.5v-20.5h20.5v20.5ZM326.1,108.7h-20.5v-20.5h20.5v20.5ZM326.1,87h-20.5v-20.5h20.5v20.5ZM326.1,65.2h-20.5v-20.5h20.5v20.5ZM326.1,43.5h-20.5v-20.5h20.5v20.5ZM326.1,21.7h-20.5V1.2h20.5v20.5ZM347.8,478.3h-20.5v-20.5h20.5v20.5ZM347.8,456.5h-20.5v-20.5h20.5v20.5ZM347.8,434.8h-20.5v-20.5h20.5v20.5ZM347.8,413.1h-20.5v-20.5h20.5v20.5ZM347.8,391.3h-20.5v-20.5h20.5v20.5ZM347.8,369.6h-20.5v-20.5h3.5c4.2,1,8.1,3.2,11.1,6.3,2.9,2.8,5,6.4,5.9,10.4v3.8ZM347.8,331.1c-.9,4-3,7.6-5.9,10.4-3.1,3.2-7.1,5.4-11.5,6.3h-3.1v-20.5h20.5v3.8ZM347.8,326.1h-20.5v-20.5h20.5v20.5ZM347.8,304.4h-20.5v-20.5h20.5v20.5ZM347.8,282.6h-20.5v-20.5h20.5v20.5ZM347.8,260.9h-20.5v-20.5h20.5v20.5ZM347.8,239.1h-20.5v-20.5h20.5v20.5ZM347.8,217.4h-20.5v-20.5h20.5v20.5ZM347.8,195.7h-20.5v-20.5h20.5v20.5ZM347.8,173.9h-20.5v-20.5h20.5v20.5ZM347.8,152.2h-20.5v-20.5h20.5v20.5ZM347.8,130.4h-20.5v-20.5h20.5v20.5ZM347.8,108.7h-20.5v-20.5h20.5v20.5ZM347.8,86.9h-20.5v-20.5h20.5v20.5ZM347.8,65.2h-20.5v-20.5h20.5v20.5ZM347.8,43.5h-20.5v-20.5h20.5v20.5ZM347.8,21.7h-20.5V1.2h20.5v20.5ZM369.6,478.3h-20.5v-20.5h20.5v20.5ZM369.6,456.5h-20.5v-20.5h20.5v20.5ZM369.6,434.8h-20.5v-20.5h20.5v20.5ZM369.6,413.1h-20.5v-20.5h20.5v20.5ZM369.6,391.3h-20.5v-20.5h20.5v20.5ZM369.6,369.6h-20.5v-3.9c.5-2.1,1.3-4,2.3-5.8,2-3.3,4.8-6.1,8.1-8.1,2.1-1.2,4.4-2.2,6.8-2.7h3.3v20.5ZM369.6,347.8h-3.1c-4.4-1-8.4-3.2-11.6-6.3-2.9-2.8-4.9-6.3-5.9-10.2v-4h20.5v20.5ZM369.6,326.1h-20.5v-20.5h20.5v20.5ZM369.6,304.4h-20.5v-20.5h20.5v20.5ZM369.6,282.6h-20.5v-20.5h20.5v20.5ZM369.6,260.9h-20.5v-20.5h20.5v20.5ZM369.6,239.1h-20.5v-20.5h20.5v20.5ZM369.6,217.4h-20.5v-20.5h20.5v20.5ZM369.6,195.6h-20.5v-20.5h20.5v20.5ZM369.6,173.9h-20.5v-20.5h20.5v20.5ZM369.6,152.2h-20.5v-20.5h20.5v20.5ZM369.6,130.4h-20.5v-20.5h20.5v20.5ZM369.6,108.7h-20.5v-20.5h20.5v20.5ZM369.6,86.9h-20.5v-20.5h20.5v20.5ZM369.6,65.2h-20.5v-20.5h20.5v20.5ZM369.6,43.5h-20.5v-20.5h20.5v20.5ZM369.6,21.7h-20.5V1.2h20.5v20.5ZM391.3,478.3h-20.5v-20.5h20.5v20.5ZM391.3,456.5h-20.5v-20.5h20.5v20.5ZM391.3,434.8h-20.5v-20.5h20.5v20.5ZM391.3,413.1h-20.5v-20.5h20.5v20.5ZM391.3,391.3h-20.5v-20.5h20.5v20.5ZM391.3,369.6h-20.5v-20.5h20.5v20.5ZM391.3,347.8h-20.5v-20.5h20.5v20.5ZM391.3,326.1h-20.5v-20.5h20.5v20.5ZM391.3,304.3h-20.5v-20.5h20.5v20.5ZM391.3,282.6h-20.5v-20.5h20.5v20.5ZM391.3,260.9h-20.5v-20.5h20.5v20.5ZM391.3,239.1h-20.5v-20.5h20.5v20.5ZM391.3,217.4h-20.5v-20.5h20.5v20.5ZM391.3,195.6h-20.5v-20.5h20.5v20.5ZM391.3,173.9h-20.5v-20.5h20.5v20.5ZM391.3,152.2h-20.5v-20.5h20.5v20.5ZM391.3,130.4h-20.5v-20.5h20.5v20.5ZM391.3,108.7h-20.5v-20.5h20.5v20.5ZM391.3,86.9h-20.5v-20.5h20.5v20.5ZM391.3,65.2h-20.5v-20.5h20.5v20.5ZM391.3,43.5h-20.5v-20.5h20.5v20.5ZM391.3,21.7h-20.5V1.2h20.5v20.5ZM413.1,478.3h-20.5v-20.5h20.5v20.5ZM413.1,456.5h-20.5v-20.5h20.5v20.5ZM413.1,434.8h-20.5v-20.5h20.5v20.5ZM413.1,413.1h-20.5v-20.5h20.5v20.5ZM413.1,391.3h-20.5v-20.5h20.5v20.5ZM413.1,369.6h-20.5v-20.5h20.5v20.5ZM413.1,347.8h-20.5v-20.5h20.5v20.5ZM413.1,326.1h-20.5v-20.5h20.5v20.5ZM413.1,304.3h-20.5v-20.5h20.5v20.5ZM413.1,282.6h-20.5v-20.5h20.5v20.5ZM413.1,260.9h-20.5v-20.5h20.5v20.5ZM413.1,239.1h-20.5v-20.5h20.5v20.5ZM413.1,217.4h-20.5v-20.5h20.5v20.5ZM413.1,195.6h-20.5v-20.5h20.5v20.5ZM413.1,173.9h-20.5v-20.5h20.5v20.5ZM413.1,152.2h-20.5v-20.5h20.5v20.5ZM413.1,130.4h-20.5v-20.5h20.5v20.5ZM413.1,108.7h-20.5v-20.5h20.5v20.5ZM413.1,86.9h-20.5v-20.5h20.5v20.5ZM413.1,65.2h-20.5v-20.5h20.5v20.5ZM413.1,43.5h-20.5v-20.5h20.5v20.5ZM413.1,21.7h-20.5V1.2h20.5v20.5ZM434.8,478.3h-20.5v-20.5h20.5v20.5ZM434.8,456.5h-20.5v-20.5h20.5v20.5ZM434.8,434.8h-20.5v-20.5h20.5v20.5ZM434.8,413.1h-20.5v-20.5h20.5v20.5ZM434.8,391.3h-20.5v-20.5h20.5v20.5ZM434.8,369.6h-20.5v-20.5h20.5v20.5ZM434.8,347.8h-20.5v-20.5h20.5v20.5ZM434.8,326.1h-20.5v-20.5h20.5v20.5ZM434.8,304.3h-20.5v-20.5h20.5v20.5ZM434.8,282.6h-20.5v-20.5h20.5v20.5ZM434.8,260.9h-20.5v-20.5h20.5v20.5ZM434.8,239.1h-20.5v-20.5h20.5v20.5ZM434.8,217.4h-20.5v-20.5h20.5v20.5ZM434.8,195.6h-20.5v-20.5h20.5v20.5ZM434.8,173.9h-20.5v-20.5h20.5v20.5ZM434.8,152.2h-20.5v-20.5h20.5v20.5ZM434.8,130.4h-20.5v-20.5h20.5v20.5ZM434.8,108.7h-20.5v-20.5h20.5v20.5ZM434.8,86.9h-20.5v-20.5h20.5v20.5ZM434.8,65.2h-20.5v-20.5h20.5v20.5ZM434.8,43.5h-20.5v-20.5h20.5v20.5ZM434.8,21.7h-20.5V1.2h20.5v20.5ZM456.5,478.3h-20.5v-20.5h20.5v20.5ZM456.5,456.5h-20.5v-20.5h20.5v20.5ZM456.5,434.8h-20.5v-20.5h20.5v20.5ZM456.5,413.1h-20.5v-20.5h20.5v20.5ZM456.5,391.3h-20.5v-20.5h20.5v20.5ZM456.5,369.6h-20.5v-20.5h20.5v20.5ZM456.5,347.8h-20.5v-20.5h20.5v20.5ZM456.5,326.1h-20.5v-20.5h20.5v20.5ZM456.5,304.3h-20.5v-20.5h20.5v20.5ZM456.5,282.6h-20.5v-20.5h20.5v20.5ZM456.5,260.9h-20.5v-20.5h20.5v20.5ZM456.5,239.1h-20.5v-20.5h20.5v20.5ZM456.5,217.4h-20.5v-20.5h20.5v20.5ZM456.5,195.6h-20.5v-20.5h20.5v20.5ZM456.5,173.9h-20.5v-20.5h20.5v20.5ZM456.5,152.2h-20.5v-20.5h20.5v20.5ZM456.5,130.4h-20.5v-20.5h20.5v20.5ZM456.5,108.7h-20.5v-20.5h20.5v20.5ZM456.5,86.9h-20.5v-20.5h20.5v20.5ZM456.5,65.2h-20.5v-20.5h20.5v20.5ZM456.5,43.5h-20.5v-20.5h20.5v20.5ZM456.5,21.7h-20.5V1.2h20.5v20.5ZM478.3,478.3h-20.5v-20.5h20.5v20.5ZM478.3,456.5h-20.5v-20.5h20.5v20.5ZM478.3,434.8h-20.5v-20.5h20.5v20.5ZM478.3,413h-20.5v-20.5h20.5v20.5ZM478.3,391.3h-20.5v-20.5h20.5v20.5ZM478.3,369.6h-20.5v-20.5h20.5v20.5ZM478.3,347.8h-20.5v-20.5h20.5v20.5ZM478.3,326.1h-20.5v-20.5h20.5v20.5ZM478.3,304.3h-20.5v-20.5h20.5v20.5ZM478.3,282.6h-20.5v-20.5h20.5v20.5ZM478.3,260.9h-20.5v-20.5h20.5v20.5ZM478.3,239.1h-20.5v-20.5h20.5v20.5ZM478.3,217.4h-20.5v-20.5h20.5v20.5ZM478.3,195.6h-20.5v-20.5h20.5v20.5ZM478.3,173.9h-20.5v-20.5h20.5v20.5ZM478.3,152.2h-20.5v-20.5h20.5v20.5ZM478.3,130.4h-20.5v-20.5h20.5v20.5ZM478.3,108.7h-20.5v-20.5h20.5v20.5ZM478.3,86.9h-20.5v-20.5h20.5v20.5ZM478.3,65.2h-20.5v-20.5h20.5v20.5ZM478.3,43.5h-20.5v-20.5h20.5v20.5ZM478.3,21.7h-20.5V1.2h20.5v20.5Z"/>
          <path id="Path_56499" class="cls-1" d="M219.2,217.4l-.4,1.2h4.1l-.4-1.2h-3.3Z"/>
          <path id="Path_56500" class="cls-1" d="M281.6,283.8v-1.2h-19.1l.4,1.2h18.7Z"/>
          <path id="Path_56501" class="cls-1" d="M218.6,239.1v-19.9l-1.2,3.4v16.5h-5.8l-.4,1.2h6.3v18.8h1.2v-18.8h11.9l-.4-1.2h-11.5Z"/>
        </g>
      </g>
    </g>
  </g>
</svg>