<svg xmlns="http://www.w3.org/2000/svg" xmlns:xlink="http://www.w3.org/1999/xlink" width="577.838" height="808" viewBox="0 0 577.838 808">
  <defs>
    <linearGradient id="linear-gradient" x1="0.167" y1="0.06" x2="0.705" y2="0.821" gradientUnits="objectBoundingBox">
      <stop offset="0" stop-color="#fff"/>
      <stop offset="0.532" stop-color="#fff"/>
      <stop offset="1" stop-color="#fff"/>
    </linearGradient>
    <linearGradient id="linear-gradient-2" x1="-1.377" y1="-5.283" x2="0.768" y2="0.735" gradientUnits="objectBoundingBox">
      <stop offset="0" stop-color="#f46898"/>
      <stop offset="1" stop-color="#fff"/>
    </linearGradient>
    <linearGradient id="linear-gradient-3" x1="0.305" y1="-0.142" x2="1.574" y2="1.926" gradientUnits="objectBoundingBox">
      <stop offset="0" stop-color="#d0ea63"/>
      <stop offset="1" stop-color="#f46898"/>
    </linearGradient>
  </defs>
  <g id="Group_39508" data-name="Group 39508" transform="translate(4416 -7316)">
    <g id="Group_39506" data-name="Group 39506" transform="translate(-4638.479 7278.405)">
      <path id="Union_18" data-name="Union 18" d="M511.274,808V787.66H488.613V808H487.2V787.66H464.536V808H463.12V787.66H440.461V808h-1.417V787.66H416.384V808h-1.416V787.66H392.307V808h-1.416V787.66H368.231V808h-1.416V787.66H344.154V808h-1.416V787.66H320.077V808h-1.416V787.66H296V808h-1.416V787.66H271.924V808h-1.416V787.66H247.847V808h-1.416V787.66H223.771V808h-1.417V787.66H199.695V808h-1.416V787.66H175.618V808H174.2V787.66H151.541V808h-1.416V787.66H127.464V808h-1.416V787.66H103.388V808h-1.416V787.66H79.311V808H77.895V787.66H55.234V808H53.818V787.66H0v-1.4H53.818V763.812H0v-1.4H53.818V739.965H0v-1.4H53.818V716.118H0v-1.4H53.818V692.27H0v-1.4H53.818V668.423H0v-1.4H53.818V644.577H0v-1.4H53.818V620.729H0v-1.4H53.818V596.882H0v-1.4H53.818V573.035H0v-1.4H53.818V549.187H0v-1.4H53.818V525.34H0v-1.4H53.818V501.493H0v-1.4H53.818V477.645H0v-1.4H53.818V453.8H0v-1.4H53.818V429.952H0v-1.4H53.818V406.1H0v-1.4H53.818V382.257H0v-1.4H53.818V358.41H0v-1.4H53.818V334.562H0v-1.4H53.818V310.715H0v-1.4H53.818V286.868H0v-1.4H53.818V263.02H0v-1.4H53.818V239.173H0v-1.4H53.818V215.327H0v-1.4H53.818V191.48H0v-1.4H53.818V167.632H0v-1.4H53.818V143.785H0v-1.4H53.818V119.937H0v-1.4H53.818V96.09H0v-1.4H53.818V72.243H0v-1.4H53.818V48.4H0v-1.4H53.818V24.548H0v-1.4H53.818V0h1.416V23.145H77.895V0h1.416V23.145h22.661V0h1.416V23.145h22.661V0h1.416V23.145h22.661V0h1.416V23.145H174.2V0h1.416V23.145h22.661V0h1.416V23.145h22.659V0h1.417V23.145h22.659V0h1.416V23.145h22.661V0h1.416V23.145h22.661V0H296V23.145h22.661V0h1.416V23.145h22.661V0h1.416V23.145h22.661V0h1.416V23.145h22.661V0h1.416V23.145h22.661V0h1.416V23.145h22.659V0h1.417V23.145H463.12V0h1.416V23.145H487.2V0h1.416V23.145h22.661V0h1.416V23.145h65.148v1.4H512.69V46.993h65.148v1.4H512.69V70.84h65.148v1.4H512.69V94.687h65.148v1.4H512.69v22.445h65.148v1.4H512.69v22.445h65.148v1.4H512.69V166.23h65.148v1.4H512.69v22.445h65.148v1.4H512.69v22.443h65.148v1.4H512.69V237.77h65.148v1.4H512.69v22.445h65.148v1.4H512.69v22.445h65.148v1.4H512.69v22.445h65.148v1.4H512.69V333.16h65.148v1.4H512.69v22.445h65.148v1.4H512.69v22.445h65.148v1.4H512.69V404.7h65.148v1.4H512.69v22.443h65.148v1.4H512.69V452.4h65.148v1.4H512.69v22.445h65.148v1.4H512.69V500.09h65.148v1.4H512.69v22.445h65.148v1.4H512.69v22.445h65.148v1.4H512.69v22.445h65.148v1.4H512.69v22.445h65.148v1.4H512.69v22.445h65.148v1.4H512.69v22.444h65.148v1.4H512.69V667.02h65.148v1.4H512.69v22.445h65.148v1.4H512.69v22.445h65.148v1.4H512.69v22.445h65.148v1.4H512.69V762.41h65.148v1.4H512.69v22.445h65.148v1.4H512.69V808Zm0-21.743V763.812H488.613v22.445Zm-24.077,0V763.812H464.536v22.445Zm-24.077,0V763.812H440.461v22.445Zm-24.077,0V763.812H416.384v22.445Zm-24.076,0V763.812H392.307v22.445Zm-24.077,0V763.812H368.231v22.445Zm-24.077,0V763.812H344.154v22.445Zm-24.077,0V763.812H320.077v22.445Zm-24.077,0V763.812H296v22.445Zm-24.077,0V763.812H271.924v22.445Zm-24.077,0V763.812H247.847v22.445Zm-24.077,0V763.812H223.771v22.445Zm-24.077,0V763.812H199.695v22.445Zm-24.076,0V763.812H175.618v22.445Zm-24.077,0V763.812H151.541v22.445Zm-24.077,0V763.812H127.464v22.445Zm-24.077,0V763.812H103.388v22.445Zm-24.077,0V763.812H79.311v22.445Zm-24.077,0V763.812H55.234v22.445ZM511.274,762.41V739.965H488.613V762.41Zm-24.077,0V739.965H464.536V762.41Zm-24.077,0V739.965H440.461V762.41Zm-24.077,0V739.965H416.384V762.41Zm-24.076,0V739.965H392.307V762.41Zm-24.077,0V739.965H368.231V762.41Zm-24.077,0V739.965H344.154V762.41Zm-24.077,0V739.965H320.077V762.41Zm-24.077,0V739.965H296V762.41Zm-24.077,0V739.965H271.924V762.41Zm-24.077,0V739.965H247.847V762.41Zm-24.077,0V739.965H223.771V762.41Zm-24.077,0V739.965H199.695V762.41Zm-24.076,0V739.965H175.618V762.41Zm-24.077,0V739.965H151.541V762.41Zm-24.077,0V739.965H127.464V762.41Zm-24.077,0V739.965H103.388V762.41Zm-24.077,0V739.965H79.311V762.41Zm-24.077,0V739.965H55.234V762.41Zm433.379-23.847V716.118H488.613v22.445Zm-24.077,0V716.118H464.536v22.445Zm-24.077,0V716.118H440.461v22.445Zm-24.077,0V716.118H416.384v22.445Zm-24.076,0V716.118H392.307v22.445Zm-24.077,0V716.118H368.231v22.445Zm-24.077,0V716.118H344.154v22.445Zm-24.077,0V716.118H320.077v22.445Zm-24.077,0V716.118H296v22.445Zm-24.077,0V716.118H271.924v22.445Zm-24.077,0V716.118H247.847v22.445Zm-24.077,0V716.118H223.771v22.445Zm-24.077,0V716.118H199.695v22.445Zm-24.076,0V716.118H175.618v22.445Zm-24.077,0V716.118H151.541v22.445Zm-24.077,0V716.118H127.464v22.445Zm-24.077,0V716.118H103.388v22.445Zm-24.077,0V716.118H79.311v22.445Zm-24.077,0V716.118H55.234v22.445Zm433.379-23.847V692.27H488.613v22.445Zm-24.077,0V692.27H464.536v22.445Zm-24.077,0V692.27H440.461v22.445Zm-24.077,0V692.27H416.384v22.445Zm-24.076,0V692.27H392.307v22.445Zm-24.077,0V692.27H368.231v22.445Zm-24.077,0V692.27H344.154v22.445Zm-24.077,0V692.27H320.077v22.445Zm-24.077,0V692.27H296v22.445Zm-24.077,0V692.27H271.924v22.445Zm-24.077,0V692.27H247.847v22.445Zm-24.077,0V692.27H223.771v22.445Zm-24.077,0V692.27H199.695v22.445Zm-24.076,0V692.27H175.618v22.445Zm-24.077,0V692.27H151.541v22.445Zm-24.077,0V692.27H127.464v22.445Zm-24.077,0V692.27H103.388v22.445Zm-24.077,0V692.27H79.311v22.445Zm-24.077,0V692.27H55.234v22.445Zm433.379-23.847V668.423H488.613v22.445Zm-24.077,0V668.423H464.536v22.445Zm-24.077,0V668.423H440.461v22.445Zm-24.077,0V668.423H416.384v22.445Zm-24.076,0V668.423H392.307v22.445Zm-24.077,0V668.423H368.231v22.445Zm-24.077,0V668.423H344.154v22.445Zm-24.077,0V668.423H320.077v22.445Zm-24.077,0V668.423H296v22.445Zm-24.077,0V668.423H271.924v22.445Zm-24.077,0V668.423H247.847v22.445Zm-24.077,0V668.423H223.771v22.445Zm-24.077,0V668.423H199.695v22.445Zm-24.076,0V668.423H175.618v22.445Zm-24.077,0V668.423H151.541v22.445Zm-24.077,0V668.423H127.464v22.445Zm-24.077,0V668.423H103.388v22.445Zm-24.077,0V668.423H79.311v22.445Zm-24.077,0V668.423H55.234v22.445ZM511.274,667.02V644.577H488.613V667.02Zm-24.077,0V644.577H464.536V667.02Zm-24.077,0V644.577H440.461V667.02Zm-24.077,0V644.577H416.384V667.02Zm-24.076,0V644.577H392.307V667.02Zm-24.077,0V644.577H368.231V667.02Zm-24.077,0V644.577H344.154V667.02Zm-24.077,0V644.577H320.077V667.02Zm-24.077,0V644.577H296V667.02Zm-24.077,0V644.577H271.924V667.02Zm-24.077,0V644.577H247.847V667.02Zm-24.077,0V644.577H223.771V667.02Zm-24.077,0V644.577H199.695V667.02Zm-24.076,0V644.577H175.618V667.02Zm-24.077,0V644.577H151.541V667.02Zm-24.077,0V644.577H127.464V667.02Zm-24.077,0V644.577H103.388V667.02Zm-24.077,0V644.577H79.311V667.02Zm-24.077,0V644.577H55.234V667.02Zm433.379-23.847V620.729H488.613v22.444Zm-24.077,0V620.729H464.536v22.444Zm-24.077,0V620.729H440.461v22.444Zm-24.077,0V620.729H416.384v22.444Zm-24.076,0V620.729H392.307v22.444Zm-24.077,0V620.729H368.231v22.444Zm-24.077,0V620.729H344.154v22.444Zm-24.077,0V620.729H320.077v22.444Zm-24.077,0V620.729H296v22.444Zm-24.077,0V620.729H271.924v22.444Zm-24.077,0V620.729H247.847v22.444Zm-24.077,0V620.729H223.771v22.444Zm-24.077,0V620.729H199.695v22.444Zm-24.076,0V620.729H175.618v22.444Zm-24.077,0V620.729H151.541v22.444Zm-24.077,0V620.729H127.464v22.444Zm-24.077,0V620.729H103.388v22.444Zm-24.077,0V620.729H79.311v22.444Zm-24.077,0V620.729H55.234v22.444Zm433.379-23.846V596.882H488.613v22.445Zm-24.077,0V596.882H464.536v22.445Zm-24.077,0V596.882H440.461v22.445Zm-24.077,0V596.882H416.384v22.445Zm-24.076,0V596.882H392.307v22.445Zm-24.077,0V596.882H368.231v22.445Zm-24.077,0V596.882H344.154v22.445Zm-24.077,0V596.882H320.077v22.445Zm-24.077,0V596.882H296v22.445Zm-24.077,0V596.882H271.924v22.445Zm-24.077,0V596.882H247.847v22.445Zm-24.077,0V596.882H223.771v22.445Zm-24.077,0V596.882H199.695v22.445Zm-24.076,0V596.882H175.618v22.445Zm-24.077,0V596.882H151.541v22.445Zm-24.077,0V596.882H127.464v22.445Zm-24.077,0V596.882H103.388v22.445Zm-24.077,0V596.882H79.311v22.445Zm-24.077,0V596.882H55.234v22.445Zm433.379-23.847V573.035H488.613v22.445Zm-24.077,0V573.035H464.536v22.445Zm-24.077,0V573.035H440.461v22.445Zm-24.077,0V573.035H416.384v22.445Zm-24.076,0V573.035H392.307v22.445Zm-24.077,0V573.035H368.231v22.445Zm-24.077,0V573.035H344.154v22.445Zm-24.077,0V573.035H320.077v22.445Zm-24.077,0V573.035H296v22.445Zm-24.077,0V573.035H271.924v22.445Zm-24.077,0V573.035H247.847v22.445Zm-24.077,0V573.035H223.771v22.445Zm-24.077,0V573.035H199.695v22.445Zm-24.076,0V573.035H175.618v22.445Zm-24.077,0V573.035H151.541v22.445Zm-24.077,0V573.035H127.464v22.445Zm-24.077,0V573.035H103.388v22.445Zm-24.077,0V573.035H79.311v22.445Zm-24.077,0V573.035H55.234v22.445Zm433.379-23.847V549.187H488.613v22.445Zm-24.077,0V549.187H464.536v22.445Zm-24.077,0V549.187H440.461v22.445Zm-24.077,0V549.187H416.384v22.445Zm-24.076,0V549.187H392.307v22.445Zm-24.077,0V549.187H368.231v22.445Zm-24.077,0V549.187H344.154v22.445Zm-24.077,0V549.187H320.077v22.445Zm-24.077,0V549.187H296v22.445Zm-24.077,0V549.187H271.924v22.445Zm-24.077,0V549.187H247.847v22.445Zm-24.077,0V549.187H223.771v22.445Zm-24.077,0V549.187H199.695v22.445Zm-24.076,0V549.187H175.618v22.445Zm-24.077,0V549.187H151.541v22.445Zm-24.077,0V549.187H127.464v22.445Zm-24.077,0V549.187H103.388v22.445Zm-24.077,0V549.187H79.311v22.445Zm-24.077,0V549.187H55.234v22.445Zm433.379-23.847V525.34H488.613v22.445Zm-24.077,0V525.34H464.536v22.445Zm-24.077,0V525.34H440.461v22.445Zm-24.077,0V525.34H416.384v22.445Zm-24.076,0V525.34H392.307v22.445Zm-24.077,0V525.34H368.231v22.445Zm-24.077,0V525.34H344.154v22.445Zm-24.077,0V525.34H320.077v22.445Zm-24.077,0V525.34H296v22.445Zm-24.077,0V525.34H271.924v22.445Zm-24.077,0V525.34H247.847v22.445Zm-24.077,0V525.34H223.771v22.445Zm-24.077,0V525.34H199.695v22.445Zm-24.076,0V525.34H175.618v22.445Zm-24.077,0V525.34H151.541v22.445Zm-24.077,0V525.34H127.464v22.445Zm-24.077,0V525.34H103.388v22.445Zm-24.077,0V525.34H79.311v22.445Zm-24.077,0V525.34H55.234v22.445Zm433.379-23.847V501.493H488.613v22.445Zm-24.077,0V501.493H464.536v22.445Zm-24.077,0V501.493H440.461v22.445Zm-24.077,0V501.493H416.384v22.445Zm-24.076,0V501.493H392.307v22.445Zm-24.077,0V501.493H368.231v22.445Zm-24.077,0V501.493H344.154v22.445Zm-24.077,0V501.493H320.077v22.445Zm-24.077,0V501.493H296v22.445Zm-24.077,0V501.493H271.924v22.445Zm-24.077,0V501.493H247.847v22.445Zm-24.077,0V501.493H223.771v22.445Zm-24.077,0V501.493H199.695v22.445Zm-24.076,0V501.493H175.618v22.445Zm-24.077,0V501.493H151.541v22.445Zm-24.077,0V501.493H127.464v22.445Zm-24.077,0V501.493H103.388v22.445Zm-24.077,0V501.493H79.311v22.445Zm-24.077,0V501.493H55.234v22.445ZM511.274,500.09V477.645H488.613V500.09Zm-24.077,0V477.645H464.536V500.09Zm-24.077,0V477.645H440.461V500.09Zm-24.077,0V477.645H416.384V500.09Zm-24.076,0V477.645H392.307V500.09Zm-24.077,0V477.645H368.231V500.09Zm-24.077,0V477.645H344.154V500.09Zm-24.077,0V477.645H320.077V500.09Zm-24.077,0V477.645H296V500.09Zm-24.077,0V477.645H271.924V500.09Zm-24.077,0V477.645H247.847V500.09Zm-24.077,0V477.645H223.771V500.09Zm-24.077,0V477.645H199.695V500.09Zm-24.076,0V477.645H175.618V500.09Zm-24.077,0V477.645H151.541V500.09Zm-24.077,0V477.645H127.464V500.09Zm-24.077,0V477.645H103.388V500.09Zm-24.077,0V477.645H79.311V500.09Zm-24.077,0V477.645H55.234V500.09Zm433.379-23.847V453.8H488.613v22.445Zm-24.077,0V453.8H464.536v22.445Zm-24.077,0V453.8H440.461v22.445Zm-24.077,0V453.8H416.384v22.445Zm-24.076,0V453.8H392.307v22.445Zm-24.077,0V453.8H368.231v22.445Zm-24.077,0V453.8H344.154v22.445Zm-24.077,0V453.8H320.077v22.445Zm-24.077,0V453.8H296v22.445Zm-24.077,0V453.8H271.924v22.445Zm-24.077,0V453.8H247.847v22.445Zm-24.077,0V453.8H223.771v22.445Zm-24.077,0V453.8H199.695v22.445Zm-24.076,0V453.8H175.618v22.445Zm-24.077,0V453.8H151.541v22.445Zm-24.077,0V453.8H127.464v22.445Zm-24.077,0V453.8H103.388v22.445Zm-24.077,0V453.8H79.311v22.445Zm-24.077,0V453.8H55.234v22.445ZM511.274,452.4V429.952H488.613V452.4Zm-24.077,0V429.952H464.536V452.4Zm-24.077,0V429.952H440.461V452.4Zm-24.077,0V429.952H416.384V452.4Zm-24.076,0V429.952H392.307V452.4Zm-24.077,0V429.952H368.231V452.4Zm-24.077,0V429.952H344.154V452.4Zm-24.077,0V429.952H320.077V452.4Zm-24.077,0V429.952H296V452.4Zm-24.077,0V429.952H271.924V452.4Zm-24.077,0V429.952H247.847V452.4Zm-24.077,0V429.952H223.771V452.4Zm-24.077,0V429.952H199.695V452.4Zm-24.076,0V429.952H175.618V452.4Zm-24.077,0V429.952H151.541V452.4Zm-24.077,0V429.952H127.464V452.4Zm-24.077,0V429.952H103.388V452.4Zm-24.077,0V429.952H79.311V452.4Zm-24.077,0V429.952H55.234V452.4Zm433.379-23.847V406.1H488.613v22.443Zm-24.077,0V406.1H464.536v22.443Zm-24.077,0V406.1H440.461v22.443Zm-24.077,0V406.1H416.384v22.443Zm-24.076,0V406.1H392.307v22.443Zm-24.077,0V406.1H368.231v22.443Zm-24.077,0V406.1H344.154v22.443Zm-24.077,0V406.1H320.077v22.443Zm-24.077,0V406.1H296v22.443Zm-24.077,0V406.1H271.924v22.443Zm-24.077,0V406.1H247.847v22.443Zm-24.077,0V406.1H223.771v22.443Zm-24.077,0V406.1H199.695v22.443Zm-24.076,0V406.1H175.618v22.443Zm-24.077,0V406.1H151.541v22.443Zm-24.077,0V406.1H127.464v22.443Zm-24.077,0V406.1H103.388v22.443Zm-24.077,0V406.1H79.311v22.443Zm-24.077,0V406.1H55.234v22.443ZM511.274,404.7V382.257H488.613V404.7Zm-24.077,0V382.257H464.536V404.7Zm-24.077,0V382.257H440.461V404.7Zm-24.077,0V382.257H416.384V404.7Zm-24.076,0V382.257H392.307V404.7Zm-24.077,0V382.257H368.231V404.7Zm-24.077,0V382.257H344.154V404.7Zm-24.077,0V382.257H320.077V404.7Zm-24.077,0V382.257H296V404.7Zm-24.077,0V382.257H271.924V404.7Zm-24.077,0V382.257H247.847V404.7Zm-24.077,0V382.257H223.771V404.7Zm-24.077,0V382.257H199.695V404.7Zm-24.076,0V382.257H175.618V404.7Zm-24.077,0V382.257H151.541V404.7Zm-24.077,0V382.257H127.464V404.7Zm-24.077,0V382.257H103.388V404.7Zm-24.077,0V382.257H79.311V404.7Zm-24.077,0V382.257H55.234V404.7Zm433.379-23.847V358.41H488.613v22.445Zm-24.077,0V358.41H464.536v22.445Zm-24.077,0V358.41H440.461v22.445Zm-24.077,0V358.41H416.384v22.445Zm-24.076,0V358.41H392.307v22.445Zm-24.077,0V358.41H368.231v22.445Zm-24.077,0V358.41H344.154v22.445Zm-24.077,0V358.41H320.077v22.445Zm-24.077,0V358.41H296v22.445Zm-24.077,0V358.41H271.924v22.445Zm-24.077,0V358.41H247.847v22.445Zm-24.077,0V358.41H223.771v22.445Zm-24.077,0V358.41H199.695v22.445Zm-24.076,0V358.41H175.618v22.445Zm-24.077,0V358.41H151.541v22.445Zm-24.077,0V358.41H127.464v22.445Zm-24.077,0V358.41H103.388v22.445Zm-24.077,0V358.41H79.311v22.445Zm-24.077,0V358.41H55.234v22.445Zm433.379-23.847V334.562H488.613v22.445Zm-24.077,0V334.562H464.536v22.445Zm-24.077,0V334.562H440.461v22.445Zm-24.077,0V334.562H416.384v22.445Zm-24.076,0V334.562H392.307v22.445Zm-24.077,0V334.562H368.231v22.445Zm-24.077,0V334.562H344.154v22.445Zm-24.077,0V334.562H320.077v22.445Zm-24.077,0V334.562H296v22.445Zm-24.077,0V334.562H271.924v22.445Zm-24.077,0V334.562H247.847v22.445Zm-24.077,0V334.562H223.771v22.445Zm-24.077,0V334.562H199.695v22.445Zm-24.076,0V334.562H175.618v22.445Zm-24.077,0V334.562H151.541v22.445Zm-24.077,0V334.562H127.464v22.445Zm-24.077,0V334.562H103.388v22.445Zm-24.077,0V334.562H79.311v22.445Zm-24.077,0V334.562H55.234v22.445ZM511.274,333.16V310.715H488.613V333.16Zm-24.077,0V310.715H464.536V333.16Zm-24.077,0V310.715H440.461V333.16Zm-24.077,0V310.715H416.384V333.16Zm-24.076,0V310.715H392.307V333.16Zm-24.077,0V310.715H368.231V333.16Zm-24.077,0V310.715H344.154V333.16Zm-24.077,0V310.715H320.077V333.16Zm-24.077,0V310.715H296V333.16Zm-24.077,0V310.715H271.924V333.16Zm-24.077,0V310.715H247.847V333.16Zm-24.077,0V310.715H223.771V333.16Zm-24.077,0V310.715H199.695V333.16Zm-24.076,0V310.715H175.618V333.16Zm-24.077,0V310.715H151.541V333.16Zm-24.077,0V310.715H127.464V333.16Zm-24.077,0V310.715H103.388V333.16Zm-24.077,0V310.715H79.311V333.16Zm-24.077,0V310.715H55.234V333.16Zm433.379-23.847V286.868H488.613v22.445Zm-24.077,0V286.868H464.536v22.445Zm-24.077,0V286.868H440.461v22.445Zm-24.077,0V286.868H416.384v22.445Zm-24.076,0V286.868H392.307v22.445Zm-24.077,0V286.868H368.231v22.445Zm-24.077,0V286.868H344.154v22.445Zm-24.077,0V286.868H320.077v22.445Zm-24.077,0V286.868H296v22.445Zm-24.077,0V286.868H271.924v22.445Zm-24.077,0V286.868H247.847v22.445Zm-24.077,0V286.868H223.771v22.445Zm-24.077,0V286.868H199.695v22.445Zm-24.076,0V286.868H175.618v22.445Zm-24.077,0V286.868H151.541v22.445Zm-24.077,0V286.868H127.464v22.445Zm-24.077,0V286.868H103.388v22.445Zm-24.077,0V286.868H79.311v22.445Zm-24.077,0V286.868H55.234v22.445Zm433.379-23.847V263.02H488.613v22.445Zm-24.077,0V263.02H464.536v22.445Zm-24.077,0V263.02H440.461v22.445Zm-24.077,0V263.02H416.384v22.445Zm-24.076,0V263.02H392.307v22.445Zm-24.077,0V263.02H368.231v22.445Zm-24.077,0V263.02H344.154v22.445Zm-24.077,0V263.02H320.077v22.445Zm-24.077,0V263.02H296v22.445Zm-24.077,0V263.02H271.924v22.445Zm-24.077,0V263.02H247.847v22.445Zm-24.077,0V263.02H223.771v22.445Zm-24.077,0V263.02H199.695v22.445Zm-24.076,0V263.02H175.618v22.445Zm-24.077,0V263.02H151.541v22.445Zm-24.077,0V263.02H127.464v22.445Zm-24.077,0V263.02H103.388v22.445Zm-24.077,0V263.02H79.311v22.445Zm-24.077,0V263.02H55.234v22.445Zm433.379-23.847V239.173H488.613v22.445Zm-24.077,0V239.173H464.536v22.445Zm-24.077,0V239.173H440.461v22.445Zm-24.077,0V239.173H416.384v22.445Zm-24.076,0V239.173H392.307v22.445Zm-24.077,0V239.173H368.231v22.445Zm-24.077,0V239.173H344.154v22.445Zm-24.077,0V239.173H320.077v22.445Zm-24.077,0V239.173H296v22.445Zm-24.077,0V239.173H271.924v22.445Zm-24.077,0V239.173H247.847v22.445Zm-24.077,0V239.173H223.771v22.445Zm-24.077,0V239.173H199.695v22.445Zm-24.076,0V239.173H175.618v22.445Zm-24.077,0V239.173H151.541v22.445Zm-24.077,0V239.173H127.464v22.445Zm-24.077,0V239.173H103.388v22.445Zm-24.077,0V239.173H79.311v22.445Zm-24.077,0V239.173H55.234v22.445ZM511.274,237.77V215.327H488.613V237.77Zm-24.077,0V215.327H464.536V237.77Zm-24.077,0V215.327H440.461V237.77Zm-24.077,0V215.327H416.384V237.77Zm-24.076,0V215.327H392.307V237.77Zm-24.077,0V215.327H368.231V237.77Zm-24.077,0V215.327H344.154V237.77Zm-24.077,0V215.327H320.077V237.77Zm-24.077,0V215.327H296V237.77Zm-24.077,0V215.327H271.924V237.77Zm-24.077,0V215.327H247.847V237.77Zm-24.077,0V215.327H223.771V237.77Zm-24.077,0V215.327H199.695V237.77Zm-24.076,0V215.327H175.618V237.77Zm-24.077,0V215.327H151.541V237.77Zm-24.077,0V215.327H127.464V237.77Zm-24.077,0V215.327H103.388V237.77Zm-24.077,0V215.327H79.311V237.77Zm-24.077,0V215.327H55.234V237.77Zm433.379-23.847V191.48H488.613v22.443Zm-24.077,0V191.48H464.536v22.443Zm-24.077,0V191.48H440.461v22.443Zm-24.077,0V191.48H416.384v22.443Zm-24.076,0V191.48H392.307v22.443Zm-24.077,0V191.48H368.231v22.443Zm-24.077,0V191.48H344.154v22.443Zm-24.077,0V191.48H320.077v22.443Zm-24.077,0V191.48H296v22.443Zm-24.077,0V191.48H271.924v22.443Zm-24.077,0V191.48H247.847v22.443Zm-24.077,0V191.48H223.771v22.443Zm-24.077,0V191.48H199.695v22.443Zm-24.076,0V191.48H175.618v22.443Zm-24.077,0V191.48H151.541v22.443Zm-24.077,0V191.48H127.464v22.443Zm-24.077,0V191.48H103.388v22.443Zm-24.077,0V191.48H79.311v22.443Zm-24.077,0V191.48H55.234v22.443Zm433.379-23.846V167.632H488.613v22.445Zm-24.077,0V167.632H464.536v22.445Zm-24.077,0V167.632H440.461v22.445Zm-24.077,0V167.632H416.384v22.445Zm-24.076,0V167.632H392.307v22.445Zm-24.077,0V167.632H368.231v22.445Zm-24.077,0V167.632H344.154v22.445Zm-24.077,0V167.632H320.077v22.445Zm-24.077,0V167.632H296v22.445Zm-24.077,0V167.632H271.924v22.445Zm-24.077,0V167.632H247.847v22.445Zm-24.077,0V167.632H223.771v22.445Zm-24.077,0V167.632H199.695v22.445Zm-24.076,0V167.632H175.618v22.445Zm-24.077,0V167.632H151.541v22.445Zm-24.077,0V167.632H127.464v22.445Zm-24.077,0V167.632H103.388v22.445Zm-24.077,0V167.632H79.311v22.445Zm-24.077,0V167.632H55.234v22.445ZM511.274,166.23V143.785H488.613V166.23Zm-24.077,0V143.785H464.536V166.23Zm-24.077,0V143.785H440.461V166.23Zm-24.077,0V143.785H416.384V166.23Zm-24.076,0V143.785H392.307V166.23Zm-24.077,0V143.785H368.231V166.23Zm-24.077,0V143.785H344.154V166.23Zm-24.077,0V143.785H320.077V166.23Zm-24.077,0V143.785H296V166.23Zm-24.077,0V143.785H271.924V166.23Zm-24.077,0V143.785H247.847V166.23Zm-24.077,0V143.785H223.771V166.23Zm-24.077,0V143.785H199.695V166.23Zm-24.076,0V143.785H175.618V166.23Zm-24.077,0V143.785H151.541V166.23Zm-24.077,0V143.785H127.464V166.23Zm-24.077,0V143.785H103.388V166.23Zm-24.077,0V143.785H79.311V166.23Zm-24.077,0V143.785H55.234V166.23Zm433.379-23.847V119.937H488.613v22.445Zm-24.077,0V119.937H464.536v22.445Zm-24.077,0V119.937H440.461v22.445Zm-24.077,0V119.937H416.384v22.445Zm-24.076,0V119.937H392.307v22.445Zm-24.077,0V119.937H368.231v22.445Zm-24.077,0V119.937H344.154v22.445Zm-24.077,0V119.937H320.077v22.445Zm-24.077,0V119.937H296v22.445Zm-24.077,0V119.937H271.924v22.445Zm-24.077,0V119.937H247.847v22.445Zm-24.077,0V119.937H223.771v22.445Zm-24.077,0V119.937H199.695v22.445Zm-24.076,0V119.937H175.618v22.445Zm-24.077,0V119.937H151.541v22.445Zm-24.077,0V119.937H127.464v22.445Zm-24.077,0V119.937H103.388v22.445Zm-24.077,0V119.937H79.311v22.445Zm-24.077,0V119.937H55.234v22.445Zm433.379-23.847V96.09H488.613v22.445Zm-24.077,0V96.09H464.536v22.445Zm-24.077,0V96.09H440.461v22.445Zm-24.077,0V96.09H416.384v22.445Zm-24.076,0V96.09H392.307v22.445Zm-24.077,0V96.09H368.231v22.445Zm-24.077,0V96.09H344.154v22.445Zm-24.077,0V96.09H320.077v22.445Zm-24.077,0V96.09H296v22.445Zm-24.077,0V96.09H271.924v22.445Zm-24.077,0V96.09H247.847v22.445Zm-24.077,0V96.09H223.771v22.445Zm-24.077,0V96.09H199.695v22.445Zm-24.076,0V96.09H175.618v22.445Zm-24.077,0V96.09H151.541v22.445Zm-24.077,0V96.09H127.464v22.445Zm-24.077,0V96.09H103.388v22.445Zm-24.077,0V96.09H79.311v22.445Zm-24.077,0V96.09H55.234v22.445ZM511.274,94.687V72.243H488.613V94.687Zm-24.077,0V72.243H464.536V94.687Zm-24.077,0V72.243H440.461V94.687Zm-24.077,0V72.243H416.384V94.687Zm-24.076,0V72.243H392.307V94.687Zm-24.077,0V72.243H368.231V94.687Zm-24.077,0V72.243H344.154V94.687Zm-24.077,0V72.243H320.077V94.687Zm-24.077,0V72.243H296V94.687Zm-24.077,0V72.243H271.924V94.687Zm-24.077,0V72.243H247.847V94.687Zm-24.077,0V72.243H223.771V94.687Zm-24.077,0V72.243H199.695V94.687Zm-24.076,0V72.243H175.618V94.687Zm-24.077,0V72.243H151.541V94.687Zm-24.077,0V72.243H127.464V94.687Zm-24.077,0V72.243H103.388V94.687Zm-24.077,0V72.243H79.311V94.687Zm-24.077,0V72.243H55.234V94.687ZM511.274,70.84V48.4H488.613V70.84Zm-24.077,0V48.4H464.536V70.84Zm-24.077,0V48.4H440.461V70.84Zm-24.077,0V48.4H416.384V70.84Zm-24.076,0V48.4H392.307V70.84Zm-24.077,0V48.4H368.231V70.84Zm-24.077,0V48.4H344.154V70.84Zm-24.077,0V48.4H320.077V70.84Zm-24.077,0V48.4H296V70.84Zm-24.077,0V48.4H271.924V70.84Zm-24.077,0V48.4H247.847V70.84Zm-24.077,0V48.4H223.771V70.84Zm-24.077,0V48.4H199.695V70.84Zm-24.076,0V48.4H175.618V70.84Zm-24.077,0V48.4H151.541V70.84Zm-24.077,0V48.4H127.464V70.84Zm-24.077,0V48.4H103.388V70.84Zm-24.077,0V48.4H79.311V70.84Zm-24.077,0V48.4H55.234V70.84ZM511.274,46.993V24.548H488.613V46.993Zm-24.077,0V24.548H464.536V46.993Zm-24.077,0V24.548H440.461V46.993Zm-24.077,0V24.548H416.384V46.993Zm-24.076,0V24.548H392.307V46.993Zm-24.077,0V24.548H368.231V46.993Zm-24.077,0V24.548H344.154V46.993Zm-24.077,0V24.548H320.077V46.993Zm-24.077,0V24.548H296V46.993Zm-24.077,0V24.548H271.924V46.993Zm-24.077,0V24.548H247.847V46.993Zm-24.077,0V24.548H223.771V46.993Zm-24.077,0V24.548H199.695V46.993Zm-24.076,0V24.548H175.618V46.993Zm-24.077,0V24.548H151.541V46.993Zm-24.077,0V24.548H127.464V46.993Zm-24.077,0V24.548H103.388V46.993Zm-24.077,0V24.548H79.311V46.993Zm-24.077,0V24.548H55.234V46.993Z" transform="translate(222.479 37.595)" opacity="0.538" fill="url(#linear-gradient)"/>
    </g>
    <g id="Group_39507" data-name="Group 39507" transform="translate(-4655.269 7253.405)">
      <path id="Icon_weather-stars" data-name="Icon weather-stars" d="M25.492,29.026a23.172,23.172,0,0,0,16.185-7.412A23.08,23.08,0,0,0,48.333,5.076a23.08,23.08,0,0,0,6.655,16.538,23.4,23.4,0,0,0,16.235,7.412,23.369,23.369,0,0,0-11.546,3.58,24.229,24.229,0,0,0-8.319,8.723,23.71,23.71,0,0,0-3.025,11.748,23.2,23.2,0,0,0-6.655-16.588A23.021,23.021,0,0,0,25.492,29.026Z" transform="translate(365.776 343.519)" fill="url(#linear-gradient-2)"/>
      <path id="Path_56486" data-name="Path 56486" d="M74.373,127.744H32.317l-6.959,20.12H3.12L41.091,42.12H65.75l37.971,105.744H81.331ZM68.624,110.8,53.345,66.627,38.065,110.8Zm70.5-68.529V147.864H117.941V42.271Z" transform="translate(431.267 366.739)" fill="url(#linear-gradient-3)"/>
      <path id="Icon_weather-stars-2" data-name="Icon weather-stars" d="M25.492,27.916a22.1,22.1,0,0,0,15.435-7.068A22.011,22.011,0,0,0,47.275,5.076a22.011,22.011,0,0,0,6.347,15.772A22.317,22.317,0,0,0,69.1,27.916,22.286,22.286,0,0,0,58.094,31.33a23.107,23.107,0,0,0-7.934,8.319,22.611,22.611,0,0,0-2.885,11.2,22.122,22.122,0,0,0-6.347-15.82A21.954,21.954,0,0,0,25.492,27.916Z" transform="translate(583.507 534.519)" fill="#fff"/>
    </g>
  </g>
</svg>
