<svg xmlns="http://www.w3.org/2000/svg" xmlns:xlink="http://www.w3.org/1999/xlink" width="279.282" height="316.413" viewBox="0 0 279.282 316.413">
  <defs>
    <linearGradient id="linear-gradient" x1="-0.275" y1="1.326" x2="0.918" y2="0.149" gradientUnits="objectBoundingBox">
      <stop offset="0" stop-color="#0b66ec"/>
      <stop offset="1" stop-color="#b1d0ff"/>
    </linearGradient>
    <clipPath id="clip-path">
      <rect id="Rectangle_4792" data-name="Rectangle 4792" width="279.282" height="316.413" transform="translate(-10)" fill="none"/>
    </clipPath>
    <clipPath id="clip-path-2">
      <rect id="Rectangle_4798" data-name="Rectangle 4798" width="73.336" height="40" transform="translate(0 -5.293)" fill="none" stroke="#fff" stroke-width="1"/>
    </clipPath>
    <clipPath id="clip-path-3">
      <rect id="Rectangle_4797" data-name="Rectangle 4797" width="73.336" height="31.573" transform="translate(0 0)" fill="none" stroke="#fff" stroke-width="1"/>
    </clipPath>
    <clipPath id="clip-path-4">
      <rect id="Rectangle_4793" data-name="Rectangle 4793" width="22.614" height="0.989" transform="translate(0.018 0)" fill="none" stroke="#fff" stroke-width="1"/>
    </clipPath>
    <clipPath id="clip-path-5">
      <rect id="Rectangle_4794" data-name="Rectangle 4794" width="72.744" height="3.389" fill="none" stroke="#fff" stroke-width="2"/>
    </clipPath>
    <clipPath id="clip-path-6">
      <rect id="Rectangle_4795" data-name="Rectangle 4795" width="62.433" height="0.993" transform="translate(10.903 22.713)" fill="none" stroke="#fff" stroke-width="2"/>
    </clipPath>
    <clipPath id="clip-path-7">
      <rect id="Rectangle_4796" data-name="Rectangle 4796" width="27.022" height="0.646" transform="translate(19.674 30.927)" fill="none" stroke="#fff" stroke-width="1"/>
    </clipPath>
    <clipPath id="clip-path-8">
      <rect id="Rectangle_4804" data-name="Rectangle 4804" width="71.604" height="95.098" fill="none" stroke="#f9a3b7" stroke-width="1"/>
    </clipPath>
    <clipPath id="clip-path-9">
      <rect id="Rectangle_4801" data-name="Rectangle 4801" width="71.604" height="95.098" transform="translate(0 0)" fill="none" stroke="#f9a3b7" stroke-width="1"/>
    </clipPath>
    <clipPath id="clip-path-10">
      <rect id="Rectangle_4799" data-name="Rectangle 4799" width="71.604" height="93.167" fill="none" stroke="#f9a3b7" stroke-width="1"/>
    </clipPath>
    <clipPath id="clip-path-11">
      <rect id="Rectangle_4800" data-name="Rectangle 4800" width="58.761" height="88.595" transform="translate(6.623 6.503)" fill="none" stroke="#f9a3b7" stroke-width="1"/>
    </clipPath>
    <clipPath id="clip-path-13">
      <rect id="Rectangle_4802" data-name="Rectangle 4802" width="47.853" height="77.509" transform="translate(12.022 11.98)" fill="none" stroke="#f9a3b7" stroke-width="1"/>
    </clipPath>
    <clipPath id="clip-path-14">
      <rect id="Rectangle_4805" data-name="Rectangle 4805" width="68.551" height="103.153" transform="translate(0 0)" fill="none"/>
    </clipPath>
    <radialGradient id="radial-gradient" cx="0.129" cy="0.907" r="1.615" gradientTransform="matrix(0.999, 0.053, -0.065, 1.209, 0.059, -0.196)" gradientUnits="objectBoundingBox">
      <stop offset="0" stop-color="#e35c7c" stop-opacity="0.059"/>
      <stop offset="1" stop-color="#e35c7c"/>
    </radialGradient>
    <radialGradient id="radial-gradient-2" cx="0.129" cy="0.819" r="0.976" gradientTransform="matrix(1, -0.029, 0.077, 2.669, -0.063, -1.363)" gradientUnits="objectBoundingBox">
      <stop offset="0" stop-color="#0b66ec"/>
      <stop offset="1" stop-color="#91bdff"/>
    </radialGradient>
    <clipPath id="clip-path-15">
      <rect id="Rectangle_4806" data-name="Rectangle 4806" width="68.551" height="98.153" transform="translate(0 0)" fill="none"/>
    </clipPath>
    <radialGradient id="radial-gradient-3" cx="0.143" cy="0.86" r="1.551" gradientTransform="matrix(0.566, -0.825, 0.71, 0.487, -0.549, 0.559)" xlink:href="#radial-gradient"/>
    <radialGradient id="radial-gradient-4" cx="0.302" cy="0.792" r="1.304" gradientTransform="matrix(0.41, -0.912, 0.692, 0.311, -0.511, 0.723)" gradientUnits="objectBoundingBox">
      <stop offset="0" stop-color="#e35c7c" stop-opacity="0"/>
      <stop offset="1" stop-color="#e35c7c"/>
    </radialGradient>
  </defs>
  <g id="Group_37635" data-name="Group 37635" transform="translate(10)">
    <path id="Path_36981" data-name="Path 36981" d="M81.088,160.389l3.763,2.775,3,3.531,3.145,3.4,3.715,3-1.324,1.277-4.952,1.7-5.154.641-4.9-1.724-4.019-3.152-3.757-3.762-3.858-3.977.4,5.576-.123,5.254.157,5.258.007,5.259-.457,5.256-.326,5.261.236,5.264-.069,5.5,5.452-.373,5.21-.218,5.211.049,5.212.5,5.211.118,5.212-.717,5.213.241,5.213.28,5.207-.466,5.212.331,5.209.1,5.211-.1,5.214.341,5.214-.632,5.214.285,5.215.022,5.213-.412,5.216.228,5.221.171,5.085-.127.2-4.951-.094-5.087-.122-5.089-.265-5.088.6-5.09-.432-5.089.47-5.09.1-5.09-.067-5.09-.622-5.085-.029-5.09.232-5.087.48-5.089-.059-5.091-.2-5.092-.424-5.091.267-5.093-.228-5.09.37-5.095-.447-5.1.27-4.963-5.077-.383-5.211.381-5.211.077-5.212.084-5.211-.237-5.212.252-5.213-.412-5.213-.165-5.207-.062-5.212.009-5.209.406-5.211-.336-5.214.292-5.214-.366-5.214.749-5.215-.181-5.212-.588-5.217.614-5.221-.221-5.271-.095,0,5.574.472,5.524-.524,5.529-.141,5.533.42,5.462,3.416,3.355,3.09,3.808,4.067,2.8,3.05,3.84,3.886,2.989L87.56,147.8,91,151.253l3.49,3.409,4.173,3.046-2.746,1.937-4.448,2.249-4.937-.058-4.841-1.159.231-.393" fill="url(#linear-gradient)"/>
    <path id="Path_36982" data-name="Path 36982" d="M81.088,160.389l3.763,2.775,3,3.531,3.145,3.4,3.715,3-1.324,1.277-4.952,1.7-5.154.641-4.9-1.724-4.019-3.152-3.757-3.762-3.858-3.977.4,5.576-.123,5.254.157,5.258.007,5.259-.457,5.256-.326,5.261.236,5.264-.069,5.5,5.452-.373,5.21-.218,5.211.049,5.212.5,5.211.118,5.212-.717,5.213.241,5.213.28,5.207-.466,5.212.331,5.209.1,5.211-.1,5.214.341,5.214-.632,5.214.285,5.215.022,5.213-.412,5.216.228,5.221.171,5.085-.127.2-4.951-.094-5.087-.122-5.089-.265-5.088.6-5.09-.432-5.089.47-5.09.1-5.09-.067-5.09-.622-5.085-.029-5.09.232-5.087.48-5.089-.059-5.091-.2-5.092-.424-5.091.267-5.093-.228-5.09.37-5.095-.447-5.1.27-4.963-5.077-.383-5.211.381-5.211.077-5.212.084-5.211-.237-5.212.252-5.213-.412-5.213-.165-5.207-.062-5.212.009-5.209.406-5.211-.336-5.214.292-5.214-.366-5.214.749-5.215-.181-5.212-.588-5.217.614-5.221-.221-5.271-.095,0,5.574.472,5.524-.524,5.529-.141,5.533.42,5.462,3.416,3.355,3.09,3.808,4.067,2.8,3.05,3.84,3.886,2.989L87.56,147.8,91,151.253l3.49,3.409,4.173,3.046-2.746,1.937-4.448,2.249-4.937-.058-4.841-1.159.231-.393" fill="none" stroke="#f0f0f0" stroke-miterlimit="10" stroke-width="1"/>
    <path id="Path_36983" data-name="Path 36983" d="M188.807,266.025l2.949-3.14,2.985-3.039,2.885-3.173,2.286-3.634,1.981-3.814,1.6-4,.986-4.193.731-4.244.157-4.3-.488-4.531.471-4.53.1-4.53-.456-4.534.354-4.537-.313-4.538-.188-4.1-.4-4.107-1.169-3.956-1.165-3.965-1.667-3.794-2.453-3.343-2.174-3.528-2.836-3.019-3.289-2.509-3.1-2.733-3.58-2.07-3.7-1.853-3.91-1.353-4.033-.9-4.092-.495-4.111-.042-3.6-.332-4.134.14-4.084.651-4.069.809-3.823,1.612-3.669,1.887-3.724,1.829-3.151,2.7-3.159,2.665-2.7,3.132-2.447,3.322-2.252,3.469-1.874,3.7-1.057,4.012-1.007,3.99-.711,4.063.046,4.123-.238,4.531.145,4.53-.152,4.53.115,4.534-.338,4.538.511,4.537-.025,4.131.714,4.069.98,4.007,1.027,4.036,2.173,3.555,1.972,3.636,2.592,3.222" fill="#ffe3ec"/>
    <path id="Path_36984" data-name="Path 36984" d="M188.807,266.025l2.949-3.14,2.985-3.039,2.885-3.173,2.286-3.634,1.981-3.814,1.6-4,.986-4.193.731-4.244.157-4.3-.488-4.531.471-4.53.1-4.53-.456-4.534.354-4.537-.313-4.538-.188-4.1-.4-4.107-1.169-3.956-1.165-3.965-1.667-3.794-2.453-3.343-2.174-3.528-2.836-3.019-3.289-2.509-3.1-2.733-3.58-2.07-3.7-1.853-3.91-1.353-4.033-.9-4.092-.495-4.111-.042-3.6-.332-4.134.14-4.084.651-4.069.809-3.823,1.612-3.669,1.887-3.724,1.829-3.151,2.7-3.159,2.665-2.7,3.132-2.447,3.322-2.252,3.469-1.874,3.7-1.057,4.012-1.007,3.99-.711,4.063.046,4.123-.238,4.531.145,4.53-.152,4.53.115,4.534-.338,4.538.511,4.537-.025,4.131.714,4.069.98,4.007,1.027,4.036,2.173,3.555,1.972,3.636,2.592,3.222" fill="none" stroke="#e35d7c" stroke-miterlimit="10" stroke-width="2"/>
    <path id="Path_36985" data-name="Path 36985" d="M211.8,3.657l-2.991,2.974-3.09,2.883-2.6,3.326-2.947,3.02L197.6,19.219l-2.98,2.985-2.642,3.291-2.788,3.159-3.12,2.865-2.583,3.346-3.122,2.859-2.6,3.329-2.551,3.378-3.272,2.725-2.7,3.238-2.879,3.083-2.725,3.218-2.954,3.014-2.876,3.084-2.375,3.536-3.123,2.858-2.564,3.356-3.194,2.794-2.335,3.572L140.9,81.592l-2.783,3.17-2.568,3.361-3.07,2.912-2.7,3.245-2.891,3.074-2.923,3.049-2.642,3.3-2.929,3.036-2.574,3.362-3.126,2.865-2.836,3.128-2.69,3.269-2.581,3.367,1.7,3.9,4.151.464,4.154-.265,4.157-.145,4.152.478,4.156.043,4.154-.043,4.157-.661,4.154.647,4.157-.551,4.154.29,4.156-.008,4.15.319,4.156-.436,4.154-.009,4.155.272,4.155-.1,4.156.317,4.16-.564,4.157.4,4.157.124,4.157-.045,4.159-.393,4.16.555,4.165-.409,4.168.2,1.267-3.694,1.185-3.719.073-5.909-2.266-3.605-2.019-3.746-2.219-3.631-2.035-3.736-2.5-3.475-1.475-4.06-2.484-3.492-.579-3.961.328-4.008,2.534-3.167,3.147-2.5.149-.08-1.086-3.681.485-3.725,1.585-3.48,3.044-2.456.039.23,2.272,3.511,1.931,3.718,2.306,3.4,1.167-.874-.256-3.866.7-3.794,2.487-3.077.119-4.17L217.7,51.9l.388-4.161.21-4.167L217.77,39.4l.512-4.164-.51-4.174.3-4.168.329-4.168-.264-4.17-.056-4.17.419-4.169-.254-4.178.134-4.175L214.369.3Z" fill="none"/>
    <g id="Group_37634" data-name="Group 37634">
      <g id="Group_37633" data-name="Group 37633" clip-path="url(#clip-path)">
        <path id="Path_36986" data-name="Path 36986" d="M218.377,1.861,214.368.3,211.8,3.657,208.809,6.63l-3.09,2.885-2.6,3.325-2.946,3.02L197.6,19.219l-2.98,2.986-2.642,3.289-2.788,3.161-3.121,2.865-2.582,3.345-3.122,2.859-2.6,3.329-2.55,3.378-3.271,2.725-2.7,3.238-2.879,3.082-2.725,3.219-2.955,3.014-2.875,3.084-2.375,3.536-3.123,2.858-2.564,3.356-3.194,2.793-2.335,3.573L140.9,81.592l-2.783,3.17-2.568,3.361-3.071,2.913-2.7,3.244-2.891,3.074-2.923,3.049-2.642,3.3-2.929,3.037-2.573,3.362-3.127,2.865-2.837,3.128-2.689,3.269-2.581,3.367,1.7,3.9,4.151.464,4.155-.265,4.156-.145,4.152.478,4.155.044,4.155-.044,4.157-.66,4.153.646,4.158-.551,4.154.289,4.156-.007,4.15.319,4.156-.436,4.153-.009,4.156.272,4.155-.1,4.155.317,4.16-.564,4.157.4,4.158.125,4.157-.046,4.159-.393,4.159.554,4.166-.408,4.167.2,1.268-3.693,1.185-3.719.073-5.909-2.266-3.606-2.019-3.745-2.22-3.631-2.035-3.736-2.5-3.475-1.474-4.061-2.484-3.492-.58-3.96.329-4.008,2.534-3.167L203.16,74.4l.149-.08-1.086-3.681.485-3.725,1.585-3.48,3.044-2.456.039.23,2.272,3.511,1.931,3.717,2.306,3.407,1.167-.876-.256-3.865.7-3.794,2.488-3.077.118-4.17L217.7,51.9l.388-4.162.21-4.167-.533-4.17.513-4.164-.51-4.174.3-4.167.329-4.168-.264-4.171-.056-4.17.419-4.17-.254-4.177Z" fill="rgba(196,219,255,0.4)" stroke="#0b66ec" stroke-miterlimit="10" stroke-width="1"/>
        <g id="Group_37998" data-name="Group 37998" opacity="0.5">
          <path id="Path_36991" data-name="Path 36991" d="M163.291,281.494H202.13a15.457,15.457,0,0,0-13.623-15.55l-53.479-6.385a35.494,35.494,0,0,0-39.7,35.255l.007,21.261,43.887.087-.231-21.283" fill="#fff" stroke="#1a1818" stroke-miterlimit="10" stroke-width="0.5"/>
          <path id="Path_36993" data-name="Path 36993" d="M134.035,294.746l36.069.182a26.842,26.842,0,0,0,19.321-8.068l5.287-5.37" fill="#fff" stroke="#1a1818" stroke-miterlimit="10" stroke-width="0.5"/>
          <path id="Path_36994" data-name="Path 36994" d="M222.581,248.1l5.924-6.171a14.987,14.987,0,0,0-20.108.742l-7.064,6.912" fill="#fff" stroke="#1a1818" stroke-miterlimit="10" stroke-width="0.5"/>
          <line id="Line_1531" data-name="Line 1531" x1="3.325" y2="3.308" transform="translate(219.598 243.507)" fill="none" stroke="#1a1818" stroke-miterlimit="10" stroke-width="0.5"/>
          <path id="Path_36996" data-name="Path 36996" d="M196.339,278.775l-4.687-.167a3.636,3.636,0,0,0-3.559,3.052" fill="none" stroke="#1a1818" stroke-miterlimit="10" stroke-width="1"/>
          <path id="Path_56067" data-name="Path 56067" d="M200.708,275.33l24.609-25.147a15.314,15.314,0,0,0-20.781.593L188.908,266.07" fill="#fff" stroke="#1a1818" stroke-miterlimit="10" stroke-width="0.5"/>
          <path id="Path_56068" data-name="Path 56068" d="M220.527,250.519l-3.325,3.308a3.636,3.636,0,0,0-.2,4.684" fill="none" stroke="#1a1818" stroke-miterlimit="10" stroke-width="0.5"/>
        </g>
        <path id="Path_36997" data-name="Path 36997" d="M.251,213.573l.092-37.119a40,40,0,0,1,12.066-28.531l24.465-23.872a19.008,19.008,0,0,1,26.546,0l35.277,34.4s-3.942,4.634-9.433,4.546a12.5,12.5,0,0,1-6.992-1.889l12.56,12.8a14.848,14.848,0,0,1-20.158-1.216l-7.379-7.721-.08,5.347s-13.851,14.526-19,18.084a18.813,18.813,0,0,1-4.147,2.3l.04,22.82Z" fill="none"/>
        <path id="Path_36999" data-name="Path 36999" d="M43.879,142.047l17.508,17.508a8.782,8.782,0,0,1-.045,12.463l-.122.121a7.8,7.8,0,0,1-9.806.928" fill="none"/>
        <line id="Line_1532" data-name="Line 1532" x2="27.01" y2="27.264" transform="translate(55.606 134.208)" fill="#bee8fb"/>
        <path id="Path_37004" data-name="Path 37004" d="M245.644,155.532l13-42.19a18.21,18.21,0,0,0-1.57-14.357L234.888,59.938s-9.735,5.689-5.3,14.555" fill="none"/>
        <path id="Path_37005" data-name="Path 37005" d="M245.644,155.532l13-42.19a18.21,18.21,0,0,0-1.57-14.357L234.888,59.938s-9.735,5.689-5.3,14.555" fill="#fff" stroke="#656565" stroke-miterlimit="10" stroke-width="0.5"/>
        <path id="Path_37006" data-name="Path 37006" d="M245.364,102.311,219.125,56.3s-9.977,5.861-5.3,14.555" fill="#f7f7f7"/>
        <path id="Path_37007" data-name="Path 37007" d="M245.364,102.311,219.125,56.3s-9.977,5.861-5.3,14.555" fill="#fff" stroke="#656565" stroke-miterlimit="10" stroke-width="0.5"/>
        <path id="Path_37008" data-name="Path 37008" d="M201.335,72.791s-9.59,5.214-5.083,14.038l14.308,25.344a6.965,6.965,0,0,1,.518,5.945l-6.037,16.252-3.262-7.04-13.717-.07,2.045,13.334a51.181,51.181,0,0,0,16.579,30.991l31.971,28.558,30.258-28.478-21.933-20.223" fill="none"/>
        <path id="Path_37009" data-name="Path 37009" d="M201.335,72.791s-9.59,5.214-5.083,14.038l14.308,25.344a6.965,6.965,0,0,1,.518,5.945l-6.037,16.252-3.262-7.04-13.717-.07,2.045,13.334a51.181,51.181,0,0,0,16.579,30.991l31.971,28.558,30.258-28.478-21.933-20.223" fill="#fff" stroke="#1a1818" stroke-miterlimit="10" stroke-width="0.5"/>
        <path id="Path_37010" data-name="Path 37010" d="M234.824,65.526l2.052,3.823a3.364,3.364,0,0,0,4.1,1.42" fill="#f0f0f0"/>
        <path id="Path_37011" data-name="Path 37011" d="M234.824,65.526l2.052,3.823a3.364,3.364,0,0,0,4.1,1.42" fill="none" stroke="#1a1818" stroke-miterlimit="10" stroke-width="0.5"/>
        <path id="Path_37012" data-name="Path 37012" d="M218.777,61.216l2.052,3.823a3.364,3.364,0,0,0,4.1,1.42" fill="#f0f0f0"/>
        <path id="Path_37013" data-name="Path 37013" d="M218.777,61.216l2.052,3.823a3.364,3.364,0,0,0,4.1,1.42" fill="none" stroke="#1a1818" stroke-miterlimit="10" stroke-width="0.5"/>
        <path id="Path_37014" data-name="Path 37014" d="M200.378,77.259l2.052,3.823a3.363,3.363,0,0,0,4.1,1.42" fill="#fff"/>
        <path id="Path_37015" data-name="Path 37015" d="M200.378,77.259l2.052,3.823a3.363,3.363,0,0,0,4.1,1.42" fill="#f0f0f0" stroke="#1a1818" stroke-miterlimit="10" stroke-width="0.5"/>
        <path id="Path_37016" data-name="Path 37016" d="M233.361,104.993,207.674,59.874s-9.811,5.266-5.3,14.554l19.877,35.663" fill="#f7f7f7"/>
        <path id="Path_37017" data-name="Path 37017" d="M233.361,104.993,207.674,59.874s-9.811,5.266-5.3,14.554l19.877,35.663" fill="#fff" stroke="#656565" stroke-miterlimit="10" stroke-width="0.5"/>
        <path id="Path_37018" data-name="Path 37018" d="M206.69,63.92l2.052,3.823a3.364,3.364,0,0,0,4.1,1.42" fill="#f0f0f0"/>
        <path id="Path_37019" data-name="Path 37019" d="M206.69,63.92l2.052,3.823a3.364,3.364,0,0,0,4.1,1.42" fill="none" stroke="#1a1818" stroke-miterlimit="10" stroke-width="0.5"/>
        <g id="Group_37997" data-name="Group 37997">
          <path id="Path_36998" data-name="Path 36998" d="M.251,213.573l.092-37.119a40,40,0,0,1,12.066-28.531l24.465-23.872a19.008,19.008,0,0,1,26.546,0l35.277,34.4s-3.942,4.634-9.433,4.546a12.5,12.5,0,0,1-6.992-1.889l12.56,12.8a14.848,14.848,0,0,1-20.158-1.216l-7.379-7.721-.08,5.347s-13.851,14.526-19,18.084a18.813,18.813,0,0,1-4.147,2.3l.04,22.82Z" fill="#fff" stroke="#656565" stroke-miterlimit="10" stroke-width="0.5"/>
          <path id="Path_37000" data-name="Path 37000" d="M43.879,142.047l17.508,17.508a8.782,8.782,0,0,1-.045,12.463l-.122.121a7.8,7.8,0,0,1-9.806.928" fill="#fff" stroke="#656565" stroke-miterlimit="10" stroke-width="0.5"/>
          <path id="Path_37001" data-name="Path 37001" d="M34.027,150.825l14.248,14.156a10.166,10.166,0,0,1-.087,14.509,9.157,9.157,0,0,1-12.876-.123L23.577,167.543a6.1,6.1,0,0,1,2.449-1.865c6.736-3.847,12.673,1.865,12.673,1.865" fill="#fff" stroke="#656565" stroke-miterlimit="10" stroke-width="0.5"/>
          <line id="Line_1533" data-name="Line 1533" x2="27.01" y2="27.264" transform="translate(55.605 134.208)" fill="none" stroke="#656565" stroke-miterlimit="10" stroke-width="0.5"/>
          <path id="Path_37002" data-name="Path 37002" d="M93.713,158.166l-3.687-3.435A3.272,3.272,0,0,1,90,150.043" fill="#fff" stroke="#656565" stroke-miterlimit="10" stroke-width="0.5"/>
          <path id="Path_37003" data-name="Path 37003" d="M89.4,172.671l-3.687-3.435a3.273,3.273,0,0,1-.023-4.688" fill="#fff" stroke="#656565" stroke-miterlimit="10" stroke-width="0.5"/>
          <path id="Path_37032" data-name="Path 37032" d="M89.4,172.671l-3.687-3.435a3.273,3.273,0,0,1-.023-4.688" transform="matrix(-1, 0.017, -0.017, -1, 120.039, 338.674)" fill="#fff" stroke="#656565" stroke-miterlimit="10" stroke-width="0.5"/>
        </g>
      </g>
    </g>
    <g id="Group_37651" data-name="Group 37651" transform="translate(78 119)">
      <g id="Mask_Group_37650" data-name="Mask Group 37650" clip-path="url(#clip-path-2)">
        <g id="Group_37649" data-name="Group 37649">
          <g id="Group_37648" data-name="Group 37648" clip-path="url(#clip-path-3)">
            <g id="Group_37638" data-name="Group 37638" opacity="0.5">
              <g id="Group_37637" data-name="Group 37637">
                <g id="Group_37636" data-name="Group 37636" clip-path="url(#clip-path-4)">
                  <path id="Path_37020" data-name="Path 37020" d="M.024.739,5.67.6,11.322.54,16.974.274,22.63.25" fill="none" stroke="#fff" stroke-miterlimit="10" stroke-width="0.5"/>
                </g>
              </g>
            </g>
            <g id="Group_37641" data-name="Group 37641" opacity="0.5">
              <g id="Group_37640" data-name="Group 37640" transform="translate(0 -2.176)">
                <g id="Group_37639" data-name="Group 37639" transform="translate(0 11.99)" clip-path="url(#clip-path-5)">
                  <path id="Path_37021" data-name="Path 37021" d="M.023,13.565l5.193-1.324,5.192,1.287,5.187-1.206,5.191.385,5.189.371,5.191.634,5.193-.193,5.193.575,5.194-1.22,5.194,1.162,5.192-.006,5.2-.05,5.2.249,5.2-.888" transform="translate(0 -11.539)" fill="none" stroke="#fff" stroke-miterlimit="10" stroke-width="2"/>
                </g>
              </g>
            </g>
            <g id="Group_37644" data-name="Group 37644" opacity="0.5">
              <g id="Group_37643" data-name="Group 37643">
                <g id="Group_37642" data-name="Group 37642" clip-path="url(#clip-path-6)">
                  <path id="Path_37022" data-name="Path 37022" d="M10.9,23.42l5.2.035,5.2-.492,5.2.191,5.2.075,5.2,0,5.2.226,5.2-.3,5.2.148,5.2-.221,5.205-.038,5.209.067,5.209-.046" fill="none" stroke="#fff" stroke-miterlimit="10" stroke-width="2"/>
                </g>
              </g>
            </g>
            <g id="Group_37647" data-name="Group 37647" opacity="0.5">
              <g id="Group_37646" data-name="Group 37646">
                <g id="Group_37645" data-name="Group 37645" clip-path="url(#clip-path-7)">
                  <path id="Path_37023" data-name="Path 37023" d="M19.676,31.285l5.4-.041,5.4-.068,5.4.134,5.406-.1,5.407.116" fill="none" stroke="#fff" stroke-miterlimit="10" stroke-width="0.5"/>
                </g>
              </g>
            </g>
          </g>
        </g>
      </g>
    </g>
    <g id="Group_37667" data-name="Group 37667" transform="translate(127 169)">
      <g id="Group_37666" data-name="Group 37666" clip-path="url(#clip-path-8)">
        <g id="Group_37660" data-name="Group 37660">
          <g id="Group_37659" data-name="Group 37659" clip-path="url(#clip-path-9)">
            <g id="Group_37655" data-name="Group 37655" opacity="0.6">
              <g id="Group_37654" data-name="Group 37654">
                <g id="Group_37653" data-name="Group 37653" clip-path="url(#clip-path-10)">
                  <path id="Path_37024" data-name="Path 37024" d="M8.18,88.68,5.366,84.9l-1.9-4.309L1.446,76.3.683,71.631.264,66.926l.021-5.355.358-5.356L.25,50.861.42,45.5.284,40.141.35,34.779l.5-4.88.858-4.833,1.764-4.588,2.438-4.256,2.892-3.959,3.351-3.606,3.955-2.944,4.3-2.412,4.61-1.778,4.869-.8,4.9-.476,1.92.107,4.928.155,4.768,1.249,4.616,1.681,4.36,2.283,4.039,2.845,3.3,3.675,3.13,3.81,2.161,4.431,1.55,4.647,1.008,4.777.788,4.868-.164,5.355-.06,5.357.009,5.353L70.945,56.2l.277,5.362L71.1,66.926l-.141,4.894-.994,4.807-1.756,4.584-2.3,4.334-3.178,3.728L59.545,93" fill="none" stroke="#f9a3b7" stroke-miterlimit="10" stroke-width="0.5"/>
                </g>
              </g>
            </g>
            <g id="Group_37658" data-name="Group 37658" opacity="0.4">
              <g id="Group_37657" data-name="Group 37657">
                <g id="Group_37656" data-name="Group 37656" clip-path="url(#clip-path-11)">
                  <path id="Path_37025" data-name="Path 37025" d="M6.872,34.326,7.3,28.958l1.832-5.051,2.155-4.948,3.579-4.053,4.107-3.5,4.77-2.532,5.234-1.231,5.307-.892,3.175.162,5.374.394,5.144,1.625L52.639,11.6,56.9,14.88l3.384,4.192,2.457,4.78,1.613,5.123.693,5.351-.015,5.511.047,5.513.052,5.51-.241,5.514.124,5.519-.1,5.518L64.572,72.8l-1.757,5.11-2.509,4.764L56.946,86.9l-4.1,3.546-4.885,2.329-5.11,1.765-5.4.306-3.175-.165-4.513-.4-4.526-.716-4.131-2L17.33,89.013" fill="none" stroke="#f9a3b7" stroke-miterlimit="10" stroke-width="0.5"/>
                </g>
              </g>
            </g>
          </g>
        </g>
        <path id="Path_37026" data-name="Path 37026" d="M17.345,88.994l-3.628-3.388-2.883-4.037-2.27-4.414-1.285-4.8-.468-4.944" fill="none" stroke="#f9a3b7" stroke-miterlimit="10" stroke-width="0.5"/>
        <g id="Group_37665" data-name="Group 37665">
          <g id="Group_37664" data-name="Group 37664" clip-path="url(#clip-path-9)">
            <g id="Group_37663" data-name="Group 37663" opacity="0.2">
              <g id="Group_37662" data-name="Group 37662">
                <g id="Group_37661" data-name="Group 37661" clip-path="url(#clip-path-13)">
                  <path id="Path_37027" data-name="Path 37027" d="M12.271,35.865l.5-5.244,1.97-4.871L17.223,21.1l3.857-3.619L25.5,14.6l4.993-1.729,5.249-.289.176-.326,5.225.725,5.012,1.634,4.435,2.858,3.624,3.808,2.93,4.368,1.7,4.988.505,5.233L59.4,40.8l.15,4.936-.014,4.934.041,4.939.045,4.942-.21,4.941-.479,5.255L57.111,75.7l-2.682,4.556-3.858,3.612L46.131,86.7l-4.958,1.813-5.254.708L35.743,89" fill="none" stroke="#f9a3b7" stroke-miterlimit="10" stroke-width="0.5"/>
                </g>
              </g>
            </g>
          </g>
        </g>
      </g>
    </g>
    <g id="Group_37672" data-name="Group 37672" transform="translate(84.627 101.497)">
      <path id="Path_37028" data-name="Path 37028" d="M46.56,54.585l-5.07.054-4.954,1.079-4.81,1.55-4.772,1.758-4.4,2.58-3.988,3.179-3.3,3.88L11.83,72.409l-2.486,4.44L7.324,81.5,5.8,86.334l-.94,4.983L4.512,96.38l.04,1.218,5.331.165,5.344-.121,5.348.188,5.347-.151,5.348.187,5.348-.455,5.346.415,5.35-.171,5.353.248,5.392-.222.158-5.352.029-5.315L58.128,81.7l-.271-5.316.012-5.313.347-5.32-.357-5.321.3-5.354L54.125,54.4l-3.961-.061Z" transform="translate(26 6)" fill="#f8839e"/>
      <g id="Group_37669" data-name="Group 37669" transform="translate(26 6)">
        <g id="Group_37668" data-name="Group 37668" clip-path="url(#clip-path-14)">
          <path id="Path_37029" data-name="Path 37029" d="M58.059,97.681l.157-5.352.029-5.315L58.127,81.7l-.27-5.317.011-5.314.348-5.318-.357-5.322.3-5.354L54.125,54.4l-3.962-.06-3.6.246-5.069.054-4.954,1.079-4.81,1.55-4.772,1.758-4.4,2.58-3.988,3.179-3.295,3.88-3.444,3.744-2.485,4.44L7.324,81.5,5.8,86.334l-.942,4.983L4.512,96.38,4.551,97.6l5.332.164,5.345-.12,5.347.189,5.347-.152,5.347.187,5.349-.455,5.346.416,5.35-.173,5.353.249Z" stroke="#e35c7c" stroke-miterlimit="10" stroke-width="0.5" fill="url(#radial-gradient)"/>
        </g>
      </g>
      <path id="Path_37030" data-name="Path 37030" d="M59.52.535,55.253.917,50.985.727,46.717.486,42.448.908,38.18.462,33.912.668,29.641.442,25.366.734,21.077.552l-2.944,3.3L15.4,7.314l-3.068,3.165L9.456,13.814,6.469,17.056,3.357,20.195.3,23.381l2.02,4.531,4.107-.293,4.108.02,4.1-.15,4.105.244,4.1.139,4.109-.11,4.105.17,4.107.019,4.11-.039,4.109.03,4.11-.351,4.107.548,4.109-.246,4.113-.274,4.114.338,3.95-.182-.039-4.4.237-4.553-.2-4.554.275-4.558-.02-4.561L68.293.358,63.785.251Z" transform="translate(20 -3)" fill="url(#radial-gradient-2)"/>
      <g id="Group_37671" data-name="Group 37671" transform="translate(19 -4)">
        <g id="Group_37670" data-name="Group 37670" transform="translate(1 1)" clip-path="url(#clip-path-15)">
          <path id="Path_37031" data-name="Path 37031" d="M2.317,27.912l4.107-.293,4.108.02,4.1-.15,4.105.244,4.1.139,4.108-.111,4.1.171,4.108.019,4.109-.039,4.11.03,4.11-.351,4.107.548,4.109-.246,4.113-.274,4.115.338,3.949-.181-.039-4.4.237-4.554-.2-4.554.275-4.557-.02-4.562L68.293.357,63.785.25,59.52.535,55.253.917,50.985.727,46.716.486,42.447.908,38.18.463l-4.268.2L29.64.442,25.366.734,21.077.552l-2.944,3.3L15.4,7.314l-3.069,3.165L9.455,13.815,6.468,17.056,3.357,20.195.3,23.38Z" fill="none" stroke="#0b66ec" stroke-miterlimit="10" stroke-width="0.5"/>
        </g>
      </g>
    </g>
    <path id="Path_37033" data-name="Path 37033" d="M49.252,90.553l.131-4.472.024-4.441-.1-4.441-.226-4.443.009-4.44.291-4.443-.3-4.447.251-4.473-3.371-.564-3.31-.05-3.011.206-4.235.045-4.139.9-4.019,1.3-3.987,1.469-3.675,2.156-3.332,2.656L13.5,66.309l-2.878,3.128-2.076,3.71L6.861,77.033,5.592,81.072l-.787,4.163-.293,4.23.033,1.018L9,90.62l4.466-.1,4.468.158,4.468-.127,4.468.156,4.469-.38,4.467.348,4.47-.145,4.473.208Z" transform="translate(119.464 114.661)" stroke="#e35c7c" stroke-miterlimit="10" stroke-width="0.5" fill="url(#radial-gradient-3)"/>
    <path id="Path_37034" data-name="Path 37034" d="M41.183,84.021l.108-3.665.02-3.64-.081-3.64-.185-3.641.008-3.639.238-3.642-.244-3.645.206-3.667-2.763-.462-2.713-.041-2.468.168-3.471.037-3.393.739-3.294,1.061-3.268,1.2-3.012,1.767-2.731,2.177L11.881,64.15,9.523,66.714l-1.7,3.041L6.438,72.94,5.4,76.25l-.645,3.413-.24,3.467.027.834,3.652.112,3.66-.082,3.662.129,3.662-.1,3.662.128,3.663-.312,3.661.285L33.824,84l3.666.171Z" transform="translate(127.562 121.226)" stroke="#e35c7c" stroke-miterlimit="10" stroke-width="0.5" fill="url(#radial-gradient-4)"/>
  </g>
</svg>
