<?xml version="1.0" encoding="UTF-8"?>
<svg xmlns="http://www.w3.org/2000/svg" version="1.1" xmlns:xlink="http://www.w3.org/1999/xlink" viewBox="0 0 451.4 326">
  <defs>
    <style>
      .cls-1 {
        stroke-miterlimit: 4;
        stroke-width: .5px;
      }

      .cls-1, .cls-2, .cls-3 {
        fill: none;
      }

      .cls-1, .cls-4 {
        stroke: #ebebeb;
      }

      .cls-5 {
        stroke: #fff;
        stroke-miterlimit: 4;
        stroke-width: 2px;
      }

      .cls-6, .cls-4 {
        fill: #fff;
      }

      .cls-7 {
        fill: #e2e2e2;
      }

      .cls-8 {
        fill: url(#radial-gradient);
      }

      .cls-3 {
        stroke: #0586e8;
        stroke-width: 2px;
      }

      .cls-9 {
        clip-path: url(#clippath-1);
      }

      .cls-10 {
        fill: #0042f7;
      }

      .cls-11 {
        isolation: isolate;
      }

      .cls-4 {
        stroke-miterlimit: 4;
        stroke-width: .5px;
      }

      .cls-12 {
        fill: #1291e6;
      }

      .cls-13 {
        fill: #ffbd53;
      }

      .cls-14 {
        clip-path: url(#clippath);
      }
    </style>
    <radialGradient id="radial-gradient" cx="125.3" cy="263.3" fx="125.3" fy="263.3" r="1.8" gradientTransform="translate(-33732.4 7359.7) rotate(51) scale(234.6 -117.6) skewX(-12.6)" gradientUnits="userSpaceOnUse">
      <stop offset="0" stop-color="#0b66ec"/>
      <stop offset="1" stop-color="#f9c9ff" stop-opacity=".4"/>
    </radialGradient>
    <clipPath id="clippath">
      <rect class="cls-2" x="214.7" y="244.8" width="54.5" height="54.5" rx="14" ry="14" transform="translate(-64.6 468.4) rotate(-81)"/>
    </clipPath>
    <clipPath id="clippath-1">
      <rect class="cls-2" x="226.4" y="233.7" width="39.4" height="77.9" transform="translate(-61.7 473) rotate(-81)"/>
    </clipPath>
  </defs>
  <!-- Generator: Adobe Illustrator 28.6.0, SVG Export Plug-In . SVG Version: 1.2.0 Build 709)  -->
  <g>
    <g id="Layer_1">
      <path class="cls-8" d="M315.8,331.5H127.5V58.8c0-2.8.5-5.5,1.6-8.1,1-2.5,2.5-4.7,4.5-6.6,1.9-1.9,4.1-3.4,6.6-4.5,2.6-1.1,5.3-1.6,8.1-1.6h146.7c2.8,0,5.5.5,8.1,1.6,2.5,1,4.7,2.5,6.6,4.5,1.9,1.9,3.4,4.1,4.5,6.6,1.1,2.6,1.6,5.3,1.6,8.1v272.7Z"/>
      <path class="cls-7" d="M148.3,38.9c-2.7,0-5.3.5-7.7,1.6-2.4,1-4.5,2.4-6.3,4.2-1.8,1.8-3.2,3.9-4.2,6.3-1,2.4-1.6,5-1.6,7.7v271.7h186.3V58.8c0-2.7-.5-5.3-1.6-7.7-1-2.4-2.4-4.5-4.2-6.3-1.8-1.8-3.9-3.2-6.3-4.2-2.4-1-5-1.6-7.7-1.6h-146.7M148.3,36.9h146.7c12,0,21.8,9.8,21.8,21.8v273.7H126.5V58.8c0-12,9.8-21.8,21.8-21.8Z"/>
      <rect id="Rectangle_5465-2" class="cls-6" x="166.2" y="208.9" width="54.4" height="54.4" rx="14" ry="14" transform="translate(-76.9 94.3) rotate(-23)"/>
      <path id="Path_56490" class="cls-10" d="M198.2,225.4c-6.3-3.3-14.1-.8-17.4,5.5-3.3,6.3-.8,14.1,5.5,17.4s14.1.8,17.4-5.5c.4-.7.7-1.5.9-2.3l-6.4-15.1ZM195.2,243.7c-3.8,1.6-8.2-.2-9.8-4-1.6-3.8.2-8.2,4-9.8h0c3.8-1.6,8.2.2,9.8,4,1.6,3.8-.2,8.2-4,9.8h0Z"/>
      <path id="Path_56491" class="cls-10" d="M196.4,221l1.8,4.3c5.5,2.8,8.2,9.2,6.4,15.1l1.8,4.3,5-2.1-10.1-23.7-5,2.1Z"/>
      <path id="Path_56492" class="cls-12" d="M230.9,242.7l30.6,4.8c6.4,1,10.8,7,9.7,13.4l-4.8,30.6c-1,6.4-7,10.8-13.4,9.7l-30.6-4.8c-6.4-1-10.8-7-9.7-13.4l4.8-30.6c1-6.4,7-10.8,13.4-9.7Z"/>
      <g class="cls-14">
        <g class="cls-9">
          <g id="Mask_Group_37699">
            <image id="Untitled-4" class="cls-11" width="551" height="1715" transform="translate(238.1 143.7) rotate(9) scale(.1)" xlink:href="product-innovation-1.png"/>
          </g>
        </g>
      </g>
      <rect class="cls-2" x="117.9" y="28.4" width="206.9" height="321.3"/>
      <rect class="cls-3" x="118.9" y="29.4" width="204.9" height="319.3"/>
      <rect class="cls-6" x="113.4" y="23.7" width="9" height="9.5"/>
      <rect class="cls-3" x="114.4" y="24.7" width="7" height="7.5"/>
      <rect class="cls-6" x="320.3" y="23.7" width="9" height="9.5"/>
      <rect class="cls-3" x="321.3" y="24.7" width="7" height="7.5"/>
      <rect class="cls-6" x="216.8" y="23.7" width="9" height="9.5"/>
      <g id="Rectangle_5473-2">
        <path class="cls-6" d="M239.1,99.6l58.1-15.6c7.5-2,15.2,2.4,17.3,10h0c2,7.5-2.4,15.2-10,17.3l-58.1,15.6c-7.5,2-15.2-2.4-17.3-10h0c-2-7.5,2.4-15.2,10-17.3Z"/>
        <path class="cls-4" d="M239.1,99.8l58.1-15.6c7.4-2,15,2.4,17,9.8h0c2,7.4-2.4,15-9.8,17l-58.1,15.6c-7.4,2-15-2.4-17-9.8h0c-2-7.4,2.4-15,9.8-17Z"/>
      </g>
      <rect class="cls-3" x="217.8" y="24.7" width="7" height="7.5"/>
      <path id="Path_56495" d="M238.1,113.4c-.3-1-.2-2,.2-2.9.4-.8,1.2-1.4,2.1-1.6.6-.2,1.2-.2,1.8,0,.6.2,1.1.5,1.5,1,.4.5.7,1.1.9,1.7.2.6.2,1.3,0,2-.1.6-.4,1.2-.9,1.6-.4.4-1,.7-1.6.9-.6.2-1.3.2-1.9,0-.6-.2-1.1-.5-1.5-1-.4-.5-.7-1-.9-1.6ZM239,113.1c.2.7.6,1.4,1.2,1.8,1.1.7,2.6.3,3.3-.8,0,0,0,0,0,0,.3-.7.4-1.5.1-2.2-.1-.5-.4-1-.7-1.4-.3-.4-.7-.6-1.1-.8-.4-.1-.9-.1-1.3,0-.6.2-1.2.6-1.5,1.1-.4.8-.4,1.6-.1,2.4h0ZM246.8,114.6l-1.9-6.9.9-.3,5.1,4.5-1.5-5.4.9-.2,1.9,6.9-.9.3-5.1-4.5,1.5,5.4-.9.2ZM253.7,112.8l-1.9-6.9,2.6-.7c.4-.1.9-.2,1.3-.1.3,0,.7.2.9.4.2.2.4.5.5.8,0,.3,0,.6,0,.9-.1.3-.3.6-.6.8.4,0,.8.1,1.1.4.3.2.5.6.6,1,0,.3,0,.6,0,1,0,.3-.2.6-.3.8-.2.2-.4.4-.7.5-.3.2-.7.3-1.1.4l-2.6.7ZM253.6,108.5l1.5-.4c.3,0,.6-.2.8-.3.2-.1.3-.3.4-.5,0-.2,0-.4,0-.7,0-.2-.2-.4-.3-.6-.2-.1-.4-.2-.6-.2-.4,0-.7,0-1.1.2l-1.4.4.6,2.1ZM254.4,111.7l1.7-.5c.2,0,.4-.1.6-.2.2,0,.3-.2.5-.3.1-.1.2-.3.2-.5,0-.2,0-.4,0-.6,0-.2-.2-.5-.4-.6-.2-.2-.4-.2-.7-.3-.4,0-.7,0-1,.2l-1.6.4.6,2.4ZM259,107.7c-.3-1-.2-2,.2-2.9.4-.8,1.2-1.4,2.1-1.6.6-.2,1.2-.2,1.8,0,.6.2,1.1.5,1.5,1,.4.5.7,1.1.9,1.7.2.6.2,1.3,0,2-.1.6-.4,1.2-.9,1.6-.4.4-1,.7-1.6.9-.6.2-1.3.2-1.9,0-.6-.2-1.1-.5-1.5-1-.4-.5-.7-1-.9-1.6ZM260,107.5c.2.7.6,1.4,1.2,1.8,1.1.7,2.6.3,3.3-.8,0,0,0,0,0,0,.3-.7.4-1.5.1-2.2-.1-.5-.4-1-.7-1.4-.3-.4-.7-.6-1.1-.8-.4-.1-.9-.1-1.3,0-.6.2-1.2.6-1.5,1.1-.4.8-.4,1.6,0,2.4h0ZM266.9,109.2l.8-7.6,1-.3,4.7,6.2-1,.3-1.4-1.9-2.9.8-.2,2.3-1,.3ZM268.2,105.8l2.3-.6-1.2-1.7c-.4-.5-.7-1-.9-1.3,0,.5,0,.9,0,1.4l-.2,2.2ZM274.2,107.3l-1.9-6.9,3.1-.8c.5-.1,1-.2,1.5-.2.4,0,.7.2.9.5.3.3.5.6.6,1,.1.5,0,.9-.1,1.4-.3.5-.8.8-1.3,1,.2,0,.4.1.6.2.4.2.7.4,1,.7l1.7,1.6-1.2.3-1.3-1.2c-.4-.3-.7-.6-.9-.8-.2-.1-.4-.3-.6-.3-.2,0-.3,0-.5,0-.2,0-.3,0-.5.1l-1.1.3.8,3.1-.9.2ZM274,103.2l2-.5c.3,0,.7-.2.9-.4.2-.1.4-.3.4-.6,0-.2,0-.4,0-.7,0-.3-.3-.6-.6-.7-.4-.2-.8-.2-1.2,0l-2.2.6.6,2.3ZM281.1,105.4l-1.9-6.9,2.4-.6c.4-.1.8-.2,1.3-.2.4,0,.8,0,1.1.2.5.2.8.5,1.1,1,.3.5.6,1,.7,1.6.1.5.2,1,.2,1.4,0,.4,0,.8-.2,1.1-.1.3-.3.6-.5.8-.2.2-.5.4-.7.6-.3.2-.7.3-1.1.4l-2.5.7ZM281.8,104.4l1.5-.4c.4,0,.7-.2,1-.4.2-.1.4-.3.5-.5.2-.3.3-.7.3-1,0-.5,0-.9-.2-1.4-.1-.6-.4-1.1-.8-1.6-.3-.3-.7-.5-1.1-.5-.4,0-.8,0-1.2.2l-1.4.4,1.4,5.3ZM288.3,103.5l-1.9-6.9.9-.2,1.9,6.9-.9.2ZM290.8,102.8l-1.9-6.9.9-.3,5.1,4.5-1.5-5.4.9-.2,1.9,6.9-.9.3-5.1-4.5,1.5,5.4-.9.2ZM300.3,97.4l-.2-.8,2.9-.8.7,2.6c-.3.5-.7.9-1.2,1.2-.4.3-.9.5-1.4.7-.6.2-1.3.2-2,0-.6-.1-1.2-.5-1.6-.9-.4-.5-.8-1.1-.9-1.7-.2-.7-.2-1.3,0-2,.1-.6.4-1.2.9-1.6.5-.4,1.1-.8,1.7-.9.5-.1.9-.2,1.4-.1.4,0,.8.2,1.1.4.3.3.6.6.8,1l-.8.4c-.2-.3-.4-.5-.6-.7-.2-.2-.5-.3-.8-.3-.3,0-.7,0-1,0-.4,0-.7.3-1,.5-.3.2-.5.4-.6.7-.1.3-.2.5-.3.8,0,.5,0,1,.1,1.5.1.5.4,1,.7,1.5.3.3.7.6,1.2.7.5,0,.9,0,1.4,0,.4-.1.8-.3,1.1-.5.3-.2.5-.4.7-.7l-.3-1.3-2,.5Z"/>
      <g id="Rectangle_5474-2">
        <path class="cls-6" d="M162.2,125.2l56.2,15.8c7.3,2,11.5,9.6,9.5,16.9h0c-2,7.3-9.6,11.5-16.9,9.5l-56.2-15.8c-7.3-2-11.5-9.6-9.5-16.9h0c2-7.3,9.6-11.5,16.9-9.5Z"/>
        <path class="cls-1" d="M162.1,125.5l56.2,15.8c7.1,2,11.3,9.4,9.3,16.6h0c-2,7.1-9.4,11.3-16.6,9.3l-56.2-15.8c-7.1-2-11.3-9.4-9.3-16.6h0c2-7.1,9.4-11.3,16.6-9.3Z"/>
      </g>
      <path id="Path_56496" d="M153.8,136.5c.2-1,.8-1.9,1.7-2.4.8-.5,1.8-.6,2.7-.3.6.2,1.2.5,1.6.9.4.4.7,1,.8,1.6.1.7,0,1.3-.1,2-.2.7-.5,1.3-1,1.8-.4.5-1,.8-1.6.9-.6.1-1.2.1-1.8,0-.6-.2-1.2-.5-1.6-1-.4-.4-.7-1-.8-1.6-.1-.6,0-1.2,0-1.8ZM154.8,136.8c-.2.7-.2,1.5.1,2.2.6,1.2,2.1,1.6,3.3,1,0,0,0,0,0,0,.6-.4,1.1-1.1,1.3-1.9.2-.5.2-1,.1-1.5,0-.4-.3-.9-.6-1.2-.3-.3-.7-.6-1.1-.7-.6-.2-1.3-.1-1.9.2-.7.5-1.2,1.2-1.3,2h0ZM160.6,142.1l2-6.9.9.3,2.1,6.4,1.5-5.4.9.3-2,6.9-.9-.3-2.1-6.4-1.6,5.4-.9-.3ZM167.5,144.1l2-6.9,2.6.7c.4.1.8.3,1.2.6.3.2.5.5.6.9,0,.3.1.7,0,1,0,.3-.2.6-.5.8-.3.2-.6.4-.9.4.4.2.6.5.8.9.1.4.2.8,0,1.1,0,.3-.2.6-.5.8-.2.2-.4.4-.7.5-.3,0-.6.1-.9.1-.4,0-.8,0-1.1-.2l-2.6-.8ZM169.6,140.4l1.5.4c.3,0,.6.2.9.2.2,0,.4,0,.6-.2.2-.1.3-.3.3-.6,0-.2,0-.4,0-.6,0-.2-.2-.4-.4-.5-.3-.2-.7-.3-1-.4l-1.4-.4-.6,2.1ZM168.7,143.6l1.7.5c.2,0,.4.1.6.1.2,0,.4,0,.6,0,.2,0,.3-.2.5-.3.1-.2.2-.3.3-.5,0-.2,0-.5,0-.7,0-.2-.2-.4-.4-.6-.3-.2-.6-.3-1-.4l-1.6-.5-.7,2.4ZM174.7,142.5c.2-1,.8-1.9,1.7-2.4.8-.5,1.8-.6,2.7-.3.6.2,1.2.5,1.6.9.4.4.7,1,.8,1.6.1.7,0,1.3-.1,2-.2.7-.5,1.3-1,1.8-.4.5-1,.8-1.6.9-.6.1-1.2.1-1.8,0-.6-.2-1.2-.5-1.6-1-.4-.4-.7-1-.8-1.6-.1-.6,0-1.2,0-1.8h0ZM175.6,142.8c-.2.7-.2,1.5.1,2.2.6,1.2,2.1,1.6,3.3,1,0,0,0,0,0,0,.6-.4,1.1-1.1,1.3-1.9.2-.5.2-1,.1-1.5,0-.4-.2-.9-.5-1.2-.3-.3-.7-.6-1.1-.7-.6-.2-1.3-.1-1.9.2-.7.5-1.2,1.2-1.3,2h0ZM180.7,147.9l4.6-6.1,1,.3.8,7.7-1-.3-.2-2.3-2.9-.8-1.4,1.9-1-.3ZM183.5,145.6l2.3.7-.2-2.1c0-.6,0-1.2,0-1.6-.2.4-.5.8-.7,1.2l-1.3,1.8ZM187.9,149.9l2-6.9,3.1.9c.5.1.9.3,1.3.6.3.2.5.5.6.9.1.4,0,.8,0,1.1-.1.5-.4.9-.8,1.1-.5.3-1.1.3-1.6.2.2.1.3.3.5.5.2.4.4.7.5,1.1l.7,2.2-1.1-.3-.5-1.7c-.1-.5-.3-.9-.4-1.1,0-.2-.2-.4-.3-.6-.1-.1-.2-.2-.4-.3-.2,0-.3-.1-.5-.2l-1.1-.3-.9,3.1-.9-.3ZM189.9,146.4l2,.6c.3.1.7.2,1,.2.2,0,.5-.1.7-.3.2-.1.3-.3.4-.6,0-.3,0-.6-.1-.9-.3-.3-.6-.6-1-.6l-2.2-.6-.7,2.3ZM194.8,151.9l2-6.9,2.4.7c.4.1.8.3,1.2.4.3.2.6.5.9.8.3.4.4.9.5,1.4,0,.6,0,1.2-.2,1.7-.1.5-.3.9-.6,1.3-.2.3-.5.6-.8.9-.2.2-.5.3-.8.4-.3,0-.6.1-.9.1-.4,0-.8,0-1.1-.2l-2.5-.7ZM195.9,151.4l1.5.4c.4.1.7.2,1.1.2.3,0,.5,0,.7-.2.3-.2.6-.4.8-.7.3-.4.4-.8.6-1.3.2-.6.2-1.2.1-1.8,0-.4-.3-.8-.6-1-.3-.2-.7-.4-1.1-.5l-1.4-.4-1.5,5.3ZM201.9,154l2-6.9.9.3-2,6.9-.9-.3ZM204.4,154.7l2-6.9.9.3,2.1,6.4,1.5-5.4.9.3-2,6.9-.9-.3-2.1-6.4-1.6,5.4-.9-.2ZM215.4,154.9l.2-.8,2.9.8-.7,2.5c-.5.2-1.1.4-1.6.4-.5,0-1,0-1.5-.1-.6-.2-1.2-.5-1.7-1-.5-.4-.8-1-.9-1.6-.1-.7,0-1.3.1-2,.2-.7.5-1.3,1-1.8.4-.5,1-.8,1.6-.9.6-.1,1.3,0,1.9,0,.5.1.9.3,1.3.6.3.2.6.6.8.9.2.4.2.8.2,1.3h-.9c0-.3,0-.6-.1-.9-.1-.3-.3-.5-.5-.7-.3-.2-.6-.4-.9-.5-.4-.1-.8-.2-1.1-.1-.3,0-.6.1-.9.3-.2.1-.5.3-.6.6-.3.4-.5.8-.7,1.3-.2.5-.2,1.1-.1,1.6,0,.5.3.9.7,1.2.3.3.8.5,1.2.7.4.1.8.1,1.2.1.3,0,.7-.1,1-.2l.4-1.3-2-.6Z"/>
      <rect id="Rectangle_5475" x="196.2" y="43.7" width="50.3" height="14.2" rx="7.1" ry="7.1"/>
      <path id="Union_20" class="cls-5" d="M325.4,195.5l-1.9,9.9-12.9-23.2-1.4-1.3.9.4-.5-.9,1.4,1.3,24.1,11.2-9.7,2.6Z"/>
      <rect id="Rectangle_5466-2" class="cls-13" x="212.5" y="152.7" width="54.7" height="54.7" rx="14.1" ry="14.1" transform="translate(-38.4 68.2) rotate(-15)"/>
    </g>
  </g>
</svg>