<svg xmlns="http://www.w3.org/2000/svg" width="56" height="56" viewBox="0 0 56 56">
  <g id="Group_39447" data-name="Group 39447" transform="translate(-464 -1744)">
    <rect id="Rectangle_5448" data-name="Rectangle 5448" width="56" height="56" transform="translate(464 1744)" fill="none"/>
    <path id="Union_17" data-name="Union 17" d="M15570-4392.553v-2a13.911,13.911,0,0,1,4.1-9.9,14.1,14.1,0,0,1,3.063-2.327,14.042,14.042,0,0,1-3.063-2.323,13.906,13.906,0,0,1-4.1-9.9v-2h3.5v1.7a10.726,10.726,0,0,0,3.161,7.639,10.749,10.749,0,0,0,6.859,3.134l-.129-.012c.235-.008.431-.012.607-.012h2v.043h17.405l-6.182-6.167,2.444-2.445,10.335,10.335-10.335,10.334-2.444-2.448,6.182-6.167-17.4.051v.012h-2c-.114,0-.228,0-.341,0h-.056v0l-.2-.007a10.767,10.767,0,0,0-7.028,3.431,10.763,10.763,0,0,0-2.88,7.333v1.7Zm12.4-12.542-.084-.01Zm-.152-.018a13.889,13.889,0,0,1-4.231-1.224A13.732,13.732,0,0,0,15582.251-4405.113Zm-4.247-1.231-.132-.063Zm-.291-.142-.008,0Zm-.185-.095Z" transform="translate(-15098 6176.752)"/>
  </g>
</svg>
