<svg xmlns="http://www.w3.org/2000/svg" width="56" height="56" viewBox="0 0 56 56">
  <g id="Group_39451" data-name="Group 39451" transform="translate(-704 -1744)">
    <g id="Group_39446" data-name="Group 39446" transform="translate(320)">
      <rect id="Rectangle_5447" data-name="Rectangle 5447" width="56" height="56" transform="translate(384 1744)" fill="none"/>
    </g>
    <g id="Icon_awesome-heart" data-name="Icon awesome-heart" transform="translate(714.001 1753.753)" fill="none">
      <path d="M32.505,4.4a9.615,9.615,0,0,0-13.12.956L18,6.785,16.615,5.358A9.615,9.615,0,0,0,3.495,4.4,10.1,10.1,0,0,0,2.8,19.02L16.4,33.068a2.2,2.2,0,0,0,3.185,0L33.195,19.02A10.09,10.09,0,0,0,32.505,4.4Z" stroke="none"/>
      <path d="M 9.391359329223633 5.847665786743164 C 8.459140777587891 5.847665786743164 7.084470748901367 6.072145462036133 5.831630706787109 7.139806747436523 C 4.482980728149414 8.290885925292969 3.692821502685547 9.917135238647461 3.606731414794922 11.71897506713867 C 3.5211181640625 13.51047515869141 4.169639587402344 15.25914573669434 5.384469985961914 16.51504516601562 L 17.99647903442383 29.53768157958984 L 30.60921096801758 16.51431655883789 C 31.82722091674805 15.25736618041992 32.4771614074707 13.50939559936523 32.39239120483398 11.71860504150391 C 32.30712127685547 9.917215347290039 31.51728057861328 8.291105270385742 30.17045021057129 7.141586303710938 C 28.91553115844727 6.072145462036133 27.5421199798584 5.847665786743164 26.6109504699707 5.847665786743164 C 24.90316963195801 5.847665786743164 23.21171951293945 6.582315444946289 21.96862983703613 7.864946365356445 L 18 11.95442581176758 L 14.02721977233887 7.860666275024414 C 12.78984069824219 6.581375122070312 11.10013961791992 5.847665786743164 9.391359329223633 5.847665786743164 M 9.391365051269531 2.247665405273438 C 12.0125560760498 2.247665405273438 14.65460014343262 3.331188201904297 16.61483955383301 5.357816696166992 L 18 6.78515625 L 19.38516044616699 5.357816696166992 C 22.92187118530273 1.708595275878906 28.65233993530273 1.117969512939453 32.50547027587891 4.401565551757812 C 36.92108917236328 8.170316696166992 37.15312957763672 14.93437576293945 33.19453048706055 19.01953506469727 L 19.58905982971191 33.06796646118164 C 18.71016120910645 33.97500610351562 17.28281211853027 33.97500610351562 16.40390968322754 33.06796646118164 L 2.798439025878906 19.01953506469727 C -1.153129577636719 14.93437576293945 -0.9210891723632812 8.170316696166992 3.494529724121094 4.401565551757812 C 5.207790374755859 2.941543579101562 7.292739868164062 2.247665405273438 9.391365051269531 2.247665405273438 Z" stroke="none" fill="#000"/>
    </g>
  </g>
</svg>
