<?xml version="1.0" encoding="UTF-8"?>
<svg id="a" xmlns="http://www.w3.org/2000/svg" version="1.1" viewBox="0 0 230.8 61.3">
  <defs>
    <style>
      .cls-1 {
        fill: #f90;
      }

      .cls-1, .cls-2 {
        stroke-width: 0px;
      }

      .cls-2 {
        fill: #221f1f;
      }
    </style>
  </defs>
  <path id="b" class="cls-1" d="M139.5,48.2c-11.6,8.6-28.5,13.1-43,13.1s-38.6-7.5-52.5-20c-1.1-1-.1-2.3,1.2-1.6,15,8.7,33.4,13.9,52.5,13.9s27.1-2.7,40.1-8.2c2-.8,3.6,1.3,1.7,2.7"/>
  <path id="c" class="cls-1" d="M144.3,42.6c-1.5-1.9-9.8-.9-13.6-.5-1.1.1-1.3-.9-.3-1.6,6.6-4.7,17.5-3.3,18.8-1.8,1.3,1.6-.3,12.5-6.6,17.7-1,.8-1.9.4-1.4-.7,1.4-3.5,4.5-11.3,3-13.2"/>
  <path id="d" class="cls-2" d="M131,7.6V3c0-.7.5-1.1,1.1-1.1h20.3c.7,0,1.2.5,1.2,1.1v3.9c0,.7-.6,1.5-1.5,2.9l-10.5,15.1c3.9,0,8.1.5,11.6,2.5.8.5,1,1.1,1.1,1.8v4.9c0,.7-.7,1.4-1.5,1-6.3-3.3-14.6-3.6-21.5,0-.7.4-1.4-.4-1.4-1v-4.6c0-.7,0-2,.8-3.1l12.2-17.5h-10.6c-.7,0-1.2-.5-1.2-1.1"/>
  <path id="e" class="cls-2" d="M56.8,36h-6.2c-.6,0-1.1-.5-1.1-1V3.1c0-.6.5-1.1,1.2-1.1h5.8c.6,0,1.1.5,1.1,1.1v4.1h.1c1.5-4,4.3-5.9,8.1-5.9s6.3,1.9,8,5.9c1.5-4,4.9-5.9,8.6-5.9s5.4,1.1,7.2,3.5c2,2.7,1.6,6.6,1.6,10v20.1c0,.6-.5,1.1-1.2,1.1h-6.2c-.6,0-1.1-.5-1.1-1.1v-16.8c0-1.3.1-4.7-.2-6-.5-2.1-1.9-2.7-3.6-2.7s-3.1,1-3.7,2.6c-.6,1.6-.6,4.3-.6,6.1v16.8c0,.6-.5,1.1-1.2,1.1h-6.2c-.6,0-1.1-.5-1.1-1.1v-16.8c0-3.5.6-8.8-3.8-8.8s-4.3,5.1-4.3,8.8v16.8c0,.6-.5,1.1-1.2,1.1"/>
  <path id="f" class="cls-2" d="M171.2,1.3c9.2,0,14.1,7.9,14.1,17.9s-5.5,17.4-14.1,17.4-13.9-7.9-13.9-17.7,5-17.6,13.9-17.6M171.3,7.8c-4.6,0-4.9,6.2-4.9,10.1s0,12.2,4.8,12.2,5-6.7,5-10.8-.1-5.9-.9-8.4c-.7-2.2-2.1-3.1-4-3.1"/>
  <path id="g" class="cls-2" d="M197.3,36h-6.2c-.6,0-1.1-.5-1.1-1.1V3c0-.6.6-1,1.2-1h5.7c.5,0,1,.4,1.1.9v4.9h.1c1.7-4.3,4.2-6.4,8.4-6.4s5.5,1,7.2,3.7c1.6,2.5,1.6,6.8,1.6,9.9v20c0,.6-.6,1-1.2,1h-6.2c-.6,0-1-.5-1.1-1v-17.2c0-3.5.4-8.6-3.9-8.6s-2.9,1-3.6,2.5c-.9,2-1,3.9-1,6v17.1c0,.6-.5,1.1-1.2,1.1"/>
  <g id="h">
    <path id="i" class="cls-2" d="M114.8,20.8v-1.3c-4.5,0-9.2,1-9.2,6.2s1.4,4.5,3.8,4.5,3.3-1.1,4.3-2.8c1.2-2.1,1.1-4.1,1.1-6.6M121.1,35.9c-.4.4-1,.4-1.5.1-2-1.7-2.4-2.5-3.6-4.1-3.4,3.5-5.8,4.5-10.2,4.5s-9.3-3.2-9.3-9.6,2.7-8.4,6.6-10.1c3.4-1.5,8.1-1.7,11.6-2.1v-.8c0-1.5.1-3.2-.8-4.5-.8-1.1-2.2-1.6-3.5-1.6-2.4,0-4.5,1.2-5,3.7,0,.6-.5,1.1-1.1,1.1l-6-.6c-.5-.1-1.1-.5-.9-1.3,1.4-7.3,8-9.5,13.9-9.5s7,.8,9.3,3.1c3,2.8,2.7,6.6,2.7,10.7v9.6c0,2.9,1.2,4.2,2.3,5.7.4.6.5,1.2,0,1.6-1.3,1-3.5,3-4.8,4.1h0"/>
  </g>
  <path id="j" class="cls-2" d="M33.6,20.8v-1.3c-4.5,0-9.2,1-9.2,6.2s1.4,4.5,3.8,4.5,3.3-1.1,4.3-2.8c1.2-2.1,1.1-4.1,1.1-6.6M39.9,35.9c-.4.4-1,.4-1.5.1-2-1.7-2.4-2.5-3.6-4.1-3.4,3.5-5.8,4.5-10.2,4.5s-9.3-3.2-9.3-9.6,2.7-8.4,6.6-10.1c3.4-1.5,8.1-1.7,11.6-2.1v-.8c0-1.5.1-3.2-.8-4.5-.8-1.1-2.2-1.6-3.5-1.6-2.4,0-4.5,1.2-5,3.7,0,.6-.5,1.1-1.1,1.1l-6-.6c-.5-.1-1.1-.5-.9-1.3,1.4-7.3,8-9.5,13.9-9.5s7,.8,9.3,3.1c3,2.8,2.7,6.6,2.7,10.7v9.6c0,2.9,1.2,4.2,2.3,5.7.4.6.5,1.2,0,1.6-1.3,1-3.5,3-4.8,4.1h0"/>
</svg>