<?xml version="1.0" encoding="UTF-8"?><svg id="a" xmlns="http://www.w3.org/2000/svg" viewBox="0 0 322.96 66.24"><g id="b"><g id="c" isolation="isolate"><text transform="translate(77 48.06)" fill="#020202" font-family="ArialMT, Arial" font-size="56" isolation="isolate"><tspan x="0" y="0">approlabs</tspan></text></g></g><g id="d"><path id="e" d="M23.61,56.17C10.58,56.16.02,45.59,0,32.56.02,19.52,10.58,8.96,23.61,8.95c7.06,0,13.75,3.16,18.22,8.61v-8.59h9.92v47.17h-9.92v-8.59c-4.48,5.46-11.17,8.62-18.22,8.61ZM41.84,17.56v30c1.7-2.06,3.04-4.39,3.96-6.9.95-2.59,1.44-5.34,1.43-8.1,0-2.76-.48-5.51-1.43-8.1-.92-2.51-2.26-4.84-3.96-6.9ZM23.61,18.86c-7.56,0-13.69,6.14-13.7,13.7,0,7.56,6.14,13.69,13.7,13.7,7.56,0,13.69-6.14,13.7-13.7,0-7.56-6.14-13.69-13.7-13.7h0Z" fill="#0042f7" stroke-width="0"/></g></svg>