<?xml version="1.0" encoding="UTF-8"?>
<svg id="Layer_1" data-name="Layer 1" xmlns="http://www.w3.org/2000/svg" version="1.1" xmlns:xlink="http://www.w3.org/1999/xlink" viewBox="0 0 616.6 223">
  <defs>
    <style>
      .cls-1 {
        opacity: .6;
      }

      .cls-1, .cls-2, .cls-3, .cls-4, .cls-5, .cls-6, .cls-7, .cls-8, .cls-9 {
        stroke-width: 0px;
      }

      .cls-1, .cls-10, .cls-4, .cls-6, .cls-7, .cls-8 {
        isolation: isolate;
      }

      .cls-1, .cls-4, .cls-6, .cls-8 {
        fill: #f2582f;
      }

      .cls-2 {
        fill: url(#linear-gradient);
      }

      .cls-3 {
        fill: none;
      }

      .cls-11 {
        clip-path: url(#clippath-1);
      }

      .cls-12, .cls-4, .cls-7 {
        opacity: 1;
      }

      .cls-5, .cls-7 {
        fill: #8a1b23;
      }

      .cls-13 {
        clip-path: url(#clippath);
      }

      .cls-6 {
        opacity: .4;
      }

      .cls-8 {
        opacity: .2;
      }

      .cls-9 {
        fill: #fff;
      }
    </style>
    <clipPath id="clippath">
      <rect class="cls-3" x="25.7" y="67.7" width="96.4" height="106.3"/>
    </clipPath>
    <clipPath id="clippath-1">
      <rect class="cls-3" x="25.7" y="67.7" width="96.4" height="106.3"/>
    </clipPath>
    <linearGradient id="linear-gradient" x1="-611.5" y1="665.9" x2="-611.5" y2="665" gradientTransform="translate(10284.4 24073.7) scale(16.7 -36)" gradientUnits="userSpaceOnUse">
      <stop offset="0" stop-color="#fff"/>
      <stop offset="1" stop-color="#f2582f"/>
    </linearGradient>
  </defs>
  <g id="Group_14" data-name="Group 14">
    <g id="Group_6909" data-name="Group 6909">
      <path id="Rectangle_5748" data-name="Rectangle 5748" class="cls-5" d="M73.9,6.1h0c40.8,0,73.9,33.1,73.9,73.9v29.6c0,40.8-33.1,73.9-73.9,73.9h0C33.1,183.5,0,150.4,0,109.6v-29.6C0,39.2,33.1,6.1,73.9,6.1Z"/>
    </g>
    <g id="Group_6926" data-name="Group 6926">
      <g id="Group_6922" data-name="Group 6922" class="cls-12">
        <g id="Group_6929" data-name="Group 6929" class="cls-12">
          <path id="Ellipse_65" data-name="Ellipse 65" class="cls-4" d="M73.9,59.6c-10.6,0-19.2,8.6-19.2,19.3s8.6,19.2,19.3,19.2c10.6,0,19.2-8.6,19.2-19.3,0-10.6-8.6-19.2-19.3-19.2M73.9,51.9c14.9,0,26.9,12.1,26.9,26.9s-12.1,26.9-26.9,26.9-26.9-12.1-26.9-26.9h0c0-14.9,12.1-26.9,26.9-26.9Z"/>
          <path id="Ellipse_66" data-name="Ellipse 66" class="cls-1" d="M73.9,46.5c-17.9,0-32.3,14.5-32.3,32.3s14.5,32.3,32.3,32.3,32.3-14.5,32.3-32.3c0-17.9-14.5-32.3-32.3-32.3M73.9,40.3c21.3,0,38.5,17.2,38.5,38.5s-17.2,38.5-38.5,38.5-38.5-17.2-38.5-38.5,17.2-38.5,38.5-38.5Z"/>
          <path id="Ellipse_67" data-name="Ellipse 67" class="cls-6" d="M73.9,33.4c-25.1,0-45.4,20.3-45.4,45.4,0,12,4.8,23.6,13.3,32.1,17.8,17.7,46.6,17.6,64.2-.2,17.6-17.7,17.6-46.3,0-64-8.5-8.5-20.1-13.3-32.1-13.3M73.9,28.8c27.6,0,50,22.4,50,50s-22.4,50-50,50-50-22.4-50-50c0-27.6,22.4-50,50-50h0Z"/>
        </g>
        <path id="Ellipse_68" data-name="Ellipse 68" class="cls-8" d="M73.9,20.3c-32.3,0-58.5,26.2-58.5,58.5,0,15.5,6.2,30.4,17.1,41.4,22.9,22.9,59.9,22.9,82.8,0s22.9-59.9,0-82.8c-11-11-25.8-17.2-41.4-17.1M73.9,17.2c34,0,61.6,27.6,61.6,61.6s-27.6,61.6-61.6,61.6S12.3,112.8,12.3,78.8h0c0-34,27.6-61.6,61.6-61.6Z"/>
      </g>
      <g id="Group_6923" data-name="Group 6923" class="cls-12">
        <g id="Group_6920" data-name="Group 6920" class="cls-12">
          <g class="cls-13">
            <g id="Group_6919" data-name="Group 6919" class="cls-12">
              <path id="Path_55540" data-name="Path 55540" class="cls-4" d="M74.2,147.3c-13.6,11.5-32.9,13-48.1,3.8,21.5,26.5,60.5,30.6,87,9,3.2-2.6,6.2-5.6,8.8-8.8-15.2,8.9-34.3,7.3-47.7-4.1"/>
              <path id="Path_55541" data-name="Path 55541" class="cls-4" d="M83.3,137.9c-.4.6-.7,1.2-1.1,1.8,21.3.8,37.8,4.5,39.7,9.2.1-.3.2-.6.2-.9,0-5-16.7-9.1-38.8-10.1"/>
              <path id="Path_55542" data-name="Path 55542" class="cls-4" d="M59.3,114c0,12.2,5.3,23.7,14.6,31.6,17.4-14.8,19.6-40.8,4.9-58.3-1.5-1.8-3.1-3.4-4.9-4.9-9.3,7.9-14.7,19.4-14.6,31.6"/>
              <path id="Path_55543" data-name="Path 55543" class="cls-4" d="M64.5,137.9c.4.6.7,1.2,1.1,1.8-21.3.8-37.8,4.5-39.7,9.2-.1-.3-.2-.6-.2-.9,0-5,16.7-9.1,38.8-10.1"/>
              <path id="Path_55545" data-name="Path 55545" class="cls-7" d="M56.8,114c0,14.2,6.2,27.7,17.1,36.9,20.4-17.2,22.9-47.7,5.7-68-1.7-2-3.6-3.9-5.7-5.7-10.9,9.2-17.1,22.6-17.1,36.9"/>
            </g>
          </g>
        </g>
        <path id="Path_55544" data-name="Path 55544" class="cls-4" d="M65.7,122.7c0,6.9,3,13.5,8.3,18,9.9-8.4,11.2-23.3,2.8-33.2-.8-1-1.8-1.9-2.8-2.8-5.3,4.5-8.4,11.1-8.3,18"/>
      </g>
      <g id="Group_6924" data-name="Group 6924">
        <g id="Group_6920-2" data-name="Group 6920-2">
          <g class="cls-11">
            <g id="Group_6919-2" data-name="Group 6919-2">
              <path id="Path_55540-2" data-name="Path 55540-2" class="cls-9" d="M74.2,147.3c-13.6,11.5-32.9,13-48.1,3.8,21.5,26.5,60.5,30.6,87,9,3.2-2.6,6.2-5.6,8.8-8.8-15.2,8.9-34.3,7.3-47.7-4.1"/>
              <path id="Path_55541-2" data-name="Path 55541-2" class="cls-9" d="M83.3,137.9c-.4.6-.7,1.2-1.1,1.8,21.3.8,37.8,4.5,39.7,9.2.1-.3.2-.6.2-.9,0-5-16.7-9.1-38.8-10.1"/>
              <path id="Path_55542-2" data-name="Path 55542-2" class="cls-9" d="M60,115.4c0,11.6,5.1,22.7,14,30.2,16.7-14.1,18.8-39.1,4.6-55.8-1.4-1.7-3-3.2-4.6-4.6-8.9,7.5-14,18.6-14,30.2"/>
              <path id="Path_55543-2" data-name="Path 55543-2" class="cls-9" d="M64.5,137.9c.4.6.7,1.2,1.1,1.8-21.3.8-37.8,4.5-39.7,9.2-.1-.3-.2-.6-.2-.9,0-5,16.7-9.1,38.8-10.1"/>
            </g>
          </g>
        </g>
        <path id="Path_55544-2" data-name="Path 55544-2" class="cls-2" d="M65.7,122.7c0,6.9,3,13.5,8.3,18,9.9-8.4,11.2-23.3,2.8-33.2-.8-1-1.8-1.9-2.8-2.8-5.3,4.5-8.4,11.1-8.3,18"/>
      </g>
    </g>
  </g>
  <g class="cls-10">
    <path class="cls-5" d="M195.4,39V9.1h10.5c3.6,0,6.4.7,8.2,2.1s2.8,3.4,2.8,6.1-.4,2.8-1.1,3.9-1.8,1.9-3.1,2.5c1.5.4,2.7,1.2,3.6,2.3s1.3,2.6,1.3,4.3c0,2.9-.9,5-2.7,6.5s-4.4,2.2-7.8,2.3h-11.6ZM201.6,21.7h4.6c3.1,0,4.7-1.3,4.7-3.7s-.4-2.3-1.2-2.9c-.8-.6-2-.9-3.7-.9h-4.3v7.5ZM201.6,26v8.1h5.3c1.4,0,2.6-.3,3.4-1,.8-.7,1.2-1.6,1.2-2.9,0-2.7-1.4-4.1-4.2-4.2h-5.6Z"/>
    <path class="cls-5" d="M250.3,27.7c0-2.2.4-4.2,1.3-5.9s2.1-3.1,3.7-4,3.4-1.4,5.5-1.4c3,0,5.4.9,7.3,2.7s2.9,4.3,3.2,7.5v1.5c0,3.4-.9,6.1-2.8,8.2s-4.5,3.1-7.6,3.1-5.8-1-7.7-3.1-2.9-4.8-2.9-8.4v-.3ZM256.2,28.1c0,2.1.4,3.7,1.2,4.8s1.9,1.7,3.4,1.7,2.6-.6,3.4-1.7,1.2-2.9,1.2-5.3-.4-3.7-1.2-4.8c-.8-1.1-1.9-1.7-3.4-1.7s-2.6.6-3.4,1.7-1.2,2.9-1.2,5.2Z"/>
    <path class="cls-5" d="M303.5,27.7c0-2.2.4-4.2,1.3-5.9s2.1-3.1,3.7-4c1.6-.9,3.4-1.4,5.5-1.4,3,0,5.4.9,7.3,2.7,1.9,1.8,3,4.3,3.2,7.5v1.5c0,3.4-.9,6.1-2.8,8.2s-4.5,3.1-7.6,3.1-5.8-1-7.7-3.1-2.9-4.8-2.9-8.4v-.3ZM309.4,28.1c0,2.1.4,3.7,1.2,4.8s1.9,1.7,3.4,1.7,2.6-.6,3.4-1.7,1.2-2.9,1.2-5.3-.4-3.7-1.2-4.8c-.8-1.1-1.9-1.7-3.4-1.7s-2.6.6-3.4,1.7-1.2,2.9-1.2,5.2Z"/>
    <path class="cls-5" d="M365.6,30.1l-2.1,2.1v6.8h-5.9V7.5h5.9v17.5l1.1-1.5,5.7-6.7h7.1l-8,9.2,8.7,12.9h-6.8l-5.7-8.9Z"/>
    <path class="cls-5" d="M457.6,9.1l7.7,21.7,7.6-21.7h8.1v29.9h-6.2v-8.2l.6-14.1-8.1,22.3h-4.2l-8-22.2.6,14.1v8.2h-6.2V9.1h8Z"/>
    <path class="cls-5" d="M523.7,30.6l4.1-13.8h6.4l-8.9,25.6-.5,1.2c-1.3,2.9-3.5,4.3-6.6,4.3s-1.7-.1-2.6-.4v-4.5h.9c1.1,0,2-.2,2.5-.5s1-.9,1.3-1.7l.7-1.8-7.8-22.3h6.4l4.1,13.8Z"/>
  </g>
  <path id="Path_1" data-name="Path 1" class="cls-5" d="M227.5,160.3c.4-7.7.9-80.5,1.1-83.7,3.2-.7,6.4-1,9.6-1,18.1.7,19.2,16.5,19.2,23.5s-1.6,11.8-4.8,15.3c-3.1,3.5-7.6,5.4-12.3,5.3-.9,0-1.8,0-2.7-.3-1.1-.2-2.1-.5-3.2-.8l-1.6,1.7c1.3,2.2,17.1,8.8,30.5,1.7,5.3-2.7,9.7-7,12.6-12.2,2.7-4.9,4.1-10.5,4-16.1,0-5.8-1.4-10.5-4.2-14.1-2.5-3.4-6-6.1-10-7.5-3.9-1.4-9.2-2.1-15.9-2.1l-57,.2v6.4s6.4-2.8,9.9-.7c4,2.4,3.2,11.9,3.3,18.1,0,0,1.5,72.8-5.7,79.2-7.5,6.7-21.1.9-25.6,4v3.7c10.4-6.9,51.2,7.5,52.8-20.5"/>
  <path id="Path_2" data-name="Path 2" class="cls-5" d="M431.2,125.4c.1,3.7.2,7.9.2,12.5v42c0,.8-.1,5-.3,12.6,0,1.9,0,10.6-6.1,10.9-11.7.6-23.2-16.9-39.1-12.9-18.3,4.6-32.9,33.2-58.1,19.6-9.7-5.3-17.6-17.7-17.6-17.7l-17.8.4s10.2,16.9,23,23c15.2,7.2,32,5.3,54.9-13.4,18.4-15.1,34.1,9.5,50.6,8.7,2.2-.1,4.3-.6,6.3-1.4,2.5-1.1,4.8-2.5,7-4.2,2.3-1.7,4.3-3.7,6.1-5.9,2.3-2.9,4.1-6.2,5.2-9.7,1.2-4.5,1.7-9.2,1.6-13.9v-22.9c-.1,0-.1-19.5-.1-19.5,0-5.3.1-11,.4-14,0-1,.3-1.9.8-2.7.6-.6,1.3-.9,2.1-1,.7-.1,2.9,1.5,6.5,1.4v-4.7c-4.2.2-9.3.4-15.2.4-7,0-10.4,8.9-10.2,12.6"/>
  <path id="Path_3" data-name="Path 3" class="cls-5" d="M324.9,114.2c-17.2-7.3-36.9.8-44.2,17.9-7.3,17.2.8,36.9,17.9,44.2s36.9-.8,44.2-17.9c0,0,0,0,0,0,7.3-17.2-.8-36.9-17.9-44.2M299.8,173.6c-9.7-4.1-12.2-20.2-5.6-35.9s19.9-25.2,29.7-21,12.2,20.2,5.6,35.9-19.9,25.1-29.7,21"/>
  <path id="Path_5" data-name="Path 5" class="cls-5" d="M481.8,124.1c10.4-.3,15.2-8.1,20.8-7.5,8,.8,8,13.2,8,15.1.2,7.6.3,11.7.3,12.6v10.9c0,4.6,0,8.8-.2,12.5-.1,3.7,3.2,12.6,10.2,12.6s11,.1,15.2.4v-4.7c-3.7-.1-5.8,1.5-6.5,1.4-.8-.1-1.5-.5-2.1-1-.5-.8-.8-1.8-.8-2.7-.2-2.9-.4-8.7-.4-14v-14.7s3.4-37-44.5-31.1v10.4Z"/>
  <path id="Path_6" data-name="Path 6" class="cls-5" d="M514.8,141.7c-6.7-13.2-22.8-18.5-36.1-11.8-13.2,6.7-18.5,22.8-11.8,36.1,6.7,13.2,22.8,18.5,36.1,11.8,13.2-6.7,18.5-22.8,11.8-36.1,0,0,0,0,0,0M506.6,154.1c-.3,13.8-7.5,24.8-16.2,24.6s-15.3-11.5-15-25.3,7.5-24.8,16.2-24.6,15.3,11.5,15,25.3"/>
  <path id="Path_23" data-name="Path 23" class="cls-5" d="M401.9,113.6c-17.2-7.3-36.9.8-44.2,17.9-7.3,17.2.8,36.9,17.9,44.2s36.9-.8,44.2-17.9c0,0,0,0,0,0,7.3-17.2-.8-36.9-17.9-44.2M376.9,173c-9.7-4.1-12.2-20.2-5.6-35.9s19.9-25.2,29.7-21,12.2,20.2,5.6,35.9-19.9,25.1-29.7,21"/>
  <circle id="Ellipse_2" data-name="Ellipse 2" class="cls-5" cx="442.3" cy="96.3" r="7.6"/>
</svg>