<?xml version="1.0" encoding="UTF-8"?>
<svg id="Layer_1" xmlns="http://www.w3.org/2000/svg" version="1.1" viewBox="0 0 213.01 266.82">
  <!-- Generator: Adobe Illustrator 29.6.1, SVG Export Plug-In . SVG Version: 2.1.1 Build 9)  -->
  <defs>
    <style>
      .st0, .st1 {
        fill: #fff;
      }

      .st1, .st2 {
        fill-rule: evenodd;
      }

      .st3 {
        fill: #1c1c1c;
      }
    </style>
  </defs>
  <path class="st2" d="M0,0h213.01v249.76H0V0M4.79,4.79h202.74v152.74H4.79V4.79Z"/>
  <path class="st3" d="M0,249.01h212.99v17.81H0v-17.81Z"/>
  <path class="st2" d="M106.51,149.73c-28.1,0-51.03-22.71-51.03-50.56s22.92-50.55,51.03-50.55,51.03,22.71,51.03,50.55c0,27.85-22.92,50.56-51.03,50.56M105.82,152.05c-36.4,0-66.1-29.69-66.1-66.1S69.42,19.86,105.82,19.86s66.1,29.7,66.1,66.1-29.69,66.1-66.1,66.1Z"/>
  <path class="st2" d="M105.38,143.96c-24.46,0-44.41-19.81-44.41-44.11s19.95-44.1,44.41-44.1,44.4,19.81,44.4,44.1c0,24.3-19.95,44.11-44.4,44.11"/>
  <path class="st1" d="M88.79,114.57c9.23-.29,11.93-10.51,12.36-20.94.43-10.43,9.76-19.12,24.19-18.64-23.19-15.54-50.27-1.28-52.13,16.91-1.85,18.19,6.35,22.95,15.58,22.67"/>
  <path class="st1" d="M122.24,85.14c-9.07.29-11.73,10.51-12.15,20.94-.43,10.43-9.6,19.11-23.78,18.63,22.79,15.55,49.42,1.29,51.25-16.9s-6.24-22.96-15.31-22.67"/>
  <path class="st1" d="M52.68,183.01h1.3c.99,0,1.75-.19,2.28-.59.53-.39.79-.96.79-1.69s-.26-1.35-.79-1.74c-.53-.39-1.31-.6-2.31-.6h-1.26v4.62M52.68,187.75v4.9h1.61c1.05,0,1.85-.22,2.36-.63.52-.42.77-1.06.77-1.9s-.26-1.39-.77-1.79c-.51-.39-1.31-.58-2.36-.58h-1.61ZM43.29,197.9v-24.86h9.47c2.74,0,4.89.08,6.44.24s2.78.42,3.67.78c1.14.46,2.02,1.17,2.63,2.12.61.95.93,2.09.93,3.4,0,1.4-.4,2.54-1.19,3.43-.79.88-2,1.55-3.63,1.96,1.87.35,3.25,1,4.15,1.94.9.95,1.34,2.24,1.34,3.88,0,2.36-.87,4.14-2.62,5.32-1.75,1.19-4.36,1.79-7.83,1.79h-13.35ZM70.42,197.9v-24.86h8.38v10.23c.55-1.04,1.3-1.82,2.25-2.34.95-.52,2.09-.78,3.43-.78,2.01,0,3.5.56,4.46,1.69.97,1.13,1.46,2.87,1.46,5.22v10.84h-8.47v-10.74c0-.69-.12-1.2-.37-1.53-.25-.32-.65-.48-1.19-.48-.48,0-.87.17-1.15.52-.28.35-.42.82-.42,1.42v10.81h-8.38M94.44,185.57c.19-1.77,1.05-3.1,2.55-4.04,1.51-.93,3.58-1.39,6.25-1.39,1.6,0,3.02.14,4.25.43,1.23.29,2.22.7,2.96,1.23.72.5,1.26,1.22,1.56,2.04.31.83.45,2.11.45,3.79v10.25h-7.53l-.22-1.72c-.6.72-1.36,1.27-2.23,1.61-.89.35-1.95.53-3.19.53-1.74,0-3.13-.48-4.14-1.46-1.01-.97-1.52-2.29-1.52-3.97,0-2.19.81-3.75,2.45-4.69,1.63-.94,4.39-1.42,8.29-1.42h.24v-1.07c0-.63-.12-1.08-.36-1.34-.24-.27-.63-.4-1.18-.4s-.97.12-1.25.38c-.27.26-.43.66-.46,1.22h-6.92M104.61,190.19h-1.1c-.85,0-1.51.18-1.96.53-.45.35-.68.85-.68,1.52,0,.55.17,1.01.5,1.34.33.32.77.49,1.33.49.65,0,1.13-.21,1.45-.62.31-.42.47-1.05.47-1.91v-1.34h0ZM124.88,182.42l.94-.85c.62-.62,1.13-1,1.54-1.17.4-.16.86-.25,1.4-.25.38,0,.74.05,1.08.13.34.09.65.22.96.39v6.49c-.56-.17-1.13-.31-1.71-.41-.46-.09-.92-.14-1.39-.15-.87,0-1.5.28-1.9.83-.4.55-.59,1.43-.59,2.64v7.83h-8.61v-17.32h8.28v1.85M133.6,185.57c.2-1.77,1.04-3.1,2.55-4.04,1.51-.93,3.59-1.39,6.25-1.39,1.61,0,3.03.14,4.25.43,1.24.29,2.22.7,2.97,1.23.71.51,1.25,1.22,1.55,2.04.31.83.45,2.11.45,3.79v10.25h-7.53l-.23-1.72c-.6.71-1.37,1.27-2.23,1.61-.89.35-1.95.53-3.19.53-1.74,0-3.13-.48-4.13-1.46-1.03-.97-1.54-2.29-1.54-3.97,0-2.19.82-3.75,2.46-4.69,1.63-.94,4.4-1.42,8.29-1.42h.24v-1.07c0-.63-.12-1.08-.36-1.34-.23-.27-.63-.4-1.18-.4s-.98.12-1.24.38c-.28.26-.43.66-.47,1.22h-6.91M143.75,190.19h-1.1c-.86,0-1.52.18-1.97.53-.46.35-.68.85-.68,1.52,0,.55.17,1.01.5,1.34.33.32.77.49,1.34.49.65,0,1.13-.21,1.44-.62.31-.42.47-1.05.47-1.91v-1.34h0ZM154.31,185.64v-5.07h2.29v-3l8.28-2.83v5.84h3.97v5.07h-3.97v5.31c0,.57.15,1,.46,1.29.31.28.77.42,1.4.42.21,0,.47-.03.78-.08.3-.05.64-.13.99-.22v5.13c-1.02.26-2.05.47-3.09.63-.95.13-1.83.21-2.65.21-2.04,0-3.58-.44-4.62-1.32-1.04-.88-1.56-2.19-1.56-3.94v-7.42h-2.29M17.54,220.01v5.18c.1.01.2.03.32.03h.47c1.05,0,1.84-.23,2.37-.68.53-.45.79-1.13.79-2.03s-.27-1.48-.82-1.89c-.55-.4-1.39-.6-2.54-.6h-.58M7.88,239.31v-24.86h12.5c3.66,0,6.38.67,8.17,2.01,1.79,1.34,2.68,3.36,2.68,6.08s-.89,4.81-2.68,6.22c-1.78,1.41-4.4,2.12-7.85,2.12h-3.16v8.43H7.88ZM39.84,228.43h4.47c0-.06,0-.14.01-.25,0-.11.01-.19.01-.23,0-.76-.18-1.33-.56-1.74-.38-.4-.92-.6-1.62-.6s-1.29.24-1.7.7c-.41.47-.62,1.1-.62,1.93v.2M51.9,232.02h-11.99v.49c0,1.01.19,1.76.6,2.28.4.53.99.79,1.77.79.66,0,1.17-.16,1.5-.48.35-.32.58-.85.7-1.59h7.14c0,1.99-.81,3.52-2.42,4.6-1.62,1.08-3.92,1.62-6.92,1.62-3.26,0-5.84-.81-7.72-2.44-1.89-1.63-2.83-3.84-2.83-6.64s.94-5,2.83-6.64c1.88-1.63,4.45-2.45,7.72-2.45s5.5.79,7.19,2.38c1.68,1.57,2.53,3.82,2.53,6.74,0,.25-.03.66-.08,1.23,0,.04,0,.08-.02.12h0ZM53.77,227.05v-5.07h2.29v-3l8.28-2.84v5.84h3.97v5.07h-3.97v5.31c0,.57.16,1.01.46,1.28.31.29.77.42,1.4.42.21,0,.47-.03.78-.08.31-.05.64-.13,1-.22v5.12c-1.02.26-2.05.47-3.09.63-.94.15-1.83.21-2.64.21-2.05,0-3.59-.44-4.63-1.32-1.05-.88-1.56-2.19-1.56-3.94v-7.42h-2.29M80.18,223.84l.94-.86c.62-.61,1.14-1,1.54-1.17.45-.17.92-.26,1.4-.25.38,0,.74.05,1.08.14.34.09.66.22.96.4v6.49c-.56-.17-1.13-.31-1.71-.42-.46-.09-.93-.14-1.39-.14-.87,0-1.5.27-1.89.82-.4.55-.6,1.43-.6,2.63v7.84h-8.61v-17.33h8.28v1.86M98.46,226.12c-.63,0-1.1.35-1.38,1.04-.28.69-.42,1.86-.42,3.48s.13,2.87.4,3.52c.27.64.73.96,1.39.96s1.11-.33,1.38-.96c.27-.65.4-1.82.4-3.52s-.14-2.85-.41-3.52c-.27-.67-.73-1-1.36-1M98.47,221.55c3.27,0,5.86.81,7.74,2.42,1.88,1.62,2.82,3.83,2.82,6.64s-.94,5.04-2.81,6.65c-1.88,1.62-4.46,2.43-7.75,2.43s-5.88-.8-7.75-2.41c-1.87-1.6-2.8-3.82-2.8-6.64s.93-5.05,2.81-6.67c1.87-1.61,4.45-2.42,7.74-2.42h0Z"/>
  <path class="st0" d="M112.4,214.45h8.6v24.86h-8.6v-24.86Z"/>
  <path class="st1" d="M132.5,228.43h4.47c0-.06,0-.14.01-.25,0-.11.02-.19.02-.23,0-.76-.19-1.33-.56-1.74-.37-.4-.91-.6-1.62-.6s-1.28.24-1.7.7c-.41.47-.62,1.1-.62,1.93v.2M144.57,232.02h-12v.49c0,1.01.2,1.76.6,2.28.4.53,1,.79,1.78.79.66,0,1.17-.16,1.5-.48.35-.32.58-.85.69-1.59h7.14c0,1.99-.81,3.52-2.42,4.6-1.62,1.08-3.92,1.62-6.92,1.62-3.27,0-5.84-.81-7.72-2.44-1.89-1.63-2.83-3.84-2.83-6.64s.94-5,2.83-6.64c1.88-1.63,4.45-2.45,7.72-2.45,3.1,0,5.5.79,7.19,2.38,1.68,1.57,2.53,3.82,2.53,6.74,0,.25-.03.66-.07,1.23,0,.06-.01.09-.02.12h0ZM147.62,221.97h8.41v10.7c0,.7.14,1.21.4,1.54.26.32.66.49,1.2.49.49,0,.88-.17,1.16-.52.28-.35.42-.82.42-1.42v-10.81h8.4v14.95c0,.07.01.37.06.91.03.52.06,1.02.08,1.47h-8.14v-2.74c-.7,1.04-1.57,1.82-2.61,2.35-1.04.53-2.19.8-3.49.8-2.01,0-3.49-.56-4.45-1.69-.96-1.12-1.44-2.87-1.44-5.22v-10.84M171.88,239.31v-14.95c0-.06-.01-.35-.05-.87-.04-.5-.06-1-.08-1.51h8.14v2.7c.7-1.03,1.57-1.81,2.59-2.33,1.01-.52,2.16-.79,3.46-.79,1.21,0,2.25.25,3.13.75.87.49,1.71,1.29,2.5,2.41.62-1.02,1.43-1.81,2.46-2.34,1.02-.54,2.19-.81,3.5-.81,2.03,0,3.52.57,4.46,1.69.95,1.12,1.43,2.86,1.43,5.22v10.84h-8.45v-10.73c0-.69-.14-1.21-.38-1.53-.25-.32-.65-.48-1.19-.48-.49,0-.87.16-1.14.49-.26.33-.4.81-.4,1.41v10.84h-8.47v-10.73c0-.69-.13-1.21-.37-1.53-.25-.32-.65-.48-1.19-.48-.48,0-.85.17-1.15.52-.29.35-.43.82-.43,1.42v10.81h-8.38"/>
</svg>