<svg id="Group_5823" data-name="Group 5823" xmlns="http://www.w3.org/2000/svg" xmlns:xlink="http://www.w3.org/1999/xlink" width="710.75" height="128.568" viewBox="0 0 710.75 128.568">
  <defs>
    <clipPath id="clip-path">
      <rect id="Rectangle_3713" data-name="Rectangle 3713" width="710.75" height="128.569" fill="none"/>
    </clipPath>
  </defs>
  <g id="Group_5822" data-name="Group 5822" clip-path="url(#clip-path)">
    <path id="Path_36050" data-name="Path 36050" d="M152.479,25.19q-.137,1.3-.187,2.508t-.052,1.86q0,.819.034,1.535c.022.478.046.9.068,1.263h-.784a21.482,21.482,0,0,0-.648-3.771,3.3,3.3,0,0,0-1.434-2,6.346,6.346,0,0,0-3.173-.614H144.46V45.39a6.175,6.175,0,0,0,.256,2.048,1.486,1.486,0,0,0,1.007.92,8.975,8.975,0,0,0,2.184.308v.682q-.888-.067-2.252-.085t-2.764-.017q-1.536,0-2.884.017t-2.167.085v-.682a8.985,8.985,0,0,0,2.185-.308,1.484,1.484,0,0,0,1.006-.92,6.175,6.175,0,0,0,.256-2.048V25.975h-1.842a6.355,6.355,0,0,0-3.156.614,3.276,3.276,0,0,0-1.451,2,21.205,21.205,0,0,0-.648,3.771H133.4q.067-.546.085-1.263t.017-1.535q0-.648-.051-1.86t-.188-2.508q1.434.034,3.122.068t3.4.034h6.193q1.689,0,3.395-.034t3.105-.068"/>
    <path id="Path_36051" data-name="Path 36051" d="M159.61,22.631V35.392a5.879,5.879,0,0,1,2.474-3.207,6.724,6.724,0,0,1,3.327-.887,5.986,5.986,0,0,1,2.167.341,3.959,3.959,0,0,1,1.45.955,3.9,3.9,0,0,1,.921,1.706,11.154,11.154,0,0,1,.273,2.765v9.11a2.5,2.5,0,0,0,.6,1.945,3.069,3.069,0,0,0,2,.511v.717q-.581-.033-1.774-.085t-2.321-.051q-1.127,0-2.2.051c-.716.034-1.257.063-1.62.085v-.717a2.414,2.414,0,0,0,1.74-.511,2.773,2.773,0,0,0,.512-1.945V36.314a10.383,10.383,0,0,0-.171-1.945,2.531,2.531,0,0,0-.767-1.433,2.636,2.636,0,0,0-1.826-.546,4.094,4.094,0,0,0-2.474.784,5.242,5.242,0,0,0-1.689,2.185,7.912,7.912,0,0,0-.614,3.207v7.609a2.773,2.773,0,0,0,.512,1.945,2.414,2.414,0,0,0,1.74.511v.717q-.546-.033-1.621-.085t-2.2-.051q-1.127,0-2.321.051c-.8.034-1.387.063-1.774.085v-.717a3.071,3.071,0,0,0,2-.511,2.5,2.5,0,0,0,.6-1.945V26.726a3.814,3.814,0,0,0-.546-2.27,2.414,2.414,0,0,0-2.047-.733v-.717q1.091.1,2.115.1a14.408,14.408,0,0,0,1.894-.12,9.607,9.607,0,0,0,1.655-.358"/>
    <path id="Path_36052" data-name="Path 36052" d="M182.608,31.3a6.078,6.078,0,0,1,4.691,1.825q1.689,1.825,1.69,5.682H176.944l-.034-.649h8.8a11.2,11.2,0,0,0-.273-3.087,5.356,5.356,0,0,0-1.075-2.27,2.384,2.384,0,0,0-1.894-.853,3.483,3.483,0,0,0-2.781,1.57,9.28,9.28,0,0,0-1.45,4.982l.1.136q-.069.511-.1,1.126c-.023.41-.033.819-.033,1.228a9.7,9.7,0,0,0,.75,3.993,6.118,6.118,0,0,0,1.962,2.542,4.243,4.243,0,0,0,2.507.87,5.827,5.827,0,0,0,1.946-.324,4.766,4.766,0,0,0,1.706-1.075,6.536,6.536,0,0,0,1.365-2.013l.683.273a7.054,7.054,0,0,1-1.229,2.184,6.59,6.59,0,0,1-2.15,1.723,6.5,6.5,0,0,1-3,.665A7.646,7.646,0,0,1,178.53,48.7a7.309,7.309,0,0,1-2.695-3.122,10.668,10.668,0,0,1-.939-4.59,12.734,12.734,0,0,1,.956-5.169,7.631,7.631,0,0,1,2.695-3.344,7.074,7.074,0,0,1,4.061-1.177"/>
    <path id="Path_36053" data-name="Path 36053" d="M135.262,65.219q2.192.088,5.923.175t7.414.088q4.212,0,8.16-.088t5.615-.088a43.5,43.5,0,0,1,13.556,1.8A16.551,16.551,0,0,1,184,72.326a12.984,12.984,0,0,1,2.677,8.248,15.887,15.887,0,0,1-1.229,6.01,15.139,15.139,0,0,1-4.168,5.616,21.328,21.328,0,0,1-8.028,4.124,45.151,45.151,0,0,1-12.81,1.535h-8.423V96.1h7.546q5.175,0,7.852-1.974a10.016,10.016,0,0,0,3.686-5.264,24.956,24.956,0,0,0,1.009-7.327q0-6.93-2.457-10.749t-8.423-3.816q-3.423,0-4.432,1.491t-1.009,6.054v43.52a17.307,17.307,0,0,0,.483,4.739,3.049,3.049,0,0,0,1.886,2.106,15.493,15.493,0,0,0,4.212.7v1.755q-2.368-.175-5.967-.219t-7.282-.044q-4.211,0-7.94.044t-5.923.219v-1.755a15.515,15.515,0,0,0,4.212-.7,3.058,3.058,0,0,0,1.886-2.106,17.394,17.394,0,0,0,.482-4.739V74.519a17.312,17.312,0,0,0-.482-4.781,3.168,3.168,0,0,0-1.93-2.106,13.048,13.048,0,0,0-4.168-.658Zm16.583,31.148q3.772.089,6.537.351t4.869.483q2.107.219,3.774.307,7.983.7,11.8,3.422a12.758,12.758,0,0,1,4.958,8.16l2.018,9.037a17.149,17.149,0,0,0,1.667,4.914,2.822,2.822,0,0,0,2.545,1.4,3.977,3.977,0,0,0,1.887-.571,8.614,8.614,0,0,0,1.623-1.447l1.228,1.052a14.507,14.507,0,0,1-5.09,3.905,16.428,16.428,0,0,1-6.58,1.185,13.963,13.963,0,0,1-7.809-2.018q-3.072-2.019-4.036-7.458l-1.579-8.775a47.484,47.484,0,0,0-1.492-6.449,11.251,11.251,0,0,0-2.413-4.387,5.578,5.578,0,0,0-4.256-1.623h-9.475Z"/>
    <path id="Path_36054" data-name="Path 36054" d="M217.738,80.75q7.719,0,12.108,4.562t4.387,14.917H205.367l-.176-1.667h17.987a42.773,42.773,0,0,0-.526-7.941,16.868,16.868,0,0,0-1.931-5.835,3.969,3.969,0,0,0-3.509-2.194q-3.072,0-5.221,3.861T209.4,99.263l.263.527q-.089,1.053-.132,2.193t-.044,2.37a23.981,23.981,0,0,0,1.711,9.827,12.411,12.411,0,0,0,4.344,5.484,9.727,9.727,0,0,0,5.352,1.711,13.712,13.712,0,0,0,3.817-.571,12.3,12.3,0,0,0,3.992-2.106,16.052,16.052,0,0,0,3.772-4.343l1.58.526a22.855,22.855,0,0,1-3.334,6.494,18.3,18.3,0,0,1-5.791,5.176,16.637,16.637,0,0,1-8.424,2.018,21.255,21.255,0,0,1-10.529-2.544,17.483,17.483,0,0,1-7.15-7.722q-2.591-5.175-2.589-13.161,0-8.16,2.765-13.6a18.525,18.525,0,0,1,7.632-8.116,22.677,22.677,0,0,1,11.1-2.676"/>
    <path id="Path_36055" data-name="Path 36055" d="M257.133,67.588v14.39h10.354v1.755H257.133V119.18a5.639,5.639,0,0,0,.966,3.729,3.645,3.645,0,0,0,2.895,1.1,5.255,5.255,0,0,0,3.159-1.184,9.771,9.771,0,0,0,2.807-4.08l1.492.789a15.461,15.461,0,0,1-4.256,6.494,11.245,11.245,0,0,1-7.764,2.544,15.841,15.841,0,0,1-5.09-.746,9.186,9.186,0,0,1-6.23-7.019,36.411,36.411,0,0,1-.614-7.415V83.733h-7.37V81.978h7.37V70.4a32.975,32.975,0,0,0,6.8-.658,21.127,21.127,0,0,0,5.834-2.15"/>
    <path id="Path_36056" data-name="Path 36056" d="M282.315,127.955a13.2,13.2,0,0,1-6.581-1.492,9.228,9.228,0,0,1-3.861-3.992,12.265,12.265,0,0,1-1.227-5.484,10.244,10.244,0,0,1,1.711-6.142,13.2,13.2,0,0,1,4.43-3.86,32.437,32.437,0,0,1,5.747-2.458q3.027-.964,5.791-1.886a15.92,15.92,0,0,0,4.475-2.194,3.92,3.92,0,0,0,1.711-3.29V90.313a10.571,10.571,0,0,0-.746-4.079,5.784,5.784,0,0,0-2.282-2.765,7.4,7.4,0,0,0-3.992-.964,13.2,13.2,0,0,0-3.509.482,6.419,6.419,0,0,0-2.9,1.623,8.026,8.026,0,0,1,3.817,2.676,6.592,6.592,0,0,1,1.36,4.08A5.9,5.9,0,0,1,284.2,96.1a7.269,7.269,0,0,1-4.869,1.755,5.83,5.83,0,0,1-4.782-1.974,7.278,7.278,0,0,1-1.623-4.782,6.746,6.746,0,0,1,1.271-4.212,14.173,14.173,0,0,1,3.554-3.158,21.562,21.562,0,0,1,5.923-2.194,33.75,33.75,0,0,1,7.5-.789,29.355,29.355,0,0,1,7.282.833,11.627,11.627,0,0,1,5.44,3.027,9.638,9.638,0,0,1,2.632,4.958,37.133,37.133,0,0,1,.615,7.414v23.866a7.188,7.188,0,0,0,.438,3.027,1.548,1.548,0,0,0,1.492.833,2.982,2.982,0,0,0,1.535-.438q.744-.438,1.623-1.054l.878,1.492a12.965,12.965,0,0,1-4.255,2.413,16.485,16.485,0,0,1-5.4.834,12.135,12.135,0,0,1-5.177-.922,5.8,5.8,0,0,1-2.764-2.5,7.768,7.768,0,0,1-.833-3.685,16.428,16.428,0,0,1-5.089,5.22,13.353,13.353,0,0,1-7.283,1.887m6.23-5.616a6.3,6.3,0,0,0,3.2-.833,8.838,8.838,0,0,0,2.764-2.764V100.755a8.377,8.377,0,0,1-2.194,2.369q-1.4,1.053-2.983,2.15a29.821,29.821,0,0,0-3.027,2.412,9.812,9.812,0,0,0-2.325,3.247,11.185,11.185,0,0,0-.877,4.65,7.443,7.443,0,0,0,1.491,5.089,5.038,5.038,0,0,0,3.949,1.667"/>
    <path id="Path_36057" data-name="Path 36057" d="M333.907,81.013v38.168q0,3.686,1.271,5t4.344,1.315v1.843q-1.58-.085-4.914-.219t-6.756-.131q-3.421,0-6.932.131t-5.264.219V125.5q3.07,0,4.344-1.315t1.272-5V91.542a11.242,11.242,0,0,0-1.185-5.835q-1.185-1.886-4.431-1.887V81.978q2.808.263,5.44.264,3.686,0,6.888-.307a47.746,47.746,0,0,0,5.923-.922M327.063,59.34a8.816,8.816,0,0,1,5.834,1.8,6.789,6.789,0,0,1,0,9.914,10.361,10.361,0,0,1-11.669,0,6.789,6.789,0,0,1,0-9.914,8.815,8.815,0,0,1,5.835-1.8"/>
    <path id="Path_36058" data-name="Path 36058" d="M361.193,58.638V119.18q0,3.686,1.272,5t4.344,1.316v1.843q-1.668-.085-5-.219t-6.756-.132q-3.422,0-6.887.132t-5.221.219V125.5q3.07,0,4.343-1.316t1.272-5V69.167a11.235,11.235,0,0,0-1.184-5.835q-1.184-1.885-4.431-1.886V59.6q2.807.264,5.44.264,3.6,0,6.844-.308a47.242,47.242,0,0,0,5.966-.921"/>
    <path id="Path_36059" data-name="Path 36059" d="M423.751,63.991a22.914,22.914,0,0,1,9.52,1.711,32.753,32.753,0,0,1,6.625,3.992q1.752,1.317,2.675.307t1.273-4.781h2.017q-.177,3.421-.262,8.291t-.088,12.942h-2.019a53.8,53.8,0,0,0-1.14-6.888,20.233,20.233,0,0,0-1.93-5.045,13.076,13.076,0,0,0-3.51-3.948,13.787,13.787,0,0,0-5.089-3.247,17.577,17.577,0,0,0-6.054-1.053,13.072,13.072,0,0,0-8.073,2.5,18.053,18.053,0,0,0-5.4,6.8,37.651,37.651,0,0,0-3.027,9.695,63.392,63.392,0,0,0-.965,11.187,61.214,61.214,0,0,0,1.009,11.275,35.227,35.227,0,0,0,3.159,9.608,18.2,18.2,0,0,0,5.571,6.669,13.473,13.473,0,0,0,8.072,2.456,16.583,16.583,0,0,0,5.835-1.1,13.9,13.9,0,0,0,5.046-3.2,13.054,13.054,0,0,0,4.649-6.537,52.063,52.063,0,0,0,1.843-10.4h2.019q0,8.335.088,13.468t.262,8.643h-2.017q-.352-3.773-1.185-4.739t-2.763.264a45.972,45.972,0,0,1-6.889,3.992,22.04,22.04,0,0,1-9.344,1.711,33.684,33.684,0,0,1-16.276-3.773,26.409,26.409,0,0,1-10.836-10.88q-3.862-7.107-3.862-17.11a35.547,35.547,0,0,1,3.994-17.2,29.236,29.236,0,0,1,10.966-11.494,31.043,31.043,0,0,1,16.1-4.124"/>
    <path id="Path_36060" data-name="Path 36060" d="M496.576,81.013v36.764q0,3.948,1.228,5.835t4.387,1.886v1.843q-2.721-.264-5.44-.264-3.686,0-6.844.264a37.237,37.237,0,0,0-5.967.965v-7.9a13.013,13.013,0,0,1-5.834,6.273,18.106,18.106,0,0,1-8.292,1.887,15.519,15.519,0,0,1-5.967-.965,9.76,9.76,0,0,1-3.6-2.457,9.607,9.607,0,0,1-2.107-4.387,32.787,32.787,0,0,1-.614-7.019v-22.2a11.233,11.233,0,0,0-1.184-5.835q-1.185-1.886-4.431-1.886V81.978q2.807.264,5.44.264,3.684,0,6.888-.308a47.361,47.361,0,0,0,5.922-.921v36.325a16.87,16.87,0,0,0,.395,3.861,4.547,4.547,0,0,0,1.536,2.588,5.2,5.2,0,0,0,3.334.921,7.257,7.257,0,0,0,4.255-1.316,9.694,9.694,0,0,0,3.072-3.641,11.339,11.339,0,0,0,1.183-5.221V91.542a11.244,11.244,0,0,0-1.183-5.835q-1.185-1.886-4.432-1.886V81.978q2.807.264,5.44.264,3.685,0,6.888-.308a47.349,47.349,0,0,0,5.923-.921"/>
    <path id="Path_36061" data-name="Path 36061" d="M536.234,80.75a8,8,0,0,1,4.562,1.185,7.171,7.171,0,0,1,2.589,3.026,9.279,9.279,0,0,1,.833,3.861,7.556,7.556,0,0,1-1.886,5.308,6.4,6.4,0,0,1-4.957,2.062,6.91,6.91,0,0,1-4.783-1.535,5.215,5.215,0,0,1-1.711-4.08,7.136,7.136,0,0,1,1.1-4.08,10.357,10.357,0,0,1,2.765-2.764,3.938,3.938,0,0,0-2.457.088,7.17,7.17,0,0,0-3.159,1.36,10.271,10.271,0,0,0-2.544,2.72,14.8,14.8,0,0,0-1.667,3.51,11.7,11.7,0,0,0-.615,3.641V118.3q0,4.212,2.062,5.7t6.185,1.491v1.843q-2.017-.087-5.877-.219t-8.073-.132q-3.512,0-7.107.132t-5.441.219V125.5q3.07,0,4.344-1.316t1.273-5V91.542a11.244,11.244,0,0,0-1.185-5.835q-1.185-1.886-4.432-1.886V81.978q2.81.264,5.441.264,3.686,0,6.888-.307a47.542,47.542,0,0,0,5.922-.922v8.16a16.014,16.014,0,0,1,2.808-4.3,13.087,13.087,0,0,1,4.036-3.027,11.593,11.593,0,0,1,5.089-1.1"/>
    <path id="Path_36062" data-name="Path 36062" d="M559.135,127.955a13.2,13.2,0,0,1-6.581-1.492,9.228,9.228,0,0,1-3.861-3.992,12.265,12.265,0,0,1-1.227-5.484,10.244,10.244,0,0,1,1.711-6.142,13.2,13.2,0,0,1,4.43-3.86,32.436,32.436,0,0,1,5.747-2.458q3.027-.964,5.791-1.886a15.92,15.92,0,0,0,4.475-2.194,3.92,3.92,0,0,0,1.711-3.29V90.313a10.571,10.571,0,0,0-.746-4.079,5.784,5.784,0,0,0-2.282-2.765,7.4,7.4,0,0,0-3.992-.964,13.2,13.2,0,0,0-3.509.482,6.419,6.419,0,0,0-2.9,1.623,8.026,8.026,0,0,1,3.817,2.676,6.592,6.592,0,0,1,1.36,4.08,5.9,5.9,0,0,1-2.062,4.738,7.269,7.269,0,0,1-4.869,1.755,5.83,5.83,0,0,1-4.782-1.974,7.278,7.278,0,0,1-1.623-4.782,6.746,6.746,0,0,1,1.271-4.212,14.174,14.174,0,0,1,3.554-3.158,21.561,21.561,0,0,1,5.923-2.194,33.75,33.75,0,0,1,7.5-.789,29.355,29.355,0,0,1,7.282.833,11.627,11.627,0,0,1,5.44,3.027,9.638,9.638,0,0,1,2.632,4.958,37.136,37.136,0,0,1,.615,7.414v23.866a7.189,7.189,0,0,0,.438,3.027,1.548,1.548,0,0,0,1.492.833,2.982,2.982,0,0,0,1.535-.438q.744-.438,1.623-1.054l.878,1.492a12.966,12.966,0,0,1-4.255,2.413,16.485,16.485,0,0,1-5.4.834,12.135,12.135,0,0,1-5.177-.922,5.8,5.8,0,0,1-2.764-2.5,7.767,7.767,0,0,1-.833-3.685,16.428,16.428,0,0,1-5.089,5.22,13.353,13.353,0,0,1-7.283,1.887m6.23-5.616a6.3,6.3,0,0,0,3.2-.833,8.838,8.838,0,0,0,2.764-2.764V100.755a8.377,8.377,0,0,1-2.194,2.369q-1.4,1.053-2.983,2.15a29.824,29.824,0,0,0-3.027,2.412,9.812,9.812,0,0,0-2.325,3.247,11.185,11.185,0,0,0-.877,4.65,7.443,7.443,0,0,0,1.491,5.089,5.038,5.038,0,0,0,3.949,1.667"/>
    <path id="Path_36063" data-name="Path 36063" d="M610.287,67.588v14.39h10.354v1.755H610.287V119.18a5.639,5.639,0,0,0,.966,3.729,3.645,3.645,0,0,0,2.9,1.1,5.255,5.255,0,0,0,3.159-1.184,9.771,9.771,0,0,0,2.807-4.08l1.492.789a15.461,15.461,0,0,1-4.256,6.494,11.245,11.245,0,0,1-7.764,2.544,15.842,15.842,0,0,1-5.09-.746,9.186,9.186,0,0,1-6.23-7.019,36.411,36.411,0,0,1-.614-7.415V83.733h-7.37V81.978h7.37V70.4a32.976,32.976,0,0,0,6.8-.658,21.127,21.127,0,0,0,5.834-2.15"/>
    <path id="Path_36064" data-name="Path 36064" d="M645.646,80.75a25.2,25.2,0,0,1,11.231,2.369,16.735,16.735,0,0,1,7.545,7.634q2.719,5.264,2.721,13.951t-2.721,13.906a16.777,16.777,0,0,1-7.545,7.59,27.5,27.5,0,0,1-22.331,0,16.943,16.943,0,0,1-7.632-7.59q-2.765-5.219-2.765-13.906t2.765-13.951a16.9,16.9,0,0,1,7.632-7.634,25.063,25.063,0,0,1,11.1-2.369m0,1.755q-3.51,0-5.879,5.22T637.4,104.7q0,11.758,2.369,16.934t5.879,5.177q3.6,0,5.923-5.177t2.325-16.934q0-11.757-2.325-16.979t-5.923-5.22"/>
    <path id="Path_36065" data-name="Path 36065" d="M702.765,80.75a8,8,0,0,1,4.562,1.185,7.171,7.171,0,0,1,2.589,3.026,9.279,9.279,0,0,1,.833,3.861,7.556,7.556,0,0,1-1.886,5.308,6.4,6.4,0,0,1-4.957,2.062,6.91,6.91,0,0,1-4.783-1.535,5.215,5.215,0,0,1-1.711-4.08,7.136,7.136,0,0,1,1.1-4.08,10.358,10.358,0,0,1,2.765-2.764,3.938,3.938,0,0,0-2.457.088,7.17,7.17,0,0,0-3.159,1.36,10.271,10.271,0,0,0-2.544,2.72,14.8,14.8,0,0,0-1.667,3.51,11.7,11.7,0,0,0-.615,3.641V118.3q0,4.212,2.062,5.7t6.185,1.491v1.843q-2.017-.087-5.877-.219t-8.073-.132q-3.512,0-7.107.132t-5.441.219V125.5q3.07,0,4.344-1.316t1.273-5V91.542a11.244,11.244,0,0,0-1.185-5.835q-1.185-1.886-4.432-1.886V81.978q2.808.264,5.441.264,3.686,0,6.888-.307a47.538,47.538,0,0,0,5.922-.922v8.16a16.016,16.016,0,0,1,2.808-4.3,13.087,13.087,0,0,1,4.036-3.027,11.593,11.593,0,0,1,5.089-1.1"/>
    <path id="Path_36066" data-name="Path 36066" d="M0,107.01a20.653,20.653,0,0,0,20.653,20.653H31.916V0H0Z" fill="#2879b2"/>
    <path id="Path_36067" data-name="Path 36067" d="M37.963,0H36.9V61.7h1.064a30.852,30.852,0,1,0,0-61.7" fill="#52b7ce"/>
    <path id="Path_36068" data-name="Path 36068" d="M107.058,66.021a30.791,30.791,0,1,0,0,61.582h11.764V66.021Z" fill="#4ac699"/>
    <path id="Path_36069" data-name="Path 36069" d="M49.918,65.959H36.9v61.7H68.815V84.856a18.9,18.9,0,0,0-18.9-18.9" fill="#52b7ce"/>
  </g>
</svg>
