<?xml version="1.0" encoding="UTF-8"?>
<svg id="Layer_1" data-name="Layer 1" xmlns="http://www.w3.org/2000/svg" version="1.1" viewBox="0 0 87.6 23">
  <defs>
    <style>
      .cls-1 {
        fill: #16006d;
        stroke-width: 0px;
      }
    </style>
  </defs>
  <path class="cls-1" d="M14.4,15.5c-2.4,0-4.4-2-4.4-4.4s2-4.4,4.4-4.4,4.4,2,4.4,4.4-2,4.4-4.4,4.4ZM20.2,0h-.9c-.2,0-.4.2-.4.4v5.9c0,.2,0,.3-.2.3h-.2c-1.1-.9-2.5-1.5-4-1.5-3.4,0-6.1,2.8-6.1,6.1s2.8,6.1,6.1,6.1,2.9-.6,4-1.5h.1c.1,0,.2,0,.2.3v.7c0,.2.2.4.4.4h.9c.2,0,.4-.2.4-.4V.4c0-.2-.2-.4-.4-.4h.1Z"/>
  <path class="cls-1" d="M24.8,5.1h-.9c-.2,0-.4.2-.4.4v11.1c0,.2.2.4.4.4h.9c.2,0,.4-.2.4-.4V5.5c0-.2-.2-.4-.4-.4Z"/>
  <path class="cls-1" d="M54.6,15.5c-2.4,0-4.4-2-4.4-4.4s2-4.4,4.4-4.4,4.4,2,4.4,4.4-2,4.4-4.4,4.4ZM60.3,5.1h-.9c-.2,0-.4.2-.4.4v.7c0,.2,0,.3-.2.3h-.2c-1.1-.9-2.5-1.5-4-1.5-3.4,0-6.1,2.8-6.1,6.1s2.8,6.1,6.1,6.1,3.1-.6,4-1.5h.2c0,0,.2.1.2.3v.7c0,.2.2.4.4.4h.9c.2,0,.4-.1.4-.4V5.5c0-.2-.2-.4-.4-.4Z"/>
  <path class="cls-1" d="M68.7,15.5c-2.4,0-4.4-2-4.4-4.4s2-4.4,4.4-4.4,4.4,2,4.4,4.4-2,4.4-4.4,4.4ZM74.4,5.1h-.9c-.2,0-.4.2-.4.4v.7c0,.2,0,.3-.2.3h-.2c-1.1-.9-2.5-1.5-4-1.5-3.4,0-6.1,2.8-6.1,6.1s2.8,6.1,6.1,6.1,2.9-.5,4-1.5h.2c0,0,.2,0,.2.3v2.5c0,2.1-1.2,2.6-3,2.6s-.4.2-.4.4v.9c0,.2.2.4.4.4,2.8,0,4.7-1.3,4.7-4.3V5.5c0-.2-.2-.4-.4-.4Z"/>
  <path class="cls-1" d="M78.9.3h-.9c-.2,0-.4.2-.4.4v.9c0,.2.2.4.4.4h.9c.2,0,.4-.2.4-.4v-.9c0-.2-.2-.4-.4-.4Z"/>
  <path class="cls-1" d="M78.9,5.1h-.9c-.2,0-.4.2-.4.4v11.1c0,.2.2.4.4.4h.9c.2,0,.4-.2.4-.4V5.5c0-.2-.2-.4-.4-.4Z"/>
  <path class="cls-1" d="M38.5,12.4c0,1.8-.7,2.8-1.4,2.8s-1.4-1-1.4-2.8.5-2.6,1.3-3.4c.8.9,1.5,2.1,1.5,3.4ZM41.1,5c-1,0-2.6.5-4.1,1.5-1.3-1-2.8-1.5-3.8-1.5-2.9,0-5.3,2.5-5.3,5.5v6c0,.2.2.5.5.5h.9c.3,0,.5-.2.5-.5v-6c0-1.8,1.4-3.7,3.5-3.7s1.5.3,2.5.9c-.9,1-1.7,2.5-1.7,4.6s.3,2.5.9,3.3c.6.8,1.4,1.3,2.3,1.3,1.5,0,3.2-1.5,3.2-4.6s-.8-3.4-1.9-4.6c1-.6,2.1-.9,2.7-.9,2.1,0,3.5,1.9,3.5,3.7v6c0,.2.2.5.5.5h.9c.3,0,.5-.2.5-.5v-6c0-3-2.4-5.5-5.3-5.5h-.3Z"/>
  <path class="cls-1" d="M23.8,2h.9c.2,0,.4-.2.4-.4v-.9c0-.2-.2-.4-.4-.4h-.9c-.2,0-.4.2-.4.4v.9c0,.2.2.4.4.4Z"/>
</svg>