<svg xmlns="http://www.w3.org/2000/svg" xmlns:xlink="http://www.w3.org/1999/xlink" width="600.1" height="81.9" viewBox="0 0 600.1 81.9">
  <defs>
    <clipPath id="clip-path">
      <rect id="Rectangle_3959" data-name="Rectangle 3959" width="600.1" height="81.9" transform="translate(0 0)" fill="none"/>
    </clipPath>
  </defs>
  <g id="Group_6582" data-name="Group 6582" transform="translate(0 0)" clip-path="url(#clip-path)">
    <path id="Path_37762" data-name="Path 37762" d="M388.7,24.9V21.5h10.6V10.9h3.4V21.5h10.6v3.4H402.7V35.5h-3.4V24.9ZM163.7,41a41.1,41.1,0,0,1-41,40.9H41A40.9,40.9,0,1,1,41,.1H57.8V14.6H41a26.4,26.4,0,0,0,0,52.8H74.6V48.3H41V33.7H74.6V0h48.1a40.992,40.992,0,0,1,41,41M122.8,67.4a26.4,26.4,0,0,0,0-52.8H89.2V33.7h33.7V48.2H89.2V67.3h33.6M588,15.2h-4.6V10.6H588V5.7l6.2-2v6.9h5.5v4.6h-5.5V26.6c0,2.1.6,4,2.9,4a4.654,4.654,0,0,0,2.8-.7l.2,5a15.1,15.1,0,0,1-4.6.6c-4.9,0-7.5-3.1-7.5-7.9Zm-29.9-4.6H564v3.3h.1a8.793,8.793,0,0,1,7.8-3.9c5.6,0,8.1,4.1,8.1,9.6V35h-6.2V22c0-3,0-7-4-7-4.5,0-5.5,5-5.5,8.1V35h-6.2Zm-6.5,23a15.8,15.8,0,0,1-8.2,1.9c-7.8,0-12.4-4.6-12.4-12.6,0-7,3.6-12.9,11-12.9,8.8,0,11.3,6.2,11.3,14.7H536.8c.3,3.9,3,6.2,6.8,6.2a15.087,15.087,0,0,0,7.9-2.5v5.2Zm-4.2-13.2c-.2-3.1-1.6-5.7-5-5.7-3.5,0-5.2,2.5-5.5,5.7ZM520.1,0h6.2V6.1h-6.2Zm0,10.6h6.2V35h-6.2Zm-17.8,0h5.5v5.5h.1c.3-2.3,2.8-6.1,6.5-6.1a6.478,6.478,0,0,1,1.9.2v6.4a7.016,7.016,0,0,0-2.8-.5c-5,0-5,6.5-5,9.9v8.9h-6.2Zm-28.3,0h6.7l5.9,17.8h.1l5.7-17.8h6.2L489.8,35h-7Zm-3.6,23a16.05,16.05,0,0,1-8.2,1.9c-7.9,0-12.4-4.6-12.4-12.6,0-7,3.7-12.9,11-12.9,8.8,0,11.3,6.2,11.3,14.7H455.7c.3,3.9,3,6.2,6.8,6.2a15.087,15.087,0,0,0,7.9-2.5Zm-4.1-13.2c-.2-3.1-1.6-5.7-5-5.7-3.5,0-5.2,2.5-5.5,5.7Zm-41.1,9.3h3.6c5.4,0,10.6-4.1,10.6-11.3S434.2,7.1,428.8,7.1h-3.6ZM418.7,1.9h8.8c9.9,0,18.6,3.4,18.6,16.5s-8.7,16.5-18.6,16.5h-8.8ZM381.1,33.6a15.8,15.8,0,0,1-8.2,1.9c-7.9,0-12.4-4.6-12.4-12.6,0-7,3.6-12.9,11-12.9,8.8,0,11.3,6.2,11.3,14.7H366.4c.3,3.9,3,6.2,6.8,6.2a15.087,15.087,0,0,0,7.9-2.5Zm-4.2-13.2c-.2-3.1-1.6-5.7-5-5.7-3.5,0-5.2,2.5-5.5,5.7ZM338.3.1h6.2V20.3h.1l7.4-9.7h7.3l-8.9,10.9,10,13.5h-7.9l-8-11.8h-.1V35h-6.2V.1Zm-4.9,15.7a9.363,9.363,0,0,0-4.2-.9c-3.8,0-6.3,3.1-6.3,7.7,0,4.5,2.1,7.9,6.4,7.9a15.44,15.44,0,0,0,4.8-1.1l.3,5.3a19.052,19.052,0,0,1-6.2.8c-7.8,0-11.7-5.4-11.7-12.9,0-7.1,4.1-12.6,11.5-12.6a20.26,20.26,0,0,1,6,.8ZM311.2,33.6a16.051,16.051,0,0,1-8.2,1.9c-7.9,0-12.4-4.6-12.4-12.6,0-7,3.7-12.9,11.1-12.9,8.8,0,11.3,6.2,11.3,14.7H296.6c.3,3.9,3,6.2,6.8,6.2a15.087,15.087,0,0,0,7.9-2.5v5.2Zm-4.1-13.2c-.2-3.1-1.6-5.7-5-5.7-3.5,0-5.2,2.5-5.5,5.7ZM286,15.7a14.205,14.205,0,0,0-5.5-1.1c-1.7,0-3.7.6-3.7,2.7,0,3.9,10.8,1.4,10.8,10.2,0,5.7-4.9,8-10,8a26.9,26.9,0,0,1-7-1l.4-5.2a13.212,13.212,0,0,0,6.1,1.6c1.6,0,4.1-.6,4.1-3,0-4.8-10.8-1.5-10.8-10.3,0-5.3,4.5-7.6,9.3-7.6a28.555,28.555,0,0,1,6.7.9ZM265.2,33.6a16.051,16.051,0,0,1-8.2,1.9c-7.9,0-12.4-4.6-12.4-12.6,0-7,3.7-12.9,11-12.9,8.8,0,11.3,6.2,11.3,14.7H250.4c.3,3.9,3,6.2,6.8,6.2a15.087,15.087,0,0,0,7.9-2.5v5.2Zm-4.1-13.2c-.2-3.1-1.6-5.7-5-5.7-3.5,0-5.2,2.5-5.5,5.7ZM233.7,0h6.2V6.1h-6.2Zm0,10.6h6.2V35h-6.2Zm-7.8-2.3a20.358,20.358,0,0,0-8.3-1.8c-7.5,0-11.7,5.2-11.7,12,0,6.7,4.1,11.8,11,11.8a14.655,14.655,0,0,0,4.2-.5V21.2h-6.8V16h13V33.8a37.688,37.688,0,0,1-10.4,1.7c-10.4,0-17.7-5.4-17.7-16.5,0-11.3,6.7-17.7,17.7-17.7a30.174,30.174,0,0,1,9.5,1.4Z"/>
  </g>
</svg>
