<svg id="Layer_1" data-name="Layer 1" xmlns="http://www.w3.org/2000/svg" viewBox="0 0 445.34 172.41"><path d="M175.34,66.06a10,10,0,0,1-6.91-2.37,7.95,7.95,0,0,1,0-11.92,10,10,0,0,1,6.91-2.37,12.12,12.12,0,0,1,5.06,1,7.57,7.57,0,0,1,3.38,2.85,7.87,7.87,0,0,1,1.16,4.27,8.43,8.43,0,0,1-1.16,4.38A8,8,0,0,1,180.4,65,11.27,11.27,0,0,1,175.34,66.06Zm-7.91,44.2V71.13H178a5.21,5.21,0,0,1,3.75,1.47,4.93,4.93,0,0,1,1.53,3.69v39.77h-10a5.75,5.75,0,0,1-5.8-5.8Z" style="fill:#21409a"/><path d="M247.7,116.06a4,4,0,0,1-3.91-3.9l-.21-26.9-14.87,25.1h-7.28L206.56,86.1v26.48a3.26,3.26,0,0,1-1.06,2.48,3.4,3.4,0,0,1-2.42,1H191.37v-58h11a4.37,4.37,0,0,1,3.9,2.11l24.69,40.5-2.64-14.13,15.5-26.16a4.48,4.48,0,0,1,4.12-2.32h10.76l.21,58Z" style="fill:#21409a"/><path d="M309.82,93.59c0,.21-.07,1.52-.21,3.91h-32.7a13.69,13.69,0,0,0,.74,1.79q2.75,5.49,10.34,5.48a15.43,15.43,0,0,0,10.34-3.9l5.9,6.12a3.18,3.18,0,0,1,.95,2.58,3.26,3.26,0,0,1-1.37,2.48q-6.12,4.76-16.35,4.75-11.81,0-19.09-6.54a21.54,21.54,0,0,1-7.28-16.77,21.79,21.79,0,0,1,7-16.67q7-6.54,17.66-6.54,10.34,0,17.2,6.28T309.82,93.59Zm-32.59-6.43c-.07.21-1.35.54-3.85,1s-3.74.83-3.74,1.11h25.42A9.28,9.28,0,0,0,292,83.63a9.1,9.1,0,0,0-6.12-2.06Q279.55,81.57,277.23,87.16Z" style="fill:#21409a"/><path d="M341.36,70.28a20.64,20.64,0,0,1,9.44,2.06A15.58,15.58,0,0,1,357.39,79a23.19,23.19,0,0,1,2.54,11.34v25.74H344.1V92.86q0-9.18-7.38-9.18a8.52,8.52,0,0,0-6.49,2.63c-1.65,1.76-2.48,4.44-2.48,8v15.51a6,6,0,0,1-1.79,4.37,5.9,5.9,0,0,1-4.43,1.85H312V76.61a5.19,5.19,0,0,1,1.63-3.9,5.34,5.34,0,0,1,3.85-1.58H327l-6,10.12a28.12,28.12,0,0,1,9.92-8.33A24.09,24.09,0,0,1,341.36,70.28Z" style="fill:#21409a"/><path d="M395.26,107.2l2.53,7q-4,2.64-11,2.64c-5.84,0-10.33-1.44-13.5-4.33s-4.75-7.17-4.75-12.86V84.52H362V72.71h17.2l-10.66-4.43V61h11.61a4,4,0,0,1,2.11.58,4.14,4.14,0,0,1,1.47,1.53,4.29,4.29,0,0,1,.53,2.11v7.49h10.34V84.52H384.29V99.39a5.24,5.24,0,0,0,1.32,3.86,4.63,4.63,0,0,0,3.43,1.31,8.4,8.4,0,0,0,1.37-.1,4.76,4.76,0,0,1,3,.53A4,4,0,0,1,395.26,107.2Z" style="fill:#21409a"/><path d="M410.87,79.35q5.6-5.58,10.39-7.33a31.55,31.55,0,0,1,10.81-1.74V84.52q-2.11-.21-3.48-.21a11.26,11.26,0,0,0-8,2.69c-1.94,1.79-2.9,4.59-2.9,8.39v16.66a4,4,0,0,1-1.11,2.85,3.72,3.72,0,0,1-2.8,1.16H402V74.82a3.48,3.48,0,0,1,1.11-2.64,3.64,3.64,0,0,1,2.58-1.05H417Z" style="fill:#21409a"/><path d="M183.37,140.18a4.5,4.5,0,0,1-1.44,1.63,6.79,6.79,0,0,1-2.25,1,12,12,0,0,1-2.92.33h-9v-19h8.82a7.18,7.18,0,0,1,4.6,1.33,4.37,4.37,0,0,1,1.67,3.59v.06a4.35,4.35,0,0,1-.74,2.56,4.5,4.5,0,0,1-.79.89,4.91,4.91,0,0,1-1,.65,6.4,6.4,0,0,1,2.6,1.7,4.34,4.34,0,0,1,1,3v.06A5,5,0,0,1,183.37,140.18Zm-4.69-10.46a1.69,1.69,0,0,0-.71-1.46,3.53,3.53,0,0,0-2-.5H171.8v4h3.86a4.44,4.44,0,0,0,2.2-.47,1.64,1.64,0,0,0,.82-1.54Zm1.06,7.61a1.79,1.79,0,0,0-.74-1.51,3.94,3.94,0,0,0-2.36-.56H171.8v4.19h5A4.09,4.09,0,0,0,179,139a1.75,1.75,0,0,0,.79-1.57Z" style="fill:#21409a"/><path d="M204.84,136.76c0,.14,0,.31,0,.51H194.66a3.46,3.46,0,0,0,1.24,2.14,3.69,3.69,0,0,0,2.32.72,4.52,4.52,0,0,0,1.85-.36,6.09,6.09,0,0,0,1.68-1.14l2.37,2.1a7.33,7.33,0,0,1-2.5,2,7.76,7.76,0,0,1-3.45.72,8.32,8.32,0,0,1-3-.54,6.93,6.93,0,0,1-2.42-1.55,7.1,7.1,0,0,1-1.59-2.38,7.87,7.87,0,0,1-.57-3.06v0a8.07,8.07,0,0,1,.53-2.94,7.22,7.22,0,0,1,1.48-2.41,6.92,6.92,0,0,1,2.27-1.64,7.12,7.12,0,0,1,2.92-.59,7,7,0,0,1,3.15.65,6.4,6.4,0,0,1,2.22,1.75,7.32,7.32,0,0,1,1.3,2.53,10.47,10.47,0,0,1,.42,3v.05C204.85,136.44,204.85,136.61,204.84,136.76Zm-5-4.31a2.7,2.7,0,0,0-2.09-.86,2.77,2.77,0,0,0-2.11.85,4.21,4.21,0,0,0-1,2.25h6.22A4,4,0,0,0,199.85,132.45Z" style="fill:#21409a"/><path d="M240.41,141.46a9,9,0,0,1-1.73,1.07,8.66,8.66,0,0,1-2.05.68,12,12,0,0,1-2.5.23,9.82,9.82,0,0,1-3.89-.76,9.39,9.39,0,0,1-5.14-5.19,10,10,0,0,1-.73-3.83v-.06a9.82,9.82,0,0,1,2.77-6.94,9.42,9.42,0,0,1,3.13-2.12,10.08,10.08,0,0,1,4-.78,12.9,12.9,0,0,1,2.43.22,10.7,10.7,0,0,1,2,.6,8.61,8.61,0,0,1,1.66.92,11.73,11.73,0,0,1,1.41,1.2l-2.66,3.07a10,10,0,0,0-2.27-1.57,5.81,5.81,0,0,0-2.6-.58,5.37,5.37,0,0,0-4,1.74,6.24,6.24,0,0,0-1.14,1.89,6.47,6.47,0,0,0-.41,2.3v0a6.53,6.53,0,0,0,.41,2.31,6.08,6.08,0,0,0,1.13,1.91,5.34,5.34,0,0,0,1.74,1.29,5.2,5.2,0,0,0,2.24.47A5.81,5.81,0,0,0,237,139a11,11,0,0,0,2.24-1.63l2.67,2.69A15.3,15.3,0,0,1,240.41,141.46Z" style="fill:#21409a"/><path d="M249.38,143.12V123.28h4.13v19.84Z" style="fill:#21409a"/><path d="M275.32,136.76c0,.14,0,.31,0,.51H265.14a3.46,3.46,0,0,0,1.24,2.14,3.69,3.69,0,0,0,2.32.72,4.52,4.52,0,0,0,1.85-.36,6.13,6.13,0,0,0,1.69-1.14l2.36,2.1a7.33,7.33,0,0,1-2.5,2,7.76,7.76,0,0,1-3.45.72,8.32,8.32,0,0,1-3-.54,6.93,6.93,0,0,1-2.42-1.55,7.1,7.1,0,0,1-1.59-2.38,7.87,7.87,0,0,1-.57-3.06v0a8.07,8.07,0,0,1,.53-2.94,7.22,7.22,0,0,1,1.48-2.41,6.92,6.92,0,0,1,2.27-1.64,7.12,7.12,0,0,1,2.92-.59,7,7,0,0,1,3.15.65,6.4,6.4,0,0,1,2.22,1.75,7.32,7.32,0,0,1,1.3,2.53,10.47,10.47,0,0,1,.42,3v.05C275.33,136.44,275.33,136.61,275.32,136.76Zm-5-4.31a2.7,2.7,0,0,0-2.09-.86,2.77,2.77,0,0,0-2.11.85,4.21,4.21,0,0,0-1,2.25h6.22A4,4,0,0,0,270.33,132.45Z" style="fill:#21409a"/><path d="M291.29,143.12v-1.58a6,6,0,0,1-1.82,1.35,6.09,6.09,0,0,1-2.58.5,6.52,6.52,0,0,1-1.95-.29,4.59,4.59,0,0,1-1.59-.85,4.12,4.12,0,0,1-1.07-1.4,4.45,4.45,0,0,1-.4-1.92v-.05a4.58,4.58,0,0,1,.44-2.07,3.93,3.93,0,0,1,1.21-1.44,5.25,5.25,0,0,1,1.85-.85,8.82,8.82,0,0,1,2.38-.29,10.06,10.06,0,0,1,1.94.16,12.92,12.92,0,0,1,1.62.44v-.25a2.48,2.48,0,0,0-.79-2,3.53,3.53,0,0,0-2.34-.68,10.15,10.15,0,0,0-2.11.2,14.17,14.17,0,0,0-1.91.59l-1-3.16a17.19,17.19,0,0,1,2.51-.84,13.06,13.06,0,0,1,3.15-.32q3.39,0,4.95,1.65a6.53,6.53,0,0,1,1.54,4.62v8.46Zm.08-5.87a5.73,5.73,0,0,0-1.21-.4,6.47,6.47,0,0,0-1.43-.15,3.73,3.73,0,0,0-2.09.52,1.68,1.68,0,0,0-.76,1.49v.06a1.51,1.51,0,0,0,.63,1.3,2.65,2.65,0,0,0,1.63.47,3.68,3.68,0,0,0,2.35-.71,2.25,2.25,0,0,0,.88-1.85Z" style="fill:#21409a"/><path d="M311.76,132.6a4.27,4.27,0,0,0-3.25,1.25,5.49,5.49,0,0,0-1.18,3.89v5.38H303.2V128.55h4.13v2.93a6,6,0,0,1,1.71-2.39,4.11,4.11,0,0,1,2.93-.81v4.32Z" style="fill:#21409a"/><path d="M120.43,10.7H33.74a29.05,29.05,0,0,0-29,29.05v86.69A29.06,29.06,0,0,0,33.74,155.5H77.63A19.68,19.68,0,0,1,59,135.59V84.79H75.65a20,20,0,0,1,20,20V155.5h24.82a29.06,29.06,0,0,0,29.06-29.06V39.75A29.06,29.06,0,0,0,120.43,10.7Zm-35,47.39a27.33,27.33,0,0,0-8.1,18.28c0,.11,0,.21,0,.32h0c0-.11,0-.21,0-.32A27.79,27.79,0,0,0,50.44,50,27.66,27.66,0,0,0,77.29,23.56,27.67,27.67,0,0,0,104.14,50,27.34,27.34,0,0,0,85.39,58.09Z" style="fill:#f7941d"/></svg>