<?xml version="1.0" encoding="UTF-8"?>
<svg id="Layer_1" xmlns="http://www.w3.org/2000/svg" version="1.1" viewBox="0 0 200 238.98">
  <!-- Generator: Adobe Illustrator 29.6.1, SVG Export Plug-In . SVG Version: 2.1.1 Build 9)  -->
  <defs>
    <style>
      .st0 {
        fill: #fff;
      }

      .st1 {
        fill: #fefefe;
      }
    </style>
  </defs>
  <g>
    <path class="st1" d="M94.69,4.38c6.38-.16,12.79-.14,19.09.91,12.56,1.76,24.74,6.15,35.62,12.65,14.12,8.48,26.06,20.59,34.15,34.95,10.19,17.72,14.25,38.83,11.55,59.07-1.78,14.08-6.9,27.7-14.69,39.55-12.61,19.24-32.29,33.82-54.51,39.89-23.99,6.82-50.64,3.74-72.38-8.5-23.9-13.13-41.81-36.9-47.24-63.68-2.52-10.93-2.64-22.33-1.14-33.42,1.35-7.58,3.11-15.15,6.21-22.23,9.14-22.38,27.19-40.92,49.24-50.8,4.83-2.26,9.93-3.86,15.04-5.39,6.26-1.54,12.63-2.59,19.06-3.01M90.7,8.52c-3.56.45-7.14.89-10.63,1.76-3.26.83-6.58,1.47-9.7,2.76-6.84,2.3-13.37,5.47-19.43,9.37-19.2,12.04-33.59,31.47-39.52,53.34-.96,4.09-2.15,8.15-2.45,12.36-1.09,7.99-.98,16.12.06,24.11,2.72,19.8,12.14,38.62,26.45,52.58,7.67,7.78,16.9,13.95,26.79,18.55,13.57,6.15,28.63,8.92,43.49,8.12,2-.42,4.05-.24,6.05-.61,10.25-1.29,20.3-4.26,29.53-8.91,21.82-10.72,39-30.43,46.58-53.53.83-2.6,1.9-5.13,2.55-7.79.93-3.97,1.49-8.03,1.79-12.09.03-2.4.05-4.8.33-7.18.21-3.09-.41-6.15-.34-9.24-.82-8.09-2.39-16.15-5.31-23.75-7-19.23-20.72-35.9-38.14-46.6-17.17-10.73-37.99-15.41-58.1-13.24Z"/>
    <path class="st1" d="M28.04,80.72c2.32-.93,4.95,2.37,3.07,4.25-1.19,1.65-4.01,1.3-4.77-.59-.94-1.44.46-3.01,1.7-3.67Z"/>
    <path class="st1" d="M40.41,82.22c3.47-1.76,7.77-1.59,11.23.12,2.45,1.07,4.62,3.15,5.24,5.82,14.62.14,29.25.06,43.87.1-.03,1.09-.03,2.19,0,3.28-.71.04-1.42.07-2.13.1.11,7-.16,13.98-.19,20.98-1.68.08-3.36.06-5.04.02.11-3.7.09-7.4.14-11.1-1.69.02-3.37-.04-5.06,0-1,1.09-1.77,2.52-3.29,2.97-2.25.98-4.56-1.35-4.53-3.56-.32-1.92,1.62-3.47,3.39-3.48,3.28-.06,6.58.25,9.85-.19-.03-1.89.03-3.78.14-5.66-5.15.05-10.3-.02-15.44.08-.02,7.04-.38,14.08-.22,21.13-1.7-.06-3.39-.06-5.09,0-.04-1.88,0-3.75.04-5.63-2.49,1.27-5.63,1.59-8.15.2-2.83-1.64-4.85-4.52-5.52-7.71,1.92-.59,4.04-1.83,4.41-3.98.31-1.22-.35-2.42-1.21-3.25-1.35-1.54-3.6-.64-5.38-.87.12,2.24.24,4.5,0,6.74-2.12-.1-4.23.04-6.35.04-1.28.06-2.68-.21-3.8.57.06.51.12,1.01.19,1.52,3.41.88,7.14.53,10.31,2.25.79.41,1.59,1,1.91,1.86.35,3.09-1.45,6.33-4.36,7.52-4.14,1.8-8.99.59-12.55-1.94.76-.98,1.62-1.88,2.41-2.84,2.73,1.06,6,2.18,8.73.52.95-.35.54-1.46.54-2.21-3.13-.97-6.67-.73-9.54-2.52-1.49-.95-2.89-2.7-2.21-4.56.03-1.78,1.3-3.23,2.88-3.9,1.9-1.01,4.1-.67,6.16-.69.02-.77.03-1.55.05-2.31-4.01-.05-8.03,0-12.04-.03.07,7.06-.03,14.12.02,21.17-1.51.04-3.03.02-4.54.09-.17-7.03-.09-14.06-.12-21.09-1.23-.48-2.7-.04-4.02-.22-.02,2.13.13,4.27-.09,6.39-3.68-.02-7.44-.23-11.08.45-.06.74-.4,1.98.65,2.14,3.04.34,6.36-.71,9.2.8,2.16,1.15,2.45,3.88,2.43,6.07.08,1.6-.9,2.98-1.84,4.19-1.27,1.48-3.84.86-4.86,2.62.14.99,1.08,1.54,1.79,2.14-.94,1.03-1.74,2.18-2.71,3.19-1.93-1.4-3.55-3.23-4.56-5.39-1.95-.13-4.03-1.15-4.86-3-.29-1.32-.51-3.05.7-3.99,1.06-1.1,2.82-.92,4.15-.46,1.37.43,2.06,1.85,3.36,2.38,1.88.26,3.36-1.27,3.94-2.93-2.31-2.39-5.87-1.65-8.8-2.42-1.87-.34-3.24-2.1-3.33-3.96-.03-1.35-.19-3.02,1.04-3.92,2.45-2.41,6.12-2.23,9.31-2.28-.08-.65.09-1.37-.23-1.96-3.29,0-6.58-.04-9.86.02,0-1.14,0-2.27-.01-3.41,6.61-.06,13.23.05,19.84-.08.68-2.6,2.66-4.78,5.07-5.92M40.17,88.26c3.88.1,7.76-.04,11.64-.05-.48-2.5-3.11-3.84-5.49-3.72-2.57-.25-5.65.94-6.15,3.76M68.38,91.66c.47,2.23.92,4.68-.03,6.86-.55,1.42-1.87,2.29-2.89,3.34.61.89,1.34,2.01,2.55,2,2.02.29,4.02-1.17,4.66-3.06.91-2.97.54-6.11.6-9.16-1.63,0-3.26.02-4.89.02Z"/>
    <path class="st1" d="M131.98,81.47c.88.61,1.8,1.12,2.76,1.59-1.05,1.99-3.12,3.21-5.21,3.83-3.21,1.1-7.01-.84-8.17-3.99.84-.47,1.76-1.09,2.74-1.09.92.63,1.81,1.46,2.98,1.56,1.86.37,3.64-.61,4.9-1.91Z"/>
    <path class="st1" d="M106.15,88.16c4.35-1.59,10.04,1.53,10.26,6.36-.16,2.12-.42,4.54-2.13,6.01.86.84,1.98,1.63,2.17,2.91.34,1.86.76,4.02-.65,5.56-3.08,4.5-10.55,4.34-13.75.07-.72-.94-.92-2.14-1.21-3.26,1.01-.64,2.01-1.29,3.02-1.92.52,1.39,1.14,2.93,2.55,3.62,1.2.73,2.96.74,3.89-.43,1.33-1.21.88-3.16.83-4.74-.75-1.98-3.23-1.08-4.83-1.32.04-.92.08-1.84.12-2.75,2.34.45,4.27-1.66,4.78-3.75-.1-1.29-1.41-2.15-2.65-1.96-1.71-.38-2.4,1.86-3.96,1.91-.88-.43-1.61-1.13-2.4-1.71.18-2.19,1.82-4.06,3.93-4.6h0Z"/>
    <path class="st1" d="M117.5,88.2c22.68-.03,45.37-.04,68.05,0-.05,1.13-.05,2.26-.01,3.39-1.33.02-2.65-.02-3.97-.02.07,7.05-.04,14.09.05,21.13-1.64.04-3.29.12-4.91-.09.1-3.58-.15-7.15-.18-10.73-.49.11-.96.28-1.39.52-2.34,1.29-4.9,2.13-7.15,3.57-.72-1.23-1.28-2.54-1.95-3.8.83-.52,1.84-.85,2.48-1.61-.61-.88-1.73-1.53-2.82-1.22-1.69.52-3.18,2.17-2.95,4.03,0,2.51,2.33,3.97,3.88,5.6-.59,1.26-1.25,2.49-1.91,3.72-2.99-1.78-5.54-4.54-6.53-7.93-.45-2.35-.39-4.99,1.06-7.01,1.33-2.37,4.13-3.62,6.79-3.41,2.86.02,5.4,1.51,7.64,3.15.86-.4,1.73-.76,2.62-1.08-.02-1.59-.03-3.19.08-4.78-7.11-.09-14.22-.01-21.32-.03.11,7.03-.12,14.07.05,21.1-1.6.1-3.21.06-4.8.04,0-1.98.06-3.96.11-5.93-3.3.87-7.23,1.69-10.2-.51-2.37-1.52-2.66-4.57-3.04-7.1,3.1.06,5.29-4.3,3.04-6.55-1.6-1.81-4.22-.8-6.31-1.17-.04,7.07-.03,14.15.03,21.22-1.57-.04-3.15-.03-4.72-.13.17-6.99-.02-13.98.1-20.98-1.22,0-2.44-.02-3.66-.04.13,7.03-.05,14.07.1,21.11-1.7.14-3.4.09-5.1.06.08-3.87.12-7.74.02-11.61-1.24.07-2.47.1-3.71.08,0-1.53,0-3.06.08-4.58,1.24,0,2.47,0,3.72,0-.03-1.68-.07-3.35,0-5.02-1.08.02-2.17.05-3.25.05.03-1.14.04-2.29,0-3.43M145.11,91.55c.55,1.85.44,3.82.31,5.72-.28,1.86-1.58,3.21-3.1,4.18,1.14,2.91,6.23,3.08,7.36.05,1.24-3.16.55-6.63.72-9.93-1.76.02-3.52.02-5.29-.01Z"/>
  </g>
  <g>
    <path d="M91.1.45c3-.22,6.03-.18,9.04-.45,3.62.33,7.27.12,10.87.72,13.95,1.53,27.58,5.99,39.66,13.13,6.32,3.64,12.13,8.13,17.57,12.98,2.29,2.41,4.86,4.56,6.91,7.18,5.15,5.58,9.36,11.97,13.1,18.57.97,2.13,2.25,4.09,3.03,6.31,2.63,5.21,4.2,10.84,5.86,16.41,1.25,5.41,2.15,10.9,2.72,16.43.22,5.29.2,10.59,0,15.88-.62,5.74-1.5,11.46-2.91,17.06-1.02,2.8-1.56,5.75-2.7,8.5-5.44,15.14-14.68,28.89-26.61,39.69-2.43,2.27-5.04,4.35-7.62,6.44-2.96,1.85-5.64,4.17-8.8,5.71-5.63,3.52-11.75,6.18-17.95,8.5-2.65.78-5.27,1.68-7.92,2.45-6.06,1.31-12.16,2.68-18.38,2.82-3.86.46-7.77.4-11.64.22-2.17-.37-4.39-.1-6.55-.55-1.39-.25-2.82-.15-4.21-.48-4.31-.97-8.73-1.51-12.92-2.95-4.63-1.54-9.34-2.96-13.67-5.25-3.73-1.46-7.09-3.67-10.6-5.55-5.73-3.79-11.36-7.8-16.26-12.64-11.7-11-20.7-24.87-25.79-40.1-.56-1.39-1.06-2.8-1.35-4.27C.92,116.91-.38,106.08.09,95.35c.08-5.24,1.06-10.41,1.88-15.57,2.19-9.94,5.62-19.66,10.69-28.51,1.04-2.24,2.63-4.14,3.78-6.32,5.86-8.42,12.57-16.37,20.77-22.6,3.69-3.1,7.7-5.78,11.81-8.29,1.91-.83,3.51-2.23,5.48-2.94,6.29-3.21,12.89-5.88,19.76-7.6,5.5-1.6,11.19-2.3,16.85-3.08M94.69,4.38c-6.43.42-12.8,1.47-19.06,3.01-5.1,1.53-10.2,3.13-15.04,5.39-22.05,9.88-40.1,28.41-49.24,50.8-3.1,7.08-4.86,14.65-6.21,22.23-1.5,11.09-1.38,22.48,1.14,33.42,5.43,26.78,23.34,50.56,47.24,63.68,21.74,12.24,48.39,15.31,72.38,8.5,22.22-6.07,41.9-20.65,54.51-39.89,7.79-11.85,12.91-25.48,14.69-39.55,2.7-20.24-1.36-41.35-11.55-59.07-8.09-14.36-20.03-26.47-34.15-34.95-10.88-6.5-23.06-10.89-35.62-12.65-6.3-1.05-12.71-1.07-19.09-.91Z"/>
    <path d="M90.7,8.52c20.11-2.16,40.93,2.52,58.1,13.24,17.42,10.7,31.14,27.37,38.14,46.6,2.92,7.6,4.5,15.67,5.31,23.75-.07,3.09.55,6.16.34,9.24-.28,2.39-.3,4.78-.33,7.18-.3,4.07-.86,8.12-1.79,12.09-.65,2.66-1.72,5.19-2.55,7.79-7.58,23.1-24.76,42.81-46.58,53.53-9.24,4.65-19.29,7.62-29.53,8.91-2,.38-4.05.2-6.05.61-14.86.8-29.92-1.98-43.49-8.12-9.89-4.6-19.12-10.77-26.79-18.55-14.32-13.96-23.74-32.79-26.45-52.58-1.03-7.99-1.15-16.12-.06-24.11.3-4.21,1.48-8.28,2.45-12.36,5.93-21.87,20.33-41.31,39.52-53.34,6.06-3.9,12.59-7.07,19.43-9.37,3.13-1.28,6.44-1.92,9.7-2.76,3.49-.87,7.07-1.31,10.63-1.76M80.88,12.28c-13.31,2.99-25.96,8.97-36.6,17.54-11.65,9.24-20.97,21.41-26.79,35.09-1.44,3.18-2.41,6.54-3.67,9.79,44.44,0,88.88-.06,133.32-.32,13.14,0,26.29-.07,39.44-.04-4.22-14.78-12.66-28.27-23.69-38.93-11.28-10.83-25.38-18.75-40.57-22.52-13.51-3.42-27.81-3.52-41.43-.61M28.04,80.72c-1.25.66-2.64,2.23-1.7,3.67.76,1.88,3.59,2.24,4.77.59,1.88-1.88-.75-5.19-3.07-4.25M40.41,82.22c-2.41,1.13-4.39,3.32-5.07,5.92-6.61.14-13.22.02-19.84.08.01,1.13.02,2.27.01,3.41,3.29-.06,6.58-.03,9.86-.02.33.59.15,1.31.23,1.96-3.19.04-6.85-.14-9.31,2.28-1.23.9-1.07,2.57-1.04,3.92.09,1.86,1.46,3.62,3.33,3.96,2.92.77,6.49.03,8.8,2.42-.57,1.66-2.06,3.19-3.94,2.93-1.3-.53-1.99-1.96-3.36-2.38-1.33-.47-3.09-.64-4.15.46-1.21.94-.98,2.67-.7,3.99.83,1.85,2.91,2.87,4.86,3,1.01,2.17,2.63,4,4.56,5.39.97-1.01,1.77-2.15,2.71-3.19-.7-.59-1.65-1.14-1.79-2.14,1.02-1.76,3.58-1.14,4.86-2.62.94-1.21,1.92-2.59,1.84-4.19.02-2.19-.27-4.92-2.43-6.07-2.83-1.51-6.16-.47-9.2-.8-1.05-.16-.72-1.41-.65-2.14,3.64-.67,7.39-.47,11.08-.45.22-2.12.07-4.26.09-6.39,1.32.18,2.79-.26,4.02.22.03,7.03-.05,14.06.12,21.09,1.51-.07,3.02-.06,4.54-.09-.05-7.05.05-14.11-.02-21.17,4.01.02,8.02-.02,12.04.03-.02.77-.03,1.54-.05,2.31-2.06.02-4.27-.32-6.16.69-1.58.67-2.86,2.13-2.88,3.9-.69,1.86.71,3.61,2.21,4.56,2.87,1.79,6.41,1.55,9.54,2.52,0,.75.41,1.87-.54,2.21-2.73,1.66-6,.54-8.73-.52-.78.96-1.65,1.86-2.41,2.84,3.57,2.53,8.42,3.74,12.55,1.94,2.91-1.19,4.71-4.43,4.36-7.52-.32-.87-1.12-1.45-1.91-1.86-3.17-1.71-6.9-1.37-10.31-2.25-.07-.51-.14-1.01-.19-1.52,1.12-.78,2.51-.51,3.8-.57,2.12,0,4.23-.14,6.35-.04.23-2.24.11-4.5,0-6.74,1.78.23,4.03-.67,5.38.87.85.83,1.51,2.03,1.21,3.25-.37,2.15-2.5,3.39-4.41,3.98.67,3.19,2.69,6.07,5.52,7.71,2.51,1.38,5.65,1.07,8.15-.2-.04,1.88-.08,3.75-.04,5.63,1.7-.05,3.39-.06,5.09,0-.16-7.05.21-14.09.22-21.13,5.15-.1,10.3-.03,15.44-.08-.11,1.88-.17,3.78-.14,5.66-3.27.44-6.57.13-9.85.19-1.78,0-3.71,1.56-3.39,3.48-.04,2.21,2.28,4.54,4.53,3.56,1.52-.45,2.29-1.88,3.29-2.97,1.68-.04,3.37.02,5.06,0-.04,3.7-.02,7.4-.14,11.1,1.68.04,3.36.06,5.04-.02.03-6.99.31-13.98.19-20.98.71-.04,1.42-.06,2.13-.1-.04-1.09-.04-2.19,0-3.28-14.62-.04-29.25.04-43.87-.1-.61-2.67-2.78-4.76-5.24-5.82-3.46-1.72-7.76-1.88-11.23-.12M131.98,81.47c-1.26,1.3-3.04,2.28-4.9,1.91-1.17-.1-2.06-.93-2.98-1.56-.98,0-1.9.62-2.74,1.09,1.16,3.15,4.97,5.09,8.17,3.99,2.1-.62,4.17-1.84,5.21-3.83-.96-.47-1.88-.99-2.76-1.59M106.15,88.16c-2.11.54-3.75,2.41-3.93,4.6.79.58,1.51,1.27,2.4,1.71,1.56-.05,2.25-2.29,3.96-1.91,1.24-.2,2.54.67,2.65,1.96-.51,2.09-2.44,4.2-4.78,3.75-.04.92-.08,1.83-.12,2.75,1.6.24,4.08-.66,4.83,1.32.05,1.59.5,3.53-.83,4.74-.93,1.17-2.69,1.16-3.89.43-1.41-.69-2.04-2.24-2.55-3.62-1.01.64-2.02,1.29-3.02,1.92.29,1.12.49,2.32,1.21,3.26,3.19,4.27,10.67,4.43,13.75-.07,1.41-1.55.98-3.7.65-5.56-.18-1.28-1.31-2.07-2.17-2.91,1.71-1.48,1.96-3.9,2.13-6.01-.22-4.83-5.92-7.95-10.26-6.36M117.5,88.2c.04,1.14.02,2.29,0,3.43,1.08,0,2.16-.03,3.25-.05-.06,1.68-.02,3.35,0,5.02-1.24.01-2.48.01-3.72,0-.07,1.53-.07,3.05-.08,4.58,1.24.02,2.47-.01,3.71-.08.1,3.87.06,7.74-.02,11.61,1.7.03,3.4.08,5.1-.06-.14-7.04.04-14.08-.1-21.11,1.22.02,2.44.03,3.66.04-.12,6.99.07,13.99-.1,20.98,1.57.1,3.15.1,4.72.13-.06-7.07-.07-14.15-.03-21.22,2.09.37,4.7-.63,6.31,1.17,2.25,2.25.06,6.62-3.04,6.55.39,2.53.67,5.58,3.04,7.1,2.97,2.2,6.9,1.38,10.2.51-.06,1.98-.11,3.96-.11,5.93,1.6.02,3.21.06,4.8-.04-.16-7.03.06-14.07-.05-21.1,7.11.02,14.22-.06,21.32.03-.12,1.59-.1,3.19-.08,4.78-.89.31-1.77.67-2.62,1.08-2.24-1.64-4.78-3.13-7.64-3.15-2.66-.2-5.46,1.04-6.79,3.41-1.45,2.02-1.51,4.66-1.06,7.01,1,3.39,3.54,6.14,6.53,7.93.66-1.23,1.31-2.46,1.91-3.72-1.55-1.63-3.87-3.1-3.88-5.6-.23-1.85,1.26-3.51,2.95-4.03,1.09-.31,2.21.34,2.82,1.22-.64.77-1.65,1.1-2.48,1.61.67,1.26,1.23,2.57,1.95,3.8,2.26-1.43,4.82-2.28,7.15-3.57.44-.24.9-.41,1.39-.52.03,3.58.27,7.15.18,10.73,1.63.21,3.27.13,4.91.09-.08-7.05.02-14.09-.05-21.13,1.32,0,2.64.04,3.97.02-.04-1.13-.04-2.26.01-3.39-22.68-.05-45.37-.04-68.05,0M13.96,124.78c5.2,18.02,16.38,34.17,31.17,45.66,7.72,6.06,16.5,10.72,25.73,14.02,4.35,1.49,8.83,2.54,13.32,3.5,4.06.81,8.2,1.03,12.32,1.38,3.66,0,7.35.18,10.99-.27,7.72-.42,15.32-2.24,22.63-4.72,13.29-4.64,25.42-12.49,35.19-22.62,9.67-10.07,16.98-22.41,21.13-35.75-5.74-.07-11.47,0-17.21-.06-2.94-.17-5.89-.12-8.84-.14-14.33,0-28.65-.14-42.98-.21-7.37.1-14.73-.19-22.09-.25-15.53-.28-31.07-.13-46.6-.32-11.59-.1-23.18-.05-34.76-.23h0Z"/>
    <path d="M40.17,88.26c.5-2.82,3.58-4.02,6.15-3.76,2.37-.12,5.01,1.21,5.49,3.72-3.88,0-7.76.14-11.64.05Z"/>
    <path d="M68.38,91.66c1.63,0,3.26-.02,4.89-.02-.06,3.06.31,6.19-.6,9.16-.64,1.89-2.64,3.35-4.66,3.06-1.21,0-1.94-1.11-2.55-2,1.02-1.05,2.34-1.92,2.89-3.34.95-2.17.5-4.62.03-6.86Z"/>
    <path d="M145.11,91.55c1.76.03,3.52.03,5.29.01-.17,3.31.52,6.77-.72,9.93-1.13,3.03-6.21,2.86-7.36-.05,1.52-.96,2.82-2.32,3.1-4.18.12-1.9.24-3.87-.31-5.72Z"/>
    <path d="M155.76,204.92c3.9-.51,8.07-.34,11.61,1.56,3.69,1.9,6.35,5.52,7.32,9.53.97,4.03.95,8.32-.16,12.32-1.16,4.17-4.25,7.79-8.28,9.42-2.97,1.27-6.28,1.37-9.46,1.11-4.43-.42-8.73-2.86-11.03-6.72-2.77-4.53-2.96-10.16-2.06-15.26,1.04-5.96,5.95-11.2,12.07-11.96M156.54,210.86c-2.87.8-5.07,3.29-5.79,6.15-.85,3.35-.86,6.99.26,10.28,1.13,3.25,4.26,5.82,7.77,5.84,2.97.27,6.02-1.12,7.7-3.6,1.67-2.47,2.01-5.57,1.95-8.48-.11-2.85-.66-5.96-2.77-8.05-2.27-2.46-6-2.97-9.12-2.14h0Z"/>
    <path d="M10.07,205.32c2.21-.02,4.41-.02,6.61,0,.02,11.01,0,22.02.01,33.02-2.21.01-4.42,0-6.63,0,0-11.01-.01-22.02,0-33.03Z"/>
    <path d="M66.3,205.31c2.14,0,4.29-.04,6.43.03,0,10.99-.01,21.99,0,32.98-1.98.04-3.95.03-5.93.03-.01-1.08-.02-2.15-.03-3.23-1.83,2.28-4.6,3.98-7.6,3.84-3.49.11-6.7-2.17-8.33-5.16-1.69-3.08-1.84-6.74-1.49-10.16.31-2.92,1.53-5.86,3.89-7.7,2.23-1.9,5.36-2.36,8.17-1.84,1.92.39,3.48,1.65,4.9,2.92-.05-3.9-.02-7.81-.02-11.71M59.3,219.16c-1.55.65-2.71,2.11-3.1,3.74-.51,2.02-.42,4.15-.11,6.2.28,1.83,1.37,3.61,3.09,4.39,1.68.67,3.79.46,5.09-.88,1.86-1.68,2.19-4.37,2.12-6.74-.1-2-.41-4.22-1.91-5.68-1.3-1.37-3.45-1.67-5.18-1.02h0Z"/>
    <path d="M78.59,205.3c2.13,0,4.26,0,6.38,0,.01,1.94.01,3.88,0,5.82-2.13,0-4.25,0-6.38,0-.07-1.94-.07-3.89,0-5.83Z"/>
    <path d="M180.09,205.32c2.13-.02,4.27-.02,6.41,0,.02,1.93.02,3.86,0,5.79-2.13.02-4.27.02-6.41,0-.02-1.93-.02-3.86,0-5.79Z"/>
    <path d="M192.63,205.35c2.14-.07,4.28-.04,6.42-.03.02,11.01.01,22.02,0,33.02-2.15,0-4.29.02-6.43-.02.02-10.99,0-21.99,0-32.98Z"/>
    <path d="M33.81,214.22c2.95-.68,6.42-.34,8.71,1.82,1.86,1.84,2.02,4.6,2.08,7.07.02,5.07-.02,10.15.02,15.22-2.15.04-4.29.02-6.44.02-.11-5.48.27-10.99-.26-16.45-.3-3-4.16-3.89-6.36-2.31-1.96,1.06-2.32,3.45-2.39,5.47-.06,4.42,0,8.85-.04,13.28-2.14.02-4.29.02-6.43,0,.03-7.99,0-15.99.02-23.98,2-.01,3.99,0,5.99-.01.04,1.05.04,2.11.04,3.17,1.47-1.39,3.04-2.82,5.07-3.28Z"/>
    <path d="M94.49,215c2.86-1.32,6.11-1.15,9.17-.96,2.65.22,5.66,1.44,6.61,4.14,1.64,6.61-1.1,13.8,1.82,20.17-2.17-.01-4.35.07-6.52-.06-.2-.77-.43-1.53-.66-2.29-1.71,1.43-3.69,2.71-5.97,2.92-2.41.22-5.06,0-6.97-1.62-2.94-2.33-3.32-7.17-.82-9.95,1.51-1.7,3.82-2.32,5.96-2.8,2.45-.49,4.91-.97,7.31-1.68.11-1.19.09-2.66-1.03-3.39-1.32-.78-2.96-.65-4.43-.54-1.54.17-2.38,1.63-2.98,2.89-1.94-.29-3.87-.68-5.82-.99.69-2.36,2.04-4.71,4.34-5.82M97.74,228.75c-1.61.57-2.36,2.68-1.33,4.1,1.37,2.3,4.8,1.91,6.56.29,1.87-1.42,1.43-4.02,1.5-6.07-2.24.56-4.55.9-6.73,1.69h0Z"/>
    <path d="M127.5,214.26c3.02-.76,6.61-.39,8.93,1.86,1.76,1.84,1.94,4.55,1.98,6.97,0,5.08.01,10.17-.01,15.25-2.14.02-4.29.02-6.43,0-.11-5.52.3-11.08-.27-16.57-.41-3.09-4.58-3.76-6.67-1.92-1.82,1.26-1.98,3.66-2.06,5.67-.05,4.27,0,8.54-.02,12.82-2.14.05-4.29.02-6.43.02.02-8-.06-16,.04-24.01,1.99,0,3.98,0,5.98,0,0,1.02,0,2.04.05,3.07,1.46-1.3,2.97-2.66,4.92-3.16h0Z"/>
    <path d="M78.55,214.34c2.13,0,4.25,0,6.38,0,.09,8,.02,16,.03,24.01-2.15.02-4.29.02-6.43-.02.02-7.99,0-15.98.02-23.98Z"/>
    <path d="M180.1,214.33c2.13.02,4.26.02,6.39,0,.05,8.01.02,16.01.02,24.02-2.14.01-4.28.01-6.42,0,0-8.01-.03-16.01.02-24.01h0Z"/>
  </g>
  <g>
    <path class="st0" d="M80.88,12.28c13.61-2.92,27.92-2.82,41.43.61,15.19,3.78,29.29,11.69,40.57,22.52,11.03,10.66,19.47,24.15,23.69,38.93-13.15-.03-26.29.04-39.44.04-44.43.26-88.87.31-133.32.32,1.26-3.25,2.23-6.61,3.67-9.79,5.82-13.69,15.14-25.86,26.79-35.09,10.64-8.56,23.28-14.55,36.6-17.54Z"/>
    <path class="st0" d="M13.96,124.78c11.59.18,23.17.14,34.76.23,15.53.19,31.07.04,46.6.32,7.36.06,14.72.35,22.09.25,14.33.06,28.65.21,42.98.21,2.95.02,5.9-.04,8.84.14,5.74.06,11.47-.01,17.21.06-4.14,13.34-11.45,25.68-21.13,35.75-9.77,10.13-21.9,17.97-35.19,22.62-7.31,2.48-14.91,4.3-22.63,4.72-3.65.45-7.33.27-10.99.27-4.12-.35-8.26-.57-12.32-1.38-4.5-.96-8.97-2.01-13.32-3.5-9.23-3.29-18.01-7.96-25.73-14.02-14.79-11.5-25.97-27.64-31.17-45.66h0Z"/>
  </g>
</svg>