<?xml version="1.0" encoding="UTF-8"?>
<svg id="Layer_1" data-name="Layer 1" xmlns="http://www.w3.org/2000/svg" version="1.1" viewBox="0 0 312 93">
  <defs>
    <style>
      .cls-1 {
        fill: #000;
        stroke-width: 0px;
      }
    </style>
  </defs>
  <g id="Group_369" data-name="Group 369">
    <path id="Path_66" data-name="Path 66" class="cls-1" d="M35.9,61.2c-9.7,0-14.9-5.1-14.9-14.7v-13.2h-5.5v-12.3h5.6v-10.3h15v10.3h7.8v12.3h-7.8v11.3c0,2.2.8,3.1,2.9,3.1s2.5-.3,3.7-.7l1.5-.7v13.4l-.6.3c-2.5.9-5.1,1.3-7.7,1.2M17.8,31.1h5.5v15.4c0,8.4,4.1,12.5,12.7,12.5s4.1-.2,6.1-.8v-8.7c-1,.3-2,.4-3,.4-3.3,0-5.1-1.9-5.1-5.2v-13.6h7.8v-7.9h-7.8v-10.3h-10.7v10.3h-5.5s0,7.9,0,7.9Z"/>
    <path id="Path_67" data-name="Path 67" class="cls-1" d="M87.3,60.5h-15.1v-22.4c0-1.9-.6-4.2-3.8-4.2-2,0-3.8,1.2-4.3,3.1v23.5h-15.2V4.4h15.2v18.5c2.6-1.8,5.7-2.8,8.9-2.7,8.8,0,14.3,5.7,14.3,14.8,0,0,0,25.5,0,25.5ZM74.4,58.3h10.7v-23.4c0-7.9-4.5-12.6-12.1-12.6-3.5-.1-6.8,1.2-9.2,3.7l-1.9,2.1V6.6h-10.8v51.7h10.8v-21.7c.7-2.9,3.4-5,6.5-4.9,3.7,0,6,2.5,6,6.4v20.2Z"/>
    <path id="Path_68" data-name="Path 68" class="cls-1" d="M107.4,60.5h-15.3V21h15.2v39.5h.1ZM94.3,58.3h10.8V23.2h-10.8v35.1ZM99.8,18.6c-4.5-.2-8-4-7.8-8.5s4-8,8.5-7.8c4.4.2,7.8,3.8,7.8,8.2s-3.7,8.1-8.1,8.1h-.4M99.8,4.6c-3.3.2-5.7,3-5.5,6.3s3,5.7,6.3,5.5c3.1-.2,5.5-2.7,5.6-5.9,0-3.3-2.6-5.9-5.9-6-.3,0-.4,0-.5,0"/>
    <path id="Path_69" data-name="Path 69" class="cls-1" d="M127.6,60.5h-15.2V21h15.2v1.7c2.1-1.7,4.7-2.5,7.3-2.5,1.4-.1,2.8.2,4.1.8l.5.3v15l-1.6-.8c-1.5-.7-3.2-1.1-4.9-1-2.9,0-4.9,1.2-5.5,3.3v22.7ZM114.6,58.3h10.8v-21c.8-3.2,3.7-5.1,7.7-5.1s2.9.2,4.3.6v-10.1c-.8-.2-1.6-.3-2.5-.3-3-.1-5.8,1.3-7.6,3.7l-2,2.7v-5.5h-10.8v35Z"/>
    <path id="Path_70" data-name="Path 70" class="cls-1" d="M163.8,61.2c-9.7,0-14.9-5.1-14.9-14.7v-13.2h-5.5v-12.3h5.5v-10.3h15v10.3h7.8v12.3h-7.8v11.3c0,2.2.8,3,2.9,3s2.5-.3,3.7-.7l1.5-.7v13.4l-.6.3c-2.4,1-5,1.4-7.6,1.3M145.7,31.1h5.5v15.4c0,8.4,4.1,12.5,12.6,12.5s4.1-.2,6.1-.8v-8.7c-1,.3-2,.4-3.1.4-3.3,0-5.1-1.9-5.1-5.2v-13.6h7.8v-7.9h-7.8v-10.3h-10.6v10.3h-5.5v7.9h.1Z"/>
    <path id="Path_71" data-name="Path 71" class="cls-1" d="M195.2,61.3c-12,0-20.1-8.3-20.1-20.6s8.3-20.6,19.8-20.6,19,7.6,19,19.8v3.3h-24c.7,5.1,3.3,5.7,5.2,5.7,1.8.2,3.6-.8,4.4-2.4l.3-.7h14.1l-.2,1.3c-1.4,8.8-8.5,14.2-18.5,14.2M195,22.4c-10.4,0-17.6,7.6-17.6,18.4s7.2,18.4,17.9,18.4,14.4-4.1,16.1-11h-10c-1.3,2.1-3.7,3.2-6.2,3.1-3.1,0-7-1.5-7.6-8.9v-1.2c-.1,0,24.1,0,24.1,0v-1.1c.1-11-6.4-17.7-16.7-17.7M201.4,37.1h-13.8l.3-1.4c1-3.8,3.5-6,7-6,3.5-.1,6.3,2.7,6.4,6.1h0c0,0,.1,1.3.1,1.3ZM190.5,34.9h8.4c-.5-1.8-2.1-3-4-2.9-1.9-.1-3.7,1.1-4.4,2.9"/>
    <path id="Path_72" data-name="Path 72" class="cls-1" d="M237.2,61.3c-12,0-20.1-8.3-20.1-20.6s8.3-20.6,19.8-20.6,19,7.6,19,19.8v3.3h-24c.7,5.1,3.3,5.7,5.2,5.7,1.8.2,3.6-.7,4.4-2.4l.3-.7h14.1l-.2,1.3c-1.4,8.8-8.5,14.2-18.5,14.2M236.9,22.4c-10.4,0-17.6,7.6-17.6,18.4s7.2,18.4,17.9,18.4,14.4-4.1,16.1-11h-10c-1.3,2.1-3.7,3.3-6.2,3.1-3.1,0-7-1.5-7.5-8.9v-1.2c-.1,0,24.1,0,24.1,0v-1.1c0-11-6.4-17.7-16.8-17.7M243.4,37.1h-13.8l.3-1.4c1-3.8,3.5-6,7-6,3.5-.1,6.3,2.7,6.4,6.1h0c0,0,.1,1.3.1,1.3ZM232.5,34.9h8.4c-.5-1.8-2.1-3-4-2.9-1.9-.1-3.7,1.1-4.4,2.9"/>
    <path id="Path_73" data-name="Path 73" class="cls-1" d="M298.2,60.5h-15.1v-22.4c0-1.9-.7-4.2-3.8-4.2-2,0-3.8,1.2-4.3,3.1v23.5h-15.2V21h15.2v1.9c2.6-1.8,5.7-2.8,8.9-2.7,8.8,0,14.3,5.7,14.3,14.8v25.5ZM285.3,58.3h10.7v-23.3c0-7.9-4.5-12.6-12.1-12.6-3.5-.1-6.8,1.2-9.2,3.7l-1.9,2.1v-5h-10.8v35.1h10.8v-21.7c.7-2.9,3.4-5,6.4-4.9,3.7,0,6,2.5,6,6.4v20.2Z"/>
  </g>
  <g>
    <path class="cls-1" d="M21.4,88.2v-14.2h1.9l5.1,10.7,5.1-10.7h1.9v14.2h-2v-9.7l-4.6,9.7h-.9l-4.6-9.7v9.7h-2Z"/>
    <path class="cls-1" d="M41.2,88.5c-.8,0-1.5-.2-2-.4-.5-.3-.9-.7-1.2-1.2-.3-.5-.4-1-.4-1.6s.1-1,.3-1.4c.2-.4.5-.8.9-1,.4-.3.8-.5,1.4-.7.5-.1,1-.3,1.6-.4.6,0,1.2-.2,1.9-.3.7,0,1.3-.2,2-.3l-.8.4c0-.8-.2-1.4-.5-1.8-.4-.4-1-.6-1.9-.6s-1.1.1-1.5.4c-.5.3-.8.7-1,1.3l-1.9-.6c.3-.9.8-1.6,1.5-2.2s1.7-.8,3-.8,1.8.2,2.5.5,1.2.8,1.5,1.5c.2.3.3.7.3,1.1,0,.4,0,.8,0,1.2v6.5h-1.8v-2.4l.3.3c-.4.8-1,1.4-1.7,1.8s-1.5.6-2.5.6h0ZM41.5,86.8c.6,0,1.1,0,1.5-.3s.8-.5,1-.8.4-.7.5-1c.1-.3.2-.7.2-1.1s0-.7,0-.9l.7.2c-.7,0-1.2.2-1.8.3-.5,0-1,.2-1.4.2-.4,0-.8.2-1.1.3-.3,0-.5.2-.8.3-.2.1-.4.3-.5.5s-.2.4-.2.7,0,.5.2.8.4.4.6.6c.3.1.6.2,1.1.2h0Z"/>
    <path class="cls-1" d="M49.4,88.2v-10.6h1.8v3.1h.2v7.6h-2.1ZM56.8,88.2v-5.2c0-.4,0-.8,0-1.3,0-.4-.2-.8-.4-1.2s-.5-.7-.8-.9-.8-.3-1.4-.3-.7,0-1,.2c-.3.1-.6.3-.9.6s-.4.6-.6,1.1c-.1.4-.2,1-.2,1.6l-1.3-.5c0-1,.2-1.8.5-2.6.4-.7.9-1.3,1.5-1.7.7-.4,1.5-.6,2.5-.6s1.3.1,1.8.3c.5.2.9.6,1.2.9s.5.8.7,1.2.3.9.3,1.3c0,.4,0,.8,0,1.1v5.9h-2.1,0Z"/>
    <path class="cls-1" d="M64.5,88.5c-.8,0-1.5-.2-2-.4s-.9-.7-1.2-1.2c-.3-.5-.4-1-.4-1.6s0-1,.3-1.4c.2-.4.5-.8.8-1,.4-.3.8-.5,1.4-.7.5-.1,1-.3,1.6-.4.6,0,1.2-.2,1.9-.3.7,0,1.3-.2,2-.3l-.8.4c0-.8-.2-1.4-.5-1.8-.4-.4-1-.6-1.9-.6s-1.1.1-1.5.4c-.5.3-.8.7-1,1.3l-1.9-.6c.3-.9.8-1.6,1.5-2.2s1.7-.8,3-.8,1.8.2,2.5.5,1.2.8,1.5,1.5c.2.3.3.7.3,1.1,0,.4,0,.8,0,1.2v6.5h-1.8v-2.4l.3.3c-.4.8-1,1.4-1.7,1.8s-1.5.6-2.5.6h0ZM64.8,86.8c.6,0,1.1,0,1.5-.3s.8-.5,1-.8.4-.7.5-1c.1-.3.2-.7.2-1.1s0-.7,0-.9l.7.2c-.7,0-1.2.2-1.8.3-.5,0-1,.2-1.4.2-.4,0-.8.2-1.2.3-.3,0-.5.2-.8.3-.2.1-.4.3-.5.5s-.2.4-.2.7,0,.5.2.8.3.4.6.6c.3.1.6.2,1.1.2h0Z"/>
    <path class="cls-1" d="M76.9,88.5c-1,0-1.8-.2-2.6-.7-.7-.5-1.3-1.2-1.7-2s-.6-1.8-.6-2.9.2-2,.6-2.9,1-1.5,1.7-2c.7-.5,1.6-.7,2.6-.7s1.8.2,2.5.7,1.2,1.2,1.6,2c.3.8.5,1.8.5,2.9s-.2,2-.5,2.9c-.3.8-.9,1.5-1.6,2-.7.5-1.5.7-2.6.7h0ZM77.1,93.2c-.6,0-1.1,0-1.7-.3-.5-.2-1-.4-1.5-.8s-.8-.8-1.1-1.3l1.9-1c.2.4.6.8,1,1,.4.2.9.3,1.3.3s1.1,0,1.5-.3c.4-.2.7-.5.9-.9s.3-.9.3-1.5v-3h.2v-7.9h1.8v10.9c0,.3,0,.6,0,.8,0,.3,0,.5-.1.8-.2.7-.4,1.3-.9,1.8s-1,.8-1.6,1-1.4.3-2.2.3h0ZM77.2,86.6c.7,0,1.2-.2,1.7-.5.4-.3.7-.8.9-1.3s.3-1.2.3-1.9,0-1.4-.3-1.9c-.2-.6-.5-1-.9-1.3-.4-.3-.9-.5-1.6-.5s-1.2.2-1.7.5-.8.8-1,1.3-.3,1.2-.3,1.9.1,1.3.3,1.9c.2.6.5,1,1,1.3s1,.5,1.6.5h0Z"/>
    <path class="cls-1" d="M84.8,75.8v-2h2.1v2h-2.1ZM84.8,88.2v-10.6h2.1v10.6h-2.1Z"/>
    <path class="cls-1" d="M89.8,88.2v-10.6h1.8v3.1h.2v7.6h-2.1ZM97.3,88.2v-5.2c0-.4,0-.8,0-1.3,0-.4-.2-.8-.4-1.2s-.5-.7-.8-.9-.8-.3-1.4-.3-.7,0-1,.2c-.3.1-.6.3-.9.6s-.4.6-.6,1.1c-.1.4-.2,1-.2,1.6l-1.3-.5c0-1,.2-1.8.5-2.6.4-.7.9-1.3,1.6-1.7.7-.4,1.5-.6,2.4-.6s1.3.1,1.8.3c.5.2.9.6,1.2.9s.6.8.7,1.2.3.9.3,1.3c0,.4,0,.8,0,1.1v5.9h-2.1,0Z"/>
    <path class="cls-1" d="M106.2,88.5c-1,0-1.8-.2-2.6-.7s-1.3-1.2-1.7-2c-.4-.8-.6-1.8-.6-2.9s.2-2,.6-2.9.9-1.5,1.7-2,1.6-.7,2.6-.7,1.8.2,2.5.7,1.2,1.2,1.6,2c.3.8.5,1.8.5,2.9s-.2,2-.5,2.9c-.3.8-.9,1.5-1.6,2-.7.5-1.5.7-2.6.7h0ZM106.3,93.2c-.6,0-1.1,0-1.7-.3-.5-.2-1-.4-1.5-.8s-.8-.8-1.1-1.3l1.9-1c.2.4.6.8,1,1,.4.2.9.3,1.3.3s1.1,0,1.5-.3c.4-.2.7-.5.9-.9s.3-.9.3-1.5v-3h.2v-7.9h1.8v10.9c0,.3,0,.6,0,.8,0,.3,0,.5-.1.8-.2.7-.4,1.3-.9,1.8s-1,.8-1.6,1-1.4.3-2.2.3h0ZM106.4,86.6c.7,0,1.2-.2,1.7-.5.4-.3.7-.8.9-1.3s.3-1.2.3-1.9,0-1.4-.3-1.9c-.2-.6-.5-1-.9-1.3-.4-.3-.9-.5-1.6-.5s-1.2.2-1.7.5-.8.8-1,1.3-.3,1.2-.3,1.9.1,1.3.3,1.9c.2.6.5,1,1,1.3s1,.5,1.6.5h0Z"/>
    <path class="cls-1" d="M120.8,88.5c-.8,0-1.4-.2-2-.4-.5-.3-.9-.7-1.2-1.2-.3-.5-.4-1-.4-1.6s0-1,.3-1.4c.2-.4.5-.8.8-1,.4-.3.8-.5,1.4-.7.5-.1,1-.3,1.6-.4.6,0,1.2-.2,1.9-.3.7,0,1.3-.2,2-.3l-.8.4c0-.8-.2-1.4-.5-1.8-.4-.4-1-.6-1.9-.6s-1.1.1-1.5.4c-.5.3-.8.7-1,1.3l-1.9-.6c.3-.9.8-1.6,1.5-2.2s1.7-.8,2.9-.8,1.8.2,2.5.5,1.2.8,1.6,1.5c.2.3.3.7.3,1.1,0,.4,0,.8,0,1.2v6.5h-1.8v-2.4l.3.3c-.4.8-1,1.4-1.7,1.8s-1.5.6-2.5.6h0ZM121.2,86.8c.6,0,1.1,0,1.5-.3s.8-.5,1-.8.4-.7.5-1c.1-.3.2-.7.2-1.1s0-.7,0-.9l.7.2c-.7,0-1.2.2-1.8.3-.5,0-1,.2-1.4.2-.4,0-.8.2-1.2.3-.3,0-.5.2-.8.3-.2.1-.4.3-.5.5s-.2.4-.2.7,0,.5.2.8.3.4.6.6.6.2,1.1.2h0Z"/>
    <path class="cls-1" d="M129,88.2v-10.6h1.8v3.1h.2v7.6h-2.1ZM136.5,88.2v-5.2c0-.4,0-.8,0-1.3,0-.4-.2-.8-.4-1.2s-.5-.7-.8-.9-.8-.3-1.4-.3-.7,0-1,.2c-.3.1-.6.3-.9.6s-.4.6-.6,1.1c-.1.4-.2,1-.2,1.6l-1.3-.5c0-1,.2-1.8.5-2.6.4-.7.9-1.3,1.6-1.7.7-.4,1.5-.6,2.4-.6s1.3.1,1.8.3c.5.2.9.6,1.2.9s.6.8.7,1.2.3.9.3,1.3c0,.4,0,.8,0,1.1v5.9h-2.1,0Z"/>
    <path class="cls-1" d="M145.2,88.5c-1,0-1.8-.2-2.6-.7s-1.3-1.2-1.7-2-.6-1.8-.6-2.9.2-2,.6-2.9.9-1.5,1.7-2,1.6-.7,2.6-.7,1.9.2,2.5.7,1.2,1.2,1.6,2c.4.8.5,1.8.5,2.9s-.2,2-.5,2.9c-.4.8-.9,1.5-1.6,2-.7.5-1.5.7-2.6.7h0ZM145.5,86.6c.7,0,1.2-.2,1.6-.5.4-.3.7-.8.9-1.3s.3-1.2.3-1.9-.1-1.4-.3-1.9c-.2-.6-.5-1-.9-1.3-.4-.3-.9-.5-1.6-.5s-1.2.2-1.7.5c-.4.3-.8.8-1,1.3s-.3,1.2-.3,1.9.1,1.3.3,1.9c.2.6.5,1,1,1.3.4.3,1,.5,1.6.5h0ZM148.4,88.2v-7.6h-.2v-6.5h2.1v14.2h-1.8Z"/>
    <path class="cls-1" d="M156.9,88.2v-14.2h2.1v6.5h-.2v7.6h-1.8ZM161.9,88.5c-1,0-1.9-.2-2.6-.7s-1.2-1.2-1.6-2c-.4-.8-.5-1.8-.5-2.9s.2-2,.5-2.9c.4-.8.9-1.5,1.6-2,.7-.5,1.5-.7,2.5-.7s1.9.2,2.6.7c.7.5,1.3,1.2,1.7,2s.6,1.8.6,2.9-.2,2-.6,2.9c-.4.8-.9,1.5-1.7,2-.7.5-1.6.7-2.6.7h0ZM161.6,86.6c.7,0,1.2-.2,1.6-.5.4-.3.8-.8,1-1.3.2-.6.3-1.2.3-1.9s-.1-1.3-.3-1.9c-.2-.6-.5-1-1-1.3-.4-.3-1-.5-1.7-.5s-1.2.2-1.6.5c-.4.3-.7.8-.9,1.3-.2.6-.3,1.2-.3,1.9s.1,1.4.3,1.9.5,1,.9,1.3c.4.3,1,.5,1.6.5h0Z"/>
    <path class="cls-1" d="M172.9,88.5c-.7,0-1.4-.1-1.9-.3-.5-.2-.9-.6-1.2-.9s-.6-.8-.7-1.2-.3-.9-.3-1.3,0-.8,0-1.1v-5.9h2.1v5.2c0,.4,0,.8.1,1.3s.2.8.4,1.2.5.7.8.9.8.3,1.4.3.7,0,1-.2c.3-.1.6-.3.9-.6s.4-.6.6-1.1c.1-.4.2-1,.2-1.6l1.3.5c0,1-.2,1.8-.5,2.6-.4.7-.9,1.3-1.6,1.7-.7.4-1.5.6-2.4.6h0ZM176.4,88.2v-3.1h-.2v-7.6h2.1v10.6h-1.8Z"/>
    <path class="cls-1" d="M181.2,75.8v-2h2.1v2h-2.1ZM181.2,88.2v-10.6h2.1v10.6h-2.1Z"/>
    <path class="cls-1" d="M186.4,88.2v-14.5h2.1v14.5h-2.1Z"/>
    <path class="cls-1" d="M195.6,88.5c-1,0-1.8-.2-2.6-.7s-1.3-1.2-1.7-2-.6-1.8-.6-2.9.2-2,.6-2.9.9-1.5,1.7-2,1.6-.7,2.6-.7,1.9.2,2.5.7,1.2,1.2,1.6,2c.4.8.5,1.8.5,2.9s-.2,2-.5,2.9c-.4.8-.9,1.5-1.6,2-.7.5-1.5.7-2.6.7h0ZM195.9,86.6c.7,0,1.2-.2,1.6-.5.4-.3.7-.8.9-1.3s.3-1.2.3-1.9-.1-1.4-.3-1.9c-.2-.6-.5-1-.9-1.3-.4-.3-.9-.5-1.6-.5s-1.2.2-1.7.5c-.4.3-.8.8-1,1.3s-.3,1.2-.3,1.9.1,1.3.3,1.9c.2.6.5,1,1,1.3.4.3,1,.5,1.6.5h0ZM198.8,88.2v-7.6h-.2v-6.5h2.1v14.2h-1.8Z"/>
    <path class="cls-1" d="M203.6,75.8v-2h2.1v2h-2.1ZM203.6,88.2v-10.6h2.1v10.6h-2.1Z"/>
    <path class="cls-1" d="M208.6,88.2v-10.6h1.8v3.1h.2v7.6h-2.1ZM216,88.2v-5.2c0-.4,0-.8-.1-1.3,0-.4-.2-.8-.4-1.2s-.5-.7-.8-.9-.8-.3-1.4-.3-.7,0-1,.2c-.3.1-.6.3-.9.6s-.4.6-.6,1.1c-.1.4-.2,1-.2,1.6l-1.3-.5c0-1,.2-1.8.5-2.6.4-.7.9-1.3,1.6-1.7.7-.4,1.5-.6,2.4-.6s1.4.1,1.9.3c.5.2.9.6,1.2.9s.6.8.7,1.2.3.9.3,1.3c0,.4,0,.8,0,1.1v5.9h-2.1,0Z"/>
    <path class="cls-1" d="M224.9,88.5c-1,0-1.8-.2-2.6-.7s-1.3-1.2-1.7-2-.6-1.8-.6-2.9.2-2,.6-2.9.9-1.5,1.7-2,1.6-.7,2.6-.7,1.9.2,2.5.7,1.2,1.2,1.6,2c.4.8.5,1.8.5,2.9s-.2,2-.5,2.9c-.4.8-.9,1.5-1.6,2-.7.5-1.5.7-2.6.7h0ZM225.1,93.2c-.6,0-1.1,0-1.7-.3-.5-.2-1-.4-1.5-.8s-.8-.8-1.1-1.3l1.9-1c.2.4.6.8,1,1,.4.2.9.3,1.4.3s1.1,0,1.5-.3c.4-.2.7-.5.9-.9s.3-.9.3-1.5v-3h.2v-7.9h1.8v10.9c0,.3,0,.6,0,.8,0,.3,0,.5-.1.8-.1.7-.4,1.3-.9,1.8s-1,.8-1.6,1-1.4.3-2.2.3h0ZM225.2,86.6c.7,0,1.2-.2,1.6-.5.4-.3.7-.8.9-1.3s.3-1.2.3-1.9-.1-1.4-.3-1.9c-.2-.6-.5-1-.9-1.3-.4-.3-.9-.5-1.6-.5s-1.2.2-1.7.5c-.4.3-.8.8-1,1.3s-.3,1.2-.3,1.9.1,1.3.3,1.9c.2.6.5,1,1,1.3.4.3,1,.5,1.6.5h0Z"/>
    <path class="cls-1" d="M236.6,88.2v-14.2h1.8v7.6h.2v6.5h-2.1ZM244,88.2v-5.2c0-.4,0-.8-.1-1.3,0-.4-.2-.8-.4-1.2s-.5-.7-.8-.9-.8-.3-1.4-.3-.7,0-1,.2c-.3.1-.6.3-.9.6s-.4.6-.6,1.1c-.1.4-.2,1-.2,1.6l-1.3-.5c0-1,.2-1.8.5-2.6.4-.7.9-1.3,1.6-1.7.7-.4,1.5-.6,2.4-.6s1.4.1,1.9.3c.5.2.9.6,1.2.9s.6.8.7,1.2.3.9.3,1.3c0,.4,0,.8,0,1.1v5.9h-2.1,0Z"/>
    <path class="cls-1" d="M253.3,88.5c-1.1,0-2-.2-2.8-.7s-1.4-1.1-1.8-2c-.4-.8-.6-1.8-.6-2.9s.2-2.1.6-2.9c.4-.8,1-1.5,1.8-2s1.7-.7,2.7-.7,2,.2,2.8.7,1.4,1.1,1.8,2c.4.8.6,1.8.6,2.9s-.2,2.1-.6,2.9c-.4.8-1,1.5-1.8,2-.8.5-1.7.7-2.8.7h0ZM253.3,86.5c1,0,1.8-.3,2.3-1s.8-1.6.8-2.7-.2-2-.8-2.7c-.5-.7-1.3-1-2.3-1s-1.3.2-1.7.5c-.4.3-.8.7-1,1.3-.2.6-.3,1.2-.3,1.9,0,1.1.3,2,.8,2.7s1.3,1,2.2,1h0Z"/>
    <path class="cls-1" d="M260.7,88.2v-10.6h1.8v3.1h.2v7.6h-2.1ZM267,88.2v-6.6c0-.8-.2-1.4-.6-1.8s-.9-.7-1.6-.7-1.2.2-1.6.7c-.4.4-.6,1-.6,1.8l-1-.6c0-.7.2-1.3.5-1.9.3-.5.8-1,1.4-1.3.6-.3,1.2-.5,1.9-.5s1.4.2,1.9.5c.5.3.9.8,1.2,1.3.3.6.4,1.2.4,2v7.1h-2.1,0ZM273.4,88.2v-6.6c0-.8-.2-1.4-.6-1.8-.4-.4-.9-.6-1.5-.6s-.8,0-1.1.3-.6.4-.8.8-.3.8-.3,1.3l-1-.5c0-.8.1-1.4.5-2,.3-.6.8-1,1.4-1.3s1.2-.5,1.9-.5c1.1,0,2,.3,2.7,1s.9,1.6.9,2.8v7.1h-2.1Z"/>
    <path class="cls-1" d="M282.6,88.5c-1.1,0-2-.2-2.8-.7s-1.4-1.1-1.9-1.9c-.4-.8-.7-1.8-.7-2.9s.2-2.2.6-3c.4-.8,1-1.5,1.8-2s1.7-.7,2.7-.7,2,.2,2.8.8,1.3,1.2,1.7,2.1c.4.9.5,2,.5,3.3h-2.1v-.8c0-1.2-.2-2.1-.7-2.7-.5-.6-1.1-.9-2.1-.9s-1.8.3-2.3,1c-.5.7-.8,1.6-.8,2.8s.3,2.1.8,2.7,1.3,1,2.2,1,1.2-.2,1.7-.4.8-.7,1.1-1.2l2,.6c-.4.9-1,1.7-1.9,2.2s-1.8.8-2.8.8h0ZM278.8,83.4v-1.6h7.6v1.6h-7.6Z"/>
    <path class="cls-1" d="M293.7,88.5c-1.3,0-2.4-.3-3.2-.9s-1.3-1.4-1.5-2.4l2.1-.3c.1.6.4,1,.9,1.3.5.3,1.1.5,1.8.5s1.1-.1,1.5-.4c.4-.3.5-.6.5-1.1s0-.5-.2-.7c-.1-.2-.4-.3-.8-.5-.4-.2-1-.3-1.9-.6-.9-.2-1.6-.5-2.2-.8-.5-.3-.9-.6-1.1-.9s-.3-.8-.3-1.3.2-1.2.5-1.7.8-.8,1.4-1.1,1.4-.4,2.2-.4,1.5.1,2.2.4c.6.3,1.1.6,1.5,1.1.4.5.6,1,.7,1.7l-2.1.4c0-.5-.3-.9-.7-1.2-.4-.3-.9-.5-1.6-.5-.6,0-1.1,0-1.5.3-.4.2-.6.6-.6,1s0,.4.2.6.4.3.9.5,1.1.3,1.9.5c.9.2,1.6.5,2.1.8.5.3.9.6,1.1,1s.3.8.3,1.4c0,1.1-.4,1.9-1.1,2.5-.8.6-1.8.9-3.2.9h0Z"/>
  </g>
</svg>