<?xml version="1.0" encoding="UTF-8"?><svg id="a" xmlns="http://www.w3.org/2000/svg" viewBox="0 0 512 512"><rect y="0" width="512" height="512" fill="#5e2196" stroke-width="0"/><path d="M434.95,86.91c2,.6,4.5,1.9,5.7,3,3.2,3,17.5,6.5,21.7,5.3,1.9-.5,4.6-.5,6.1-.1,3.1.8,3.3.7,4.2-3.7.7-2.9.5-3.2-2.6-3.8-1.8-.3-4.4-1.7-5.8-3-1.5-1.4-5.2-3-9.5-3.9-3.8-.9-10.3-1.5-14.2-1.4-4,0-7.3.1-7.3.2,0,0-.4,1.5-.9,3.2-.9,3.1-.8,3.3,2.6,4.2Z" fill="#ffe30e" stroke-width="0"/><path d="M361.25,108.01v76.6c0,72.6-.1,76.6-1.7,75.9-13.6-5.2-28.8-1.1-41,11.1-15,14.9-19.4,38.1-9.9,52.2,3.9,5.8,10.4,10.8,15.9,12.3,9.5,2.6,23.1-.7,32.4-7.8,2.4-1.8,4.5-3.3,4.8-3.3s.5,1.4.5,3.1c0,2.7.3,3,2.3,2.6,1.2-.3,4-.9,6.2-1.3,2.2-.3,4.6-1.1,5.3-1.7.9-.7,1.2-24,1.2-110.3v-109.4h-16ZM364.95,300.61c-1.6,15.1-15.9,25.1-30.2,20.9-14.8-4.3-21.8-20.1-15-34,2.7-5.7,7.3-9.8,13.3-12,16-5.9,33.7,8,31.9,25.1Z" fill="#ffe30e" stroke-width="0"/><path d="M460.05,121.21c.6-6.2-1.8-11.4-6.7-14.8-2.6-1.7-4.9-2.4-8.6-2.4-9.3,0-15.5,6.2-15.5,15.6,0,19.8,28.9,21.3,30.8,1.6Z" fill="#ffe30e" stroke-width="0"/><path d="M434.85,269.01c-3.2-1.7-6.5-3-7.2-3-.8,0-3.2-.7-5.4-1.6-4.8-1.9-5.4-4.8-1.4-6.6,2.4-1.1,2.9-1,5.4,2,1.4,1.8,3.1,3.2,3.6,3.2s3.6-2.7,6.8-5.9l5.9-6-2.9-3.4c-1.6-1.9-4.5-4.4-6.5-5.6-6.6-3.8-15.4-2-23.1,4.8-5.7,5-8.1,10.9-7.6,18.8.4,6.2.7,6.8,4.5,10.3,2.7,2.6,6.2,4.5,10.6,5.9,9,2.7,12.6,4.7,13.9,7.6,2.4,5.3-4,11.5-11.9,11.5-5.9,0-7.7-2.8-6.8-10.4l.7-5.4-4.3.5q-11.3,1.4-12.2,6.8c-1.6,11,2.1,20.3,9.6,23.8,8.1,3.9,22.4,1.1,30.5-5.9,6.4-5.4,9.4-11.3,10-19.4.8-11.1-2.7-17.3-12.2-22Z" fill="#ffe30e" stroke-width="0"/><path d="M336.25,234.31c1.6-2.5,3.4-6.7,3.9-9.4,1.3-5.8,1.5-24.6.3-25.3-.4-.2-17.6,3.3-38.2,7.9-20.6,4.6-37.6,8.2-37.8,8-.8-.8-1.4-11.7-.8-14.8.4-1.9,1.8-4.6,3.1-5.9,1.4-1.4,9.8-5.8,18.7-9.8,9-4,19.9-9.1,24.2-11.2,14.2-7.1,23.9-19.4,26.6-33.7,1.3-7.1,1.3-29.2-.1-36.7-2.3-12.7-9.7-22.4-19.7-25.9-6.7-2.3-20.1-2.7-29.5-1-20.9,4-43.8,10.6-63.2,18.4l-9,3.6-.3,17c-.1,9.3-.1,17.4.2,18.1.3.8,4.7.1,14.8-2.2,36.2-8.5,50.9-11.5,52.8-10.9,3.7,1.2,5.3,4.9,4.8,11.5-.6,8.7-2.4,10.1-25.6,20.5-29.9,13.5-37.2,18.9-43.3,31.8-4.6,10-5.2,17.3-4.1,52.5.6,17.2,1.2,31.5,1.4,31.7.3.4,4.3-.5,46.3-10,11.6-2.6,30.2-6.9,41.5-9.4,23.4-5.3,28.4-7.5,33-14.8Z" fill="#ffe30e" stroke-width="0"/><path d="M402.25,176.61v68.6l4-3.5c2.1-2,5.7-4.5,8-5.7l4-2v-126h-16v68.6Z" fill="#ffe30e" stroke-width="0"/><path d="M405.75,102.11c3.8-.6,4-.8,4.3-4.4q.3-3.7-3.5-3.7c-2.1-.1-4.9-.7-6.3-1.5-3.1-1.8-18.6-2-21.5-.3-1.1.7-3.8,1.5-6,1.8-3.8.5-4,.7-4,4s.2,3.5,4,4.1c2.2.3,5,1,6.2,1.7s5.8,1.2,10.3,1.2,9.1-.5,10.3-1.2,4-1.4,6.2-1.7Z" fill="#ffe30e" stroke-width="0"/><path d="M134.75,306.51c-1.6-.3-12.6,2.2-13.6,3.2-.4.4-.9,12.3-1.1,26.4l-.3,25.6-2.8,3.6c-5.2,6.8-15.2,10.2-22,7.4-6.8-2.9-7.3-4.8-8.1-31.4-.4-13.1-.8-23.8-.9-24-.2-.1-3.4.6-7.2,1.6l-7,1.7-.3,21.5c-.3,25.1.7,33,4.8,38.6,3.6,4.8,11.3,9.2,17.7,10,6.1.7,16.4-1.8,21.6-5.3,2.2-1.4,4.1-2.3,4.4-2,1,1-3.1,9-6.6,12.9-1.9,2.1-4.8,4.5-6.5,5.4-2.8,1.4-11.1,3.6-63.8,16.4-9.8,2.3-18.3,4.6-18.9,5-.8.5,0,2.6,2.5,6.8,2.1,3.3,4.1,6.3,4.6,6.6s9.3-1.5,19.7-4c10.3-2.5,25.6-6.2,33.8-8.1,20.5-4.9,23.6-6,30.6-10.7,6.7-4.4,13.6-12.8,17.8-21.7l2.6-5.5v-39.9c0-25.8-.4-40-1-40.1Z" fill="#ffe30e" stroke-width="0"/><path d="M292.75,274.41c-9.1-2.8-20.7-.9-29.4,4.9-3.9,2.6-4.1,2.6-4.1.7,0-1.1-.4-2-.8-2-3.1,0-12.4,2.5-13.2,3.5-1.4,1.7-1.2,74.6.1,76,.3.2,3.6-.4,7.4-1.3l7-1.7.5-26.1.5-26.1,2.7-3.5c5.6-7.4,14.4-10,24.6-7.5,3.2.9,3.3.8,5.8-5,3.9-8.7,3.7-10.4-1.1-11.9Z" fill="#ffe30e" stroke-width="0"/><path d="M191.65,268.91c5.1-6,5.9-9.3,6-23.9.1-13,0-13.5-1.9-13.1-1.1.2-17.9,3.9-37.4,8.2-19.5,4.3-35.7,7.9-36.1,7.9-.5,0-1.1-3.1-1.5-6.8-.8-8.1.7-12.9,5.1-15.9,1.6-1,10.3-5.2,19.4-9.2,24.5-10.9,27.8-12.8,34.6-19.3,11.8-11.3,14.9-21.6,14.2-46.5-.4-13.2-.9-16.7-2.7-21.6-3.3-8.4-7.7-13.7-14.6-17.2-5.4-2.8-6.7-3-17.9-3.2-10.7-.2-13.8.1-27.1,3.2-17.9,4.1-27.4,7-45.7,13.8l-13.8,5.1v18.4c0,17,.1,18.3,1.8,17.8,6.3-1.9,60.3-13.6,63-13.6,5.1,0,7.2,2.9,7.2,9.9,0,9.9-1.2,11-25.5,22-25.2,11.5-28.9,13.6-35.5,20.2-6.1,6.2-9.5,13-11.6,22.9-1.4,6.6-1.4,11.3-.4,40,.6,17.9,1.3,32.6,1.4,32.8.4.3,10.3-1.8,67.6-14.8,42.4-9.6,46.2-10.8,51.4-17.1Z" fill="#ffe30e" stroke-width="0"/><path d="M216.25,287.21c-5.7,1.3-7,2.4-7,5.9s.3,3.3-4.6,1.3c-2.8-1.2-5.9-1.5-11.1-1.2-15.2,1-29.5,11.7-37.1,27.5-3.3,7.1-3.7,8.7-4,18-.4,9.1-.2,10.7,2,15.5,3.4,7.2,6.6,10.8,13,14.3,4.7,2.6,6.2,3,13.3,2.9,9.6-.1,16.6-2.5,24.3-8.4l5.2-4v3.5c0,3.4.1,3.4,3.3,2.8,1.7-.3,5-1.1,7.2-1.7l4-1.2.3-24.9c.2-13.8,0-31-.3-38.3-.8-14.7-.2-13.8-8.5-12ZM202.05,345.51c-13.9,15.8-34,10.5-34.2-9-.1-10.7,7.1-21.5,16.5-24.8,10.6-3.7,18.7-.6,23,8.8,3.6,7.7,1.6,17.2-5.3,25Z" fill="#ffe30e" stroke-width="0"/><path d="M482.95,111.51c-2.9-.9-6.4-2-7.9-2.5l-2.7-.9-4.7,14.2c-2.6,7.8-12.1,36-21.1,62.6-16.4,48.7-16.7,50-12.6,50.1.6,0,3.3,1.6,5.8,3.6,2.6,1.9,4.8,3.4,5,3.2.1-.2,10-29.2,21.8-64.5l21.6-64.2-5.2-1.6Z" fill="#ffe30e" stroke-width="0"/></svg>