<?xml version="1.0" encoding="UTF-8"?><svg id="a" xmlns="http://www.w3.org/2000/svg" xmlns:xlink="http://www.w3.org/1999/xlink" viewBox="0 0 200 100"><defs><clipPath id="b"><rect x="64.06" y="22" width="71.88" height="56" fill="none" stroke-width="0"/></clipPath></defs><g clip-path="url(#b)"><g id="c"><path id="d" d="M71.56,56.89c-.07-3.47-.36-6.88-.2-10.31.07-2.56,1.6-4.86,3.95-5.9,1.96-.99,3.99-1.84,5.98-2.76,1.26-.56,1.87-1.99,1.41-3.29-.2-.66-.9-1.03-1.56-.83-1.59.33-3.17.69-4.76,1.04-1.45.33-2.89.67-4.34,1-.33.08-.54.02-.54-.4.02-1.48.02-2.96,0-4.45,0-.38.2-.47.47-.59,3.21-1.32,6.53-2.32,9.93-3,1.19-.24,2.41-.35,3.63-.31,2.12,0,3.96,1.47,4.41,3.55.5,2.13.54,4.34.14,6.48-.45,2.34-2.07,4.29-4.28,5.17-1.91.89-3.87,1.69-5.75,2.64-.8.33-1.32,1.11-1.31,1.98,0,.39,0,.78.02,1.17.03.92.12.97,1.01.77,3.47-.77,6.94-1.51,10.4-2.31.56-.13.69-.02.67.52-.04.86-.05,1.71-.05,2.57-.1,1.87-1.48,3.41-3.32,3.72-5.05,1.12-10.1,2.27-15.15,3.41-.22.05-.45.07-.76.12" fill="#fee20e" stroke-width="0"/><path id="e" d="M93.82,28.21v-.47q0-2.2,2-2.98c3.07-1.2,6.27-2.07,9.52-2.6,1.83-.48,3.78-.15,5.36.89.95.76,1.55,1.88,1.67,3.09.4,2.12.37,4.3-.1,6.4-.54,2.08-2.02,3.79-4,4.61-1.89.88-3.78,1.74-5.7,2.57-1.01.36-1.64,1.36-1.54,2.43.04,1.88.02,1.89,1.86,1.49,3.14-.69,6.28-1.38,9.4-2.12.66-.15.83.02.78.65-.05.62-.05,1.25,0,1.87.23,2.13-1.31,4.05-3.44,4.28-5.02,1.11-10.03,2.23-15.04,3.38-.59.14-.76.04-.77-.59-.02-2.15,0-4.31-.18-6.46-.17-1.52-.1-3.05.22-4.54.5-2.06,1.95-3.76,3.9-4.59,1.81-.86,3.65-1.67,5.48-2.48,1.54-.69,1.87-1.18,1.85-2.85.08-.77-.48-1.45-1.25-1.53-.2-.02-.4,0-.6.07-2.94.67-5.88,1.29-8.81,2-.65.17-.63-.08-.62-.53.01-.67,0-1.35,0-2.03" fill="#fee20e" stroke-width="0"/><path id="f" d="M81.24,64.66v4.06c-.07,3.24-2.29,6.04-5.43,6.84-3.26.78-6.52,1.53-9.77,2.36-.55.26-1.21.03-1.47-.52,0,0,0-.01-.01-.02-.71-1.16-.75-1.12.53-1.43,3.61-.87,7.21-1.74,10.81-2.63,1.46-.39,2.62-1.51,3.07-2.95.08-.21.2-.48-.02-.65-.27-.2-.4.14-.58.25-1.52,1.12-3.54,1.28-5.21.39-1.21-.76-1.88-2.13-1.73-3.55-.04-1.9,0-3.8-.08-5.69-.09-.48.21-.94.69-1.03.04,0,.08-.01.12-.02,1.26-.3,1.24-.32,1.26.97.04,1.89.09,3.79.17,5.67.18,1.24,1.32,2.1,2.56,1.92.09-.01.18-.03.27-.06,1.66-.45,2.78-1.99,2.7-3.71-.22-1.9-.07-3.84-.11-5.77,0-.43.2-.59.57-.7,1.38-.42,1.41-.41,1.53.97.14,1.76.11,3.53.13,5.3" fill="#fee20e" stroke-width="0"/><path id="g" d="M129.79,55.15c-.11,2.58-2.29,4.58-4.87,4.46-.42-.02-.83-.09-1.22-.22-1.09-.58-1.71-1.77-1.56-2.99.04-.28.09-.56.11-.85s.13-.48.46-.52c.26-.03.5-.09.76-.13.86-.13.92-.06.87.8-.03.54-.1,1.12.54,1.41.67.32,1.47.22,2.03-.26,1.02-.83,1.25-1.43-.23-2.38-.55-.27-1.14-.48-1.74-.63-1.43-.37-2.28-1.83-1.91-3.26.08-.32.22-.62.42-.88.54-1.01,1.52-1.72,2.66-1.92,1.02-.16,2.04.29,2.62,1.15.17.28.28.57-.1.83-.22.18-.42.39-.58.62-.67.8-.71.81-1.42.02-.18-.27-.52-.38-.82-.26-.3.12-.63.3-.62.62s.26.52.61.69c.72.35,1.5.44,2.22.8,1.13.52,1.83,1.67,1.79,2.91" fill="#fee20e" stroke-width="0"/><path id="h" d="M129.39,47.79c-.42-.52-.96-.93-1.58-1.19-.38-.13-.24-.43-.14-.71.6-1.78,1.18-3.56,1.78-5.34,1.39-4.13,2.82-8.26,4.17-12.41.25-.76.5-.96,1.28-.68,1.2.44,1.21.39.78,1.65-1.87,5.54-3.74,11.08-5.61,16.62-.22.65-.44,1.3-.69,2.06" fill="#fee20e" stroke-width="0"/><path id="i" d="M123.04,47.85v-20.21c0-.4.11-.54.52-.53,1.95.05,1.62-.25,1.63,1.57.02,5.74.02,11.48.05,17.22.06.37-.15.72-.5.85-.6.31-1.17.68-1.7,1.1" fill="#fee20e" stroke-width="0"/><path id="j" d="M98.37,58.56c0-1.27.02-2.55-.01-3.82-.01-.48.14-.72.62-.78.38-.06.76-.15,1.13-.24.14-.03.29-.08.3.1.06.96.5.27.7.13,1.31-.95,2.98-1.28,4.55-.9.57.13.82.38.46.94-.06.11-.11.23-.16.35-.46,1.09-.46,1.1-1.6.88-1.95-.21-3.69,1.2-3.9,3.15,0,.06-.01.13-.02.19.07,1.97.09,3.94.12,5.92,0,.3.12.72-.25.83-.52.22-1.09.33-1.66.33-.25-.03-.14-.35-.14-.54,0-2.18,0-4.36,0-6.54h-.15" fill="#fee20e" stroke-width="0"/><path id="k" d="M129.54,31.06c-1.15.11-2.18-.73-2.29-1.89-.01-.13-.01-.26,0-.39-.01-1.26,1-2.29,2.26-2.3,1.26-.01,2.29,1,2.3,2.26h0c.05,1.23-.9,2.26-2.12,2.32-.05,0-.09,0-.14,0" fill="#fee20e" stroke-width="0"/><path id="l" d="M120.84,26.29c-1.03.36-1.81-.49-2.77-.49-.25,0-.2-.27-.19-.44s-.06-.44.2-.43c.96.04,1.79-.53,2.78-.52s1.82.51,2.78.5c.26,0,.22.25.22.42,0,.2.04.47-.26.47-.96,0-1.75.88-2.75.48" fill="#fee20e" stroke-width="0"/><path id="m" d="M133.23,24.73c-1.07.16-2.16.09-3.21-.2-.82-.23-1.34-.93-2.17-1.11-.2-.05-.17-.3-.07-.47.08-.14.06-.38.33-.33,1.16.04,2.32.17,3.46.37.8.23,1.22,1.03,2.09,1.07.22,0-.02.3-.01.46.02.33-.23.27-.43.22" fill="#fee20f" stroke-width="0"/><path id="n" d="M118.84,28.38c0-1.3,0-1.25-1.33-1.29-.72-.02-.89.21-.88.91.03,7.38.02,14.77.01,22.15,0,.91-.03.93-.9.68-1.74-.51-3.61-.13-5.01,1.03-2.12,1.54-3.27,4.09-3,6.7.14,2.37,2.18,4.17,4.55,4.03.2-.01.39-.04.58-.08,1.38-.32,2.67-.96,3.77-1.87.3.31.08.67.24.95.22-.04.45-.07.67-.12q1.33-.29,1.33-1.65l-.02-31.43ZM113.37,60.65c-2.19.03-3.99-1.73-4.02-3.92s1.73-3.99,3.92-4.02c2.19,0,3.96,1.77,3.96,3.96,0,.02,0,.04,0,.06-.05,2.12-1.74,3.83-3.86,3.91" fill="#fee20e" stroke-width="0"/><path id="o" d="M95.12,62.56h-.15v-6.46q0-1.22-1.19-.93c-.38.09-.9.03-.87.65.03.68-.3.63-.77.45-2.25-.64-4.66.1-6.17,1.88-1.43,1.57-2.15,3.66-1.98,5.77.15,2.11,1.82,3.79,3.92,3.98,1.59.12,3.16-.41,4.35-1.46.33-.3.78-.72.79.23,0,.33.27.27.46.24.31-.05.6-.15.91-.2.41,0,.73-.34.73-.75,0-.05,0-.09-.02-.14-.05-1.09-.02-2.18-.02-3.27M89.16,65.64c-1.56.14-2.94-1.01-3.08-2.57,0-.06,0-.13-.01-.19-.06-2.15,1.41-4.04,3.5-4.52,1.55-.26,3.02.8,3.27,2.35.04.23.05.47.03.7-.08,2.11-1.63,3.87-3.71,4.23" fill="#fee20e" stroke-width="0"/></g></g></svg>