<svg id="Group_6027" data-name="Group 6027" xmlns="http://www.w3.org/2000/svg" xmlns:xlink="http://www.w3.org/1999/xlink" width="1046.161" height="439.387" viewBox="0 0 1046.161 439.387">
  <defs>
    <clipPath id="clip-path">
      <path id="Path_36098" data-name="Path 36098" d="M480.788,151.386h60.5V169.5H500.407v16.6h38.612v18.111H500.407V222.32h43.14v18.111H480.788Z" fill="none"/>
    </clipPath>
    <linearGradient id="linear-gradient" x1="-5.21" y1="4.323" x2="-5.199" y2="4.323" gradientUnits="objectBoundingBox">
      <stop offset="0" stop-color="#999"/>
      <stop offset="1"/>
    </linearGradient>
    <clipPath id="clip-path-2">
      <path id="Path_36099" data-name="Path 36099" d="M619.888,180.313a20.406,20.406,0,0,0-7.924,8.427,16.736,16.736,0,0,0-7.484-8.3A23.9,23.9,0,0,0,593.1,177.8a21.538,21.538,0,0,0-6.288.881,22.277,22.277,0,0,0-5.157,2.263,18.321,18.321,0,0,0-3.9,3.144,15.225,15.225,0,0,0-2.516,3.522h-.252v-8.3h-18.11v61.124h18.866V209.995a42.931,42.931,0,0,1,.377-5.786,14.356,14.356,0,0,1,1.572-4.967,9,9,0,0,1,3.458-3.522,11.645,11.645,0,0,1,5.911-1.321,7.267,7.267,0,0,1,4.969,1.509,8.672,8.672,0,0,1,2.452,3.648,16.091,16.091,0,0,1,.88,4.528q.123,2.391.126,4.024v32.323h18.865V208.108a23.976,23.976,0,0,1,.567-5.282,12.3,12.3,0,0,1,1.886-4.4,9.014,9.014,0,0,1,3.522-2.956A12.487,12.487,0,0,1,625.8,194.4q4.65,0,6.476,3.082a14.2,14.2,0,0,1,1.824,7.357v35.593h18.866v-36.1a48.18,48.18,0,0,0-1.069-10.376,23.908,23.908,0,0,0-3.522-8.427,16.98,16.98,0,0,0-6.666-5.659,23.36,23.36,0,0,0-10.376-2.075,23.814,23.814,0,0,0-11.444,2.515" fill="none"/>
    </clipPath>
    <linearGradient id="linear-gradient-2" x1="-9.006" y1="2.88" x2="-8.99" y2="2.88" xlink:href="#linear-gradient"/>
    <clipPath id="clip-path-3">
      <path id="Path_36100" data-name="Path 36100" d="M666.547,240.431h18.866V179.307H666.547Zm1.7-88.1a10.932,10.932,0,1,0,7.735-3.207,10.541,10.541,0,0,0-7.735,3.207" fill="none"/>
    </clipPath>
    <linearGradient id="linear-gradient-3" x1="-6.885" y1="11.21" x2="-6.874" y2="11.21" xlink:href="#linear-gradient"/>
    <clipPath id="clip-path-4">
      <path id="Path_36101" data-name="Path 36101" d="M713.082,178.987a25.07,25.07,0,0,0-8.238,3.711,19.342,19.342,0,0,0-5.786,6.414,18.646,18.646,0,0,0-2.2,9.306q0,5.788,2.327,9.245a16.038,16.038,0,0,0,5.911,5.345,31.648,31.648,0,0,0,7.673,2.83q4.085.943,7.671,1.761a25.508,25.508,0,0,1,5.911,2.013,3.832,3.832,0,0,1,2.327,3.583,3.477,3.477,0,0,1-2.641,3.459,17.487,17.487,0,0,1-5.911.943,15.769,15.769,0,0,1-7.483-1.7,18.967,18.967,0,0,1-5.849-4.968l-11.445,12.7a24.18,24.18,0,0,0,11.068,6.478,48.119,48.119,0,0,0,12.954,1.823,53.809,53.809,0,0,0,9.936-.943,28.409,28.409,0,0,0,9.056-3.27,19.765,19.765,0,0,0,6.6-6.163,17.121,17.121,0,0,0,2.579-9.747q0-5.784-2.327-9.244A17.2,17.2,0,0,0,739.3,207.1a28.884,28.884,0,0,0-7.671-2.956q-4.089-.944-7.672-1.761a30.534,30.534,0,0,1-5.911-1.886,3.5,3.5,0,0,1-2.327-3.333,4,4,0,0,1,2.264-3.9,10.285,10.285,0,0,1,4.654-1.132,13.359,13.359,0,0,1,10.941,5.157l11.571-11.445a22.649,22.649,0,0,0-10.439-6.289,44.285,44.285,0,0,0-12.2-1.761,37.838,37.838,0,0,0-9.433,1.195" fill="none"/>
    </clipPath>
    <linearGradient id="linear-gradient-4" x1="-10.653" y1="4.842" x2="-10.637" y2="4.842" xlink:href="#linear-gradient"/>
    <clipPath id="clip-path-5">
      <path id="Path_36102" data-name="Path 36102" d="M771.313,178.987a25.06,25.06,0,0,0-8.238,3.711,19.342,19.342,0,0,0-5.786,6.414,18.646,18.646,0,0,0-2.2,9.306q0,5.788,2.327,9.245a16.031,16.031,0,0,0,5.911,5.345,31.64,31.64,0,0,0,7.672,2.83q4.086.943,7.672,1.761a25.533,25.533,0,0,1,5.912,2.013,3.833,3.833,0,0,1,2.326,3.583,3.478,3.478,0,0,1-2.64,3.459,17.493,17.493,0,0,1-5.912.943,15.779,15.779,0,0,1-7.484-1.7,18.976,18.976,0,0,1-5.848-4.968l-11.445,12.7a24.186,24.186,0,0,0,11.068,6.478,48.127,48.127,0,0,0,12.955,1.823,53.815,53.815,0,0,0,9.935-.943,28.394,28.394,0,0,0,9.055-3.27,19.744,19.744,0,0,0,6.6-6.163,17.129,17.129,0,0,0,2.579-9.747q0-5.784-2.327-9.244a17.2,17.2,0,0,0-5.912-5.471,28.9,28.9,0,0,0-7.672-2.956q-4.088-.944-7.672-1.761a30.579,30.579,0,0,1-5.911-1.886,3.5,3.5,0,0,1-2.327-3.333,4,4,0,0,1,2.264-3.9,10.284,10.284,0,0,1,4.653-1.132,13.364,13.364,0,0,1,10.943,5.157l11.57-11.445a22.646,22.646,0,0,0-10.438-6.289,44.3,44.3,0,0,0-12.2-1.761,37.844,37.844,0,0,0-9.433,1.195" fill="none"/>
    </clipPath>
    <linearGradient id="linear-gradient-5" x1="-11.553" y1="4.842" x2="-11.538" y2="4.842" xlink:href="#linear-gradient"/>
    <clipPath id="clip-path-6">
      <path id="Path_36103" data-name="Path 36103" d="M815.71,240.431h18.865V179.307H815.71Zm1.7-88.1a10.932,10.932,0,1,0,7.735-3.207,10.543,10.543,0,0,0-7.735,3.207" fill="none"/>
    </clipPath>
    <linearGradient id="linear-gradient-6" x1="-8.515" y1="11.209" x2="-8.504" y2="11.209" xlink:href="#linear-gradient"/>
    <clipPath id="clip-path-7">
      <path id="Path_36104" data-name="Path 36104" d="M868.721,221.057q-3.961-4.274-3.961-11.193t3.961-11.194q3.961-4.273,11.13-4.276t11.131,4.276q3.961,4.278,3.962,11.194t-3.962,11.193q-3.961,4.278-11.131,4.277t-11.13-4.277m-2.138-41a31.944,31.944,0,0,0-10.816,6.478,30.4,30.4,0,0,0-7.232,10.124,34.336,34.336,0,0,0,0,26.411,30.362,30.362,0,0,0,7.232,10.125,31.912,31.912,0,0,0,10.816,6.478,40.03,40.03,0,0,0,26.537,0,31.932,31.932,0,0,0,10.816-6.478,30.375,30.375,0,0,0,7.232-10.125,34.324,34.324,0,0,0,0-26.411,30.412,30.412,0,0,0-7.232-10.124,31.964,31.964,0,0,0-10.816-6.478,40.013,40.013,0,0,0-26.537,0" fill="none"/>
    </clipPath>
    <linearGradient id="linear-gradient-7" x1="-13.067" y1="3.847" x2="-13.052" y2="3.847" xlink:href="#linear-gradient"/>
    <clipPath id="clip-path-8">
      <path id="Path_36105" data-name="Path 36105" d="M954.808,178.679a22.29,22.29,0,0,0-5.156,2.263,18.3,18.3,0,0,0-3.9,3.144,15.257,15.257,0,0,0-2.516,3.522h-.251v-8.3H924.875v61.124H943.74V209.995a42.931,42.931,0,0,1,.377-5.786,14.4,14.4,0,0,1,1.573-4.967,9,9,0,0,1,3.459-3.522,11.648,11.648,0,0,1,5.911-1.321,8.114,8.114,0,0,1,8.489,5.408,17.278,17.278,0,0,1,1.132,5.22q.188,2.829.188,5.47v29.934h18.866V206.724a69.841,69.841,0,0,0-.88-11.444,24.7,24.7,0,0,0-3.333-9.182,16.743,16.743,0,0,0-6.855-6.1q-4.4-2.2-11.57-2.2a21.545,21.545,0,0,0-6.289.881" fill="none"/>
    </clipPath>
    <linearGradient id="linear-gradient-8" x1="-14.589" y1="4.369" x2="-14.573" y2="4.369" xlink:href="#linear-gradient"/>
    <clipPath id="clip-path-9">
      <path id="Path_36106" data-name="Path 36106" d="M1011.151,178.987a25.088,25.088,0,0,0-8.238,3.711,19.35,19.35,0,0,0-5.785,6.414,18.635,18.635,0,0,0-2.2,9.306q0,5.788,2.327,9.245a16.031,16.031,0,0,0,5.911,5.345,31.641,31.641,0,0,0,7.672,2.83q4.086.943,7.672,1.761a25.525,25.525,0,0,1,5.911,2.013,3.833,3.833,0,0,1,2.327,3.583,3.477,3.477,0,0,1-2.642,3.459,17.483,17.483,0,0,1-5.911.943,15.777,15.777,0,0,1-7.483-1.7,18.966,18.966,0,0,1-5.848-4.968l-11.445,12.7a24.172,24.172,0,0,0,11.067,6.478,48.132,48.132,0,0,0,12.955,1.823,53.815,53.815,0,0,0,9.935-.943,28.4,28.4,0,0,0,9.056-3.27,19.752,19.752,0,0,0,6.6-6.163,17.13,17.13,0,0,0,2.579-9.747q0-5.784-2.328-9.244a17.183,17.183,0,0,0-5.91-5.471,28.917,28.917,0,0,0-7.672-2.956q-4.091-.944-7.672-1.761a30.613,30.613,0,0,1-5.912-1.886,3.5,3.5,0,0,1-2.327-3.333,4,4,0,0,1,2.264-3.9,10.287,10.287,0,0,1,4.653-1.132,13.36,13.36,0,0,1,10.943,5.157l11.57-11.445a22.645,22.645,0,0,0-10.439-6.289,44.279,44.279,0,0,0-12.2-1.761,37.844,37.844,0,0,0-9.433,1.195" fill="none"/>
    </clipPath>
    <linearGradient id="linear-gradient-9" x1="-15.261" y1="4.842" x2="-15.245" y2="4.842" xlink:href="#linear-gradient"/>
    <clipPath id="clip-path-10">
      <path id="Path_36107" data-name="Path 36107" d="M207.141,421.035c-1.335-.064-2.671-.127-3.994-.216-53.887-3.37-102-28.985-135.626-67.916q-1.031-1.2-2.023-2.4A203.19,203.19,0,0,1,18.175,219.693c0-111.1,88.454-201.506,197.195-201.506,83.875,0,155.7,53.785,184.12,129.4a200.623,200.623,0,0,1,7.2,23.235,206.508,206.508,0,0,1-1.2,102.484,3.462,3.462,0,0,0-1.653-.382l-2.035.026a3.738,3.738,0,0,1-3.777-3.7l-.1-9.984a3.739,3.739,0,0,0-3.739-3.714h-.038a3.73,3.73,0,0,1-3.778-3.624l-.839-26.989-1.628.025-.114,26.964a3.753,3.753,0,0,1-3.7,3.738l-9.107.089a3.715,3.715,0,0,0-3.7,3.777l.09,9.984a3.745,3.745,0,0,1-3.7,3.777l-11.752.116a14.018,14.018,0,0,0-13.876,14.155l.332,32.025a3.769,3.769,0,0,1-3.715,3.79L224.12,324.5a3.807,3.807,0,0,1-2.366-.8l-4.846-3.841a3.759,3.759,0,0,0-2.365-.814l-56.214.572a3.736,3.736,0,0,0-3.46,5.075l3.815,9.971a295.1,295.1,0,0,1,47.719,3.217c25.729,3.74,57.575,8.343,90.452,11.5,22.142,2.149,44.768,3.624,66.274,3.752-.674.788-1.361,1.564-2.06,2.34a2.15,2.15,0,0,0-.165.191,199.4,199.4,0,0,1-43.179,36.31A193.709,193.709,0,0,1,215.37,421.2q-4.14,0-8.229-.166M215.37,0C157.807,0,103.7,22.88,63.006,64.417,22.371,105.9,0,161.05,0,219.693S22.371,333.483,63.006,374.97c40.7,41.537,94.8,64.417,152.364,64.417,4.871,0,9.742-.166,14.575-.508q3.241-.229,6.461-.548a211.727,211.727,0,0,0,90.921-30.917,216.839,216.839,0,0,0,47.3-39.834q6.466-7.21,12.209-14.944c1.158-1.526,2.289-3.1,3.4-4.68a222.1,222.1,0,0,0,40.507-128.263,227.642,227.642,0,0,0-1.6-27.063A220.522,220.522,0,0,0,367.72,64.417C327.048,22.88,272.932,0,215.37,0Z" fill="none"/>
    </clipPath>
    <linearGradient id="linear-gradient-10" x1="0.106" y1="0.906" x2="0.108" y2="0.906" gradientUnits="objectBoundingBox">
      <stop offset="0" stop-color="#009245"/>
      <stop offset="0.491" stop-color="#89cc50"/>
      <stop offset="1" stop-color="#48b14b"/>
    </linearGradient>
    <clipPath id="clip-path-11">
      <path id="Path_36108" data-name="Path 36108" d="M18.175,219.693A203.19,203.19,0,0,0,65.5,350.5c27.294-7.172,52.158-13.493,80.812-15.312A167.233,167.233,0,0,1,399.49,147.582c-28.425-75.61-100.245-129.4-184.12-129.4-108.741,0-197.195,90.4-197.195,201.506" fill="none"/>
    </clipPath>
    <linearGradient id="linear-gradient-11" x1="-0.048" y1="1.267" x2="-0.045" y2="1.267" gradientUnits="objectBoundingBox">
      <stop offset="0" stop-color="#e6e6e6"/>
      <stop offset="1" stop-color="#fff"/>
    </linearGradient>
    <clipPath id="clip-path-12">
      <path id="Path_36109" data-name="Path 36109" d="M158.684,334.666c-3.128.064-6.192.153-9.22.331-1.056.05-2.112.114-3.154.19-28.654,1.819-53.518,8.14-80.812,15.312q.993,1.2,2.023,2.4c33.626,38.931,81.739,64.546,135.626,67.916,1.323.089,2.659.152,3.994.216q4.083.171,8.229.166a193.709,193.709,0,0,0,102.355-29.227,199.4,199.4,0,0,0,43.179-36.31,2.15,2.15,0,0,1,.165-.191c.7-.776,1.386-1.552,2.06-2.34-21.506-.128-44.132-1.6-66.274-3.752-32.877-3.155-64.723-7.758-90.452-11.5a299.679,299.679,0,0,0-43.118-3.257q-2.319,0-4.6.04" fill="none"/>
    </clipPath>
    <linearGradient id="linear-gradient-12" x1="-1.936" y1="0.706" x2="-1.924" y2="0.706" gradientUnits="objectBoundingBox">
      <stop offset="0" stop-color="#00008b"/>
      <stop offset="1" stop-color="#1a1a1a"/>
    </linearGradient>
    <clipPath id="clip-path-13">
      <path id="Path_36110" data-name="Path 36110" d="M82.909,155.37v17.354h43.512L81.274,226.271v18.113h70.4V226.271H105.926l44.247-53.547V155.37Z" fill="none"/>
    </clipPath>
    <linearGradient id="linear-gradient-13" x1="-1.047" y1="3.08" x2="-1.034" y2="3.08" gradientUnits="objectBoundingBox">
      <stop offset="0" stop-color="#009245"/>
      <stop offset="1" stop-color="#89cc50"/>
    </linearGradient>
    <clipPath id="clip-path-14">
      <path id="Path_36111" data-name="Path 36111" d="M180.8,202.578a11.429,11.429,0,0,1,2.642-3.638,13.317,13.317,0,0,1,4.087-2.582,14.058,14.058,0,0,1,5.532-1.019,11.243,11.243,0,0,1,8.422,3.4,10.923,10.923,0,0,1,3.14,8.162H179.73a11.54,11.54,0,0,1,1.066-4.324m.746-18.54a31.714,31.714,0,0,0-10.8,6.48,30.166,30.166,0,0,0-7.238,10.117,34.308,34.308,0,0,0,0,26.4,30.387,30.387,0,0,0,7.238,10.117,31.877,31.877,0,0,0,10.8,6.468,38.391,38.391,0,0,0,13.268,2.263,34.264,34.264,0,0,0,14.335-3.139,29.978,29.978,0,0,0,11.431-8.933l-13.185-9.666a21.189,21.189,0,0,1-5.6,5.343,14.268,14.268,0,0,1-7.854,2.073,13.868,13.868,0,0,1-9.3-3.21,14.869,14.869,0,0,1-4.9-8.613h43.749V213.82a40.437,40.437,0,0,0-2.026-13.185,29.025,29.025,0,0,0-5.71-10.117,24.7,24.7,0,0,0-9.051-6.48,30.017,30.017,0,0,0-11.882-2.274,38.42,38.42,0,0,0-13.268,2.274" fill="none"/>
    </clipPath>
    <linearGradient id="linear-gradient-14" x1="-2.406" y1="3.839" x2="-2.391" y2="3.839" xlink:href="#linear-gradient-13"/>
    <clipPath id="clip-path-15">
      <path id="Path_36112" data-name="Path 36112" d="M261.2,184.594a23.1,23.1,0,0,0-7.168,8.5h-.26v-9.821H234.923v61.116H253.77V218.855a59.672,59.672,0,0,1,.521-8.293,15.6,15.6,0,0,1,2.192-6.468,11.3,11.3,0,0,1,4.833-4.218,19.9,19.9,0,0,1,8.565-1.515,25.16,25.16,0,0,1,4.075.319,28.265,28.265,0,0,1,3.968.948V182.391a16.646,16.646,0,0,0-3.02-.5c-1.09-.083-2.18-.13-3.27-.13a18.212,18.212,0,0,0-10.436,2.83" fill="none"/>
    </clipPath>
    <linearGradient id="linear-gradient-15" x1="-5.02" y1="3.985" x2="-4.998" y2="3.985" xlink:href="#linear-gradient-13"/>
    <clipPath id="clip-path-16">
      <path id="Path_36113" data-name="Path 36113" d="M304.39,225.027q-3.963-4.282-3.957-11.207c0-4.608,1.315-8.316,3.957-11.183q3.945-4.264,11.124-4.276t11.136,4.276a15.915,15.915,0,0,1,3.944,11.183c0,4.62-1.326,8.352-3.944,11.207q-3.965,4.265-11.136,4.264t-11.124-4.264m-2.145-40.989a31.868,31.868,0,0,0-10.815,6.48,30.3,30.3,0,0,0-7.226,10.117,34.3,34.3,0,0,0,0,26.4,30.525,30.525,0,0,0,7.226,10.117,32.034,32.034,0,0,0,10.815,6.468,39.994,39.994,0,0,0,26.525,0,31.972,31.972,0,0,0,10.827-6.468,30.326,30.326,0,0,0,7.215-10.117,34.177,34.177,0,0,0,0-26.4,30.106,30.106,0,0,0-7.215-10.117,31.807,31.807,0,0,0-10.827-6.48,39.812,39.812,0,0,0-26.525,0" fill="none"/>
    </clipPath>
    <linearGradient id="linear-gradient-16" x1="-3.919" y1="3.825" x2="-3.905" y2="3.825" xlink:href="#linear-gradient-13"/>
    <clipPath id="clip-path-17">
      <path id="Path_36114" data-name="Path 36114" d="M479.474,272.113c0,6.481,3.416,11.593,10.639,11.593,5.706,0,8.91-3.094,9.825-7.345h-4.954a4.531,4.531,0,0,1-4.66,3.482c-4.4,0-5.762-4.056-5.762-7.908,0-4.146,1.568-7.8,5.63-7.8a4.466,4.466,0,0,1,4.8,3.507h4.927c-.556-3.809-3.5-7.369-9.563-7.369-7.353,0-10.877,5.6-10.877,11.841" fill="none"/>
    </clipPath>
    <linearGradient id="linear-gradient-17" x1="-20.27" y1="8.615" x2="-20.228" y2="8.615" xlink:href="#linear-gradient-13"/>
    <clipPath id="clip-path-18">
      <path id="Path_36115" data-name="Path 36115" d="M502.514,259.263v24.122h4.736V274.31c0-2.639.516-4.6,3.147-4.6,1.987,0,2.776,1.181,2.776,3.4v10.266h4.707V272.411c0-4.641-2.541-6.528-5.731-6.528a5.486,5.486,0,0,0-4.9,2.416v-9.036Z" fill="none"/>
    </clipPath>
    <linearGradient id="linear-gradient-18" x1="-20.557" y1="11.318" x2="-20.515" y2="11.318" xlink:href="#linear-gradient-13"/>
    <clipPath id="clip-path-19">
      <path id="Path_36116" data-name="Path 36116" d="M525.01,278.118c0-1.649,1.06-2.52,3.912-2.52h1.93v.449c0,2.26-.37,4.351-3.379,4.351a2.2,2.2,0,0,1-2.463-2.28m-3.953-6.766h4.5c.217-1.237.655-2.087,2.654-2.087,2.2,0,2.635,1.2,2.635,2.412v1.045h-2.442c-5.015,0-8.143,1.8-8.143,5.7,0,2.652,1.739,5.364,5.863,5.364,3.026,0,4.188-1.107,4.809-2.068a6.93,6.93,0,0,0,.239,1.672H535.7a38.885,38.885,0,0,1-.23-4.42v-7.191c0-4.071-2.494-5.862-7.076-5.891h-.09c-5.131,0-6.991,2.449-7.246,5.469" fill="none"/>
    </clipPath>
    <linearGradient id="linear-gradient-19" x1="-28.822" y1="11.075" x2="-28.767" y2="11.075" xlink:href="#linear-gradient-13"/>
    <clipPath id="clip-path-20">
      <path id="Path_36117" data-name="Path 36117" d="M543.365,269.283c0-.922-.063-2.62-.125-3h-4.645c.03,1.43.033,2.94.033,4.64v12.465h4.737v-7.458c0-4.689,2.05-6.216,5.487-6.127v-3.52c-2.909.017-4.733,1.049-5.487,3" fill="none"/>
    </clipPath>
    <linearGradient id="linear-gradient-20" x1="-31.154" y1="16.357" x2="-31.096" y2="16.357" xlink:href="#linear-gradient-13"/>
    <clipPath id="clip-path-21">
      <path id="Path_36118" data-name="Path 36118" d="M703.26,269.283c0-.922-.063-2.62-.124-3h-4.645c.029,1.43.033,2.94.033,4.64v12.465h4.736v-7.458c0-4.689,2.051-6.216,5.488-6.127v-3.52c-2.909.017-4.734,1.049-5.488,3" fill="none"/>
    </clipPath>
    <linearGradient id="linear-gradient-21" x1="-40.463" y1="16.357" x2="-40.405" y2="16.357" xlink:href="#linear-gradient-13"/>
    <clipPath id="clip-path-22">
      <path id="Path_36119" data-name="Path 36119" d="M831.86,269.283c0-.922-.063-2.62-.124-3H827.09c.03,1.43.033,2.94.033,4.64v12.465h4.737v-7.458c0-4.689,2.051-6.216,5.488-6.127v-3.52c-2.91.017-4.734,1.049-5.488,3" fill="none"/>
    </clipPath>
    <linearGradient id="linear-gradient-22" x1="-47.95" y1="16.356" x2="-47.892" y2="16.356" xlink:href="#linear-gradient-13"/>
    <clipPath id="clip-path-23">
      <path id="Path_36120" data-name="Path 36120" d="M976.758,269.283c0-.922-.063-2.62-.124-3h-4.646c.03,1.43.034,2.94.034,4.64v12.465h4.736v-7.458c0-4.689,2.05-6.216,5.489-6.127v-3.52c-2.911.017-4.734,1.049-5.489,3" fill="none"/>
    </clipPath>
    <linearGradient id="linear-gradient-23" x1="-56.386" y1="16.354" x2="-56.328" y2="16.354" xlink:href="#linear-gradient-13"/>
    <clipPath id="clip-path-24">
      <path id="Path_36121" data-name="Path 36121" d="M553.875,261.648v4.632h-2.637v3.561h2.637v9c0,2.993,1.1,4.777,4.439,4.777a10.792,10.792,0,0,0,3.183-.326v-3.258a8.529,8.529,0,0,1-1.079.053c-1.41,0-1.808-.506-1.808-1.8v-8.442h3.352V266.28H558.61v-4.632Z" fill="none"/>
    </clipPath>
    <linearGradient id="linear-gradient-24" x1="-24.752" y1="15.829" x2="-24.706" y2="15.829" xlink:href="#linear-gradient-13"/>
    <clipPath id="clip-path-25">
      <rect id="Rectangle_3792" data-name="Rectangle 3792" width="4.728" height="17.1" transform="translate(564.603 266.285)" fill="none"/>
    </clipPath>
    <linearGradient id="linear-gradient-25" x1="-32.592" y1="34.44" x2="-32.534" y2="34.44" xlink:href="#linear-gradient-13"/>
    <clipPath id="clip-path-26">
      <path id="Path_36122" data-name="Path 36122" d="M566.717,259.258a2.115,2.115,0,0,0,0,4.229h.5a2.115,2.115,0,1,0,0-4.229Z" fill="none"/>
    </clipPath>
    <linearGradient id="linear-gradient-26" x1="-132.524" y1="37.917" x2="-132.289" y2="37.917" xlink:href="#linear-gradient-13"/>
    <clipPath id="clip-path-27">
      <path id="Path_36123" data-name="Path 36123" d="M1011.614,259.258a2.115,2.115,0,0,0,0,4.229h.5a2.115,2.115,0,1,0,0-4.229Z" fill="none"/>
    </clipPath>
    <linearGradient id="linear-gradient-27" x1="-236.904" y1="37.916" x2="-236.669" y2="37.916" xlink:href="#linear-gradient-13"/>
    <clipPath id="clip-path-28">
      <path id="Path_36124" data-name="Path 36124" d="M576.863,268.459a19.96,19.96,0,0,0-.182-2.179h-4.586c.033,1.264.033,2.855.033,4.308v12.8h4.735v-9.532c0-3.021,1.152-4.139,3.164-4.139,2.089,0,2.731,1.393,2.731,3.315v10.356h4.736V272.5c0-4.3-2.233-6.621-5.668-6.621-3,0-4.381,1.5-4.963,2.576" fill="none"/>
    </clipPath>
    <linearGradient id="linear-gradient-28" x1="-32.424" y1="11.114" x2="-32.367" y2="11.114" xlink:href="#linear-gradient-13"/>
    <clipPath id="clip-path-29">
      <path id="Path_36125" data-name="Path 36125" d="M594.1,274.678c0-3.417,1.613-5,3.667-5,3.005,0,3.513,1.976,3.513,4.854s-.762,4.827-3.613,4.827c-2.1,0-3.567-1.736-3.567-4.68m-4.862.212c0,4.6,2.565,8.29,7.073,8.29,2.512,0,3.926-.923,4.819-2.4v.816c0,3.354-.579,5.228-3.653,5.228-1.826,0-2.692-.8-3.025-1.975h-4.827c.163,1.93,1.4,5.418,7.641,5.418,6.479,0,8.505-3.473,8.505-8.965V271.187c0-1.643.009-3.381.036-4.907h-4.491c-.032.28-.153,1.32-.186,1.784-.259-.8-1.48-2.181-4.414-2.181-4.278,0-7.478,3.659-7.478,9.007" fill="none"/>
    </clipPath>
    <linearGradient id="linear-gradient-29" x1="-23.89" y1="10.136" x2="-23.85" y2="10.136" xlink:href="#linear-gradient-13"/>
    <clipPath id="clip-path-30">
      <path id="Path_36126" data-name="Path 36126" d="M621.688,278.118c0-1.649,1.059-2.52,3.911-2.52h1.93v.449c0,2.26-.37,4.351-3.379,4.351a2.2,2.2,0,0,1-2.462-2.28m-3.954-6.766h4.5c.217-1.237.655-2.087,2.655-2.087,2.2,0,2.634,1.2,2.634,2.412v1.045h-2.443c-5.014,0-8.142,1.8-8.142,5.7,0,2.652,1.739,5.364,5.864,5.364,3.025,0,4.187-1.107,4.808-2.068a6.93,6.93,0,0,0,.239,1.672h4.524a38.637,38.637,0,0,1-.23-4.42v-7.191c0-4.071-2.494-5.862-7.076-5.891h-.09c-5.131,0-6.991,2.449-7.246,5.469" fill="none"/>
    </clipPath>
    <linearGradient id="linear-gradient-30" x1="-34.191" y1="11.075" x2="-34.136" y2="11.075" xlink:href="#linear-gradient-13"/>
    <clipPath id="clip-path-31">
      <path id="Path_36127" data-name="Path 36127" d="M643.482,274.957c0,5.14,2.738,8.824,8.06,8.824,5.1,0,7.1-3.074,7.692-5.923h-4.653a2.907,2.907,0,0,1-2.922,2.245c-2.074,0-3.37-1.659-3.37-5.3,0-3.317,1.226-5.214,3.39-5.214a2.673,2.673,0,0,1,2.931,2.366h4.624c-.094-1.934-1.7-6.072-7.463-6.072-5.207,0-8.289,4.021-8.289,9.074" fill="none"/>
    </clipPath>
    <linearGradient id="linear-gradient-31" x1="-35.67" y1="10.864" x2="-35.614" y2="10.864" xlink:href="#linear-gradient-13"/>
    <clipPath id="clip-path-32">
      <path id="Path_36128" data-name="Path 36128" d="M666.2,274.832c0-3.616,1.435-5.243,3.632-5.243,2.359,0,3.672,1.693,3.672,5.272,0,3.262-1.288,5.214-3.606,5.214-2.281,0-3.7-1.951-3.7-5.243m-4.806.058c0,5.106,3.1,8.891,8.4,8.891,5.419,0,8.516-3.807,8.516-8.982,0-5.363-3.258-8.916-8.293-8.916-5.431,0-8.624,3.73-8.624,9.007" fill="none"/>
    </clipPath>
    <linearGradient id="linear-gradient-32" x1="-36.68" y1="10.155" x2="-36.624" y2="10.155" xlink:href="#linear-gradient-13"/>
    <clipPath id="clip-path-33">
      <path id="Path_36129" data-name="Path 36129" d="M690.9,266.28v9.1c0,3.387-.892,4.537-3.052,4.537-2.05,0-2.635-1.56-2.635-3.448V266.28H680.48v11.142c0,4.241,2.225,6.359,5.71,6.359,2.185,0,3.7-.653,4.709-2.369.03.6.063,1.513.128,1.973h4.641c-.028-1.531-.033-3.322-.033-4.971V266.28Z" fill="none"/>
    </clipPath>
    <linearGradient id="linear-gradient-33" x1="-38.578" y1="11.235" x2="-38.522" y2="11.235" xlink:href="#linear-gradient-13"/>
    <clipPath id="clip-path-34">
      <path id="Path_36130" data-name="Path 36130" d="M710.546,271.065c0,2.413.912,4.138,6.485,5.511,2.45.6,3.184,1.032,3.184,2.13,0,1.035-.636,1.665-2.384,1.665-1.768,0-2.881-.766-3.238-2.128H709.94c.375,3.031,2.52,5.538,7.712,5.538,5.215,0,7.37-2.578,7.37-5.41,0-2.508-.808-4.464-6.515-5.792-2.777-.648-3.308-1.058-3.308-1.91,0-.768.507-1.462,2.073-1.462,2.227,0,2.648,1.194,2.8,1.826h4.5c-.148-2.317-1.9-5.15-7.091-5.15-5.16,0-6.938,2.668-6.938,5.182" fill="none"/>
    </clipPath>
    <linearGradient id="linear-gradient-34" x1="-39.352" y1="11.321" x2="-39.296" y2="11.321" xlink:href="#linear-gradient-13"/>
    <clipPath id="clip-path-35">
      <path id="Path_36131" data-name="Path 36131" d="M735.19,269.269c2.308,0,3.1,1.676,3.136,3.667H731.82c.188-2.1,1.1-3.667,3.37-3.667m-8.239,5.812c0,4.488,2.445,8.7,8.077,8.7,5.374,0,7.243-3.439,7.849-5.532h-4.739c-.449,1.035-1.013,1.826-2.985,1.826-2.358,0-3.43-2.091-3.433-4.231h11.288a10.518,10.518,0,0,0,.062-1.441c0-4.27-2-8.52-7.873-8.52-5.492,0-8.246,3.832-8.246,9.2" fill="none"/>
    </clipPath>
    <linearGradient id="linear-gradient-35" x1="-40.309" y1="10.63" x2="-40.253" y2="10.63" xlink:href="#linear-gradient-13"/>
    <clipPath id="clip-path-36">
      <path id="Path_36132" data-name="Path 36132" d="M754.93,261.648v4.632h-2.637v3.561h2.637v9c0,2.993,1.1,4.777,4.439,4.777a10.8,10.8,0,0,0,3.183-.326v-3.258a8.538,8.538,0,0,1-1.079.053c-1.41,0-1.808-.506-1.808-1.8v-8.442h3.351V266.28h-3.351v-4.632Z" fill="none"/>
    </clipPath>
    <linearGradient id="linear-gradient-36" x1="-33.873" y1="15.83" x2="-33.828" y2="15.83" xlink:href="#linear-gradient-13"/>
    <clipPath id="clip-path-37">
      <path id="Path_36133" data-name="Path 36133" d="M769.423,274.832c0-3.616,1.435-5.243,3.633-5.243,2.358,0,3.671,1.693,3.671,5.272,0,3.262-1.287,5.214-3.606,5.214-2.281,0-3.7-1.951-3.7-5.243m-4.806.058c0,5.106,3.1,8.891,8.4,8.891,5.419,0,8.516-3.807,8.516-8.982,0-5.363-3.257-8.916-8.293-8.916-5.431,0-8.624,3.73-8.624,9.007" fill="none"/>
    </clipPath>
    <linearGradient id="linear-gradient-37" x1="-42.409" y1="10.156" x2="-42.353" y2="10.156" xlink:href="#linear-gradient-13"/>
    <clipPath id="clip-path-38">
      <path id="Path_36134" data-name="Path 36134" d="M791.835,274.957c0,5.14,2.739,8.824,8.062,8.824,5.1,0,7.1-3.074,7.69-5.923h-4.653a2.905,2.905,0,0,1-2.921,2.245c-2.073,0-3.371-1.659-3.371-5.3,0-3.317,1.227-5.214,3.391-5.214a2.674,2.674,0,0,1,2.931,2.366h4.623c-.094-1.934-1.695-6.072-7.463-6.072-5.206,0-8.289,4.021-8.289,9.074" fill="none"/>
    </clipPath>
    <linearGradient id="linear-gradient-38" x1="-43.907" y1="10.864" x2="-43.852" y2="10.864" xlink:href="#linear-gradient-13"/>
    <clipPath id="clip-path-39">
      <path id="Path_36135" data-name="Path 36135" d="M813.986,278.118c0-1.649,1.059-2.52,3.911-2.52h1.931v.449c0,2.26-.371,4.351-3.38,4.351a2.2,2.2,0,0,1-2.462-2.28m-3.954-6.766h4.5c.218-1.237.655-2.087,2.655-2.087,2.2,0,2.634,1.2,2.634,2.412v1.045h-2.442c-5.014,0-8.142,1.8-8.142,5.7,0,2.652,1.738,5.364,5.863,5.364,3.026,0,4.188-1.107,4.809-2.068a6.98,6.98,0,0,0,.238,1.672h4.524a38.866,38.866,0,0,1-.23-4.42v-7.191c0-4.071-2.494-5.862-7.076-5.891h-.09c-5.13,0-6.991,2.449-7.246,5.469" fill="none"/>
    </clipPath>
    <linearGradient id="linear-gradient-39" x1="-44.871" y1="11.076" x2="-44.815" y2="11.076" xlink:href="#linear-gradient-13"/>
    <clipPath id="clip-path-40">
      <path id="Path_36136" data-name="Path 36136" d="M844.318,274.924c0-3.487.959-5.247,3.664-5.247,2.558,0,3.617,2.09,3.617,4.941,0,3.233-1.264,5.4-3.669,5.4-2.761,0-3.612-2.212-3.612-5.092M839.8,259.263v18.528c0,1.855,0,3.739-.033,5.594h4.528a8.39,8.39,0,0,0,.182-1.622c.831,1.243,1.951,2.018,4.494,2.018,4.918,0,7.438-4.354,7.438-9.254,0-4.8-2.323-8.644-6.979-8.644-2.773,0-4.188,1.113-4.894,2.212v-8.832Z" fill="none"/>
    </clipPath>
    <linearGradient id="linear-gradient-40" x1="-33.927" y1="10.483" x2="-33.886" y2="10.483" xlink:href="#linear-gradient-13"/>
    <clipPath id="clip-path-41">
      <path id="Path_36137" data-name="Path 36137" d="M863.1,274.832c0-3.616,1.434-5.243,3.632-5.243,2.358,0,3.671,1.693,3.671,5.272,0,3.262-1.287,5.214-3.606,5.214-2.28,0-3.7-1.951-3.7-5.243m-4.807.058c0,5.106,3.1,8.891,8.4,8.891,5.419,0,8.516-3.807,8.516-8.982,0-5.363-3.257-8.916-8.293-8.916-5.431,0-8.624,3.73-8.624,9.007" fill="none"/>
    </clipPath>
    <linearGradient id="linear-gradient-41" x1="-47.608" y1="10.155" x2="-47.553" y2="10.155" xlink:href="#linear-gradient-13"/>
    <clipPath id="clip-path-42">
      <path id="Path_36138" data-name="Path 36138" d="M882.492,268.459a19.944,19.944,0,0,0-.182-2.179h-4.586c.033,1.264.033,2.855.033,4.308v12.8h4.735v-9.532c0-3.021,1.152-4.139,3.165-4.139,2.089,0,2.729,1.393,2.729,3.315v10.356h4.737V272.5c0-4.3-2.233-6.621-5.669-6.621-2.995,0-4.379,1.5-4.962,2.576" fill="none"/>
    </clipPath>
    <linearGradient id="linear-gradient-42" x1="-49.78" y1="11.114" x2="-49.723" y2="11.114" xlink:href="#linear-gradient-13"/>
    <clipPath id="clip-path-43">
      <path id="Path_36139" data-name="Path 36139" d="M909.355,268.459a20.441,20.441,0,0,0-.182-2.179h-4.587c.034,1.264.034,2.855.034,4.308v12.8h4.735v-9.532c0-3.021,1.152-4.139,3.164-4.139,2.089,0,2.731,1.393,2.731,3.315v10.356h4.735V272.5c0-4.3-2.232-6.621-5.668-6.621-3,0-4.38,1.5-4.962,2.576" fill="none"/>
    </clipPath>
    <linearGradient id="linear-gradient-43" x1="-51.305" y1="11.114" x2="-51.248" y2="11.114" xlink:href="#linear-gradient-13"/>
    <clipPath id="clip-path-44">
      <path id="Path_36140" data-name="Path 36140" d="M930.362,269.269c2.308,0,3.1,1.676,3.137,3.667h-6.507c.189-2.1,1.1-3.667,3.37-3.667m-8.238,5.812c0,4.488,2.444,8.7,8.077,8.7,5.374,0,7.243-3.439,7.849-5.532h-4.74c-.449,1.035-1.012,1.826-2.984,1.826-2.358,0-3.43-2.091-3.434-4.231h11.289a10.528,10.528,0,0,0,.062-1.441c0-4.27-2-8.52-7.873-8.52-5.492,0-8.246,3.832-8.246,9.2" fill="none"/>
    </clipPath>
    <linearGradient id="linear-gradient-44" x1="-51.145" y1="10.63" x2="-51.09" y2="10.63" xlink:href="#linear-gradient-13"/>
    <clipPath id="clip-path-45">
      <path id="Path_36141" data-name="Path 36141" d="M950.9,266.28v9.1c0,3.387-.891,4.537-3.051,4.537-2.05,0-2.635-1.56-2.635-3.448V266.28H940.48v11.142c0,4.241,2.226,6.359,5.711,6.359,2.185,0,3.7-.653,4.708-2.369.03.6.063,1.513.129,1.973h4.641c-.029-1.531-.033-3.322-.033-4.971V266.28Z" fill="none"/>
    </clipPath>
    <linearGradient id="linear-gradient-45" x1="-53.345" y1="11.234" x2="-53.288" y2="11.234" xlink:href="#linear-gradient-13"/>
    <clipPath id="clip-path-46">
      <path id="Path_36142" data-name="Path 36142" d="M961.3,261.648v4.632h-2.636v3.561H961.3v9c0,2.993,1.1,4.777,4.439,4.777a10.8,10.8,0,0,0,3.184-.326v-3.258a8.53,8.53,0,0,1-1.079.053c-1.411,0-1.809-.506-1.809-1.8v-8.442h3.352V266.28h-3.352v-4.632Z" fill="none"/>
    </clipPath>
    <linearGradient id="linear-gradient-46" x1="-43.236" y1="15.83" x2="-43.191" y2="15.83" xlink:href="#linear-gradient-13"/>
    <clipPath id="clip-path-47">
      <path id="Path_36143" data-name="Path 36143" d="M988.278,278.118c0-1.649,1.06-2.52,3.912-2.52h1.93v.449c0,2.26-.371,4.351-3.379,4.351a2.2,2.2,0,0,1-2.463-2.28m-3.954-6.766h4.5c.219-1.237.656-2.087,2.655-2.087,2.2,0,2.635,1.2,2.635,2.412v1.045h-2.442c-5.015,0-8.143,1.8-8.143,5.7,0,2.652,1.74,5.364,5.864,5.364,3.025,0,4.187-1.107,4.808-2.068a7.032,7.032,0,0,0,.238,1.672h4.526a38.508,38.508,0,0,1-.232-4.42v-7.191c0-4.071-2.493-5.862-7.075-5.891h-.091c-5.13,0-6.99,2.449-7.245,5.469" fill="none"/>
    </clipPath>
    <linearGradient id="linear-gradient-47" x1="-54.55" y1="11.074" x2="-54.495" y2="11.074" xlink:href="#linear-gradient-13"/>
    <clipPath id="clip-path-48">
      <rect id="Rectangle_3816" data-name="Rectangle 3816" width="4.736" height="24.122" transform="translate(1001.831 259.263)" fill="none"/>
    </clipPath>
    <linearGradient id="linear-gradient-48" x1="-41.074" y1="34.758" x2="-41.032" y2="34.758" xlink:href="#linear-gradient-13"/>
    <clipPath id="clip-path-49">
      <rect id="Rectangle_3818" data-name="Rectangle 3818" width="4.728" height="17.1" transform="translate(1009.5 266.285)" fill="none"/>
    </clipPath>
    <linearGradient id="linear-gradient-49" x1="-58.56" y1="34.44" x2="-58.501" y2="34.44" xlink:href="#linear-gradient-13"/>
    <clipPath id="clip-path-50">
      <path id="Path_36144" data-name="Path 36144" d="M1019.62,261.648v4.632h-2.636v3.561h2.636v9c0,2.993,1.1,4.777,4.44,4.777a10.791,10.791,0,0,0,3.182-.326v-3.258a8.514,8.514,0,0,1-1.078.053c-1.411,0-1.808-.506-1.808-1.8v-8.442h3.35V266.28h-3.35v-4.632Z" fill="none"/>
    </clipPath>
    <linearGradient id="linear-gradient-50" x1="-45.882" y1="15.832" x2="-45.836" y2="15.832" xlink:href="#linear-gradient-13"/>
    <clipPath id="clip-path-51">
      <path id="Path_36145" data-name="Path 36145" d="M1041.447,266.28c-2.042,7.191-3.044,11.023-3.413,12.749H1038c-.271-1.581-1.813-6.848-3.581-12.749h-5.075l6.225,17.628c-.641,1.89-1.518,2.494-3.257,2.494-.383,0-.9-.032-1.224-.069v3.8a21.928,21.928,0,0,0,2.217.129c4.11,0,5.473-1.469,7.107-6.388l5.748-17.6Z" fill="none"/>
    </clipPath>
    <linearGradient id="linear-gradient-51" x1="-42.555" y1="9.986" x2="-42.514" y2="9.986" xlink:href="#linear-gradient-13"/>
  </defs>
  <g id="Group_5926" data-name="Group 5926">
    <g id="Group_5925" data-name="Group 5925" clip-path="url(#clip-path)">
      <rect id="Rectangle_3767" data-name="Rectangle 3767" width="89.698" height="63.69" transform="translate(479.854 240.421) rotate(-89.399)" fill="url(#linear-gradient)"/>
    </g>
  </g>
  <g id="Group_5928" data-name="Group 5928">
    <g id="Group_5927" data-name="Group 5927" clip-path="url(#clip-path-2)">
      <rect id="Rectangle_3768" data-name="Rectangle 3768" width="63.637" height="96.74" transform="translate(556.22 240.424) rotate(-89.399)" fill="url(#linear-gradient-2)"/>
    </g>
  </g>
  <g id="Group_5930" data-name="Group 5930">
    <g id="Group_5929" data-name="Group 5929" clip-path="url(#clip-path-3)">
      <rect id="Rectangle_3769" data-name="Rectangle 3769" width="91.534" height="22.84" transform="matrix(0.01, -1, 1, 0.01, 664.081, 240.421)" fill="url(#linear-gradient-3)"/>
    </g>
  </g>
  <g id="Group_5932" data-name="Group 5932">
    <g id="Group_5931" data-name="Group 5931" clip-path="url(#clip-path-4)">
      <rect id="Rectangle_3770" data-name="Rectangle 3770" width="64.687" height="52.865" transform="matrix(0.01, -1, 1, 0.01, 694.675, 241.928)" fill="url(#linear-gradient-4)"/>
    </g>
  </g>
  <g id="Group_5934" data-name="Group 5934">
    <g id="Group_5933" data-name="Group 5933" clip-path="url(#clip-path-5)">
      <rect id="Rectangle_3771" data-name="Rectangle 3771" width="64.687" height="52.866" transform="matrix(0.01, -1, 1, 0.01, 752.906, 241.928)" fill="url(#linear-gradient-5)"/>
    </g>
  </g>
  <g id="Group_5936" data-name="Group 5936">
    <g id="Group_5935" data-name="Group 5935" clip-path="url(#clip-path-6)">
      <rect id="Rectangle_3772" data-name="Rectangle 3772" width="91.534" height="22.842" transform="translate(813.241 240.421) rotate(-89.399)" fill="url(#linear-gradient-6)"/>
    </g>
  </g>
  <g id="Group_5938" data-name="Group 5938">
    <g id="Group_5937" data-name="Group 5937" clip-path="url(#clip-path-7)">
      <rect id="Rectangle_3773" data-name="Rectangle 3773" width="64.852" height="68.585" transform="translate(845.221 241.928) rotate(-89.399)" fill="url(#linear-gradient-7)"/>
    </g>
  </g>
  <g id="Group_5940" data-name="Group 5940">
    <g id="Group_5939" data-name="Group 5939" clip-path="url(#clip-path-8)">
      <rect id="Rectangle_3774" data-name="Rectangle 3774" width="63.247" height="59.514" transform="matrix(0.01, -1, 1, 0.01, 924.218, 240.424)" fill="url(#linear-gradient-8)"/>
    </g>
  </g>
  <g id="Group_5942" data-name="Group 5942">
    <g id="Group_5941" data-name="Group 5941" clip-path="url(#clip-path-9)">
      <rect id="Rectangle_3775" data-name="Rectangle 3775" width="64.687" height="52.865" transform="matrix(0.01, -1, 1, 0.01, 992.745, 241.928)" fill="url(#linear-gradient-9)"/>
    </g>
  </g>
  <g id="Group_5944" data-name="Group 5944">
    <g id="Group_5943" data-name="Group 5943" clip-path="url(#clip-path-10)">
      <rect id="Rectangle_3776" data-name="Rectangle 3776" width="547.035" height="541.328" transform="translate(-124.023 401.032) rotate(-72.815)" fill="url(#linear-gradient-10)"/>
    </g>
  </g>
  <g id="Group_5946" data-name="Group 5946">
    <g id="Group_5945" data-name="Group 5945" clip-path="url(#clip-path-11)">
      <rect id="Rectangle_3777" data-name="Rectangle 3777" width="381.315" height="332.312" transform="translate(18.175 18.187)" fill="url(#linear-gradient-11)"/>
    </g>
  </g>
  <g id="Group_5948" data-name="Group 5948">
    <g id="Group_5947" data-name="Group 5947" clip-path="url(#clip-path-12)">
      <rect id="Rectangle_3778" data-name="Rectangle 3778" width="87.991" height="298.04" transform="translate(65.086 421.199) rotate(-89.727)" fill="url(#linear-gradient-12)"/>
    </g>
  </g>
  <g id="Group_5950" data-name="Group 5950">
    <g id="Group_5949" data-name="Group 5949" clip-path="url(#clip-path-13)">
      <rect id="Rectangle_3779" data-name="Rectangle 3779" width="75.298" height="92.833" transform="translate(76.275 155.652) rotate(-3.225)" fill="url(#linear-gradient-13)"/>
    </g>
  </g>
  <g id="Group_5952" data-name="Group 5952">
    <g id="Group_5951" data-name="Group 5951" clip-path="url(#clip-path-14)">
      <rect id="Rectangle_3780" data-name="Rectangle 3780" width="66.129" height="67.545" transform="translate(157.257 181.967) rotate(-3.225)" fill="url(#linear-gradient-14)"/>
    </g>
  </g>
  <g id="Group_5954" data-name="Group 5954">
    <g id="Group_5953" data-name="Group 5953" clip-path="url(#clip-path-15)">
      <rect id="Rectangle_3781" data-name="Rectangle 3781" width="46.455" height="64.94" transform="matrix(0.998, -0.056, 0.056, 0.998, 231.406, 181.962)" fill="url(#linear-gradient-15)"/>
    </g>
  </g>
  <g id="Group_5956" data-name="Group 5956">
    <g id="Group_5955" data-name="Group 5955" clip-path="url(#clip-path-16)">
      <rect id="Rectangle_3782" data-name="Rectangle 3782" width="71.403" height="67.842" transform="matrix(0.998, -0.056, 0.056, 0.998, 277.96, 181.967)" fill="url(#linear-gradient-16)"/>
    </g>
  </g>
  <g id="Group_5958" data-name="Group 5958">
    <g id="Group_5957" data-name="Group 5957" clip-path="url(#clip-path-17)">
      <rect id="Rectangle_3783" data-name="Rectangle 3783" width="23.578" height="20.629" transform="translate(479.309 283.705) rotate(-89.596)" fill="url(#linear-gradient-17)"/>
    </g>
  </g>
  <g id="Group_5960" data-name="Group 5960">
    <g id="Group_5959" data-name="Group 5959" clip-path="url(#clip-path-18)">
      <rect id="Rectangle_3784" data-name="Rectangle 3784" width="24.23" height="15.535" transform="matrix(0.007, -1, 1, 0.007, 502.344, 283.384)" fill="url(#linear-gradient-18)"/>
    </g>
  </g>
  <g id="Group_5962" data-name="Group 5962">
    <g id="Group_5961" data-name="Group 5961" clip-path="url(#clip-path-19)">
      <rect id="Rectangle_3785" data-name="Rectangle 3785" width="18.006" height="15.561" transform="matrix(0.007, -1, 1, 0.007, 520.138, 283.78)" fill="url(#linear-gradient-19)"/>
    </g>
  </g>
  <g id="Group_5964" data-name="Group 5964">
    <g id="Group_5963" data-name="Group 5963" clip-path="url(#clip-path-20)">
      <rect id="Rectangle_3786" data-name="Rectangle 3786" width="17.177" height="10.377" transform="matrix(0.007, -1, 1, 0.007, 538.474, 283.384)" fill="url(#linear-gradient-20)"/>
    </g>
  </g>
  <g id="Group_5966" data-name="Group 5966">
    <g id="Group_5965" data-name="Group 5965" clip-path="url(#clip-path-21)">
      <rect id="Rectangle_3787" data-name="Rectangle 3787" width="17.177" height="10.377" transform="translate(698.371 283.384) rotate(-89.596)" fill="url(#linear-gradient-21)"/>
    </g>
  </g>
  <g id="Group_5968" data-name="Group 5968">
    <g id="Group_5967" data-name="Group 5967" clip-path="url(#clip-path-22)">
      <rect id="Rectangle_3788" data-name="Rectangle 3788" width="17.177" height="10.378" transform="translate(826.97 283.384) rotate(-89.597)" fill="url(#linear-gradient-22)"/>
    </g>
  </g>
  <g id="Group_5970" data-name="Group 5970">
    <g id="Group_5969" data-name="Group 5969" clip-path="url(#clip-path-23)">
      <rect id="Rectangle_3789" data-name="Rectangle 3789" width="17.177" height="10.379" transform="matrix(0.007, -1, 1, 0.007, 971.867, 283.384)" fill="url(#linear-gradient-23)"/>
    </g>
  </g>
  <g id="Group_5972" data-name="Group 5972">
    <g id="Group_5971" data-name="Group 5971" clip-path="url(#clip-path-24)">
      <rect id="Rectangle_3790" data-name="Rectangle 3790" width="22.042" height="10.878" transform="matrix(0.007, -1, 1, 0.007, 551.083, 283.614)" fill="url(#linear-gradient-24)"/>
    </g>
  </g>
  <g id="Group_5974" data-name="Group 5974">
    <g id="Group_5973" data-name="Group 5973" clip-path="url(#clip-path-25)">
      <rect id="Rectangle_3791" data-name="Rectangle 3791" width="17.133" height="4.848" transform="translate(564.483 283.384) rotate(-89.596)" fill="url(#linear-gradient-25)"/>
    </g>
  </g>
  <g id="Group_5976" data-name="Group 5976">
    <g id="Group_5975" data-name="Group 5975" clip-path="url(#clip-path-26)">
      <rect id="Rectangle_3793" data-name="Rectangle 3793" width="4.262" height="4.758" transform="matrix(0.007, -1, 1, 0.007, 564.573, 263.487)" fill="url(#linear-gradient-26)"/>
    </g>
  </g>
  <g id="Group_5978" data-name="Group 5978">
    <g id="Group_5977" data-name="Group 5977" clip-path="url(#clip-path-27)">
      <rect id="Rectangle_3794" data-name="Rectangle 3794" width="4.262" height="4.758" transform="matrix(0.007, -1, 1, 0.007, 1009.47, 263.487)" fill="url(#linear-gradient-27)"/>
    </g>
  </g>
  <g id="Group_5980" data-name="Group 5980">
    <g id="Group_5979" data-name="Group 5979" clip-path="url(#clip-path-28)">
      <rect id="Rectangle_3795" data-name="Rectangle 3795" width="17.61" height="15.522" transform="matrix(0.007, -1, 1, 0.007, 571.972, 283.384)" fill="url(#linear-gradient-28)"/>
    </g>
  </g>
  <g id="Group_5982" data-name="Group 5982">
    <g id="Group_5981" data-name="Group 5981" clip-path="url(#clip-path-29)">
      <rect id="Rectangle_3796" data-name="Rectangle 3796" width="24.498" height="16.74" transform="translate(589.062 290.264) rotate(-89.597)" fill="url(#linear-gradient-29)"/>
    </g>
  </g>
  <g id="Group_5984" data-name="Group 5984">
    <g id="Group_5983" data-name="Group 5983" clip-path="url(#clip-path-30)">
      <rect id="Rectangle_3797" data-name="Rectangle 3797" width="18.006" height="15.561" transform="matrix(0.007, -1, 1, 0.007, 616.815, 283.78)" fill="url(#linear-gradient-30)"/>
    </g>
  </g>
  <g id="Group_5986" data-name="Group 5986">
    <g id="Group_5985" data-name="Group 5985" clip-path="url(#clip-path-31)">
      <rect id="Rectangle_3798" data-name="Rectangle 3798" width="18.008" height="15.878" transform="translate(643.356 283.78) rotate(-89.596)" fill="url(#linear-gradient-31)"/>
    </g>
  </g>
  <g id="Group_5988" data-name="Group 5988">
    <g id="Group_5987" data-name="Group 5987" clip-path="url(#clip-path-32)">
      <rect id="Rectangle_3799" data-name="Rectangle 3799" width="18.017" height="17.043" transform="matrix(0.007, -1, 1, 0.007, 661.271, 283.78)" fill="url(#linear-gradient-32)"/>
    </g>
  </g>
  <g id="Group_5990" data-name="Group 5990">
    <g id="Group_5989" data-name="Group 5989" clip-path="url(#clip-path-33)">
      <rect id="Rectangle_3800" data-name="Rectangle 3800" width="17.608" height="15.311" transform="translate(680.357 283.78) rotate(-89.596)" fill="url(#linear-gradient-33)"/>
    </g>
  </g>
  <g id="Group_5992" data-name="Group 5992">
    <g id="Group_5991" data-name="Group 5991" clip-path="url(#clip-path-34)">
      <rect id="Rectangle_3801" data-name="Rectangle 3801" width="18.004" height="15.208" transform="translate(709.814 283.78) rotate(-89.597)" fill="url(#linear-gradient-34)"/>
    </g>
  </g>
  <g id="Group_5994" data-name="Group 5994">
    <g id="Group_5993" data-name="Group 5993" clip-path="url(#clip-path-35)">
      <rect id="Rectangle_3802" data-name="Rectangle 3802" width="18.011" height="16.245" transform="matrix(0.007, -1, 1, 0.007, 726.825, 283.78)" fill="url(#linear-gradient-35)"/>
    </g>
  </g>
  <g id="Group_5996" data-name="Group 5996">
    <g id="Group_5995" data-name="Group 5995" clip-path="url(#clip-path-36)">
      <rect id="Rectangle_3803" data-name="Rectangle 3803" width="22.042" height="10.877" transform="matrix(0.007, -1, 1, 0.007, 752.138, 283.614)" fill="url(#linear-gradient-36)"/>
    </g>
  </g>
  <g id="Group_5998" data-name="Group 5998">
    <g id="Group_5997" data-name="Group 5997" clip-path="url(#clip-path-37)">
      <rect id="Rectangle_3804" data-name="Rectangle 3804" width="18.017" height="17.043" transform="matrix(0.007, -1, 1, 0.007, 764.491, 283.78)" fill="url(#linear-gradient-37)"/>
    </g>
  </g>
  <g id="Group_6000" data-name="Group 6000">
    <g id="Group_5999" data-name="Group 5999" clip-path="url(#clip-path-38)">
      <rect id="Rectangle_3805" data-name="Rectangle 3805" width="18.008" height="15.878" transform="translate(791.709 283.78) rotate(-89.596)" fill="url(#linear-gradient-38)"/>
    </g>
  </g>
  <g id="Group_6002" data-name="Group 6002">
    <g id="Group_6001" data-name="Group 6001" clip-path="url(#clip-path-39)">
      <rect id="Rectangle_3806" data-name="Rectangle 3806" width="18.006" height="15.56" transform="translate(809.114 283.78) rotate(-89.597)" fill="url(#linear-gradient-39)"/>
    </g>
  </g>
  <g id="Group_6004" data-name="Group 6004">
    <g id="Group_6003" data-name="Group 6003" clip-path="url(#clip-path-40)">
      <rect id="Rectangle_3807" data-name="Rectangle 3807" width="24.635" height="16.814" transform="translate(839.591 283.78) rotate(-89.596)" fill="url(#linear-gradient-40)"/>
    </g>
  </g>
  <g id="Group_6006" data-name="Group 6006">
    <g id="Group_6005" data-name="Group 6005" clip-path="url(#clip-path-41)">
      <rect id="Rectangle_3808" data-name="Rectangle 3808" width="18.017" height="17.043" transform="translate(858.163 283.78) rotate(-89.597)" fill="url(#linear-gradient-41)"/>
    </g>
  </g>
  <g id="Group_6008" data-name="Group 6008">
    <g id="Group_6007" data-name="Group 6007" clip-path="url(#clip-path-42)">
      <rect id="Rectangle_3809" data-name="Rectangle 3809" width="17.61" height="15.522" transform="matrix(0.007, -1, 1, 0.007, 877.601, 283.384)" fill="url(#linear-gradient-42)"/>
    </g>
  </g>
  <g id="Group_6010" data-name="Group 6010">
    <g id="Group_6009" data-name="Group 6009" clip-path="url(#clip-path-43)">
      <rect id="Rectangle_3810" data-name="Rectangle 3810" width="17.61" height="15.522" transform="matrix(0.007, -1, 1, 0.007, 904.463, 283.384)" fill="url(#linear-gradient-43)"/>
    </g>
  </g>
  <g id="Group_6012" data-name="Group 6012">
    <g id="Group_6011" data-name="Group 6011" clip-path="url(#clip-path-44)">
      <rect id="Rectangle_3811" data-name="Rectangle 3811" width="18.011" height="16.245" transform="matrix(0.007, -1, 1, 0.007, 921.998, 283.78)" fill="url(#linear-gradient-44)"/>
    </g>
  </g>
  <g id="Group_6014" data-name="Group 6014">
    <g id="Group_6013" data-name="Group 6013" clip-path="url(#clip-path-45)">
      <rect id="Rectangle_3812" data-name="Rectangle 3812" width="17.608" height="15.312" transform="translate(940.357 283.78) rotate(-89.596)" fill="url(#linear-gradient-45)"/>
    </g>
  </g>
  <g id="Group_6016" data-name="Group 6016">
    <g id="Group_6015" data-name="Group 6015" clip-path="url(#clip-path-46)">
      <rect id="Rectangle_3813" data-name="Rectangle 3813" width="22.042" height="10.877" transform="translate(958.512 283.614) rotate(-89.596)" fill="url(#linear-gradient-46)"/>
    </g>
  </g>
  <g id="Group_6018" data-name="Group 6018">
    <g id="Group_6017" data-name="Group 6017" clip-path="url(#clip-path-47)">
      <rect id="Rectangle_3814" data-name="Rectangle 3814" width="18.006" height="15.562" transform="translate(983.405 283.78) rotate(-89.597)" fill="url(#linear-gradient-47)"/>
    </g>
  </g>
  <g id="Group_6020" data-name="Group 6020">
    <g id="Group_6019" data-name="Group 6019" clip-path="url(#clip-path-48)">
      <rect id="Rectangle_3815" data-name="Rectangle 3815" width="24.155" height="4.906" transform="translate(1001.661 283.384) rotate(-89.597)" fill="url(#linear-gradient-48)"/>
    </g>
  </g>
  <g id="Group_6022" data-name="Group 6022">
    <g id="Group_6021" data-name="Group 6021" clip-path="url(#clip-path-49)">
      <rect id="Rectangle_3817" data-name="Rectangle 3817" width="17.133" height="4.848" transform="translate(1009.38 283.384) rotate(-89.596)" fill="url(#linear-gradient-49)"/>
    </g>
  </g>
  <g id="Group_6024" data-name="Group 6024">
    <g id="Group_6023" data-name="Group 6023" clip-path="url(#clip-path-50)">
      <rect id="Rectangle_3819" data-name="Rectangle 3819" width="22.042" height="10.876" transform="matrix(0.007, -1, 1, 0.007, 1016.829, 283.614)" fill="url(#linear-gradient-50)"/>
    </g>
  </g>
  <g id="Group_6026" data-name="Group 6026">
    <g id="Group_6025" data-name="Group 6025" clip-path="url(#clip-path-51)">
      <rect id="Rectangle_3820" data-name="Rectangle 3820" width="24.103" height="16.985" transform="translate(1029.176 290.264) rotate(-89.597)" fill="url(#linear-gradient-51)"/>
    </g>
  </g>
</svg>
