<?xml version="1.0" encoding="UTF-8"?><svg id="a" xmlns="http://www.w3.org/2000/svg" xmlns:xlink="http://www.w3.org/1999/xlink" viewBox="0 0 200 100"><defs><clipPath id="c"><polygon points="94.52 41.3 102.3 41.3 102.3 43.59 97.07 43.59 97.07 45.76 102.04 45.76 102.04 48.05 97.07 48.05 97.07 50.35 102.55 50.35 102.55 52.64 94.52 52.64 94.52 41.3" fill="none" stroke-width="0"/></clipPath><linearGradient id="e" x1="667.9" y1="366.17" x2="667.91" y2="366.17" gradientTransform="translate(-59873.82 23374.2) scale(89.7 -63.69)" gradientUnits="userSpaceOnUse"><stop offset="0" stop-color="#999"/><stop offset="1" stop-color="#000"/></linearGradient><clipPath id="h"><path d="M112.3,44.96c-.43.25-.78.63-1.01,1.07-.19-.45-.52-.82-.95-1.06-.45-.23-.95-.35-1.45-.34-.27,0-.54.04-.8.11-.23.07-.45.16-.66.29-.18.11-.35.25-.5.4-.13.13-.24.28-.32.45h.02v-1.02h-2.29v7.77h2.29v-3.88c.04-.25.06-.49.09-.74.03-.22.1-.44.2-.63.1-.19.25-.34.44-.45.23-.12.49-.18.75-.17.23-.02.45.05.63.19.14.13.25.29.31.46.06.19.1.38.11.58.01.2.02.37,0,.51v4.25h2.42v-4.12c0-.23.02-.45.07-.67.04-.2.13-.39.24-.56.12-.16.27-.29.45-.38.22-.1.46-.14.71-.14.4,0,.68.13.84.39.16.29.24.61.24.94v4.41h2.42v-4.6c0-.44-.04-.89-.14-1.32-.08-.38-.23-.75-.45-1.07-.22-.31-.51-.56-.85-.72-.41-.19-.87-.28-1.32-.26-.51-.02-1.01.09-1.46.32" fill="none" stroke-width="0"/></clipPath><linearGradient id="j" x1="670.91" y1="357.89" x2="670.91" y2="357.89" gradientTransform="translate(-42665.17 34666.97) scale(63.64 -96.74)" xlink:href="#e"/><clipPath id="m"><path d="M118.23,52.64h2.42v-7.77h-2.42v7.77ZM118.46,41.41c-.54.54-.54,1.43,0,1.97.54.54,1.43.54,1.97,0,.54-.54.54-1.43,0-1.97-.26-.26-.62-.41-.98-.41-.37,0-.73.14-.99.41" fill="none" stroke-width="0"/></clipPath><linearGradient id="o" x1="667.51" y1="420.09" x2="667.51" y2="420.09" gradientTransform="translate(-61068.6 9646.87) scale(91.54 -22.84)" xlink:href="#e"/><clipPath id="r"><path d="M124.18,44.81c-.38.09-.73.25-1.05.47-.3.21-.56.49-.74.82-.19.36-.29.77-.28,1.19,0,.49.1.88.3,1.18.19.29.45.52.75.68.31.16.64.28.98.36.35.08.67.15.98.22.26.05.51.14.75.26.18.08.3.26.3.46,0,.21-.13.39-.34.44-.24.08-.5.12-.75.12-.33,0-.66-.07-.95-.22-.29-.16-.54-.37-.75-.63l-1.46,1.62c.39.4.87.68,1.41.83.54.15,1.09.23,1.65.23.42,0,.85-.04,1.27-.12.41-.07.8-.21,1.15-.42.34-.19.63-.46.84-.79.23-.37.35-.8.33-1.24,0-.49-.1-.88-.3-1.18-.19-.29-.45-.53-.75-.7-.31-.17-.64-.3-.98-.38-.35-.08-.67-.16-.98-.22-.26-.05-.51-.13-.75-.24-.18-.06-.3-.23-.3-.42-.02-.21.1-.41.29-.5.18-.09.39-.14.59-.14.54-.02,1.06.23,1.39.66l1.47-1.46c-.36-.38-.82-.66-1.33-.8-.51-.15-1.03-.22-1.55-.22-.41,0-.81.05-1.2.15" fill="none" stroke-width="0"/></clipPath><linearGradient id="t" x1="670.53" y1="375.07" x2="670.53" y2="375.07" gradientTransform="translate(-43340.51 19883.43) scale(64.69 -52.87)" xlink:href="#e"/><clipPath id="w"><path d="M131.6,44.81c-.38.09-.73.25-1.05.47-.3.21-.56.49-.74.82-.19.36-.29.77-.28,1.19,0,.49.1.88.3,1.18.19.29.45.52.75.68.31.16.64.28.98.36.35.08.67.15.98.22.26.05.51.14.75.26.18.08.3.26.3.46,0,.21-.13.39-.34.44-.24.08-.5.12-.75.12-.33,0-.66-.07-.95-.22-.29-.16-.54-.37-.75-.63l-1.46,1.62c.39.4.87.68,1.41.83.54.15,1.09.23,1.65.23.42,0,.85-.04,1.27-.12.41-.07.8-.21,1.15-.42.34-.19.63-.46.84-.79.23-.37.35-.8.33-1.24,0-.49-.1-.88-.3-1.18-.19-.29-.45-.53-.75-.7-.31-.17-.64-.3-.98-.38-.35-.08-.67-.16-.98-.22-.26-.05-.51-.13-.75-.24-.18-.06-.3-.23-.3-.42-.02-.21.1-.41.29-.5.18-.09.39-.14.59-.14.54-.02,1.06.23,1.39.66l1.47-1.46c-.36-.38-.82-.66-1.33-.8-.51-.15-1.03-.22-1.55-.22-.41,0-.81.05-1.2.15" fill="none" stroke-width="0"/></clipPath><linearGradient id="y" x1="670.41" y1="376.03" x2="670.41" y2="376.03" gradientTransform="translate(-43332.61 19934.6) scale(64.69 -52.87)" xlink:href="#e"/><clipPath id="ab"><path d="M137.22,52.64h2.42v-7.77h-2.42v7.77ZM137.47,41.41c-.54.54-.54,1.43,0,1.97.54.54,1.43.54,1.97,0,.54-.54.54-1.43,0-1.97-.26-.26-.62-.41-.98-.41-.37,0-.73.14-.99.41" fill="none" stroke-width="0"/></clipPath><linearGradient id="ad" x1="667.27" y1="425.8" x2="667.27" y2="425.8" gradientTransform="translate(-61044.48 9776.74) scale(91.53 -22.84)" xlink:href="#e"/><clipPath id="ag"><path d="M144.01,50.17c-.34-.36-.5-.84-.5-1.43s.17-1.06.5-1.43c.34-.36.81-.54,1.42-.54.61,0,1.08.18,1.42.54.34.36.5.84.5,1.43,0,.59-.17,1.06-.5,1.43-.34.36-.81.55-1.42.55-.61,0-1.08-.18-1.42-.55M143.74,44.95c-.51.18-.98.46-1.38.83-.39.36-.71.8-.92,1.29-.45,1.08-.45,2.29,0,3.37.21.49.53.93.92,1.29.4.36.87.64,1.38.83,1.09.38,2.29.38,3.38,0,.51-.18.98-.46,1.38-.83.39-.36.71-.8.92-1.29.45-1.08.45-2.29,0-3.37-.22-.49-.53-.93-.92-1.29-.4-.36-.87-.64-1.38-.83-1.09-.38-2.29-.38-3.38,0" fill="none" stroke-width="0"/></clipPath><linearGradient id="ai" x1="670.14" y1="368.94" x2="670.14" y2="368.94" gradientTransform="translate(-43430.07 25347.86) scale(64.85 -68.58)" xlink:href="#e"/><clipPath id="al"><path d="M154.98,44.75c-.23.07-.45.16-.66.29-.18.11-.35.24-.5.4-.13.13-.24.28-.32.45h.02v-1.02h-2.29v7.77h2.29v-3.88c0-.25.02-.49.05-.74.03-.22.1-.44.2-.63.1-.19.25-.34.44-.45.23-.12.49-.18.75-.17.47-.05.92.24,1.08.69.08.21.13.44.14.67.02.24.02.47.02.7v3.82h2.42v-4.29c0-.49-.03-.98-.11-1.46-.06-.41-.21-.81-.42-1.17-.21-.34-.52-.6-.87-.78-.37-.19-.87-.28-1.47-.28-.27,0-.54.04-.8.11" fill="none" stroke-width="0"/></clipPath><linearGradient id="an" x1="670.23" y1="374.51" x2="670.24" y2="374.51" gradientTransform="translate(-42360.5 22336.46) scale(63.25 -59.52)" xlink:href="#e"/><clipPath id="aq"><path d="M162.16,44.81c-.38.09-.73.25-1.05.47-.3.21-.56.49-.74.82-.2.36-.29.77-.28,1.19,0,.49.1.88.3,1.18.19.29.45.52.75.68.31.16.64.28.98.36.35.08.67.15.98.22.26.05.51.14.75.26.18.08.3.26.3.46,0,.21-.14.39-.34.44-.24.08-.5.12-.75.12-.33,0-.66-.07-.95-.22-.29-.16-.54-.37-.75-.63l-1.46,1.62c.39.4.87.68,1.41.83.54.15,1.09.23,1.65.23.42,0,.85-.04,1.27-.12.41-.07.8-.21,1.15-.42.34-.19.63-.46.84-.79.23-.37.35-.8.33-1.24,0-.49-.1-.88-.3-1.18-.19-.29-.45-.53-.75-.7-.31-.17-.64-.3-.98-.38-.35-.08-.67-.16-.98-.22-.26-.05-.51-.13-.75-.24-.18-.06-.3-.23-.3-.42-.02-.21.1-.41.29-.5.18-.09.39-.14.59-.14.54-.02,1.06.23,1.39.66l1.47-1.46c-.36-.38-.82-.66-1.33-.8-.51-.15-1.03-.22-1.55-.22-.41,0-.81.05-1.2.15" fill="none" stroke-width="0"/></clipPath><linearGradient id="as" x1="669.9" y1="379.99" x2="669.9" y2="379.99" gradientTransform="translate(-43299.9 20143.5) scale(64.69 -52.87)" xlink:href="#e"/><clipPath id="av"><path d="M59.69,75.72c-.17,0-.34-.02-.51-.03-6.87-.43-13-3.69-17.29-8.66-.09-.1-.17-.2-.26-.31-3.91-4.67-6.05-10.58-6.03-16.67,0-14.16,11.27-25.68,25.13-25.68,10.69,0,19.84,6.85,23.47,16.49.37.97.67,1.96.92,2.96,1.05,4.3.99,8.79-.15,13.06-.07-.03-.14-.05-.21-.05h-.21c-.26,0-.48-.21-.48-.47v-1.35c-.01-.27-.23-.48-.5-.48h0c-.26,0-.48-.2-.49-.47l-.11-3.48h-.31s-.01,3.47-.01,3.47c0,.26-.21.48-.48.48h-1.08c-.26.01-.47.23-.47.5,0,0,0,0,0,0v1.3c.01.27-.2.49-.46.49l-1.49.02c-.98.01-1.76.83-1.75,1.84l.04,4.07c0,.24-.21.44-.47.45l-14.6.13c-.11,0-.22-.03-.3-.09l-.62-.45c-.09-.06-.19-.1-.3-.1l-7.21.07c-.26,0-.47.22-.47.48,0,.06.01.11.03.17l.49,1.27c2.04-.03,4.07.11,6.08.41,3.28.48,7.34,1.06,11.53,1.47,2.82.27,5.71.46,8.45.48-.09.1-.17.2-.26.3,0,0-.01.02-.02.02-1.61,1.8-3.46,3.35-5.5,4.63-3.92,2.44-8.43,3.73-13.05,3.72-.35,0-.7,0-1.05-.02M60.74,22c-7.34,0-14.23,2.92-19.42,8.21-5.18,5.29-8.03,12.32-8.03,19.79s2.85,14.5,8.03,19.79c5.19,5.29,12.08,8.21,19.42,8.21.62,0,1.24-.02,1.86-.06.28-.02.55-.04.82-.07,4.11-.41,8.08-1.76,11.59-3.94,2.24-1.4,4.27-3.11,6.03-5.08.55-.61,1.07-1.25,1.56-1.9.15-.19.29-.4.43-.6,3.37-4.78,5.17-10.5,5.16-16.35,0-1.15-.07-2.3-.2-3.45-.73-6.16-3.49-11.91-7.83-16.34-5.18-5.29-12.08-8.21-19.42-8.21Z" fill="none" stroke-width="0"/></clipPath><linearGradient id="ax" x1="661.02" y1="342.45" x2="661.02" y2="342.45" gradientTransform="translate(-361566.29 185425.39) scale(547.03 -541.33)" gradientUnits="userSpaceOnUse"><stop offset="0" stop-color="#009245"/><stop offset=".49" stop-color="#89cc50"/><stop offset="1" stop-color="#48b14b"/></linearGradient><clipPath id="ba"><path d="M35.61,50c-.01,6.09,2.12,12,6.03,16.67,3.48-.91,6.65-1.72,10.3-1.95-3.43-11.26,2.91-23.17,14.17-26.6,6.13-1.87,12.77-.88,18.09,2.69-3.62-9.64-12.78-16.49-23.47-16.49-13.86,0-25.13,11.52-25.13,25.68" fill="none" stroke-width="0"/></clipPath><linearGradient id="bc" x1="656.69" y1="341.72" x2="656.69" y2="341.72" gradientTransform="translate(-250372.73 113602.27) scale(381.32 -332.31)" gradientUnits="userSpaceOnUse"><stop offset="0" stop-color="#e6e6e6"/><stop offset="1" stop-color="#fff"/></linearGradient><clipPath id="bf"><path d="M53.52,64.65c-.4,0-.79.02-1.18.04-.13,0-.27.01-.4.02-3.65.23-6.82,1.04-10.3,1.95.08.1.17.2.26.31,4.29,4.96,10.42,8.23,17.29,8.66.17.01.34.02.51.03.35.01.7.02,1.05.02,4.61,0,9.13-1.29,13.05-3.72,2.04-1.27,3.9-2.83,5.5-4.63,0,0,.01-.02.02-.02.09-.1.18-.2.26-.3-2.74-.02-5.62-.2-8.45-.48-4.19-.4-8.25-.99-11.53-1.47-1.82-.27-3.66-.41-5.5-.42-.2,0-.39,0-.59,0" fill="none" stroke-width="0"/></clipPath><linearGradient id="bh" x1="670.41" y1="344.31" x2="670.41" y2="344.31" gradientTransform="translate(-58954.85 102690.61) scale(87.99 -298.04)" gradientUnits="userSpaceOnUse"><stop offset="0" stop-color="#00008b"/><stop offset="1" stop-color="#1a1a1a"/></linearGradient><clipPath id="bk"><polygon points="43.93 41.81 43.93 43.97 49.41 43.97 43.67 50.84 43.67 53.15 52.59 53.15 52.59 50.86 46.85 50.86 52.47 44.02 52.47 41.81 43.93 41.81" fill="none" stroke-width="0"/></clipPath><linearGradient id="bm" x1="643.02" y1="348.39" x2="643.03" y2="348.39" gradientTransform="translate(-48385.2 32389.18) scale(75.3 -92.83)" gradientUnits="userSpaceOnUse"><stop offset="0" stop-color="#009245"/><stop offset="1" stop-color="#89cc50"/></linearGradient><clipPath id="bp"><path d="M56.34,47.76c.08-.18.19-.33.34-.46.15-.14.33-.25.52-.33.22-.09.46-.13.71-.13.4-.01.79.14,1.07.43.27.28.42.65.4,1.04h-3.17c0-.19.06-.38.14-.55M56.42,45.42c-.51.18-.98.46-1.38.83-.39.36-.71.8-.92,1.29-.45,1.08-.45,2.29,0,3.36.22.49.53.93.92,1.29.4.36.87.64,1.38.82.54.19,1.11.29,1.69.29.63,0,1.25-.14,1.83-.4.57-.25,1.07-.65,1.46-1.14l-1.68-1.23c-.19.27-.44.5-.71.68-.3.18-.65.27-1,.26-.43.01-.85-.13-1.19-.41-.33-.28-.55-.67-.62-1.1h5.58v-.75c0-.57-.08-1.14-.26-1.68-.15-.47-.4-.91-.73-1.29-.32-.36-.71-.64-1.15-.83-.48-.2-1-.3-1.51-.29-.58,0-1.15.09-1.69.29" fill="none" stroke-width="0"/></clipPath><linearGradient id="br" x1="639.47" y1="351.95" x2="639.47" y2="351.95" gradientTransform="translate(-42254.17 23821.55) scale(66.13 -67.54)" xlink:href="#bm"/><clipPath id="bu"><path d="M66.58,45.57c-.39.28-.7.65-.91,1.08h-.08v-1.27h-2.42v7.77h2.42v-3.25c0-.35.02-.71.07-1.06.03-.29.13-.57.28-.82.15-.23.36-.42.61-.54.34-.14.71-.21,1.08-.19.17,0,.35.01.52.04.17.03.34.07.5.12v-2.2c-.13-.03-.25-.05-.38-.06-.14-.01-.28-.02-.42-.02-.47-.02-.93.11-1.33.36" fill="none" stroke-width="0"/></clipPath><linearGradient id="bw" x1="629.16" y1="352.49" x2="629.17" y2="352.49" gradientTransform="translate(-29181.92 22929.73) scale(46.44 -64.91)" xlink:href="#bm"/><clipPath id="bz"><path d="M72.09,50.68c-.34-.36-.5-.84-.5-1.43,0-.59.17-1.06.5-1.43.34-.36.81-.54,1.42-.54.61,0,1.08.18,1.42.54.34.39.52.9.5,1.43,0,.59-.17,1.06-.5,1.43-.34.36-.81.54-1.42.54-.61,0-1.08-.18-1.42-.54M71.81,45.46c-.51.18-.98.46-1.38.83-.39.36-.71.8-.92,1.29-.45,1.08-.45,2.29,0,3.36.22.49.53.93.92,1.29.4.36.87.64,1.38.82,1.09.38,2.29.38,3.38,0,.51-.18.98-.46,1.38-.82.39-.36.71-.8.92-1.29.45-1.08.45-2.29,0-3.36-.21-.49-.53-.93-.92-1.29-.4-.36-.87-.65-1.38-.83-1.09-.39-2.29-.39-3.38,0" fill="none" stroke-width="0"/></clipPath><linearGradient id="cb" x1="639.29" y1="351.98" x2="639.29" y2="351.98" gradientTransform="translate(-45594.02 23918.18) scale(71.37 -67.81)" xlink:href="#bm"/><clipPath id="ce"><path d="M94.36,56.67c0,.85.45,1.53,1.4,1.53.75,0,1.17-.41,1.29-.97h-.65c-.07.28-.32.47-.61.46-.58,0-.76-.53-.76-1.04,0-.55.21-1.03.74-1.03.3-.03.57.17.63.46h.65c-.07-.5-.46-.97-1.26-.97-.97,0-1.43.74-1.43,1.56" fill="none" stroke-width="0"/></clipPath><linearGradient id="cg" x1="691.81" y1="420.78" x2="691.82" y2="420.78" gradientTransform="translate(-16279.11 8736.72) scale(23.58 -20.63)" xlink:href="#bm"/><clipPath id="cj"><path d="M97.33,55.06v2.93h.64v-1.03c-.02-.34.04-.59.38-.59.25,0,.35.15.39.43v1.31h.64v-1.4c0-.59-.34-.83-.76-.83-.26-.02-.5.1-.65.31v-1.14h-.64Z" fill="none" stroke-width="0"/></clipPath><linearGradient id="cl" x1="690.91" y1="448.57" x2="690.91" y2="448.57" gradientTransform="translate(-16705.23 7029.25) rotate(-.01) scale(24.23 -15.54)" xlink:href="#bm"/><clipPath id="co"><path d="M100.15,57.42c0-.21.14-.32.5-.32h.25v.06c0,.29-.05.55-.43.55-.15.02-.29-.09-.31-.24,0-.02,0-.03,0-.05M99.75,56.59h.47c.03-.16.08-.27.34-.27.28,0,.34.15.34.31v.09h-.32c-.66,0-1.07.24-1.07.75,0,.35.23.7.77.7.4,0,.55-.15.63-.27,0,.07.01.15.03.22h.62c-.02-.19-.03-.39-.03-.58v-.94c0-.53-.33-.77-.93-.77h.02c-.65,0-.89.31-.92.7" fill="none" stroke-width="0"/></clipPath><linearGradient id="cq" x1="701.43" y1="449.39" x2="701.44" y2="449.39" gradientTransform="translate(-12595.22 7052.42) rotate(-.01) scale(18.01 -15.56)" xlink:href="#bm"/><clipPath id="ct"><path d="M102.55,56.34c0-.12,0-.33-.02-.38h-.62c0,.18,0,.37,0,.59v1.58h.64v-.95c0-.6.24-.79.64-.78v-.45c-.37,0-.6.13-.7.38" fill="none" stroke-width="0"/></clipPath><linearGradient id="cv" x1="703.31" y1="505.62" x2="703.32" y2="505.62" gradientTransform="translate(-12048.11 5301.12) rotate(.01) scale(17.18 -10.38)" xlink:href="#bm"/><clipPath id="cy"><path d="M122.92,56.34c0-.12,0-.33-.02-.38h-.6c0,.18,0,.37,0,.59v1.58h.64v-.95c0-.6.24-.79.64-.78v-.45c-.37,0-.6.13-.7.38" fill="none" stroke-width="0"/></clipPath><linearGradient id="da" x1="702.08" y1="519.07" x2="702.09" y2="519.07" gradientTransform="translate(-12026.41 5440.55) rotate(.01) scale(17.18 -10.38)" xlink:href="#bm"/><clipPath id="dd"><path d="M139.31,56.34c0-.12,0-.33-.02-.38h-.55c0,.18,0,.37,0,.59v1.58h.64v-.95c0-.6.24-.79.64-.78v-.45c-.37,0-.6.13-.7.38" fill="none" stroke-width="0"/></clipPath><linearGradient id="df" x1="701.1" y1="529.86" x2="701.11" y2="529.86" gradientTransform="translate(-12009.24 5553.03) rotate(.01) scale(17.18 -10.38)" xlink:href="#bm"/><clipPath id="di"><path d="M157.78,56.34c0-.12,0-.33-.02-.38h-.54c0,.18,0,.37,0,.59v1.58h.64v-.95c0-.6.24-.79.64-.78v-.45c-.37,0-.6.13-.7.38" fill="none" stroke-width="0"/></clipPath><linearGradient id="dk" x1="699.99" y1="542.01" x2="700" y2="542.01" gradientTransform="translate(-11990.24 5679.85) rotate(.01) scale(17.18 -10.38)" xlink:href="#bm"/><clipPath id="dn"><path d="M103.95,55.32v.64h-.38v.51h.25v1.15c0,.38.15.61.59.61.14,0,.29,0,.43-.04v-.48s-.1,0-.14,0c-.19,0-.24-.07-.24-.24v-1h.38v-.51h-.38v-.64h-.51Z" fill="none" stroke-width="0"/></clipPath><linearGradient id="dp" x1="693.67" y1="498.99" x2="693.68" y2="498.99" gradientTransform="translate(-15256.52 5485.13) scale(22.04 -10.88)" xlink:href="#bm"/><clipPath id="ds"><rect x="105.23" y="55.96" width=".64" height="2.17" fill="none" stroke-width="0"/></clipPath><linearGradient id="du" x1="703.22" y1="699.26" x2="703.23" y2="699.26" gradientTransform="translate(-12013.93 3448.45) scale(17.13 -4.85)" xlink:href="#bm"/><clipPath id="dx"><path d="M105.52,55.06c-.14,0-.25.12-.25.26,0,.14.11.25.25.25h.06c.14,0,.26-.11.26-.25s-.11-.26-.25-.26c0,0,0,0-.01,0h-.06Z" fill="none" stroke-width="0"/></clipPath><linearGradient id="dz" x1="830.49" y1="706.03" x2="830.52" y2="706.03" gradientTransform="translate(3439.6 3685.73) rotate(-89.6) scale(4.26 -4.76)" xlink:href="#bm"/><clipPath id="ec"><path d="M162.23,55.06c-.14,0-.25.12-.25.26,0,.14.11.25.25.25h.06c.14,0,.26-.11.26-.25s-.11-.26-.25-.26c0,0,0,0-.01,0h-.06Z" fill="none" stroke-width="0"/></clipPath><linearGradient id="ee" x1="817.45" y1="787.61" x2="817.48" y2="787.61" gradientTransform="translate(3884.5 3685.73) rotate(-89.6) scale(4.26 -4.76)" xlink:href="#bm"/><clipPath id="eh"><path d="M106.81,56.23c0-.09-.01-.19-.02-.28h-.55c0,.16,0,.36,0,.55v1.62h.51v-1.21c0-.39.15-.53.41-.53s.35.18.35.42v1.32h.64v-1.39c0-.55-.28-.84-.72-.84-.38,0-.56.19-.63.33" fill="none" stroke-width="0"/></clipPath><linearGradient id="ej" x1="701.86" y1="452.58" x2="701.86" y2="452.58" gradientTransform="translate(-12327.61 7082.73) scale(17.61 -15.52)" xlink:href="#bm"/><clipPath id="em"><path d="M109.01,57.01c0-.44.21-.64.47-.64.38,0,.45.25.45.62s-.1.62-.46.62c-.27,0-.45-.22-.45-.6M108.31,57.08c0,.6.35,1.08.97,1.08.34,0,.54-.12.66-.31v.11c0,.44-.08.68-.5.68-.25,0-.37-.1-.42-.26h-.66c.02.25.19.71,1.05.71s1.17-.45,1.17-1.17v-1.32c0-.21,0-.44,0-.64h-.62s-.02.17-.03.23c-.04-.1-.2-.28-.61-.28-.59,0-1.03.48-1.03,1.17" fill="none" stroke-width="0"/></clipPath><linearGradient id="eo" x1="690.25" y1="445.28" x2="690.26" y2="445.28" gradientTransform="translate(-16878.19 7510.16) scale(24.5 -16.74)" xlink:href="#bm"/><clipPath id="er"><path d="M112.51,57.42c0-.21.13-.32.5-.32h.25v.06c0,.29-.05.55-.43.55-.15.02-.29-.09-.31-.24,0-.02,0-.03,0-.05M111.98,56.59h.6c.03-.16.08-.27.34-.27.28,0,.34.15.34.31v.09h-.32c-.66,0-1.07.24-1.07.75,0,.35.23.7.77.7.4,0,.55-.15.63-.27,0,.07.01.15.03.22h.62c-.02-.19-.03-.39-.03-.58v-.94c0-.53-.33-.77-.93-.77h-.02c-.65,0-.89.31-.92.7" fill="none" stroke-width="0"/></clipPath><linearGradient id="et" x1="700.72" y1="454.81" x2="700.73" y2="454.81" gradientTransform="translate(-12582.38 7136.86) rotate(-.01) scale(18.01 -15.56)" xlink:href="#bm"/><clipPath id="ew"><path d="M115.29,56.98c0,.67.35,1.14,1.04,1.14s.92-.4,1-.77h-.6c-.04.17-.2.3-.38.29-.27,0-.44-.21-.44-.69,0-.43.16-.68.44-.68.19-.02.36.12.38.31h.6c-.01-.25-.22-.79-.97-.79-.67,0-1.07.52-1.07,1.18" fill="none" stroke-width="0"/></clipPath><linearGradient id="ey" x1="700.51" y1="453.98" x2="700.52" y2="453.98" gradientTransform="translate(-12580.7 7265.87) scale(18.01 -15.88)" xlink:href="#bm"/><clipPath id="fb"><path d="M118.2,57.03c0-.46.18-.67.46-.67.3,0,.47.22.47.67,0,.42-.16.66-.46.66s-.47-.25-.47-.67M117.59,57.03c0,.65.4,1.13,1.07,1.13s1.09-.49,1.09-1.14-.42-1.14-1.06-1.14c-.69,0-1.1.48-1.1,1.15" fill="none" stroke-width="0"/></clipPath><linearGradient id="fd" x1="700.37" y1="447.1" x2="700.37" y2="447.1" gradientTransform="translate(-12585.01 7676.85) scale(18.02 -17.04)" xlink:href="#bm"/><clipPath id="fg"><path d="M121.42,55.96v1.16c0,.43-.12.58-.41.58s-.35-.2-.35-.44v-1.3h-.64v1.41c0,.54.28.81.72.81.28,0,.47-.08.59-.3,0,.08,0,.19.02.25h.59c0-.19,0-.42,0-.63v-1.54h-.51Z" fill="none" stroke-width="0"/></clipPath><linearGradient id="fi" x1="701.04" y1="460.32" x2="701.04" y2="460.32" gradientTransform="translate(-12314.18 7101.18) rotate(.02) scale(17.61 -15.31)" xlink:href="#bm"/><clipPath id="fl"><path d="M123.88,56.6c0,.3.11.51.8.68.3.07.39.13.39.26,0,.13-.08.21-.29.21s-.36-.09-.4-.26h-.58c.05.38.31.69.95.69s.91-.32.91-.67c0-.31-.1-.55-.81-.72-.34-.08-.41-.13-.41-.24,0-.1.06-.18.26-.18.28,0,.33.15.35.23h.56c-.02-.29-.24-.64-.88-.64s-.86.33-.86.64" fill="none" stroke-width="0"/></clipPath><linearGradient id="fn" x1="700.04" y1="462.82" x2="700.04" y2="462.82" gradientTransform="translate(-12570.32 7094.06) scale(18 -15.21)" xlink:href="#bm"/><clipPath id="fq"><path d="M126.99,56.38c.29,0,.4.21.4.47h-.83c.02-.27.14-.47.43-.47M125.94,57.06c0,.57.31,1.11,1.03,1.11s.92-.44,1-.68h-.6c-.06.11-.13.21-.38.21-.3,0-.44-.27-.44-.47h1.44c0-.13,0-.2,0-.26,0-.54-.25-1.09-1-1.09-.7,0-1.05.49-1.05,1.17" fill="none" stroke-width="0"/></clipPath><linearGradient id="fs" x1="699.9" y1="455.88" x2="699.9" y2="455.88" gradientTransform="translate(-12573 7461.53) scale(18.01 -16.25)" xlink:href="#bm"/><clipPath id="fv"><path d="M129.44,55.32v.64h-.25v.51h.25v1.15c0,.38.15.61.59.61.14,0,.29,0,.43-.04v-.48s-.1,0-.14,0c-.19,0-.24-.07-.24-.24v-1h.38v-.51h-.38v-.64h-.64Z" fill="none" stroke-width="0"/></clipPath><linearGradient id="fx" x1="692.46" y1="515.13" x2="692.47" y2="515.13" gradientTransform="translate(-15229.67 5660.24) scale(22.04 -10.88)" xlink:href="#bm"/><clipPath id="ga"><path d="M131.36,57.03c0-.46.18-.67.46-.67.3,0,.47.22.47.67,0,.42-.16.66-.46.66s-.47-.25-.47-.67M130.74,57.03c0,.65.4,1.13,1.07,1.13s1.09-.49,1.09-1.14-.42-1.14-1.06-1.14c-.69,0-1.1.48-1.1,1.15" fill="none" stroke-width="0"/></clipPath><linearGradient id="gc" x1="699.61" y1="452.38" x2="699.61" y2="452.38" gradientTransform="translate(-12571.25 7766.94) scale(18.02 -17.04)" xlink:href="#bm"/><clipPath id="gf"><path d="M134.2,56.98c0,.67.35,1.14,1.04,1.14s.92-.4,1-.77h-.6c-.04.17-.2.3-.38.29-.27,0-.44-.21-.44-.69,0-.43.16-.68.44-.68.19-.02.36.12.38.31h.6c-.01-.25-.22-.79-.97-.79-.67,0-1.07.52-1.07,1.18" fill="none" stroke-width="0"/></clipPath><linearGradient id="gh" x1="699.42" y1="462.14" x2="699.43" y2="462.14" gradientTransform="translate(-12560.92 7395.36) scale(18.01 -15.88)" xlink:href="#bm"/><clipPath id="gk"><path d="M136.98,57.42c0-.21.13-.32.5-.32h.25v.06c0,.29-.05.55-.43.55-.15.02-.29-.09-.31-.24,0-.02,0-.03,0-.05M136.58,56.59h.47c.03-.16.08-.27.34-.27.28,0,.34.15.34.31v.09h-.32c-.66,0-1.07.24-1.07.75,0,.35.23.7.77.7.4,0,.55-.15.63-.27,0,.07.01.15.03.22h.62c-.02-.19-.03-.39-.03-.58v-.94c0-.53-.33-.77-.93-.77h.02c-.65,0-.89.31-.92.7" fill="none" stroke-width="0"/></clipPath><linearGradient id="gm" x1="699.3" y1="465.6" x2="699.31" y2="465.6" gradientTransform="translate(-12556.21 7304.14) rotate(-.01) scale(18.01 -15.56)" xlink:href="#bm"/><clipPath id="gp"><path d="M140.9,57.04c0-.44.12-.67.47-.67.33,0,.46.27.46.63,0,.41-.16.69-.47.69-.35,0-.46-.28-.46-.65M140.28,55.06v2.35c0,.24,0,.47,0,.71h.61c.02-.07.02-.14.02-.21.11.16.26.26.6.26.66,0,1-.55,1-1.17s-.31-1.1-.94-1.1c-.37,0-.56.14-.66.28v-1.12h-.64Z" fill="none" stroke-width="0"/></clipPath><linearGradient id="gr" x1="688.5" y1="457.82" x2="688.5" y2="457.82" gradientTransform="translate(-16929.41 7753.31) scale(24.64 -16.81)" xlink:href="#bm"/><clipPath id="gu"><path d="M143.3,57.03c0-.46.18-.67.46-.67.3,0,.47.22.47.67,0,.42-.16.66-.46.66s-.47-.25-.47-.67M142.68,57.03c0,.65.4,1.13,1.07,1.13s1.09-.49,1.09-1.14-.42-1.14-1.06-1.14c-.69,0-1.1.48-1.1,1.15" fill="none" stroke-width="0"/></clipPath><linearGradient id="gw" x1="698.92" y1="457.18" x2="698.92" y2="457.18" gradientTransform="translate(-12558.34 7848.52) scale(18.02 -17.04)" xlink:href="#bm"/><clipPath id="gz"><path d="M145.77,56.23c0-.09-.01-.19-.02-.28h-.63c0,.16,0,.36,0,.55v1.62h.64v-1.21c0-.39.15-.53.41-.53s.35.18.35.42v1.32h.64v-1.39c0-.55-.28-.84-.72-.84-.38,0-.56.19-.63.33" fill="none" stroke-width="0"/></clipPath><linearGradient id="hb" x1="699.5" y1="469.76" x2="699.51" y2="469.76" gradientTransform="translate(-12286.73 7349.35) scale(17.61 -15.52)" xlink:href="#bm"/><clipPath id="he"><path d="M149.19,56.23c0-.09-.01-.19-.02-.28h-.61c0,.16,0,.36,0,.55v1.62h.64v-1.21c0-.39.15-.53.41-.53s.35.18.35.42v1.32h.64v-1.39c0-.55-.28-.84-.72-.84-.38,0-.56.19-.63.33" fill="none" stroke-width="0"/></clipPath><linearGradient id="hg" x1="699.3" y1="471.27" x2="699.3" y2="471.27" gradientTransform="translate(-12283.13 7372.77) scale(17.61 -15.52)" xlink:href="#bm"/><clipPath id="hj"><path d="M151.87,56.38c.29,0,.4.21.4.47h-.83c.02-.27.14-.47.43-.47M150.82,57.06c0,.57.31,1.11,1.03,1.11s.92-.44,1-.68h-.6c-.06.11-.13.21-.38.21-.3,0-.44-.27-.44-.47h1.44c0-.13,0-.2,0-.26,0-.54-.25-1.09-1-1.09-.7,0-1.05.49-1.05,1.17" fill="none" stroke-width="0"/></clipPath><linearGradient id="hl" x1="698.46" y1="466.36" x2="698.47" y2="466.36" gradientTransform="translate(-12546.97 7631.84) scale(18.01 -16.25)" xlink:href="#bm"/><clipPath id="ho"><path d="M154.55,55.96v1.16c0,.43-.12.58-.41.58s-.35-.2-.35-.44v-1.3h-.64v1.41c0,.54.28.81.72.81.28,0,.47-.08.59-.3,0,.08,0,.19.02.25h.59c0-.19,0-.42,0-.63v-1.54h-.51Z" fill="none" stroke-width="0"/></clipPath><linearGradient id="hq" x1="699.03" y1="475.12" x2="699.04" y2="475.12" gradientTransform="translate(-12279.52 7328.38) rotate(.02) scale(17.61 -15.31)" xlink:href="#bm"/><clipPath id="ht"><path d="M155.83,55.32v.64h-.38v.51h.38v1.15c0,.38.15.61.59.61.14,0,.29,0,.43-.04v-.48s-.1,0-.14,0c-.19,0-.24-.07-.24-.24v-1h.38v-.51h-.38v-.64h-.64Z" fill="none" stroke-width="0"/></clipPath><linearGradient id="hv" x1="691.21" y1="531.7" x2="691.22" y2="531.7" gradientTransform="translate(-15201.69 5840.3) scale(22.04 -10.88)" xlink:href="#bm"/><clipPath id="hy"><path d="M159.29,57.42c0-.21.14-.32.5-.32h.25v.06c0,.29-.05.55-.43.55-.15.02-.29-.09-.31-.24,0-.02,0-.03,0-.05M158.76,56.59h.6c.03-.16.08-.27.34-.27.28,0,.34.15.34.31v.09h-.32c-.66,0-1.07.24-1.07.75,0,.35.23.7.77.7.4,0,.55-.15.63-.27,0,.07.01.15.03.22h.5c-.02-.19-.03-.39-.03-.58v-.94c0-.53-.33-.77-.93-.77h.05c-.65,0-.89.31-.92.7" fill="none" stroke-width="0"/></clipPath><linearGradient id="ia" x1="698.01" y1="475.36" x2="698.02" y2="475.36" gradientTransform="translate(-12532.95 7456.91) rotate(-.01) scale(18.01 -15.56)" xlink:href="#bm"/><clipPath id="id"><rect x="160.93" y="55.06" width=".64" height="3.06" fill="none" stroke-width="0"/></clipPath><linearGradient id="if" x1="688.27" y1="772.77" x2="688.28" y2="772.77" gradientTransform="translate(-16591.13 3846.96) scale(24.16 -4.91)" xlink:href="#bm"/><clipPath id="ii"><rect x="161.94" y="55.96" width=".64" height="2.17" fill="none" stroke-width="0"/></clipPath><linearGradient id="ik" x1="699.79" y1="779.33" x2="699.79" y2="779.33" gradientTransform="translate(-11954.43 3836.62) scale(17.13 -4.85)" xlink:href="#bm"/><clipPath id="in"><path d="M163.22,55.32v.64h-.38v.51h.38v1.15c0,.38.15.61.59.61.14,0,.29,0,.43-.04v-.48s-.1,0-.14,0c-.19,0-.24-.07-.24-.24v-1h.38v-.51h-.38v-.64h-.64Z" fill="none" stroke-width="0"/></clipPath><linearGradient id="ip" x1="690.87" y1="536.39" x2="690.87" y2="536.39" gradientTransform="translate(-15194.39 5890.94) scale(22.04 -10.88)" xlink:href="#bm"/><clipPath id="is"><path d="M166.09,55.96c-.27.93-.4,1.43-.44,1.66h0c-.04-.21-.24-.89-.47-1.66h-.66l.81,2.29c-.08.25-.2.32-.42.32-.05,0-.12,0-.16,0v.49c.1.01.19.02.29.02.53,0,.71-.19.92-.83l.75-2.29h-.61Z" fill="none" stroke-width="0"/></clipPath><linearGradient id="iu" x1="688.41" y1="466.37" x2="688.41" y2="466.37" gradientTransform="translate(-16558.1 7978.8) scale(24.1 -16.99)" xlink:href="#bm"/></defs><g id="b"><g clip-path="url(#c)"><g id="d"><rect id="f" x="92.85" y="42.82" width="11.39" height="8.16" transform="translate(50.59 144.94) rotate(-89.39)" fill="url(#e)" stroke-width="0"/></g></g></g><g id="g"><g clip-path="url(#h)"><g id="i"><rect id="k" x="106.31" y="42.49" width="8.15" height="12.28" transform="translate(60.62 158.51) rotate(-89.4)" fill="url(#j)" stroke-width="0"/></g></g></g><g id="l"><g clip-path="url(#m)"><g id="n"><rect id="p" x="113.66" y="45.31" width="11.7" height="2.94" transform="translate(71.52 165.81) rotate(-89.42)" fill="url(#o)" stroke-width="0"/></g></g></g><g id="q"><g clip-path="url(#r)"><g id="s"><rect id="u" x="121.13" y="45.35" width="8.22" height="6.8" transform="translate(75.22 173.49) rotate(-89.42)" fill="url(#t)" stroke-width="0"/></g></g></g><g id="v"><g clip-path="url(#w)"><g id="x"><rect id="z" x="128.52" y="45.35" width="8.22" height="6.8" transform="translate(82.54 180.89) rotate(-89.42)" fill="url(#y)" stroke-width="0"/></g></g></g><g id="aa"><g clip-path="url(#ab)"><g id="ac"><rect id="ae" x="132.65" y="45.31" width="11.7" height="2.94" transform="translate(90.26 184.77) rotate(-89.4)" fill="url(#ad)" stroke-width="0"/></g></g></g><g id="af"><g clip-path="url(#ag)"><g id="ah"><rect id="aj" x="141.28" y="44.34" width="8.32" height="8.71" transform="translate(95.24 193.62) rotate(-89.41)" fill="url(#ai)" stroke-width="0"/></g></g></g><g id="ak"><g clip-path="url(#al)"><g id="am"><rect id="ao" x="150.89" y="44.91" width="8.08" height="7.57" transform="translate(104.71 203.13) rotate(-89.43)" fill="url(#an)" stroke-width="0"/></g></g></g><g id="ap"><g clip-path="url(#aq)"><g id="ar"><rect id="at" x="159.11" y="45.35" width="8.22" height="6.8" transform="translate(112.82 211.47) rotate(-89.42)" fill="url(#as)" stroke-width="0"/></g></g></g><g id="au"><g clip-path="url(#av)"><g id="aw"><rect id="ay" x="25.88" y="15.5" width="69.72" height="68.99" transform="translate(-4.97 93.26) rotate(-72.82)" fill="url(#ax)" stroke-width="0"/></g></g></g><g id="az"><g clip-path="url(#ba)"><g id="bb"><rect id="bd" x="35.64" y="24.35" width="48.56" height="42.31" fill="url(#bc)" stroke-width="0"/></g></g></g><g id="be"><g clip-path="url(#bf)"><g id="bg"><rect id="bi" x="55.04" y="51.2" width="11.16" height="37.93" transform="translate(-9.83 130.45) rotate(-89.73)" fill="url(#bh)" stroke-width="0"/></g></g></g><g id="bj"><g clip-path="url(#bk)"><g id="bl"><rect id="bn" x="43.34" y="41.56" width="9.6" height="11.83" transform="translate(-2.59 2.78) rotate(-3.22)" fill="url(#bm)" stroke-width="0"/></g></g></g><g id="bo"><g clip-path="url(#bp)"><g id="bq"><rect id="bs" x="53.57" y="44.95" width="8.43" height="8.61" transform="translate(-2.68 3.33) rotate(-3.22)" fill="url(#br)" stroke-width="0"/></g></g></g><g id="bt"><g clip-path="url(#bu)"><g id="bv"><rect id="bx" x="63.01" y="45.02" width="5.92" height="8.27" transform="translate(-2.65 3.77) rotate(-3.21)" fill="url(#bw)" stroke-width="0"/></g></g></g><g id="by"><g clip-path="url(#bz)"><g id="ca"><rect id="cc" x="68.95" y="44.93" width="9.1" height="8.64" transform="translate(-2.64 4.2) rotate(-3.21)" fill="url(#cb)" stroke-width="0"/></g></g></g><g id="cd"><g clip-path="url(#ce)"><g id="cf"><rect id="ch" x="94.21" y="55.39" width="3.04" height="2.66" transform="translate(38.34 152.05) rotate(-89.6)" fill="url(#cg)" stroke-width="0"/></g></g></g><g id="ci"><g clip-path="url(#cj)"><g id="ck"><rect id="cm" x="96.82" y="55.58" width="3.05" height="2.02" transform="translate(41.04 154.53) rotate(-89.59)" fill="url(#cl)" stroke-width="0"/></g></g></g><g id="cn"><g clip-path="url(#co)"><g id="cp"><rect id="cr" x="99.5" y="55.96" width="2.28" height="2.02" transform="translate(42.94 157.2) rotate(-89.59)" fill="url(#cq)" stroke-width="0"/></g></g></g><g id="cs"><g clip-path="url(#ct)"><g id="cu"><rect id="cw" x="101.47" y="56.41" width="2.16" height="1.26" transform="translate(44.82 159.2) rotate(-89.61)" fill="url(#cv)" stroke-width="0"/></g></g></g><g id="cx"><g clip-path="url(#cy)"><g id="cz"><rect id="db" x="121.87" y="56.41" width="2.16" height="1.26" transform="translate(65.07 179.59) rotate(-89.61)" fill="url(#da)" stroke-width="0"/></g></g></g><g id="dc"><g clip-path="url(#dd)"><g id="de"><rect id="dg" x="138.31" y="56.41" width="2.16" height="1.26" transform="translate(81.4 196.03) rotate(-89.61)" fill="url(#df)" stroke-width="0"/></g></g></g><g id="dh"><g clip-path="url(#di)"><g id="dj"><rect id="dl" x="156.79" y="56.41" width="2.16" height="1.26" transform="translate(99.76 214.52) rotate(-89.61)" fill="url(#dk)" stroke-width="0"/></g></g></g><g id="dm"><g clip-path="url(#dn)"><g id="do"><rect id="dq" x="102.88" y="56.03" width="2.79" height="1.38" transform="translate(46.82 160.59) rotate(-89.6)" fill="url(#dp)" stroke-width="0"/></g></g></g><g id="dr"><g clip-path="url(#ds)"><g id="dt"><rect id="dv" x="104.47" y="56.73" width="2.16" height=".62" transform="translate(47.75 162.18) rotate(-89.59)" fill="url(#du)" stroke-width="0"/></g></g></g><g id="dw"><g clip-path="url(#dx)"><g id="dy"><polygon id="ea" points="105.23 55.57 105.23 55.06 105.87 55.07 105.86 55.57 105.23 55.57" fill="url(#dz)" stroke-width="0"/></g></g></g><g id="eb"><g clip-path="url(#ec)"><g id="ed"><polygon id="ef" points="161.94 55.57 161.95 55.06 162.58 55.07 162.58 55.57 161.94 55.57" fill="url(#ee)" stroke-width="0"/></g></g></g><g id="eg"><g clip-path="url(#eh)"><g id="ei"><rect id="ek" x="106" y="55.96" width="2.28" height="2.02" transform="translate(49.41 163.71) rotate(-89.6)" fill="url(#ej)" stroke-width="0"/></g></g></g><g id="el"><g clip-path="url(#em)"><g id="en"><rect id="ep" x="107.91" y="56.35" width="3.17" height="2.14" transform="translate(51.32 166.52) rotate(-89.6)" fill="url(#eo)" stroke-width="0"/></g></g></g><g id="eq"><g clip-path="url(#er)"><g id="es"><rect id="eu" x="111.74" y="55.96" width="2.28" height="2.02" transform="translate(55.09 169.44) rotate(-89.59)" fill="url(#et)" stroke-width="0"/></g></g></g><g id="ev"><g clip-path="url(#ew)"><g id="ex"><rect id="ez" x="115.18" y="55.96" width="2.28" height="2.02" transform="translate(58.52 172.89) rotate(-89.59)" fill="url(#ey)" stroke-width="0"/></g></g></g><g id="fa"><g clip-path="url(#fb)"><g id="fc"><rect id="fe" x="117.54" y="55.9" width="2.28" height="2.15" transform="translate(60.87 175.25) rotate(-89.6)" fill="url(#fd)" stroke-width="0"/></g></g></g><g id="ff"><g clip-path="url(#fg)"><g id="fh"><rect id="fj" x="119.83" y="56.15" width="2.28" height="1.9" transform="translate(63.05 177.68) rotate(-89.61)" fill="url(#fi)" stroke-width="0"/></g></g></g><g id="fk"><g clip-path="url(#fl)"><g id="fm"><rect id="fo" x="123.65" y="56.03" width="2.28" height="1.9" transform="translate(66.96 181.37) rotate(-89.6)" fill="url(#fn)" stroke-width="0"/></g></g></g><g id="fp"><g clip-path="url(#fq)"><g id="fr"><rect id="ft" x="125.88" y="55.96" width="2.28" height="2.02" transform="translate(69.17 183.6) rotate(-89.61)" fill="url(#fs)" stroke-width="0"/></g></g></g><g id="fu"><g clip-path="url(#fv)"><g id="fw"><rect id="fy" x="128.49" y="56.03" width="2.79" height="1.38" transform="translate(72.26 186.21) rotate(-89.6)" fill="url(#fx)" stroke-width="0"/></g></g></g><g id="fz"><g clip-path="url(#ga)"><g id="gb"><rect id="gd" x="130.66" y="55.9" width="2.28" height="2.15" transform="translate(73.91 188.38) rotate(-89.6)" fill="url(#gc)" stroke-width="0"/></g></g></g><g id="ge"><g clip-path="url(#gf)"><g id="gg"><rect id="gi" x="134.04" y="55.96" width="2.28" height="2.02" transform="translate(77.25 191.75) rotate(-89.59)" fill="url(#gh)" stroke-width="0"/></g></g></g><g id="gj"><g clip-path="url(#gk)"><g id="gl"><rect id="gn" x="136.33" y="55.96" width="2.28" height="2.02" transform="translate(79.51 194.03) rotate(-89.59)" fill="url(#gm)" stroke-width="0"/></g></g></g><g id="go"><g clip-path="url(#gp)"><g id="gq"><rect id="gs" x="139.78" y="55.58" width="3.17" height="2.14" transform="translate(83.72 197.62) rotate(-89.6)" fill="url(#gr)" stroke-width="0"/></g></g></g><g id="gt"><g clip-path="url(#gu)"><g id="gv"><rect id="gx" x="142.64" y="55.9" width="2.28" height="2.15" transform="translate(85.8 200.35) rotate(-89.6)" fill="url(#gw)" stroke-width="0"/></g></g></g><g id="gy"><g clip-path="url(#gz)"><g id="ha"><rect id="hc" x="145" y="55.96" width="2.28" height="2.02" transform="translate(88.14 202.71) rotate(-89.6)" fill="url(#hb)" stroke-width="0"/></g></g></g><g id="hd"><g clip-path="url(#he)"><g id="hf"><rect id="hh" x="148.44" y="55.96" width="2.28" height="2.02" transform="translate(91.55 206.15) rotate(-89.6)" fill="url(#hg)" stroke-width="0"/></g></g></g><g id="hi"><g clip-path="url(#hj)"><g id="hk"><rect id="hm" x="150.74" y="55.96" width="2.28" height="2.02" transform="translate(93.86 208.45) rotate(-89.61)" fill="url(#hl)" stroke-width="0"/></g></g></g><g id="hn"><g clip-path="url(#ho)"><g id="hp"><rect id="hr" x="152.97" y="56.15" width="2.28" height="1.9" transform="translate(95.97 210.82) rotate(-89.61)" fill="url(#hq)" stroke-width="0"/></g></g></g><g id="hs"><g clip-path="url(#ht)"><g id="hu"><rect id="hw" x="154.75" y="56.03" width="2.79" height="1.38" transform="translate(98.32 212.46) rotate(-89.6)" fill="url(#hv)" stroke-width="0"/></g></g></g><g id="hx"><g clip-path="url(#hy)"><g id="hz"><rect id="ib" x="158.51" y="55.96" width="2.28" height="2.02" transform="translate(101.52 216.21) rotate(-89.59)" fill="url(#ia)" stroke-width="0"/></g></g></g><g id="ic"><g clip-path="url(#id)"><g id="ie"><rect id="ig" x="159.72" y="56.28" width="3.05" height=".62" transform="translate(103.53 217.44) rotate(-89.6)" fill="url(#if)" stroke-width="0"/></g></g></g><g id="ih"><g clip-path="url(#ii)"><g id="ij"><rect id="il" x="161.18" y="56.73" width="2.16" height=".62" transform="translate(104.06 218.89) rotate(-89.59)" fill="url(#ik)" stroke-width="0"/></g></g></g><g id="im"><g clip-path="url(#in)"><g id="io"><rect id="iq" x="162.14" y="56.03" width="2.79" height="1.38" transform="translate(105.67 219.86) rotate(-89.6)" fill="url(#ip)" stroke-width="0"/></g></g></g><g id="ir"><g clip-path="url(#is)"><g id="it"><rect id="iv" x="164.06" y="56.41" width="3.04" height="2.15" transform="translate(106.93 222.65) rotate(-89.6)" fill="url(#iu)" stroke-width="0"/></g></g></g></svg>