<?xml version="1.0" encoding="UTF-8"?>
<svg id="Layer_1" data-name="Layer 1" xmlns="http://www.w3.org/2000/svg" version="1.1" viewBox="0 0 36.9 26.7">
  <defs>
    <style>
      .cls-1 {
        opacity: 1;
      }

      .cls-2 {
        fill: #358aca;
      }

      .cls-2, .cls-3, .cls-4, .cls-5, .cls-6, .cls-7 {
        stroke-width: 0px;
      }

      .cls-3 {
        fill: #50a734;
      }

      .cls-4 {
        fill: #5cae3e;
      }

      .cls-5 {
        fill: #aece71;
      }

      .cls-6 {
        fill: #7bb94f;
      }

      .cls-7 {
        fill: #85bc4f;
      }
    </style>
  </defs>
  <g id="Group_3859" data-name="Group 3859">
    <g id="Group_1078" data-name="Group 1078">
      <g id="Group_1077" data-name="Group 1077">
        <path id="Path_2907" data-name="Path 2907" class="cls-2" d="M5.2,23v-3.5c3.4,0,6.1-2.7,6.1-6.1,0-3.4-2.7-6.1-6.1-6.1h-2.9s0-3.5,0-3.5h2.9c5.3,0,9.6,4.3,9.6,9.6,0,2.5-1,5-2.8,6.8-1.8,1.8-4.3,2.8-6.8,2.8Z"/>
        <path id="Line_60" data-name="Line 60" class="cls-2" d="M20.3,23h-3.3V4h3.3v19Z"/>
        <path id="Line_61" data-name="Line 61" class="cls-2" d="M3.5,23H0V3.8h3.5v19.2Z"/>
        <g id="Group_1075" data-name="Group 1075">
          <g id="Group_1074" data-name="Group 1074">
            <path id="Path_2908" data-name="Path 2908" class="cls-2" d="M34.8,8.7c-1.3-1-2.9-1.5-4.6-1.5-1.6,0-3.2.5-4.5,1.4l-2.1-2.6c1.9-1.4,4.2-2.2,6.6-2.2,1.2,0,2.5.2,3.7.6,1.1.4,2.1.9,3,1.6l-2.1,2.6Z"/>
            <path id="Path_2909" data-name="Path 2909" class="cls-2" d="M30.2,22.9c-2.4,0-4.7-.7-6.6-2.2l2.1-2.6c1.3,1,2.9,1.5,4.5,1.4,1.6,0,3.3-.5,4.6-1.5l2.1,2.6c-.9.7-1.9,1.3-3,1.6-1.2.4-2.4.6-3.7.6Z"/>
          </g>
        </g>
      </g>
    </g>
    <g id="Group_1079" data-name="Group 1079" class="cls-1">
      <g id="Group_1077-2" data-name="Group 1077-2">
        <g id="Group_1076" data-name="Group 1076">
          <path id="Path_2910" data-name="Path 2910" class="cls-7" d="M35,10.5c0-.4-.2-.8-.4-1.2,0,.5-.2,1-.5,1.4"/>
          <path id="Path_2911" data-name="Path 2911" class="cls-5" d="M33.5,14c1.1-.8,1.7-2.1,1.5-3.4l-.9.2c-.6,1-1.5,1.7-2.6,2.2"/>
          <path id="Path_2912" data-name="Path 2912" class="cls-6" d="M30.1,15.7c1.2-.4,2.3-1,3.4-1.7l-2-1c-.3.2-.6.3-.9.5-.6.3-1.3.6-1.9,1"/>
          <path id="Path_2913" data-name="Path 2913" class="cls-3" d="M25.7,17.6c.7-.6,2.4-1.1,4.3-1.8l-1.4-1.2c-2.6,1.5-2.9,3-2.9,3"/>
          <path id="Path_2914" data-name="Path 2914" class="cls-5" d="M33,11.8c.8-.6,1.3-1.5,1.5-2.5-.5.3-1.1.6-1.7.8"/>
          <path id="Path_2915" data-name="Path 2915" class="cls-3" d="M26.7,13c-1.3,1.1-1.7,3-1.1,4.6.2-.9.7-1.7,1.5-2.3"/>
          <path id="Path_2916" data-name="Path 2916" class="cls-7" d="M29.9,13.5c.2-.1.3-.2.5-.2.9-.4,1.7-.9,2.5-1.5v-1.7c-1.1.4-2.1.8-3.1,1.2"/>
          <path id="Path_2917" data-name="Path 2917" class="cls-4" d="M27.2,15.2c.8-.6,1.7-1.2,2.6-1.6v-2.2c-.6.2-1.2.5-1.5.7-.5.2-1,.5-1.5.9"/>
        </g>
      </g>
    </g>
  </g>
</svg>