<?xml version="1.0" encoding="UTF-8"?>
<svg id="Layer_1" data-name="Layer 1" xmlns="http://www.w3.org/2000/svg" version="1.1" xmlns:xlink="http://www.w3.org/1999/xlink" viewBox="0 0 360.2 68">
  <defs>
    <style>
      .cls-1 {
        fill: url(#linear-gradient);
      }

      .cls-1, .cls-2, .cls-3 {
        stroke-width: 0px;
      }

      .cls-4 {
        isolation: isolate;
      }

      .cls-2 {
        fill: none;
      }

      .cls-3 {
        fill: #192234;
      }

      .cls-5 {
        clip-path: url(#clippath);
      }
    </style>
    <clipPath id="clippath">
      <rect class="cls-2" y="0" width="45" height="68"/>
    </clipPath>
    <linearGradient id="linear-gradient" x1="-734" y1="567.2" x2="-734.5" y2="566.3" gradientTransform="translate(30353 36800.6) scale(41.3 -64.9)" gradientUnits="userSpaceOnUse">
      <stop offset="0" stop-color="#ff9391"/>
      <stop offset="1" stop-color="#506efa"/>
    </linearGradient>
  </defs>
  <g class="cls-5">
    <g id="Group_38011" data-name="Group 38011">
      <path id="Union_17" data-name="Union 17" class="cls-1" d="M2.1,54c7.9,0,14.2-6.4,14.3-14.2H1.9v-12.1h14.6v12.1h12.1c0,14.6-11.8,26.4-26.4,26.4v-12.1ZM28.6,39.8v-12.1h-12.1c0-14.6,11.8-26.4,26.4-26.4v12.1c-7.9,0-14.2,6.4-14.3,14.2h14.5v12.1h-14.6Z"/>
    </g>
  </g>
  <g class="cls-4">
    <path class="cls-3" d="M83.5,47.4l6.6.8c.1.8.4,1.3.8,1.6.5.4,1.4.6,2.6.6s2.6-.2,3.4-.7c.5-.3.9-.8,1.1-1.5.2-.5.3-1.4.3-2.6v-3.2c-1.7,2.4-3.9,3.5-6.5,3.5s-5.2-1.2-7-3.7c-1.3-2-2-4.4-2-7.3s.9-6.4,2.6-8.4,3.9-2.9,6.6-2.9,4.9,1.2,6.7,3.5v-3.1h5.4v19.5c0,2.6-.2,4.5-.6,5.8s-1,2.3-1.8,3-1.8,1.3-3.1,1.7-2.9.6-4.9.6c-3.7,0-6.3-.6-7.9-1.9s-2.3-2.9-2.3-4.8,0-.4,0-.7ZM88.6,34.7c0,2.3.4,4,1.3,5.1.9,1.1,2,1.6,3.3,1.6s2.6-.5,3.6-1.7c1-1.1,1.5-2.7,1.5-4.9s-.5-3.9-1.4-5-2.1-1.6-3.5-1.6-2.5.5-3.4,1.6-1.3,2.7-1.3,4.9Z"/>
    <path class="cls-3" d="M116.7,34.8c0-1.9.5-3.8,1.4-5.6s2.3-3.2,4-4.1,3.7-1.4,5.8-1.4c3.3,0,6,1.1,8.1,3.2,2.1,2.1,3.2,4.8,3.2,8.1s-1.1,6-3.2,8.2-4.8,3.2-8,3.2-3.9-.5-5.7-1.4-3.2-2.2-4.1-4c-.9-1.7-1.4-3.9-1.4-6.4ZM122.6,35.1c0,2.2.5,3.8,1.5,5s2.3,1.7,3.8,1.7,2.8-.6,3.8-1.7,1.5-2.8,1.5-5-.5-3.8-1.5-4.9-2.3-1.7-3.8-1.7-2.8.6-3.8,1.7-1.5,2.8-1.5,5Z"/>
    <path class="cls-3" d="M150.8,34.8c0-1.9.5-3.8,1.4-5.6s2.3-3.2,4-4.1,3.7-1.4,5.8-1.4c3.3,0,6,1.1,8.1,3.2,2.1,2.1,3.2,4.8,3.2,8.1s-1.1,6-3.2,8.2-4.8,3.2-8,3.2-3.9-.5-5.7-1.4-3.2-2.2-4.1-4c-.9-1.7-1.4-3.9-1.4-6.4ZM156.7,35.1c0,2.2.5,3.8,1.5,5s2.3,1.7,3.8,1.7,2.8-.6,3.8-1.7,1.5-2.8,1.5-5-.5-3.8-1.5-4.9-2.3-1.7-3.8-1.7-2.8.6-3.8,1.7-1.5,2.8-1.5,5Z"/>
    <path class="cls-3" d="M206.2,46h-5.4v-3.2c-.9,1.2-1.9,2.2-3.1,2.8-1.2.6-2.4.9-3.7.9-2.5,0-4.6-1-6.4-3-1.8-2-2.7-4.8-2.7-8.4s.9-6.5,2.6-8.4c1.7-1.9,3.9-2.9,6.6-2.9s4.5,1,6.3,3v-10.8h5.8v30.1ZM190.8,34.6c0,2.3.3,4,1,5,.9,1.5,2.2,2.3,3.9,2.3s2.5-.6,3.4-1.7c.9-1.1,1.4-2.8,1.4-5.1s-.5-4.3-1.4-5.4-2.1-1.7-3.5-1.7-2.5.5-3.4,1.6c-.9,1.1-1.4,2.7-1.4,4.9Z"/>
    <path class="cls-3" d="M217.7,24.2h3.2v-1.6c0-1.8.2-3.2.6-4.1s1.1-1.6,2.2-2.2c1-.6,2.4-.9,4-.9s3.2.2,4.8.7l-.8,4c-.9-.2-1.8-.3-2.6-.3s-1.4.2-1.8.6c-.4.4-.5,1.1-.5,2.2v1.5h4.3v4.5h-4.3v17.2h-5.8v-17.2h-3.2v-4.5Z"/>
    <path class="cls-3" d="M242.6,46V15.9h5.8v30.1h-5.8Z"/>
    <path class="cls-3" d="M261.4,34.8c0-1.9.5-3.8,1.4-5.6s2.3-3.2,4-4.1,3.7-1.4,5.8-1.4c3.3,0,6,1.1,8.1,3.2,2.1,2.1,3.2,4.8,3.2,8.1s-1.1,6-3.2,8.2-4.8,3.2-8,3.2-3.9-.5-5.7-1.4-3.2-2.2-4.1-4c-.9-1.7-1.4-3.9-1.4-6.4ZM267.3,35.1c0,2.2.5,3.8,1.5,5s2.3,1.7,3.8,1.7,2.8-.6,3.8-1.7,1.5-2.8,1.5-5-.5-3.8-1.5-4.9-2.3-1.7-3.8-1.7-2.8.6-3.8,1.7-1.5,2.8-1.5,5Z"/>
    <path class="cls-3" d="M300.8,46l-6.9-21.8h5.6l4.1,14.3,3.8-14.3h5.6l3.6,14.3,4.2-14.3h5.7l-7,21.8h-5.5l-3.8-14-3.7,14h-5.6Z"/>
    <path class="cls-3" d="M335.8,39.8l5.8-.9c.2,1.1.7,2,1.5,2.6.8.6,1.8.9,3.2.9s2.6-.3,3.4-.8c.5-.4.8-.9.8-1.5s-.1-.8-.4-1.1c-.3-.3-.9-.5-1.9-.8-4.6-1-7.6-2-8.8-2.8-1.7-1.2-2.6-2.8-2.6-4.9s.7-3.5,2.2-4.8,3.8-1.9,6.9-1.9,5.2.5,6.6,1.5,2.4,2.4,3,4.3l-5.4,1c-.2-.8-.7-1.5-1.3-1.9-.6-.5-1.6-.7-2.8-.7s-2.6.2-3.3.6c-.4.3-.7.7-.7,1.2s.2.8.6,1c.5.4,2.3.9,5.4,1.6,3.1.7,5.2,1.6,6.4,2.6,1.2,1,1.8,2.5,1.8,4.3s-.8,3.7-2.5,5.1-4.1,2.2-7.4,2.2-5.3-.6-7-1.8c-1.7-1.2-2.9-2.8-3.4-4.9Z"/>
  </g>
</svg>