<?xml version="1.0" encoding="UTF-8"?><svg id="Layer_1" xmlns="http://www.w3.org/2000/svg" viewBox="0 0 131.92 132.74"><defs><style>.cls-1{letter-spacing:-.04em;}.cls-2{fill:#e58303;}.cls-2,.cls-3,.cls-4{stroke-width:0px;}.cls-5{fill:#000;font-family:Helvetica-Bold, Helvetica;font-size:24px;font-weight:700;}.cls-3{fill:#3871fc;}.cls-4{fill:#fcdb1f;}</style></defs><polygon class="cls-4" points="64.27 58.93 70.15 40.62 53.4 61.71 53.39 61.71 58.7 64.92 52.82 83.24 69.57 62.15 69.57 62.15 64.27 58.93"/><path class="cls-4" d="M.62,60.28c.11.04.22.09.33.13,9.33.11,17.94,4.24,23.73,11.37l.86,1.07c-1.28-3.8-1.98-7.85-1.98-12.08,0-.18.01-.35.01-.53h0c0-.16-.01-.33-.01-.49,0-20.44,16.26-37.14,36.52-37.87.69-.03,1.25-.58,1.25-1.28V4.3c0-1.22-1.55-1.75-2.29-.77-2.59,3.45-6.42,5.85-10.09,7.08-.03.01-.07.02-.1.03-.81.21-1.61.43-2.4.67-.06.02-.12.03-.18.04-5.03.79-11.09-.04-15.45-3.8l-.08.05c1.18,6.07-1.53,12.17-5.07,16.17-.02.02-.04.04-.06.07-.61.6-1.2,1.21-1.78,1.84-.04.04-.08.08-.13.12-3.94,3.29-9.64,5.72-15.38,4.69l-.04.08c4.15,4.69,4.88,11.42,3.8,16.69-.09.36-.18.73-.26,1.1-.01.06-.03.12-.05.18-1.81,4.82-5.61,9.77-11.14,11.69v.04h0Z"/><path class="cls-3" d="M61.76,104.15c-22-.29-31.12-11.73-39.17-21.81-6.25-7.83-11.64-18.59-22.28-18.67l.04-1c13.02.1,19.7,8.46,26.15,16.55,7.72,9.67,15.7,19.67,35.33,19.93l-.07,5Z"/><path class="cls-3" d="M61.83,112.07c-22.9,0-33-12.31-41.12-22.21-6.36-7.75-11.42-13.87-20.71-14.02v-5c11.61.18,17.97,7.79,24.58,15.84,8.22,10.02,16.72,20.38,37.25,20.38v5Z"/><path class="cls-3" d="M59.88,120.07c-22.64,0-33.4-13-42.09-23.51-5.89-7.11-10.56-12.76-17.26-12.76-.13,0-.4,0-.52,0v-5c9.37-.26,15.32,6.92,21.64,14.56,8.68,10.49,18.52,26.37,40.1,25.66l.17,1c-.68.02-1.36.03-2.02.03Z"/><path class="cls-2" d="M64.92,22.18c20.59.66,37.09,17.56,37.09,38.31,0,.04,0,.08,0,.12h22.16v-5.49c0-.51-.31-.96-.79-1.14l-11.58-4.29c-.38-.14-.65-.46-.75-.85-1.18-4.83-3.08-9.37-5.58-13.51-.21-.34-.23-.77-.07-1.13l5.17-11.21c.21-.46.12-1.01-.24-1.37l-7.67-7.68c-.36-.36-.9-.46-1.37-.25l-11.21,5.15c-.37.17-.79.14-1.13-.07-4.16-2.53-8.73-4.44-13.59-5.64-.39-.1-.71-.37-.85-.75l-4.28-11.59c-.18-.48-.63-.79-1.14-.79h-4.16c-.67,0-1.21.54-1.21,1.21v19.75c0,.66.53,1.19,1.19,1.21Z"/><text class="cls-5" transform="translate(79.07 93.54)"><tspan x="0" y="0" xml:space="preserve"> I </tspan></text><text class="cls-5" transform="translate(101.8 93.54)"><tspan x="0" y="0" xml:space="preserve"> E </tspan></text><text class="cls-5" transform="translate(74.47 121.19)"><tspan class="cls-1" x="0" y="0" xml:space="preserve"> A</tspan><tspan x="22.24" y="0"> </tspan></text><text class="cls-5" transform="translate(101.25 121.19)"><tspan x="0" y="0" xml:space="preserve"> C </tspan></text></svg>