<svg id="Group_38543" data-name="Group 38543" xmlns="http://www.w3.org/2000/svg" xmlns:xlink="http://www.w3.org/1999/xlink" width="197.719" height="21.017" viewBox="0 0 197.719 21.017">
  <defs>
    <clipPath id="clip-path">
      <rect id="Rectangle_5101" data-name="Rectangle 5101" width="197.719" height="21.017" fill="none"/>
    </clipPath>
  </defs>
  <g id="Group_38542" data-name="Group 38542" transform="translate(0 0)" clip-path="url(#clip-path)">
    <path id="Path_56196" data-name="Path 56196" d="M6.238,20.511a.34.34,0,0,1-.1-.25V12.835a.416.416,0,0,0-.029-.176L.059.507A.439.439,0,0,1,0,.331Q0,.1.323.1h3.7A.416.416,0,0,1,4.432.36L8.1,8.168q.088.176.176,0L11.947.36A.416.416,0,0,1,12.358.1h3.757a.322.322,0,0,1,.279.1.315.315,0,0,1-.015.308L10.274,12.659a.416.416,0,0,0-.029.176v7.426a.351.351,0,0,1-.352.352h-3.4a.34.34,0,0,1-.25-.1" transform="translate(0 0.138)" fill="#253f9c"/>
    <path id="Path_56197" data-name="Path 56197" d="M13.752,20a6.48,6.48,0,0,1-2.671-2.48,7.054,7.054,0,0,1-.954-3.684V.448a.34.34,0,0,1,.1-.25.34.34,0,0,1,.25-.1h3.434a.34.34,0,0,1,.25.1.34.34,0,0,1,.1.25V13.863a3.277,3.277,0,0,0,3.464,3.464,3.277,3.277,0,0,0,3.464-3.464V.448A.34.34,0,0,1,21.3.2a.34.34,0,0,1,.25-.1H24.98a.34.34,0,0,1,.25.1.34.34,0,0,1,.1.25V13.833a7.054,7.054,0,0,1-.954,3.684A6.48,6.48,0,0,1,21.707,20a8.6,8.6,0,0,1-3.977.881A8.6,8.6,0,0,1,13.752,20" transform="translate(14.645 0.138)" fill="#253f9c"/>
    <path id="Path_56198" data-name="Path 56198" d="M33.755.1h3.434a.34.34,0,0,1,.249.1.34.34,0,0,1,.1.25V20.291a.351.351,0,0,1-.352.352H33.755a.351.351,0,0,1-.352-.352V7.346q0-.117-.059-.117t-.117.088L30.115,12.19a.46.46,0,0,1-.411.235H27.972a.46.46,0,0,1-.411-.235L24.45,7.317q-.059-.088-.117-.073t-.059.132V20.291a.351.351,0,0,1-.352.352H20.487a.351.351,0,0,1-.352-.352V.448a.34.34,0,0,1,.1-.25.34.34,0,0,1,.249-.1h3.434a.46.46,0,0,1,.411.235l4.4,6.839q.088.176.176,0L33.344.331A.46.46,0,0,1,33.755.1" transform="translate(29.118 0.138)" fill="#253f9c"/>
    <path id="Path_56199" data-name="Path 56199" d="M45.278,3.545a.34.34,0,0,1-.25.1H35.4a.13.13,0,0,0-.147.147v4.55a.13.13,0,0,0,.147.147h6.311a.351.351,0,0,1,.352.352v2.847a.351.351,0,0,1-.352.352H35.4a.13.13,0,0,0-.147.147v4.755a.129.129,0,0,0,.147.147h9.628a.351.351,0,0,1,.352.352v2.847a.34.34,0,0,1-.1.25.331.331,0,0,1-.25.1H31.467a.331.331,0,0,1-.25-.1.34.34,0,0,1-.1-.25V.448a.34.34,0,0,1,.1-.25.34.34,0,0,1,.25-.1H45.028a.34.34,0,0,1,.25.1.34.34,0,0,1,.1.25V3.3a.34.34,0,0,1-.1.25" transform="translate(44.996 0.138)" fill="#253f9c"/>
    <path id="Path_56200" data-name="Path 56200" d="M45.426,20.541a.34.34,0,0,1-.1-.25V.448a.34.34,0,0,1,.1-.25.34.34,0,0,1,.249-.1H49.11a.34.34,0,0,1,.25.1.34.34,0,0,1,.1.25v16.5a.13.13,0,0,0,.147.147h9.6a.351.351,0,0,1,.352.352v2.847a.351.351,0,0,1-.352.352H45.675a.34.34,0,0,1-.249-.1" transform="translate(65.542 0.138)" fill="#253f9c"/>
    <path id="Path_56201" data-name="Path 56201" d="M67.853,20.35l-.881-2.877q-.059-.117-.147-.117H59.6q-.088,0-.147.117l-.851,2.877a.368.368,0,0,1-.382.294H54.5a.329.329,0,0,1-.264-.1.322.322,0,0,1-.029-.308L60.544.39A.368.368,0,0,1,60.926.1h4.608a.368.368,0,0,1,.382.294l6.34,19.843a.327.327,0,0,1,.029.147q0,.264-.323.264H68.235a.368.368,0,0,1-.382-.294m-7.221-6.194H65.8q.176,0,.117-.176L63.274,5.262q-.029-.117-.088-.1t-.088.1L60.515,13.98q-.029.176.117.176" transform="translate(78.351 0.138)" fill="#253f9c"/>
    <path id="Path_56202" data-name="Path 56202" d="M77.22,10.106a4.97,4.97,0,0,1,2.789,4.785,5.037,5.037,0,0,1-1.937,4.3,8.249,8.249,0,0,1-5.078,1.453h-7.6a.351.351,0,0,1-.352-.352V.448a.34.34,0,0,1,.1-.25.34.34,0,0,1,.25-.1h7.368q6.957,0,6.957,5.636a4.349,4.349,0,0,1-2.5,4.2q-.176.088,0,.176M69.177,3.795V8.374a.13.13,0,0,0,.147.147h3.434A3.221,3.221,0,0,0,74.9,7.875a2.186,2.186,0,0,0,.763-1.761A2.263,2.263,0,0,0,74.9,4.308a3.172,3.172,0,0,0-2.143-.66H69.324a.13.13,0,0,0-.147.147m5.929,12.578a2.423,2.423,0,0,0,.763-1.893,2.423,2.423,0,0,0-.763-1.893,3.083,3.083,0,0,0-2.143-.69h-3.64a.13.13,0,0,0-.147.147v4.873a.13.13,0,0,0,.147.147h3.669a3.038,3.038,0,0,0,2.113-.69" transform="translate(94.052 0.138)" fill="#253f9c"/>
    <path id="Path_56203" data-name="Path 56203" d="M78.247,20.269a6.06,6.06,0,0,1-2.715-2.143,5.6,5.6,0,0,1-.954-3.244v-.646a.351.351,0,0,1,.352-.352h3.346a.351.351,0,0,1,.352.352v.44a2.4,2.4,0,0,0,1.086,1.981,4.815,4.815,0,0,0,2.935.807,3.471,3.471,0,0,0,2.319-.66,2.071,2.071,0,0,0,.763-1.629,1.643,1.643,0,0,0-.47-1.189,4.148,4.148,0,0,0-1.277-.851q-.807-.367-2.568-1.013a25.152,25.152,0,0,1-3.332-1.38A6.691,6.691,0,0,1,75.8,8.821a4.832,4.832,0,0,1-.925-3.009,5.3,5.3,0,0,1,.91-3.082A5.794,5.794,0,0,1,78.306.7,9.247,9.247,0,0,1,82.034,0a9.527,9.527,0,0,1,3.977.793,6.483,6.483,0,0,1,2.73,2.216,5.667,5.667,0,0,1,.983,3.3v.44a.351.351,0,0,1-.352.352H86a.351.351,0,0,1-.352-.352V6.516a2.667,2.667,0,0,0-1.013-2.1,4.13,4.13,0,0,0-2.774-.866,3.511,3.511,0,0,0-2.157.587,1.911,1.911,0,0,0-.778,1.614,1.762,1.762,0,0,0,.455,1.233,4,4,0,0,0,1.35.9q.9.4,2.774,1.071a34.55,34.55,0,0,1,3.273,1.35,6.521,6.521,0,0,1,2.143,1.747,4.582,4.582,0,0,1,.954,3.009,5.256,5.256,0,0,1-2.025,4.359,8.622,8.622,0,0,1-5.489,1.6,10.443,10.443,0,0,1-4.109-.749" transform="translate(107.848 -0.001)" fill="#253f9c"/>
  </g>
</svg>
