<svg xmlns="http://www.w3.org/2000/svg" width="147.18" height="100.634" viewBox="0 0 147.18 100.634">
  <g id="Group_846" data-name="Group 846" transform="translate(8004 14871.634)">
    <g id="Group_845" data-name="Group 845" transform="translate(-8004 -14800.199)">
      <path id="Path_630" data-name="Path 630" d="M1172.579,905.219v19.72a6.638,6.638,0,0,0,.425,2.755,3.8,3.8,0,0,0,1.522,1.527l2.548,1.46-2.088,3.735a19.009,19.009,0,0,1-5.556-3.645,7.023,7.023,0,0,1-1.593-4.963V905.219Z" transform="translate(-1167.821 -905.219)" fill="#b12f15"/>
      <path id="Path_631" data-name="Path 631" d="M1174.368,915.92a11.41,11.41,0,0,1,6.281-6.37,13.862,13.862,0,0,1,10.121,0,11.409,11.409,0,0,1,6.281,6.37,11.589,11.589,0,0,1-2.495,12.395,11.4,11.4,0,0,1-3.787,2.544,13.879,13.879,0,0,1-10.121,0,11.436,11.436,0,0,1-6.281-6.377A11.55,11.55,0,0,1,1174.368,915.92Zm6.246,9.36a7.311,7.311,0,1,0-2.052-5.08A7.335,7.335,0,0,0,1180.614,925.28Z" transform="translate(-1163.416 -902.623)" fill="#b12f15"/>
      <path id="Path_632" data-name="Path 632" d="M1189.764,917.427a8.856,8.856,0,0,1,.531-3.459,8.96,8.96,0,0,1,1.822-2.985,7.859,7.859,0,0,1,2.6-1.794,7.77,7.77,0,0,1,3.114-.594,7.849,7.849,0,0,1,4.193,1.071,5.7,5.7,0,0,1,2.407,2.847h.088a5.72,5.72,0,0,1,2.442-2.847,7.844,7.844,0,0,1,4.176-1.071,7.631,7.631,0,0,1,3.1.594,7.752,7.752,0,0,1,2.619,1.794,8.957,8.957,0,0,1,1.823,2.985,8.531,8.531,0,0,1,.513,3.459v13.8h-4.724V917.473a4.236,4.236,0,0,0-1.062-3.029,3.373,3.373,0,0,0-2.583-1.115,3.7,3.7,0,0,0-1.575.264,3.822,3.822,0,0,0-1.327.9,5.219,5.219,0,0,0-1.062,3.622v13.117h-4.742V918.111a5.223,5.223,0,0,0-1.062-3.622,3.794,3.794,0,0,0-1.327-.9,3.725,3.725,0,0,0-1.575-.266,3.4,3.4,0,0,0-1.416.276,3.6,3.6,0,0,0-1.185.839,4.3,4.3,0,0,0-1.044,3.029v13.755h-4.724Z" transform="translate(-1150.944 -902.625)" fill="#b12f15"/>
      <path id="Path_633" data-name="Path 633" d="M1227.634,928.542h-.088a8,8,0,0,1-3.079,2.389,9.92,9.92,0,0,1-4.176.888,11.228,11.228,0,0,1-4.724-.98,10.955,10.955,0,0,1-3.645-2.642,11.577,11.577,0,0,1-2.282-3.758,11.951,11.951,0,0,1-.779-4.236,11.365,11.365,0,0,1,.832-4.121,12.3,12.3,0,0,1,2.354-3.779,11.437,11.437,0,0,1,3.751-2.711,11.194,11.194,0,0,1,4.724-1,9.336,9.336,0,0,1,4.211.911,6.974,6.974,0,0,1,2.813,2.367h.088v-2.686h4.742v22.044h-4.742Zm-13.218-5.574a7.489,7.489,0,0,0,1.539,2.3,6.871,6.871,0,0,0,4.937,2.084,6.7,6.7,0,0,0,2.636-.55,6.576,6.576,0,0,0,2.229-1.543,7.538,7.538,0,0,0,1.5-2.3,7.25,7.25,0,0,0,0-5.512,7.517,7.517,0,0,0-1.5-2.3,6.757,6.757,0,0,0-7.555-1.548,6.911,6.911,0,0,0-2.265,1.548,7.16,7.16,0,0,0-1.522,2.3,7.25,7.25,0,0,0,0,5.512" transform="translate(-1136.244 -902.627)" fill="#b12f15"/>
      <path id="Path_634" data-name="Path 634" d="M1243.376,931.134h-.088a7.981,7.981,0,0,1-3.079,2.389,9.87,9.87,0,0,1-4.158.888,11.251,11.251,0,0,1-4.742-.98,11.134,11.134,0,0,1-3.645-2.642,11.573,11.573,0,0,1-2.282-3.758,11.934,11.934,0,0,1-.761-4.236,10.981,10.981,0,0,1,.814-4.121,12.016,12.016,0,0,1,2.371-3.779,11.367,11.367,0,0,1,3.733-2.711,11.194,11.194,0,0,1,4.724-1,9.461,9.461,0,0,1,4.229.911,6.926,6.926,0,0,1,2.8,2.375h.088v-9.249h4.742v28.6h-4.742Zm-13.2-5.574a7.17,7.17,0,0,0,1.522,2.3,6.831,6.831,0,0,0,4.937,2.093,6.729,6.729,0,0,0,2.654-.55,6.939,6.939,0,0,0,2.229-1.543,7.884,7.884,0,0,0,1.5-2.3,7.25,7.25,0,0,0,0-5.512,7.859,7.859,0,0,0-1.5-2.3,6.784,6.784,0,0,0-2.247-1.548,6.545,6.545,0,0,0-2.636-.545,6.767,6.767,0,0,0-2.689.545,6.837,6.837,0,0,0-2.247,1.548,7.17,7.17,0,0,0-1.522,2.3,7.092,7.092,0,0,0,0,5.512" transform="translate(-1124.118 -905.219)" fill="#b12f15"/>
      <path id="Path_635" data-name="Path 635" d="M1243.348,924.673a10.523,10.523,0,0,0,3.238,2.322,8.491,8.491,0,0,0,3.68.913,5.241,5.241,0,0,0,3.149-.888,2.485,2.485,0,0,0,.849-.794,2.411,2.411,0,0,0,.372-1.1,2.093,2.093,0,0,0-.177-.929,2.013,2.013,0,0,0-.566-.757,4.309,4.309,0,0,0-2.123-.865l-2.689-.5a13.578,13.578,0,0,1-6.193-2.3,5.049,5.049,0,0,1-1.327-1.792,5.15,5.15,0,0,1-.407-2.189,6.653,6.653,0,0,1,.62-2.8,6.569,6.569,0,0,1,1.734-2.277,9.047,9.047,0,0,1,6.3-2.123,13.406,13.406,0,0,1,4.424.727,17.6,17.6,0,0,1,4.335,2.323l-2.689,3.325a10.444,10.444,0,0,0-3.1-1.913,8.3,8.3,0,0,0-2.831-.547,5.328,5.328,0,0,0-2.849.75,2.39,2.39,0,0,0-.885.847,2.308,2.308,0,0,0-.319,1.18q0,1.823,2.866,2.323l4.777.911q5.839,1.094,5.839,5.875a6.769,6.769,0,0,1-.549,2.575,7.728,7.728,0,0,1-1.681,2.413,8.284,8.284,0,0,1-2.937,1.776,12.127,12.127,0,0,1-4.176.664,14.984,14.984,0,0,1-9.926-3.872Z" transform="translate(-1112.199 -902.63)" fill="#b12f15"/>
    </g>
    <g id="Group_844" data-name="Group 844" transform="translate(-8622 -15040.199)">
      <path id="Path_636" data-name="Path 636" d="M1159.222,902.375a10.8,10.8,0,0,1,7.735,3.191l5.637,5.637,7.279,7.277a10.943,10.943,0,0,1,0,15.487l-6.787,6.79-6.13,6.124a10.975,10.975,0,0,1-15.47,0l-6.8-6.8-6.111-6.112a10.987,10.987,0,0,1,0-15.487l6.95-6.954,5.966-5.96a10.651,10.651,0,0,1,3.539-2.372,10.92,10.92,0,0,1,4.2-.819Zm0-4.379a15.32,15.32,0,0,0-10.836,4.47l-5.966,5.962-6.951,6.955a15.366,15.366,0,0,0,0,21.668l6.112,6.115,6.8,6.8a15.375,15.375,0,0,0,21.673,0l6.129-6.128,6.786-6.79a15.367,15.367,0,0,0,0-21.67L1175.7,908.1l-5.637-5.639a15.321,15.321,0,0,0-10.837-4.47" transform="translate(-467 -729.43)" fill="#b12f15"/>
      <path id="Path_637" data-name="Path 637" d="M1153.147,907.107a6.294,6.294,0,0,1,2.408.471,5.971,5.971,0,0,1,2.025,1.361l6.768,6.759a6.278,6.278,0,0,1,0,8.886l-6.768,6.759a6.3,6.3,0,0,1-8.885,0l-6.768-6.759a6.323,6.323,0,0,1,0-8.886l6.768-6.759a6.261,6.261,0,0,1,4.451-1.832Zm0-1.733a7.941,7.941,0,0,0-5.674,2.339l-6.768,6.759a8.05,8.05,0,0,0,0,11.339l6.768,6.759a8.029,8.029,0,0,0,11.329,0l6.768-6.759a8.05,8.05,0,0,0,0-11.339l-6.768-6.759a7.847,7.847,0,0,0-2.59-1.735A8.047,8.047,0,0,0,1153.147,905.374Z" transform="translate(-461.371 -723.346)" fill="#b12f15"/>
      <path id="Path_638" data-name="Path 638" d="M1156.956,904.848a8.618,8.618,0,0,1,6.987,3.536l7.662,10.569a8.609,8.609,0,0,1-1.916,11.986l-10.563,7.662a8.479,8.479,0,0,1-5.017,1.622,8.623,8.623,0,0,1-6.987-3.534l-7.662-10.57a8.608,8.608,0,0,1,1.915-11.986l10.581-7.662A8.479,8.479,0,0,1,1156.956,904.848Zm0-2.368a10.921,10.921,0,0,0-6.4,2.073l-10.563,7.662a10.969,10.969,0,0,0-2.445,15.285l7.662,10.57a10.994,10.994,0,0,0,15.306,2.441l10.563-7.662a10.978,10.978,0,0,0,2.444-15.292l-7.662-10.57a11.09,11.09,0,0,0-3.9-3.328,10.979,10.979,0,0,0-5-1.188" transform="translate(-463.476 -725.74)" fill="#b12f15"/>
      <path id="Path_639" data-name="Path 639" d="M1151.552,910.388a3.591,3.591,0,0,1,2.116.624,3.46,3.46,0,0,1,1.332,1.744l.018.027v.027l1.532,5.139a3.17,3.17,0,0,1-.347,2.372,3.208,3.208,0,0,1-1.934,1.434l-4.579,1.169a2.976,2.976,0,0,1-.766.1,3.144,3.144,0,0,1-1.934-.659,3.25,3.25,0,0,1-1.131-1.709V920.6l-1.532-5.136a3.161,3.161,0,0,1,.347-2.368,3.236,3.236,0,0,1,1.934-1.437h.018l4.141-1.164a3.386,3.386,0,0,1,.784-.093Zm0-1.416a4.586,4.586,0,0,0-1.149.137l-4.159,1.169a4.61,4.61,0,0,0-3.3,5.57l1.532,5.17a4.615,4.615,0,0,0,4.451,3.444,4.516,4.516,0,0,0,1.131-.137l4.579-1.169a4.61,4.61,0,0,0,3.3-5.57l-1.532-5.168a5.07,5.07,0,0,0-1.861-2.521,5,5,0,0,0-2.992-.925" transform="translate(-458.806 -720.381)" fill="#b12f15"/>
    </g>
  </g>
</svg>
