<?xml version="1.0" encoding="UTF-8"?>
<svg id="a" xmlns="http://www.w3.org/2000/svg" version="1.1" xmlns:xlink="http://www.w3.org/1999/xlink" viewBox="0 0 136.6 31.1">
  <defs>
    <style>
      .cls-1 {
        fill: #000;
      }

      .cls-1, .cls-2, .cls-3, .cls-4, .cls-5 {
        stroke-width: 0px;
      }

      .cls-6 {
        clip-path: url(#clippath-2);
      }

      .cls-2 {
        fill: none;
      }

      .cls-7 {
        clip-path: url(#clippath-1);
      }

      .cls-8 {
        clip-path: url(#clippath-4);
      }

      .cls-3 {
        fill: url(#radial-gradient-2);
      }

      .cls-9 {
        clip-path: url(#clippath);
      }

      .cls-4 {
        fill: url(#radial-gradient);
      }

      .cls-10 {
        clip-path: url(#clippath-3);
      }

      .cls-11 {
        clip-path: url(#clippath-5);
      }

      .cls-5 {
        fill: url(#radial-gradient-3);
      }
    </style>
    <clipPath id="clippath">
      <rect class="cls-2" x="8.1" y="2.6" width="120.4" height="26"/>
    </clipPath>
    <clipPath id="clippath-1">
      <path class="cls-2" d="M44.9,24.7c-.9-.5-1.7-1.3-2.2-2.3-.5-1-.8-2.1-.8-3.2,0-1.1.2-2.2.8-3.2.5-.9,1.2-1.7,2.2-2.3,1.9-1.1,4.2-1.1,6.1,0,.9.5,1.6,1.3,2.1,2.3.5,1,.8,2.1.8,3.2,0,1.1-.2,2.2-.8,3.2-.5.9-1.2,1.7-2.1,2.3-1.9,1.1-4.2,1.1-6.1,0M43.2,11.1c-1.4.8-2.5,2-3.3,3.3-.8,1.5-1.2,3.1-1.2,4.8,0,1.7.4,3.3,1.1,4.8.7,1.4,1.8,2.5,3.1,3.3,2.7,1.6,6.1,1.6,8.8,0,.8-.5,1.5-1.1,2.1-1.8v1.2c0,1,.7,1.7,1.7,1.8.9,0,1.7-.7,1.8-1.7h0v-7.6c0-1.7-.4-3.3-1.2-4.8-2.6-4.4-8.3-5.9-12.8-3.3"/>
    </clipPath>
    <radialGradient id="radial-gradient" cx="-1353.6" cy="232.1" fx="-1353.6" fy="232.1" r="1.8" gradientTransform="translate(32960.8 5673) scale(24.3 -24.3)" gradientUnits="userSpaceOnUse">
      <stop offset="0" stop-color="#ebebeb"/>
      <stop offset=".3" stop-color="#65dafb"/>
      <stop offset=".3" stop-color="#6ec3fb"/>
      <stop offset=".4" stop-color="#7ca1fc"/>
      <stop offset=".5" stop-color="#8785fd"/>
      <stop offset=".5" stop-color="#8f72fe"/>
      <stop offset=".6" stop-color="#9466fe"/>
      <stop offset=".7" stop-color="#9663ff"/>
      <stop offset="1" stop-color="#4453ae"/>
    </radialGradient>
    <clipPath id="clippath-2">
      <path class="cls-2" d="M63.2,10.5c-.3.3-.5.8-.5,1.2v15c0,1,.8,1.7,1.8,1.7.4,0,.9-.2,1.2-.5.3-.3.5-.8.5-1.2v-15c0-1-.8-1.7-1.8-1.7-.4,0-.8.2-1.2.5"/>
    </clipPath>
    <radialGradient id="radial-gradient-2" cx="-1348.2" cy="181" fx="-1348.2" fy="181" r="3.1" gradientTransform="translate(19145.3 2608.8) scale(14.2 -14.2)" gradientUnits="userSpaceOnUse">
      <stop offset="0" stop-color="#ebebeb"/>
      <stop offset=".3" stop-color="#65dafb"/>
      <stop offset=".3" stop-color="#6ec3fb"/>
      <stop offset=".4" stop-color="#7ca1fc"/>
      <stop offset=".5" stop-color="#8785fd"/>
      <stop offset=".5" stop-color="#8f72fe"/>
      <stop offset=".6" stop-color="#9466fe"/>
      <stop offset=".7" stop-color="#9663ff"/>
      <stop offset="1" stop-color="#4453ae"/>
    </radialGradient>
    <clipPath id="clippath-3">
      <rect class="cls-2" x="8.1" y="2.6" width="120.4" height="26"/>
    </clipPath>
    <clipPath id="clippath-4">
      <path class="cls-2" d="M64.4,2.6c-.6,0-1.2.2-1.6.7-.4.4-.7,1-.7,1.6s.2,1.2.7,1.6c.8.9,2.2.9,3.1,0,0,0,0,0,0,0,.4-.4.7-1,.7-1.6s-.2-1.2-.7-1.6c-.4-.4-1-.7-1.6-.7Z"/>
    </clipPath>
    <radialGradient id="radial-gradient-3" cx="-1329.7" cy="7.9" fx="-1329.7" fy="7.9" r="7.6" gradientTransform="translate(7746.5 90.6) scale(5.8 -5.8)" gradientUnits="userSpaceOnUse">
      <stop offset="0" stop-color="#ebebeb"/>
      <stop offset=".3" stop-color="#65dafb"/>
      <stop offset=".3" stop-color="#6ec3fb"/>
      <stop offset=".4" stop-color="#7ca1fc"/>
      <stop offset=".5" stop-color="#8785fd"/>
      <stop offset=".5" stop-color="#8f72fe"/>
      <stop offset=".6" stop-color="#9466fe"/>
      <stop offset=".7" stop-color="#9663ff"/>
      <stop offset="1" stop-color="#4453ae"/>
    </radialGradient>
    <clipPath id="clippath-5">
      <rect class="cls-2" x="8.1" y="2.6" width="120.4" height="26"/>
    </clipPath>
  </defs>
  <g id="b">
    <g class="cls-9">
      <g id="d">
        <path id="e" class="cls-1" d="M33.1,13.2c-.5-1-1.3-1.9-2.3-2.5-1-.6-2.2-.9-3.4-.8-1.4,0-2.7.3-3.9.9-1,.6-1.9,1.4-2.5,2.4-.6-1-1.5-1.8-2.5-2.4-1.2-.6-2.5-1-3.9-.9-1.2,0-2.4.3-3.4.8-1,.6-1.8,1.4-2.3,2.5-.6,1.2-.9,2.6-.8,4v9.6c0,.5.2.9.5,1.2.3.3.8.5,1.2.5.9,0,1.7-.7,1.7-1.6h0v-9.7c0-1.2.3-2.3,1-3.2.7-.7,1.7-1.1,2.7-1,1.1,0,2.1.4,2.9,1.2.8.8,1.2,2,1.1,3.1h0v9.5c0,.5.1.9.5,1.2.7.7,1.8.7,2.5,0,.3-.3.5-.8.5-1.2v-9.5c0-1.1.4-2.2,1.1-3.1.7-.8,1.8-1.2,2.9-1.2,1,0,2,.3,2.7,1,.8.9,1.1,2,1,3.2v9.6c0,1,.8,1.7,1.8,1.7.4,0,.9-.2,1.2-.5.3-.3.5-.8.5-1.2v-9.6c0-1.4-.2-2.7-.8-4"/>
      </g>
    </g>
  </g>
  <g id="f">
    <g class="cls-7">
      <g id="h">
        <rect id="j" class="cls-4" x="34.8" y="6" width="26.3" height="26.4" transform="translate(.7 40.1) rotate(-45.6)"/>
      </g>
    </g>
  </g>
  <g id="k">
    <g class="cls-6">
      <g id="m">
        <rect id="o" class="cls-3" x="56.6" y="11.6" width="15.6" height="15.3" transform="translate(5.6 51.8) rotate(-45.6)"/>
      </g>
    </g>
  </g>
  <g id="p">
    <g class="cls-10">
      <g id="r">
        <path id="s" class="cls-1" d="M87.5,11.1c-.1-.4-.4-.7-.8-.8-.4-.2-.8-.2-1.3,0-.4.1-.7.4-.9.8l-5.8,12.6-5.8-12.6c-.2-.4-.5-.6-.9-.8-.4-.1-.8,0-1.2,0-.4.2-.7.5-.9.9-.2.4-.1.8,0,1.1l7.1,15c.3.7.9,1.1,1.6,1.1.7,0,1.3-.5,1.6-1.1l7.1-15c.2-.4.2-.8,0-1.2"/>
        <path id="t" class="cls-1" d="M106.4,20c.3-.3.4-.7.4-1.1,0-1.6-.3-3.2-1-4.7-.6-1.3-1.6-2.4-2.9-3.2-1.4-.8-2.9-1.2-4.5-1.2-1.6,0-3.3.4-4.7,1.2-1.4.8-2.5,1.9-3.2,3.3-.8,1.5-1.2,3.2-1.2,4.9,0,1.7.4,3.4,1.2,4.8.8,1.4,2,2.5,3.4,3.3,2.5,1.3,5.5,1.6,8.2.6,1-.3,2-.8,2.9-1.5.4-.2.6-.6.5-1,0-.4-.3-.8-.6-1.1-.3-.2-.6-.4-1-.3-.4,0-.8.2-1.1.4-.5.4-1.1.7-1.8.9-.7.2-1.4.4-2.1.4-1.2,0-2.4-.3-3.4-.8-1.7-.9-2.8-2.5-3.1-4.4h12.8c.4,0,.8-.1,1.1-.4M95.2,13.6c1-.6,2.1-.9,3.3-.8,2,0,3.9,1,4.7,2.9.3.7.5,1.3.6,2.1h-11.2c.1-.6.3-1.2.6-1.8.4-1,1.2-1.8,2.1-2.3"/>
      </g>
    </g>
  </g>
  <g id="u">
    <g class="cls-8">
      <g id="w">
        <rect id="y" class="cls-5" x="61.3" y="1.7" width="6.3" height="6.3" transform="translate(15.9 47.5) rotate(-45.6)"/>
      </g>
    </g>
  </g>
  <g id="z">
    <g class="cls-11">
      <g id="ab">
        <path id="ac" class="cls-1" d="M127.4,13.8c-.5-.9-1.1-1.7-1.9-2.3-1.6-1.2-3.6-1.8-5.6-1.7-.6,0-1.3,0-1.9.2-1,.1-1.9.4-2.8.9-1.2.7-2.2,1.7-2.9,2.9-.8,1.5-1.1,3.1-1.1,4.7v8.3c0,1,.8,1.7,1.7,1.7s1.7-.8,1.7-1.7h0v-8.3c0-1.1.2-2.2.7-3.1.4-.8,1.1-1.4,1.9-1.8,1.6-.8,3.6-.8,5.2,0,.8.4,1.5,1,1.9,1.8.5,1,.8,2,.7,3.1v8.3c0,1,.8,1.7,1.7,1.7s1.7-.8,1.7-1.7h0v-8.3c0-1.6-.3-3.3-1.1-4.7"/>
      </g>
    </g>
  </g>
</svg>