<svg id="Group_36563" data-name="Group 36563" xmlns="http://www.w3.org/2000/svg" xmlns:xlink="http://www.w3.org/1999/xlink" width="1517.547" height="376.22" viewBox="0 0 1517.547 376.22">
  <defs>
    <clipPath id="clip-path">
      <rect id="Rectangle_1172" data-name="Rectangle 1172" width="1517.547" height="376.22"/>
    </clipPath>
  </defs>
  <g id="Group_748" data-name="Group 748" transform="translate(0 0)" clip-path="url(#clip-path)">
    <path id="Path_33" data-name="Path 33" d="M322.592,7.992q50.875,0,79.475,29.732T430.655,117.2a187.738,187.738,0,0,1-2.859,30.3L399.208,304.165a11.237,11.237,0,0,1-3.145,6.575,9.672,9.672,0,0,1-7.147,2.573H324.307c-3.431,0-5.916-.945-7.433-2.859-1.533-1.9-2.1-4.574-1.715-8L344.319,135.5a97.691,97.691,0,0,0,1.715-16.581q0-36.021-36.021-36.021a77,77,0,0,0-38.308,10.292,168.857,168.857,0,0,1,2.287,24.586,185.176,185.176,0,0,1-2.859,29.732L243.117,304.165a11.285,11.285,0,0,1-3.145,6.575,9.66,9.66,0,0,1-7.147,2.573H168.216q-5.146,0-7.719-3.145a8.314,8.314,0,0,1-1.429-7.719L188.228,135.5a99.976,99.976,0,0,0,1.715-17.153q0-35.449-33.162-35.449-19.452,0-33.162,6.861L84.739,304.165q-1.715,9.148-10.292,9.148H8.694c-3.057,0-5.344-.945-6.861-2.859-1.525-1.9-2.1-4.574-1.715-8l47.456-261.3A13.927,13.927,0,0,1,56.15,30.863,277.309,277.309,0,0,1,110.754,14a281.906,281.906,0,0,1,56.319-6q42.3,0,70.9,22.871Q280.853,8,322.592,7.992" transform="translate(0.001 55.474)"/>
    <path id="Path_34" data-name="Path 34" d="M66.573,195.258a8.715,8.715,0,0,1-7.147-3.145A8.314,8.314,0,0,1,58,184.395L83.345,33.576Q84.488,25,93.637,25h66.324q5.146,0,7.719,2.859c1.715,1.914,2.184,4.384,1.429,7.433L143.761,186.11q-1.715,9.148-10.863,9.148Z" transform="translate(400.097 173.529)"/>
    <path id="Path_35" data-name="Path 35" d="M85.648,313.314q-5.146,0-7.719-3.145A8.314,8.314,0,0,1,76.5,302.45l46.885-261.3a13.927,13.927,0,0,1,8.576-10.292,387.961,387.961,0,0,1,58.034-16.581,288.463,288.463,0,0,1,58.034-6.289q54.889,0,84.335,28.016t29.446,76.616a208.059,208.059,0,0,1-2.859,31.447L330.362,304.165q-1.715,9.148-10.864,9.148H253.746a8.714,8.714,0,0,1-7.147-3.145,9.74,9.74,0,0,1-2-7.719L273.186,135.5a100.137,100.137,0,0,0,1.715-17.153q0-35.449-37.736-35.449-21.739,0-36.593,6.861L162.836,304.165q-1.715,9.148-10.864,9.148Z" transform="translate(528.529 55.474)"/>
    <path id="Path_36" data-name="Path 36" d="M223.284,261.3A92,92,0,0,0,222.14,273.3q0,27.445,29.16,27.445h17.153q9.72,0,7.433,9.72l-9.148,53.174q-1.715,9.136-9.72,9.72a148.32,148.32,0,0,1-29.16,2.859q-42.322,0-67.182-22.585T135.8,287.025a167.275,167.275,0,0,1,2.859-32.59L181.545,9.148Q183.26.012,192.408,0h56.033q5.146,0,7.719,2.859a8.955,8.955,0,0,1,2,7.433l-3.431,68.04h45.741c3.431,0,6,1.056,7.719,3.145A8.35,8.35,0,0,1,309.62,89.2l-9.148,52.6q-1.715,9.16-10.863,9.148H242.724Z" transform="translate(942.637 0)"/>
    <path id="Path_37" data-name="Path 37" d="M366.884,298.448q-34.89,22.3-90.346,22.3-69.2,0-116.068-38.308-4-3.431-4-7.433a9.9,9.9,0,0,1,2.287-6.289l32.591-44.6q3.43-4.574,7.441-4.574c1.135,0,3.224.77,6.281,2.287A121.708,121.708,0,0,0,279.4,246.417q22.3,0,33.456-6.861,11.137-6.861,11.141-19.44,0-9.136-9.72-13.722t-29.732-9.148q-40.607-8.576-65.459-30.3-24.884-21.727-24.88-56.6a82.511,82.511,0,0,1,2.287-20.012Q205.067,48.015,238.515,28T325.709,7.992q29.16,0,53.174,6.289a188.642,188.642,0,0,1,47.456,20.012q5.146,2.287,5.146,7.433c0,1.525-.953,3.629-2.859,6.289L394.9,93.185c-2.295,3.057-4.781,4.574-7.441,4.574a14.205,14.205,0,0,1-6.29-1.715Q354.3,80.606,317.7,80.606q-18.309,0-27.731,5.146t-9.434,17.725q0,9.148,10.292,14.294t32.6,10.292q36.581,8.017,62.6,28.588,26,20.583,26.015,57.176a106.183,106.183,0,0,1-1.708,18.3q-8.588,44.038-43.454,66.325" transform="translate(1086.062 55.474)"/>
    <path id="Path_38" data-name="Path 38" d="M207.25,71.769,146.444,8.017,58.528,71.769H85.306c3.4,19.035,19,32.535,40.667,32.535s43.017-13.5,54.5-32.535Z" transform="translate(406.252 55.647)"/>
    <path id="Path_39" data-name="Path 39" d="M124.573,195.258a8.715,8.715,0,0,1-7.147-3.145A8.314,8.314,0,0,1,116,184.395L141.345,33.576Q142.488,25,151.637,25h66.324q5.146,0,7.719,2.859c1.715,1.914,2.184,4.384,1.429,7.433L201.761,186.11q-1.715,9.148-10.863,9.148Z" transform="translate(802.684 173.529)"/>
    <path id="Path_40" data-name="Path 40" d="M116.529,40.552,177.335,104.3l87.916-63.752H238.465c-3.4-19.035-19-32.535-40.667-32.535s-43.017,13.5-54.5,32.535Z" transform="translate(808.846 55.647)"/>
  </g>
</svg>
