<?xml version="1.0" encoding="UTF-8"?>
<svg id="Layer_1" data-name="Layer 1" xmlns="http://www.w3.org/2000/svg" version="1.1" viewBox="0 0 512 512">
  <defs>
    <style>
      .cls-1 {
        fill: #000;
      }

      .cls-1, .cls-2, .cls-3 {
        stroke-width: 0px;
      }

      .cls-2 {
        fill: #f4d046;
      }

      .cls-3 {
        fill: #da2434;
      }
    </style>
  </defs>
  <rect class="cls-2" width="512" height="512"/>
  <path class="cls-1" d="M104.9,299.5c1.1.8,2.1,1.5,3,2.2,2.3,1.8,3.5,4.1,3.5,7.2-.1,6.8-.1,13.6,0,20.4.1,8.3-5.4,16-13.5,18.4-1.7.5-3.6.8-5.5.8-13.7,0-27.4,0-41.2,0-.8,0-1.1-.3-1.1-1.1,0-32,0-64,0-96,0-.3,0-.6,0-1,.3,0,.5-.1.7-.1,14.1,0,28.1,0,42.2,0,7.8,0,15.3,6,17.4,13.5.5,2,.8,4.1.8,6.2,0,6.8,0,13.6,0,20.5,0,3.3-1.5,5.6-4.1,7.4-.8.5-1.5,1-2.4,1.6ZM71.1,271c0,.2-.1.3-.1.4,0,5.6,0,11.3,0,16.9,0,.5.2.7.7.7,1,0,2,0,3.1,0,4,0,8,0,12,0,2.5,0,3.9-1.4,3.9-3.9,0-3.5,0-7,0-10.5,0-2.2-1.5-3.7-3.7-3.7-4.9,0-9.9,0-14.8,0-.3,0-.6,0-.9,0ZM71,309.8c0,.5,0,.9,0,1.3,0,4.8,0,9.6,0,14.3q0,2.2,2.2,2.2c4.6,0,9.2,0,13.8,0,2.1,0,3.6-1.3,3.6-3.2,0-3.8,0-7.7,0-11.5,0-2-1.4-3.2-3.4-3.2-4.8,0-9.7,0-14.5,0-.5,0-1,0-1.7,0Z"/>
  <path class="cls-1" d="M181.5,299.3c0,10.2,0,20.4,0,30.6,0,8-4.9,15.1-12.2,18-2.2.9-4.5,1.3-6.9,1.3-7.6,0-15.2,0-22.8,0-9.8.1-18.3-8.3-19.1-17.1,0-.8,0-1.6,0-2.4,0-20,0-40,0-60,0-7,2.7-12.5,8.2-16.6,2.9-2.2,6.2-3.4,9.9-3.5,8.4,0,16.8-.2,25.2,0,8.8.2,16.6,7.3,17.7,16,.2,1.4.2,2.9.2,4.3,0,9.8,0,19.5,0,29.3ZM141.1,299.3c0,8.4,0,16.8,0,25.1,0,2.5,1.5,4,4,4,3.8,0,7.7,0,11.5,0,2.8,0,4.2-1.4,4.2-4.2,0-11.1,0-22.1,0-33.2,0-5.6,0-11.2,0-16.8,0-2.7-1.3-3.9-3.9-3.9-3.9,0-7.8,0-11.7,0-2.7,0-4,1.3-4,4,0,8.3,0,16.6,0,25Z"/>
  <path class="cls-1" d="M261.4,348.5c-1.1,0-2,0-2.8,0-6.7,0-13.4,0-20.1,0-.6,0-.9-.2-1.3-.8-5-8.6-10-17.3-15-25.9-.2-.4-.4-.7-.7-1.2-.9,1.6-1.8,3.1-2.6,4.6-4.3,7.5-8.6,15.1-13,22.6-.2.3-.7.6-1,.6-7.6,0-15.2,0-22.9,0,0,0-.1,0-.3,0,.1-.3.2-.6.4-.8,8.9-15.4,17.8-30.8,26.7-46.1.3-.5.3-.8,0-1.3-8-15.7-16-31.5-24-47.2-.4-.8-.9-1.7-1.3-2.6.4,0,.6,0,.8,0,7.2,0,14.4,0,21.6,0,.6,0,.9.2,1.2.7,4.7,9.3,9.4,18.5,14.2,27.7,0,.2.2.4.4.7,1.2-2.3,2.3-4.5,3.4-6.7,3.6-7.2,7.3-14.4,10.9-21.7.2-.5.5-.7,1.1-.7,7.4,0,14.7,0,22.1,0,0,0,.2,0,.4,0-.8,1.6-1.6,3.3-2.4,4.9-5.8,11.5-11.6,23-17.4,34.6-1.7,3.4-3.5,6.9-5.2,10.3-.3.5-.2.9,0,1.4,7.4,12.8,14.7,25.6,22,38.4,1.5,2.6,3,5.1,4.4,7.7.1.2.2.5.5.9Z"/>
  <path class="cls-1" d="M50.3,162.4c.7,0,1.2,0,1.8,0,4.1,0,8.1,0,12.2,0,.7,0,1.1.2,1.3.9,3.2,9.3,6.5,18.6,9.7,27.9,1.7,4.8,3.4,9.6,5,14.4,0,.1.1.2.2.4.8-2.3,1.6-4.5,2.4-6.7,3.8-11,7.6-21.9,11.3-32.9.4-1.1.8-2.3,1.2-3.4,0-.2.5-.6.7-.6,4.8,0,9.5,0,14.3,0v77.1c-.3,0-.6,0-.9,0-4.8,0-9.6,0-14.4,0-.8,0-1.1-.2-1.1-1.1,0-10.1,0-20.3,0-30.4,0-.3,0-.6,0-1.2-.3.5-.4.8-.5,1-3.1,7.3-6.2,14.6-9.3,21.9-.3.8-.7,1-1.5,1-1.7,0-3.4,0-5.2,0-.6,0-.9-.2-1.2-.8-3.1-7.4-6.3-14.8-9.4-22.2-.1-.3-.3-.6-.5-.8v32.4h-16.3v-77.1Z"/>
  <path class="cls-1" d="M165.7,201c0,8,0,16,0,24,0,6.7-4,12.2-10.3,14.4-1.5.5-3.1.7-4.6.8-6.1,0-12.2,0-18.4,0-8,0-14.8-6.7-14.8-14.7,0-16.3,0-32.7,0-49,0-8.1,6.8-14.6,14.9-14.6,6.1,0,12.2,0,18.3,0,8.2,0,14.8,6.6,14.9,14.8,0,8.1,0,16.2,0,24.3h0ZM149.3,201.1c0-6.7,0-13.3,0-20,0-1.9-1-2.9-2.9-2.9-3.2,0-6.4,0-9.6,0-2,0-3,1-3,3,0,13.1,0,26.3,0,39.4,0,2.1,1.1,3.2,3.2,3.3,3,0,6.1,0,9.1,0,2.2,0,3.1-1,3.1-3.2,0-6.5,0-13.1,0-19.6Z"/>
  <path class="cls-1" d="M211.5,201c0-7.9,0-15.9,0-23.8,0-8,5.4-14.2,13.3-15.3.6,0,1.2,0,1.8,0,6,0,11.9,0,17.9,0,7.3,0,13.2,4.8,14.8,11.9.2,1.1.3,2.2.3,3.3,0,16,0,31.9,0,47.9,0,7.3-4.9,13.4-12,14.9-1,.2-2,.3-2.9.3-6,0-12,0-18,0-8.5,0-15.1-6.7-15.1-15.2,0-8,0-15.9,0-23.9h0ZM243.3,201c0-6.7,0-13.3,0-20,0-1.8-1-2.9-2.8-2.9-3.1,0-6.2,0-9.3,0-2.4,0-3.3.9-3.3,3.4,0,13,0,26,0,39,0,2.2,1.1,3.3,3.3,3.3,3,0,5.9,0,8.9,0,2.3,0,3.3-1,3.3-3.2,0-6.5,0-13.1,0-19.6Z"/>
  <path class="cls-1" d="M188.6,178.6h-8v-16.2c.4,0,.8,0,1.1,0,7.3,0,14.7,0,22,0,.9,0,1.2.3,1.2,1.2,0,20.4,0,40.8,0,61.2,0,6.8-4.6,12.7-11,14.4-1.3.3-2.6.5-4,.5-7,0-14,0-21.1,0-.3,0-.7,0-1.2,0,.6-2.2,1.2-4.3,1.8-6.4.9-3,1.7-6.1,2.6-9.1.2-.7.5-.9,1.2-.9,4.1,0,8.1,0,12.2,0,2.2,0,3.2-1,3.2-3.2,0-13.5,0-26.9,0-40.4,0-.3,0-.6,0-1.1Z"/>
  <path class="cls-3" d="M304.2,312.2c.4,0,.7,0,.9,0,5,0,10.1,0,15.1,0,2.8,0,5.5.6,7.9,2.2,4.7,3.1,5.3,10.1,1.3,14.1-.2.2-.5.4-.9.6,2.2,1.1,3.7,2.6,4.5,4.6,2.8,6.7-.9,13.1-8.1,14.4-1.4.2-2.8.4-4.2.4-5.2,0-10.3,0-15.5,0-.9,0-1.1-.3-1.1-1.1,0-11.3,0-22.6,0-33.9,0-.4,0-.8,0-1.2ZM310.1,332.2c0,3.5,0,6.9,0,10.3,0,.2.5.5.8.5,3.1,0,6.2,0,9.4,0,1.4,0,2.8-.3,4.1-.7,1.5-.4,2.6-1.4,3.2-2.9,1.2-3.3-.6-6.4-4.2-6.9-2.3-.3-4.7-.2-7.1-.3-2,0-4,0-6.2,0ZM316.3,326.7s0,0,0,.1c2.2-.1,4.5-.2,6.7-.4,1.6-.2,2.7-1.3,3-2.9.3-1.7.2-3.4-1.3-4.4-1-.7-2.3-1.3-3.5-1.4-3.5-.2-6.9-.2-10.4-.2-.6,0-.6.4-.6.8,0,2.5,0,5,0,7.6,0,.7.2.9.9.9,1.8,0,3.5,0,5.3,0Z"/>
  <path class="cls-3" d="M285.1,255.1c0,31.3,0,62.7,0,94,0,.5,0,1,0,1.4,0,.9-.8,1.6-1.6,1.6-.8,0-1.6-.6-1.7-1.5,0-.5,0-1,0-1.5,0-52.1,0-104.2,0-156.3,0-10.8,0-21.6,0-32.4,0-1.6.6-2.4,1.7-2.4,1.1,0,1.6.8,1.6,2.4,0,31.6,0,63.1,0,94.7h0Z"/>
  <path class="cls-3" d="M356.3,185.5c2.7,3.9,5.5,7.9,8.5,12.2-.8,0-1.5,0-2.1,0-1.3,0-2.6,0-3.8,0-.7,0-1.2-.2-1.6-.8-2.2-3.3-4.5-6.5-6.8-9.7-.4-.6-.8-.8-1.6-.8-2.3,0-4.6,0-6.9,0-.9,0-1.2.2-1.2,1.2,0,3,0,6.1,0,9.1,0,.8-.2,1.1-1.1,1.1-1.2,0-2.5,0-3.7,0-.9,0-1.1-.3-1.1-1.1,0-9.4,0-18.7,0-28.1,0-2.1,0-4.1,0-6.2,0-.6.1-.9.8-.9,5.5,0,10.9,0,16.4.1,5.5.2,10.3,4.8,11,10.3.5,4.1-.3,7.8-3.2,10.8-1,1.1-2.4,1.9-3.7,2.8ZM341,166.8c0,.3,0,.4,0,.5,0,4.3,0,8.6,0,12.9,0,.7.3.8.9.8,2.9,0,5.8,0,8.7,0,4,0,7-3,7-7,0-4.1-2.8-7.1-6.9-7.2-1.5,0-3.1,0-4.6,0-1.7,0-3.3,0-5,0Z"/>
  <path class="cls-3" d="M368.4,312.1c0,.5,0,.9,0,1.3,0,7.1,0,14.2,0,21.3,0,5-1.7,9.4-6.1,12.3-5.2,3.4-14.4,3.1-18.9-2.7-2-2.6-3-5.5-3.1-8.7,0-7.6,0-15.1,0-22.7,0-.7.2-.9.9-.9,1.2,0,2.5,0,3.7,0,.9,0,1.2.2,1.2,1.2,0,7.1,0,14.2,0,21.2,0,1.4.3,2.9.8,4.3.8,2.3,2.6,3.7,4.9,4.2,1.4.3,2.8.4,4.2.2,3.8-.5,6.2-3.1,6.6-7,0-1,.1-2,.1-3,0-6.6,0-13.3,0-19.9,0-1.2,0-1.2,1.3-1.2,1.4,0,2.9,0,4.4,0Z"/>
  <path class="cls-3" d="M309.5,223.7c1.2-1.7,2.5-3.1,4.4-4,5-2.4,9.8-1.6,14.1,1.7,4.6,3.6,6.5,8.5,5.2,14.2-1.4,5.9-5.2,9.7-11.2,10.9-8.7,1.8-16.9-5-16.9-13.9,0-7.3,0-14.6,0-21.9,0-1.2,0-1.2,1.3-1.2.7,0,1.4,0,2.1,0,.7,0,.9.2.9.9,0,3.1,0,6.2,0,9.3,0,1.3,0,2.6,0,3.9,0,0,.2,0,.2,0ZM319.3,222.7c-5.6,0-10.1,4.4-10.1,9.8,0,5.5,4.4,9.9,9.9,9.9,5.6,0,9.9-4.3,10-9.9,0-5.5-4.3-9.9-9.8-9.9Z"/>
  <path class="cls-3" d="M371.9,312.1c2.2,0,4.3,0,6.3,0,.3,0,.7.3.9.5,3,4.5,6,9,8.9,13.5.2.3.4.7.8,1.1.8-1.2,1.5-2.2,2.2-3.3,2.5-3.7,4.9-7.4,7.4-11.2.3-.5.7-.7,1.3-.7,2,0,3.9,0,6.1,0-.7,1.1-1.3,2.1-1.9,3-3.9,6-7.8,12-11.6,18.1-.3.4-.4.9-.4,1.4,0,4.1,0,8.3,0,12.4,0,.4,0,.8,0,1.4-1.8,0-3.6,0-5.4,0-.2,0-.5-.6-.5-.9,0-3.8,0-7.5,0-11.3,0-1.7-.4-3-1.3-4.4-4.1-6.2-8.1-12.5-12.1-18.7-.2-.3-.3-.5-.5-1Z"/>
  <path class="cls-3" d="M363.8,161.4c2.3,0,4.4,0,6.5,0,.3,0,.7.4.9.7,2.9,4.3,5.7,8.7,8.6,13,.3.4.6.8.9,1.4,1-1.6,2-3,3-4.5,2.2-3.3,4.4-6.7,6.6-10,.2-.3.7-.7,1-.7,2,0,4.1,0,6.3,0-.2.3-.3.6-.4.8-4.3,6.7-8.7,13.4-13,20.2-.3.5-.5,1.1-.5,1.7,0,4.2,0,8.4,0,12.5,0,.9-.3,1.2-1.1,1.1-1.2,0-2.5,0-3.7,0-.8,0-1.1-.2-1.1-1.1,0-4.1,0-8.3,0-12.4,0-.7-.3-1.6-.7-2.2-4.2-6.6-8.5-13.2-12.7-19.8-.1-.2-.2-.4-.5-.9Z"/>
  <path class="cls-3" d="M342.6,234.1c-.3,2.5,2,5.9,5,7.6,3.7,2,10.1.9,12.8-2.2,1.1.8,2.1,1.7,3.4,2.7-1,.8-1.8,1.6-2.8,2.2-4.5,2.8-12.3,3.6-17,0-4.4-3.4-6.5-7.8-6.1-13.4.3-4.1,1.9-7.5,5-10.2,2.1-1.8,4.5-2.7,7.2-2.9,3.3-.2,6.4.4,9.2,2.3,4.2,3,5.5,7.2,5,12.2-.2,2,.1,1.8-2.1,1.8-6.2,0-12.3,0-18.5,0-.3,0-.7,0-1,0ZM351.1,230.3h0c2.6,0,5.2,0,7.7,0,.8,0,1-.4,1-1,0-2.5-1-4.7-3.1-6-5.1-3.4-12.8-1.6-14.2,5.9-.2,1,0,1.2,1,1.2,2.5,0,5,0,7.5,0Z"/>
  <path class="cls-3" d="M465.2,242.1c-.9.8-1.6,1.5-2.5,2-4.2,2.5-8.7,3.3-13.3,2-5.2-1.5-8.4-5.2-9.7-10.4-1.4-5.6,0-10.7,4.2-14.8,2.1-2,4.7-3,7.6-3.2,4-.2,7.7.7,10.7,3.5,2.3,2.2,3.4,4.9,3.6,8,0,1.3-.1,2.5-.2,3.8,0,.7-.4,1-1.2,1-6.4,0-12.8,0-19.2,0-.4,0-.7,0-1.1,0-.3,2.5,2.1,5.9,4.8,7.5,3.8,2.2,10.4.8,13-2.1,1.1.8,2.1,1.7,3.4,2.7ZM452.5,230.3h0c2.6,0,5.2,0,7.7,0,.8,0,1.1-.3,1-1-.1-2.7-1.2-5-3.6-6.3-5.4-3-12.4-.9-13.7,6.2-.2,1,0,1.2,1,1.2,2.5,0,5,0,7.6,0Z"/>
  <path class="cls-3" d="M320.7,167.1c0,.6,0,.9,0,1.3,0,9.4,0,18.8,0,28.2,0,.9-.2,1.2-1.1,1.1-1.2,0-2.5,0-3.7,0-.9,0-1.1-.3-1.1-1.1,0-9.3,0-18.5,0-27.8,0-.3,0-.5,0-.8,0-.7-.2-1-1-1-2.9,0-5.7,0-8.6,0-.8,0-1-.2-1-1,0-1.3,0-2.5,0-3.8,0-.6.2-.9.9-.9,8.4,0,16.8,0,25.2,0,.7,0,1,.2,1,1,0,1.2,0,2.5,0,3.7,0,.7-.2,1-1,1-2.8,0-5.5,0-8.3,0-.4,0-.7,0-1.3,0Z"/>
  <path class="cls-3" d="M362,275.7c0,7.9-6.4,14.3-14.4,14.2-7.7,0-14.2-6.6-14.1-14.4,0-7.8,6.5-14.2,14.4-14.1,7.8,0,14.1,6.5,14.1,14.3ZM347.7,285.5c5.5,0,9.9-4.2,10-9.8,0-5.5-4.3-9.9-9.8-10-5.6,0-10,4.2-10,9.7,0,5.6,4.2,10,9.8,10Z"/>
  <path class="cls-3" d="M416.4,232.4c.2,7.5-6.4,14.4-14.5,14.3-7.6-.1-14-6.6-14-14.3,0-7.7,6.5-14.3,14.4-14.2,7.9,0,14.3,6.6,14.2,14.3ZM402.1,242.3c5.5,0,10-4.3,10.1-9.7.1-5.4-4.3-10-9.7-10-5.6,0-10.2,4.2-10.2,9.5,0,5.8,4.2,10.2,9.8,10.3Z"/>
  <path class="cls-3" d="M307.5,295.7c1.4-.2,2.6-.3,3.6-.7,2.6-1.1,3.9-3.3,4.5-6,.1-.6,0-1.4-.2-1.9-3.4-8.2-6.8-16.3-10.2-24.4,0-.2-.1-.3-.3-.7,1.5,0,2.9,0,4.3,0,.2,0,.5.4.7.7,2.4,5.5,4.7,11.1,7,16.6.5,1.2,1,2.4,1.7,3.9.9-2.2,1.8-4.1,2.6-6.1,2-4.8,4-9.6,6-14.4.2-.6.6-.8,1.2-.8,1.2,0,2.4,0,3.8,0-.2.5-.4.9-.5,1.3-3.5,8.4-7,16.9-10.6,25.3-1.3,3.1-2.9,6.2-5.4,8.6-2.1,2.1-4.7,2.8-7.6,2.5-.2,0-.6-.4-.6-.6,0-1.2,0-2.3,0-3.4Z"/>
  <path class="cls-3" d="M388.2,262c1.3,0,2.5,0,3.8,0,.7,0,.6.5.6.9,0,4.5,0,9,0,13.5,0,1.7-.3,3.5-.9,5.1-1.6,4.6-5,7.2-9.7,7.8-4.6.7-8.8-.2-12.2-3.8-2.1-2.2-3.1-4.9-3.2-7.8-.1-5,0-9.9,0-14.9,0-.7.2-1,.9-.9.8,0,1.6,0,2.4,0,.8,0,1,.2,1,1,0,4.5,0,8.9,0,13.4,0,2.5.6,4.8,2.4,6.6,1,1,2.2,1.7,3.6,2,3.1.6,6.1.5,8.7-1.7,1.5-1.3,2.3-2.9,2.4-4.8.2-3.4.2-6.7.2-10.1,0-2,0-4.1,0-6.3Z"/>
  <path class="cls-3" d="M386.1,213.5c-1.9-.2-3.6-.5-5.4-.4-2.9,0-4.9,2.6-4.6,5.6.4,0,.7,0,1.1,0,2.6,0,5.3,0,7.9,0,.7,0,1.1.2,1,1,0,.7,0,1.3,0,2q0,1.3-1.4,1.3c-2.4,0-4.7,0-7.1,0q-1.6,0-1.6,1.6c0,6.8,0,13.6,0,20.4,0,.3,0,.6,0,1.1-1.3,0-2.6,0-3.9,0-.1,0-.4-.5-.4-.8,0-1.6,0-3.2,0-4.8,0-5.4,0-10.8,0-16.2q0-1.3-1.2-1.3t-2-2c0-2.2,0-2.2,2.2-2.2.8,0,1.1-.2,1.1-1,.2-3.1,1.2-5.9,4-7.7,1.8-1.2,3.8-1.5,5.9-1.3,1.5.1,2.9.5,4.4.8.6.1.9.4.7,1.1-.3,1-.5,2-.7,2.9Z"/>
  <path class="cls-3" d="M427.7,246.1c-1.4,0-2.6,0-3.8,0-.2,0-.4-.3-.5-.6,0-.2,0-.4,0-.7,0-8.3,0-16.6,0-24.8,0-1.3,0-1.3,1.2-1.3.9,0,2.1-.3,2.7.2.5.4.3,1.7.4,3,.4-.5.5-.8.8-1.1,2.2-1.9,4.8-2.3,7.6-2.1.2,0,.6.3.6.5,0,1.2,0,2.5,0,3.7-1.1,0-2.1,0-3.1.2-3.4.5-6,2.7-5.9,6.6.1,5,0,10.1,0,15.1,0,.4,0,.8,0,1.3Z"/>
</svg>