<?xml version="1.0" encoding="UTF-8"?>
<svg id="Layer_1" data-name="Layer 1" xmlns="http://www.w3.org/2000/svg" version="1.1" viewBox="0 0 27 27">
  <defs>
    <style>
      .cls-1 {
        fill: #fff;
        stroke-width: 0px;
      }
    </style>
  </defs>
  <g id="Icon_feather-instagram" data-name="Icon feather-instagram">
    <path class="cls-1" d="M19.5,26.5H7.5c-3.9,0-7-3.1-7-7V7.5C.5,3.6,3.6.5,7.5.5h12c3.9,0,7,3.1,7,7v12c0,3.9-3.1,7-7,7ZM7.5,2.5c-2.8,0-5,2.2-5,5v12c0,2.8,2.2,5,5,5h12c2.8,0,5-2.2,5-5V7.5c0-2.8-2.2-5-5-5H7.5Z"/>
    <path class="cls-1" d="M13.5,19.2c-2.8,0-5.3-2.1-5.7-5-.5-3.2,1.7-6.1,4.9-6.6.6,0,1.1,0,1.7,0,2.5.4,4.5,2.3,4.9,4.9h0c.2,1.5-.2,3.1-1.1,4.3s-2.3,2.1-3.8,2.3c-.3,0-.6,0-.9,0ZM13.6,9.6c-.2,0-.4,0-.6,0-2.1.3-3.5,2.2-3.2,4.3.3,2.1,2.2,3.5,4.3,3.2,1-.1,1.9-.7,2.5-1.5s.9-1.8.7-2.8h0c-.2-1.7-1.5-3-3.2-3.2-.2,0-.4,0-.6,0Z"/>
    <path class="cls-1" d="M20.1,7.9c-.3,0-.5-.1-.7-.3-.2-.2-.3-.5-.3-.7s.1-.5.3-.7c.4-.4,1-.4,1.4,0,.2.2.3.4.3.7s0,.3,0,.4c0,.1-.1.2-.2.3-.2.2-.5.3-.7.3Z"/>
  </g>
</svg>