<?xml version="1.0" encoding="UTF-8"?>
<svg id="Layer_1" data-name="Layer 1" xmlns="http://www.w3.org/2000/svg" version="1.1" viewBox="0 0 24 24">
  <defs>
    <style>
      .cls-1 {
        fill: #fff;
        stroke-width: 0px;
      }
    </style>
  </defs>
  <path id="Icon_awesome-linkedin" data-name="Icon awesome-linkedin" class="cls-1" d="M22.3,0H1.7C.8,0,0,.8,0,1.7v20.5c0,.9.8,1.7,1.7,1.7h20.6c1,0,1.7-.8,1.7-1.7V1.7c0-1-.8-1.7-1.7-1.7ZM7.3,20.6h-3.6v-11.5h3.6v11.5h0ZM5.5,7.6c-1.1,0-2.1-.9-2.1-2.1,0-1.1.9-2.1,2.1-2.1,1.1,0,2.1.9,2.1,2.1,0,0,0,0,0,0,0,1.1-.9,2.1-2.1,2.1ZM20.6,20.6h-3.6v-5.6c0-1.3,0-3-1.8-3s-2.1,1.4-2.1,2.9v5.7h-3.6v-11.5h3.4v1.6h0c.7-1.2,2-1.9,3.4-1.8,3.6,0,4.3,2.4,4.3,5.5v6.3Z"/>
</svg>