<svg xmlns="http://www.w3.org/2000/svg" xmlns:xlink="http://www.w3.org/1999/xlink" width="231" height="246" viewBox="0 0 231 246">
  <defs>
    <radialGradient id="radial-gradient" cx="0.107" cy="0.177" r="1.357" gradientTransform="matrix(0.999, 0.034, -0.03, 0.898, 0.005, 0.015)" gradientUnits="objectBoundingBox">
      <stop offset="0" stop-color="#0b66ec"/>
      <stop offset="0.3" stop-color="#0b66ec"/>
      <stop offset="1" stop-color="#f46898" stop-opacity="0.122"/>
    </radialGradient>
  </defs>
  <path id="Union_16" data-name="Union 16" d="M115.5,230.953A71.477,71.477,0,0,1,71.5,246C32.016,246,0,214.183,0,174.933A70.674,70.674,0,0,1,22.694,123,70.675,70.675,0,0,1,0,71.067C0,31.817,32.016,0,71.5,0a71.477,71.477,0,0,1,44,15.047A71.462,71.462,0,0,1,159.5,0C198.989,0,231,31.817,231,71.067A70.678,70.678,0,0,1,208.309,123,70.676,70.676,0,0,1,231,174.933C231,214.183,198.989,246,159.5,246A71.462,71.462,0,0,1,115.5,230.953Zm27.5-56.02a70.691,70.691,0,0,1-23.208,52.41,66.154,66.154,0,0,0,100.527-26.878,65.282,65.282,0,0,0-14.147-71.919q-1.006-1-2.045-1.949a71.953,71.953,0,0,1-72.433,9.962A70.426,70.426,0,0,1,143,174.933ZM24.83,128.546A65.634,65.634,0,0,0,71.5,240.532a65.934,65.934,0,0,0,39.71-13.189,70.776,70.776,0,0,1-11.9-90.784A71.949,71.949,0,0,1,26.877,126.6Q25.836,127.548,24.83,128.546ZM98.683,149.4a65.28,65.28,0,0,0,14.147,71.919q1.305,1.3,2.67,2.511c.907-.809,1.8-1.647,2.669-2.511a65.267,65.267,0,0,0,1.522-91.209q-2.151-1.438-4.191-3.022-2.038,1.584-4.192,3.022A65.321,65.321,0,0,0,98.683,149.4Zm35.129-17.888A66.248,66.248,0,0,0,199.837,123a66.254,66.254,0,0,0-76.574-2.911q-1.435,1.5-2.957,2.91,1.521,1.412,2.959,2.911A65.659,65.659,0,0,0,133.813,131.512Zm-88,0a66.256,66.256,0,0,0,61.922-5.6q1.435-1.5,2.96-2.913-1.519-1.411-2.957-2.91A66.236,66.236,0,0,0,31.163,123,65.776,65.776,0,0,0,45.812,131.512Zm0-120.894A66.042,66.042,0,0,0,10.688,45.531,65.3,65.3,0,0,0,24.83,117.454q1.006,1,2.046,1.949a71.948,71.948,0,0,1,72.437-9.96,70.768,70.768,0,0,1,11.9-90.786,66.441,66.441,0,0,0-65.4-8.039ZM204.124,119.4q1.041-.949,2.045-1.947a65.8,65.8,0,0,0-86.379-98.8,70.771,70.771,0,0,1,11.9,90.784,71.955,71.955,0,0,1,72.436,9.959Zm-88.624-.49q2.038-1.583,4.191-3.021a65.27,65.27,0,0,0-1.522-91.209c-.869-.864-1.761-1.7-2.669-2.511q-1.363,1.213-2.67,2.511a65.27,65.27,0,0,0-1.522,91.21Q113.462,117.328,115.5,118.912Z" fill="url(#radial-gradient)"/>
</svg>
