<svg xmlns="http://www.w3.org/2000/svg" xmlns:xlink="http://www.w3.org/1999/xlink" width="296.038" height="336.003" viewBox="0 0 296.038 336.003">
  <defs>
    <linearGradient id="linear-gradient" x1="0.195" y1="0.198" x2="0.797" y2="1" gradientUnits="objectBoundingBox">
      <stop offset="0" stop-color="#0b66ec"/>
      <stop offset="1" stop-color="#facada"/>
    </linearGradient>
    <linearGradient id="linear-gradient-2" x1="0.142" y1="0.109" x2="0.74" y2="0.934" gradientUnits="objectBoundingBox">
      <stop offset="0" stop-color="#f46898"/>
      <stop offset="1" stop-color="#0b66ec" stop-opacity="0.22"/>
    </linearGradient>
  </defs>
  <g id="Group_39489" data-name="Group 39489" transform="translate(-1064.001 -2502.959)">
    <path id="Icon_awesome-star" data-name="Icon awesome-star" d="M96.725-2.5a14.036,14.036,0,0,1,7.143,1.94,13.84,13.84,0,0,1,5.347,5.8l0,0L131.9,51.235l50.754,7.4a13.8,13.8,0,0,1,7.166,3.281,14.092,14.092,0,0,1,4.4,13.563,13.82,13.82,0,0,1-3.879,6.875l-36.718,35.78,8.685,50.545a13.836,13.836,0,0,1-.306,6.157,13.588,13.588,0,0,1-2.71,5.082,14.275,14.275,0,0,1-4.76,3.665,13.959,13.959,0,0,1-5.944,1.349,13.709,13.709,0,0,1-6.439-1.61l-45.4-23.866-45.4,23.865a13.664,13.664,0,0,1-6.455,1.625,13.912,13.912,0,0,1-5.933-1.349,14.275,14.275,0,0,1-4.751-3.661,13.619,13.619,0,0,1-2.715-5.091,13.846,13.846,0,0,1-.308-6.164l8.685-50.546L3.153,82.352A13.819,13.819,0,0,1-.725,75.478a14.092,14.092,0,0,1,4.4-13.563,13.8,13.8,0,0,1,7.168-3.281l50.752-7.4L84.282,5.24A13.827,13.827,0,0,1,89.615-.57,13.941,13.941,0,0,1,96.725-2.5Zm8.009,9.952a8.732,8.732,0,0,0-3.41-3.709,9.033,9.033,0,0,0-4.6-1.244,8.939,8.939,0,0,0-4.56,1.232,8.72,8.72,0,0,0-3.4,3.721L64.919,55.8,11.565,63.582a8.694,8.694,0,0,0-4.583,2.085,9.093,9.093,0,0,0-2.829,8.716A8.714,8.714,0,0,0,6.642,78.77l38.6,37.617-9.13,53.137a8.692,8.692,0,0,0,1.918,7.186,9.1,9.1,0,0,0,6.861,3.234,8.716,8.716,0,0,0,4.118-1.045l.008,0L96.75,153.806l47.731,25.089a8.76,8.76,0,0,0,4.112,1.035,9.127,9.127,0,0,0,6.882-3.237,8.671,8.671,0,0,0,1.91-7.171l-9.13-53.135,38.6-37.616a8.715,8.715,0,0,0,2.489-4.389,9.093,9.093,0,0,0-2.829-8.716,8.692,8.692,0,0,0-4.581-2.085L128.581,55.8Z" transform="translate(1114.599 2582.961)" fill="url(#linear-gradient)"/>
    <path id="Path_56485" data-name="Path 56485" d="M15926.461-3886.038v-48h5v48Zm85.583-81.382,3.539-3.535,22.627,22.627-3.539,3.535Zm-192.331,19.092,22.627-22.627,3.535,3.535-22.627,22.627Zm229.251-103.213v-5h28v5Zm-268.041,0v-5h28.036v5Zm231.121-89.118,22.627-22.627,3.539,3.535-22.627,22.627Zm-192.331-19.092,3.535-3.535,22.627,22.627-3.535,3.535Zm106.748-14.289v-48h5v48Z" transform="translate(-14716.921 6725)" fill="url(#linear-gradient-2)"/>
  </g>
</svg>
