<svg width="247" height="74" viewBox="0 0 247 74" fill="none" xmlns="http://www.w3.org/2000/svg">
<rect width="74" height="74" rx="37" fill="#0A66EC"/>
<path d="M38.3496 22.4C38.3087 22.0149 38.1354 21.6593 37.8626 21.401C37.5898 21.1428 37.2367 21 36.8707 21C36.5048 21 36.1517 21.1428 35.8789 21.401C35.6061 21.6593 35.4327 22.0149 35.3919 22.4C34.9343 26.5919 33.7549 29.4994 31.8836 31.4812C30.0122 33.4629 27.2666 34.7118 23.3044 35.1964C22.944 35.2438 22.6124 35.4293 22.3722 35.7177C22.1319 36.0061 21.9995 36.3776 22 36.7622C22.0005 37.1468 22.1337 37.5179 22.3746 37.8057C22.6156 38.0935 22.9476 38.278 23.3081 38.3245C27.2033 38.7934 30.0085 40.0423 31.9282 42.0358C33.8331 44.0214 35.0384 46.925 35.3882 51.0815C35.425 51.4702 35.5969 51.8306 35.8705 52.0927C36.1441 52.3549 36.4999 52.5 36.8689 52.5C37.2378 52.5 37.5936 52.3549 37.8672 52.0927C38.1408 51.8306 38.3127 51.4702 38.3496 51.0815C38.6844 46.992 39.8861 44.0214 41.8095 41.9885C43.7255 39.9556 46.5307 38.683 50.3887 38.3324C50.7598 38.2988 51.1054 38.1191 51.3574 37.8287C51.6095 37.5384 51.7495 37.1586 51.75 36.7642C51.7505 36.3699 51.6113 35.9896 51.36 35.6987C51.1086 35.4077 50.7634 35.227 50.3925 35.1924C46.4675 34.8221 43.7255 33.5456 41.8505 31.5284C39.968 29.4955 38.7886 26.5249 38.3496 22.4Z" fill="white"/>
<rect x="173" width="74" height="74" rx="37" fill="#0A66EC"/>
<mask id="mask0_98_1184" style="mask-type:alpha" maskUnits="userSpaceOnUse" x="192" y="18" width="38" height="38">
<rect x="192" y="18" width="38" height="38" fill="#D9D9D9"/>
</mask>
<g mask="url(#mask0_98_1184)">
<path d="M193.583 49.6667V43.3334C193.583 42.4362 193.893 41.6841 194.514 41.0771C195.134 40.4702 195.879 40.1667 196.75 40.1667H201.935C202.463 40.1667 202.965 40.2987 203.44 40.5625C203.915 40.8264 204.297 41.1827 204.588 41.6313C205.353 42.6605 206.296 43.4653 207.418 44.0459C208.539 44.6264 209.733 44.9167 211 44.9167C212.293 44.9167 213.5 44.6264 214.622 44.0459C215.743 43.4653 216.674 42.6605 217.413 41.6313C217.756 41.1827 218.158 40.8264 218.62 40.5625C219.082 40.2987 219.563 40.1667 220.065 40.1667H225.25C226.147 40.1667 226.899 40.4702 227.506 41.0771C228.113 41.6841 228.417 42.4362 228.417 43.3334V49.6667H217.333V46.0646C216.41 46.7243 215.414 47.2257 214.345 47.5688C213.276 47.9118 212.161 48.0834 211 48.0834C209.865 48.0834 208.757 47.9053 207.675 47.549C206.593 47.1928 205.59 46.6848 204.667 46.025V49.6667H193.583ZM211 43.3334C209.997 43.3334 209.047 43.1025 208.15 42.6407C207.253 42.1789 206.501 41.5389 205.894 40.7209C205.445 40.0612 204.884 39.54 204.211 39.1573C203.539 38.7747 202.806 38.5834 202.015 38.5834C202.595 37.607 203.822 36.8351 205.696 36.2677C207.569 35.7004 209.338 35.4167 211 35.4167C212.663 35.4167 214.431 35.7004 216.304 36.2677C218.178 36.8351 219.405 37.607 219.985 38.5834C219.22 38.5834 218.494 38.7747 217.808 39.1573C217.122 39.54 216.555 40.0612 216.106 40.7209C215.526 41.5653 214.787 42.2118 213.89 42.6605C212.992 43.1091 212.029 43.3334 211 43.3334ZM198.333 38.5834C197.014 38.5834 195.892 38.1216 194.969 37.198C194.045 36.2743 193.583 35.1528 193.583 33.8334C193.583 32.4875 194.045 31.3594 194.969 30.449C195.892 29.5386 197.014 29.0834 198.333 29.0834C199.679 29.0834 200.807 29.5386 201.718 30.449C202.628 31.3594 203.083 32.4875 203.083 33.8334C203.083 35.1528 202.628 36.2743 201.718 37.198C200.807 38.1216 199.679 38.5834 198.333 38.5834ZM223.667 38.5834C222.347 38.5834 221.226 38.1216 220.302 37.198C219.379 36.2743 218.917 35.1528 218.917 33.8334C218.917 32.4875 219.379 31.3594 220.302 30.449C221.226 29.5386 222.347 29.0834 223.667 29.0834C225.013 29.0834 226.141 29.5386 227.051 30.449C227.961 31.3594 228.417 32.4875 228.417 33.8334C228.417 35.1528 227.961 36.2743 227.051 37.198C226.141 38.1216 225.013 38.5834 223.667 38.5834ZM211 33.8334C209.681 33.8334 208.559 33.3716 207.635 32.448C206.712 31.5243 206.25 30.4028 206.25 29.0834C206.25 27.7375 206.712 26.6094 207.635 25.699C208.559 24.7886 209.681 24.3334 211 24.3334C212.346 24.3334 213.474 24.7886 214.384 25.699C215.295 26.6094 215.75 27.7375 215.75 29.0834C215.75 30.4028 215.295 31.5243 214.384 32.448C213.474 33.3716 212.346 33.8334 211 33.8334Z" fill="white"/>
</g>
<rect x="87" width="74" height="74" rx="37" fill="#0A66EC"/>
<mask id="mask1_98_1184" style="mask-type:alpha" maskUnits="userSpaceOnUse" x="105" y="23" width="38" height="38">
<rect x="105" y="23" width="38" height="38" fill="#D9D9D9"/>
</mask>
<g mask="url(#mask1_98_1184)">
<mask id="mask2_98_1184" style="mask-type:alpha" maskUnits="userSpaceOnUse" x="108" y="25" width="32" height="32">
<rect x="108" y="25" width="32" height="32" fill="#D9D9D9"/>
</mask>
<g mask="url(#mask2_98_1184)">
<path d="M121.333 49C120.6 49 119.972 48.7388 119.45 48.2166C118.928 47.6944 118.667 47.0666 118.667 46.3333V44.6666C117.4 43.8 116.417 42.6888 115.717 41.3333C115.017 39.9777 114.667 38.5333 114.667 37C114.667 34.4 115.572 32.1944 117.383 30.3833C119.194 28.5722 121.4 27.6666 124 27.6666C126.6 27.6666 128.806 28.5722 130.617 30.3833C132.428 32.1944 133.333 34.4 133.333 37C133.333 38.5333 132.983 39.9722 132.283 41.3166C131.583 42.6611 130.6 43.7777 129.333 44.6666V46.3333C129.333 47.0666 129.072 47.6944 128.55 48.2166C128.028 48.7388 127.4 49 126.667 49H121.333ZM121.333 54.3333C120.956 54.3333 120.639 54.2055 120.383 53.95C120.128 53.6944 120 53.3777 120 53V51.6666H128V53C128 53.3777 127.872 53.6944 127.617 53.95C127.361 54.2055 127.044 54.3333 126.667 54.3333H121.333Z" fill="white"/>
</g>
</g>
<path d="M124 15V21" stroke="white" stroke-width="3"/>
<path d="M105 25L110 28" stroke="white" stroke-width="3"/>
<path d="M142.028 25L137 28" stroke="white" stroke-width="3"/>
</svg>
