<svg xmlns="http://www.w3.org/2000/svg" xmlns:xlink="http://www.w3.org/1999/xlink" width="1612.688" height="342.351" viewBox="0 0 1612.688 342.351">
  <defs>
    <linearGradient id="linear-gradient" x1="0.988" y1="0.074" x2="0.047" y2="0.959" gradientUnits="objectBoundingBox">
      <stop offset="0" stop-color="#f46898"/>
      <stop offset="0.352" stop-color="#48469b"/>
      <stop offset="1" stop-color="#3c3c3c"/>
    </linearGradient>
  </defs>
  <g id="Group_39488" data-name="Group 39488" transform="translate(11604.344 -10074.983)">
    <g id="Group_39487" data-name="Group 39487" transform="translate(-11785.266 5338.245)">
      <path id="Path_56472" data-name="Path 56472" d="M-12181.212,11074.089l-4.943-2.9c.081-.14,2.039-3.463,5.942-9.107,3.582-5.18,9.555-13.38,17.669-23.035a356.6,356.6,0,0,1,29.447-31.022,343.16,343.16,0,0,1,41.288-33.057c36.584-24.852,76.392-41.09,118.316-48.264a299.227,299.227,0,0,1,37.028-3.961,318,318,0,0,1,39.993.784,352.693,352.693,0,0,1,42.94,6.268,406.847,406.847,0,0,1,45.88,12.49c128.941,43.149,243.16,73.922,330.308,88.987,40.967,7.083,75.734,10.659,103.545,10.659q4.887,0,9.488-.147c30.216-.969,50.941-6.678,61.6-16.969a26.043,26.043,0,0,0,6.711-10.076,23.725,23.725,0,0,0,1.009-10.966c-1.268-9.711-7.73-21.073-19.211-33.768-9.378-10.371-22.059-21.573-37.687-33.3-7.7-5.776-20.334-14.813-36.784-25.059-9.83-6.125-16.427-9.807-16.491-9.844l1.681-5.357c.176.019,17.892,1.784,47.21,3.96,27.055,2,69.806,4.777,119.823,6.595,35.8,1.3,70.614,1.953,104.029,1.953q28.559,0,55.687-.636c62.186-1.458,118.319-5.448,166.848-11.86a572.913,572.913,0,0,0,75.187-15.133,577.861,577.861,0,0,0,66.228-22.452,590.388,590.388,0,0,0,104.273-55.359c12.9-8.6,25.471-17.734,37.376-27.144,9.519-7.523,18.633-15.241,27.086-22.936,14.359-13.072,21.889-21.611,21.963-21.7l4.31,3.782a310.049,310.049,0,0,1-22.412,22.152c-8.553,7.784-17.769,15.589-27.39,23.2-12.025,9.506-24.727,18.729-37.752,27.415a596.093,596.093,0,0,1-105.288,55.9,584.167,584.167,0,0,1-66.89,22.677,578.2,578.2,0,0,1-75.941,15.282c-48.736,6.44-105.087,10.448-167.487,11.91q-27.146.639-55.8.637c-33.5,0-68.386-.653-104.278-1.958-50.106-1.821-92.933-4.6-120.035-6.609-14.63-1.085-26.38-2.068-34.512-2.786,1.72,1.042,3.6,2.194,5.607,3.447,9.175,5.714,23.076,14.749,37.192,25.338,15.922,11.942,28.875,23.4,38.5,34.039a112.109,112.109,0,0,1,13.79,18.359c3.795,6.52,6.1,12.747,6.854,18.512,1.293,9.905-1.878,18.622-9.422,25.908a46.6,46.6,0,0,1-11.222,7.821,78.133,78.133,0,0,1-14.762,5.571c-10.7,2.943-23.96,4.688-39.412,5.182q-4.68.152-9.655.149c-28.149,0-63.249-3.6-104.538-10.741-44.189-7.64-95.425-19.311-152.279-34.687-55.285-14.954-115.466-33.295-178.871-54.513a400.814,400.814,0,0,0-45.231-12.313,347.016,347.016,0,0,0-42.239-6.169,312.4,312.4,0,0,0-39.268-.769,293.206,293.206,0,0,0-36.317,3.884c-41.11,7.034-80.161,22.967-116.061,47.355a337.272,337.272,0,0,0-40.6,32.5,351,351,0,0,0-28.974,30.521C-12173.392,11060.864-12181.135,11073.959-12181.212,11074.089Z" transform="translate(12367.077 -5995)" fill="url(#linear-gradient)"/>
    </g>
    <path id="Icon_awesome-telegram-plane" data-name="Icon awesome-telegram-plane" d="M81.532,10.771,69.194,68.96c-.931,4.107-3.358,5.129-6.808,3.194L43.585,58.3l-9.072,8.725a4.721,4.721,0,0,1-3.778,1.844l1.351-19.147L66.93,18.236c1.515-1.351-.329-2.1-2.355-.748L21.5,44.611l-18.545-5.8c-4.034-1.259-4.107-4.034.84-5.969L76.33,4.893c3.358-1.259,6.3.748,5.2,5.877Z" transform="matrix(0.866, 0.5, -0.5, 0.866, -10245.451, 10129.578)" fill="#fff" opacity="0.843"/>
    <path id="Icon_awesome-telegram-plane-2" data-name="Icon awesome-telegram-plane" d="M44.268,58.826c-.014-.083-.03,0,0,0l-9.559,9.09a4.965,4.965,0,0,1-3.973,1.938l1.42-20.133Z" transform="matrix(0.866, 0.5, -0.5, 0.866, -10245.539, 10129.335)" fill="#797979"/>
  </g>
</svg>
