<svg xmlns="http://www.w3.org/2000/svg" width="96.725" height="87.396" viewBox="0 0 96.725 87.396">
  <g id="Group_39553" data-name="Group 39553" transform="matrix(0.966, -0.259, 0.259, 0.966, -2563.73, -4305.057)">
    <path id="Icon_awesome-telegram-plane" data-name="Icon awesome-telegram-plane" d="M81.532,10.771,69.194,68.96c-.931,4.107-3.358,5.129-6.808,3.194L43.585,58.3l-9.072,8.725a4.721,4.721,0,0,1-3.778,1.844l1.351-19.147L66.93,18.236c1.515-1.351-.329-2.1-2.355-.748L21.5,44.611l-18.545-5.8c-4.034-1.259-4.107-4.034.84-5.969L76.33,4.893c3.358-1.259,6.3.748,5.2,5.877Z" transform="matrix(0.866, 0.5, -0.5, 0.866, 1381.549, 4822.578)" fill="#fff"/>
    <path id="Icon_awesome-telegram-plane-2" data-name="Icon awesome-telegram-plane" d="M44.268,58.826c-.014-.083-.03,0,0,0l-9.559,9.09a4.965,4.965,0,0,1-3.973,1.938l1.42-20.133Z" transform="matrix(0.866, 0.5, -0.5, 0.866, 1381.461, 4822.335)" fill="#606060"/>
  </g>
</svg>
