<?xml version="1.0" encoding="UTF-8"?>
<svg id="Group_38543" data-name="Group 38543" xmlns="http://www.w3.org/2000/svg" version="1.1" xmlns:xlink="http://www.w3.org/1999/xlink" viewBox="0 0 197.7 21">
  <defs>
    <style>
      .cls-1 {
        fill: none;
      }

      .cls-1, .cls-2 {
        stroke-width: 0px;
      }

      .cls-3 {
        clip-path: url(#clippath);
      }

      .cls-2 {
        fill: #fff;
      }
    </style>
    <clipPath id="clippath">
      <rect class="cls-1" width="197.7" height="21"/>
    </clipPath>
  </defs>
  <g class="cls-3">
    <g id="Group_38542" data-name="Group 38542">
      <path id="Path_56196" data-name="Path 56196" class="cls-2" d="M6.2,20.6c0,0-.1-.2,0-.2v-7.4c0,0,0-.1,0-.2L0,.6c0,0,0-.1,0-.2,0-.2.1-.2.3-.2h3.7c.2,0,.3,0,.4.3l3.7,7.8c0,.1.1.1.2,0L11.9.5c0-.2.2-.3.4-.3h3.8c.1,0,.2,0,.3.1,0,0,0,.2,0,.3l-6.1,12.2c0,0,0,.1,0,.2v7.4c0,.2-.2.4-.3.4,0,0,0,0,0,0h-3.4c0,0-.2,0-.2-.1"/>
      <path id="Path_56197" data-name="Path 56197" class="cls-2" d="M28.4,20.1c-1.1-.6-2-1.4-2.7-2.5-.6-1.1-1-2.4-1-3.7V.6c0,0,0-.2.1-.2,0,0,.2-.1.2-.1h3.4c0,0,.2,0,.2.1,0,0,.1.2.1.2v13.4c-.1,1.8,1.3,3.4,3.1,3.5.1,0,.3,0,.4,0,1.8.1,3.4-1.3,3.5-3.1,0-.1,0-.3,0-.4V.6c0,0,0-.2.1-.2,0,0,.2-.1.2-.1h3.4c0,0,.2,0,.2.1,0,0,.1.2.1.2v13.4c0,1.3-.3,2.6-1,3.7-.6,1.1-1.6,1.9-2.7,2.5-1.2.6-2.6.9-4,.9-1.4,0-2.7-.3-4-.9"/>
      <path id="Path_56198" data-name="Path 56198" class="cls-2" d="M62.9.2h3.4c0,0,.2,0,.2.1,0,0,.1.2,0,.2v19.8c0,.2-.2.4-.3.4,0,0,0,0,0,0h-3.4c-.2,0-.4-.2-.4-.3,0,0,0,0,0,0V7.5c0,0,0-.1,0-.1s0,0-.1,0l-3.1,4.9c0,.1-.2.2-.4.2h-1.7c-.2,0-.3,0-.4-.2l-3.1-4.9c0,0,0,0-.1,0,0,0,0,0,0,.1v12.9c0,.2-.2.4-.3.4,0,0,0,0,0,0h-3.4c-.2,0-.4-.2-.4-.3,0,0,0,0,0,0V.6c0,0,0-.2.1-.2,0,0,.2-.1.2-.1h3.4c.2,0,.3,0,.4.2l4.4,6.8c0,.1.1.1.2,0L62.5.5c0-.1.2-.2.4-.2"/>
      <path id="Path_56199" data-name="Path 56199" class="cls-2" d="M90.3,3.7c0,0-.2.1-.2,0h-9.6c0,0-.1,0-.1.1,0,0,0,0,0,0v4.5c0,0,0,.1.1.1,0,0,0,0,0,0h6.3c.2,0,.4.2.4.3,0,0,0,0,0,0v2.8c0,.2-.2.4-.3.4,0,0,0,0,0,0h-6.3c0,0-.1,0-.1.1,0,0,0,0,0,0v4.8c0,0,0,.1.1.1,0,0,0,0,0,0h9.6c.2,0,.4.2.4.3,0,0,0,0,0,0v2.8c0,0,0,.2,0,.2,0,0-.2.1-.2.1h-13.6c0,0-.2,0-.2-.1,0,0-.1-.2-.1-.2V.6c0,0,0-.2.1-.2,0,0,.2-.1.2-.1h13.6c0,0,.2,0,.2.1,0,0,.1.2,0,.2v2.9c0,0,0,.2,0,.2"/>
      <path id="Path_56200" data-name="Path 56200" class="cls-2" d="M111,20.7c0,0-.1-.2,0-.2V.6c0,0,0-.2,0-.2,0,0,.2-.1.2-.1h3.4c0,0,.2,0,.2.1,0,0,.1.2,0,.2v16.5c0,0,0,.1.1.1,0,0,0,0,0,0h9.6c.2,0,.4.2.4.3,0,0,0,0,0,0v2.8c0,.2-.2.4-.3.4,0,0,0,0,0,0h-13.5c0,0-.2,0-.2-.1"/>
      <path id="Path_56201" data-name="Path 56201" class="cls-2" d="M146.2,20.5l-.9-2.9c0,0,0-.1-.1-.1h-7.2c0,0-.1,0-.1.1l-.9,2.9c0,.2-.2.3-.4.3h-3.7c0,0-.2,0-.3-.1,0,0,0-.2,0-.3l6.3-19.8c0-.2.2-.3.4-.3h4.6c.2,0,.3.1.4.3l6.3,19.8s0,0,0,.1c0,.2-.1.3-.3.3h-3.7c-.2,0-.3-.1-.4-.3M139,14.3h5.2c.1,0,.2,0,.1-.2l-2.6-8.7c0,0,0-.1,0,0s0,0,0,0l-2.6,8.7c0,.1,0,.2.1.2"/>
      <path id="Path_56202" data-name="Path 56202" class="cls-2" d="M171.3,10.2c1.8.9,2.9,2.8,2.8,4.8.1,1.7-.6,3.3-1.9,4.3-1.5,1-3.3,1.5-5.1,1.5h-7.6c-.2,0-.4-.2-.4-.4h0V.6c0,0,0-.2,0-.2,0,0,.2-.1.2-.1h7.4c4.6,0,7,1.9,7,5.6.1,1.8-.9,3.4-2.5,4.2-.1,0-.1.1,0,.2M163.2,3.9v4.6c0,0,0,.1.1.1,0,0,0,0,0,0h3.4c.8,0,1.5-.2,2.1-.6.5-.4.8-1.1.8-1.8,0-.7-.2-1.4-.8-1.8-.6-.5-1.4-.7-2.1-.7h-3.4c0,0-.1,0-.1.1,0,0,0,0,0,0M169.2,16.5c.5-.5.8-1.2.8-1.9,0-.7-.2-1.4-.8-1.9-.6-.5-1.4-.7-2.1-.7h-3.6c0,0-.1,0-.1.1,0,0,0,0,0,0v4.9c0,0,0,.1.1.1,0,0,0,0,0,0h3.7c.8,0,1.5-.2,2.1-.7"/>
      <path id="Path_56203" data-name="Path 56203" class="cls-2" d="M186.1,20.3c-1.1-.4-2-1.2-2.7-2.1-.6-1-1-2.1-1-3.2v-.6c0-.2.2-.4.3-.4,0,0,0,0,0,0h3.3c.2,0,.4.2.4.3h0v.4c0,.8.4,1.5,1.1,2,.9.6,1.9.9,2.9.8.8,0,1.6-.2,2.3-.7.5-.4.8-1,.8-1.6,0-.4-.2-.9-.5-1.2-.4-.4-.8-.6-1.3-.9-.5-.2-1.4-.6-2.6-1-1.1-.4-2.3-.8-3.3-1.4-.9-.5-1.7-1.1-2.3-1.9-.6-.9-1-1.9-.9-3,0-1.1.3-2.2.9-3.1.6-.9,1.5-1.6,2.5-2,1.2-.5,2.5-.7,3.7-.7,1.4,0,2.7.2,4,.8,1.1.5,2,1.2,2.7,2.2.7,1,1,2.1,1,3.3v.4c0,.2-.2.4-.3.4,0,0,0,0,0,0h-3.4c-.2,0-.4-.2-.4-.3h0v-.2c0-.8-.4-1.6-1-2.1-.8-.6-1.8-.9-2.8-.9-.8,0-1.5.2-2.2.6-.5.4-.8,1-.8,1.6,0,.5.1.9.5,1.2.4.4.8.7,1.3.9.6.3,1.5.6,2.8,1.1,1.1.4,2.2.8,3.3,1.4.8.4,1.6,1,2.1,1.7.7.9,1,1.9,1,3,0,1.7-.7,3.3-2,4.4-1.6,1.1-3.5,1.7-5.5,1.6-1.4,0-2.8-.2-4.1-.7"/>
    </g>
  </g>
</svg>