<svg id="Group_5086" data-name="Group 5086" xmlns="http://www.w3.org/2000/svg" xmlns:xlink="http://www.w3.org/1999/xlink" width="23.726" height="32" viewBox="0 0 23.726 32">
  <defs>
    <clipPath id="clip-path">
      <rect id="Rectangle_3327" data-name="Rectangle 3327" width="6.921" height="18.819" transform="translate(0 0)" fill="none"/>
    </clipPath>
  </defs>
  <g id="Logo_exploration_v_copy" data-name="Logo exploration_v copy">
    <rect id="Rectangle_3326" data-name="Rectangle 3326" width="6.921" height="6.921" transform="translate(0.014 0)" fill="#0a66ec"/>
    <path id="Path_35878" data-name="Path 35878" d="M47.638,62.523H40.717c0-4.715,2.878-10.362,5.343-13.765,1.251-1.726,2.6-3.349,3.9-4.918,1.239-1.491,2.41-2.9,3.491-4.376,1.746-2.385,4.068-5.907,4.068-8.941h6.921c0,5.006-2.888,9.593-5.4,13.03-1.207,1.649-2.5,3.206-3.753,4.712-1.288,1.55-2.505,3.014-3.621,4.554-2.3,3.17-4.027,7.342-4.027,9.7Z" transform="translate(-40.717 -30.523)" fill="#253f9c" style="mix-blend-mode: normal;isolation: isolate"/>
    <g id="Group_4854" data-name="Group 4854" transform="translate(0.014 13.181)" clip-path="url(#clip-path)">
      <g id="Group_4853" data-name="Group 4853" transform="translate(-0.014 -13.181)" style="mix-blend-mode: normal;isolation: isolate">
        <path id="Path_35879" data-name="Path 35879" d="M50.717,62.524c0-3.61,2.366-8.533,4.685-11.735s5.049-6.089,7.384-9.28c2.249-3.072,4.736-7.054,4.736-10.986" transform="translate(-47.257 -30.524)" fill="#253f9c"/>
        <path id="Path_35880" data-name="Path 35880" d="M47.638,62.523H40.717c0-4.715,2.878-10.362,5.343-13.765,1.251-1.726,2.6-3.349,3.9-4.918,1.239-1.491,2.41-2.9,3.491-4.376,1.746-2.385,4.068-5.907,4.068-8.941h6.921c0,5.006-2.888,9.593-5.4,13.03-1.207,1.649-2.5,3.206-3.753,4.712-1.288,1.55-2.505,3.014-3.621,4.554-2.3,3.17-4.027,7.342-4.027,9.7Z" transform="translate(-40.717 -30.523)" fill="#f46997"/>
      </g>
    </g>
  </g>
</svg>
