<svg xmlns="http://www.w3.org/2000/svg" xmlns:xlink="http://www.w3.org/1999/xlink" width="197.7" height="21" viewBox="0 0 197.7 21">
  <defs>
    <clipPath id="clip-path">
      <rect id="Rectangle_7407" data-name="Rectangle 7407" width="197.7" height="21" fill="none"/>
    </clipPath>
  </defs>
  <g id="yume-logo-text-white" clip-path="url(#clip-path)">
    <g id="Group_38542" data-name="Group 38542">
      <path id="Path_56196" data-name="Path 56196" d="M6.2,20.6s-.1-.2,0-.2V12.8L0,.6V.4C0,.2.1.2.3.2H4c.2,0,.3,0,.4.3L8.1,8.3c0,.1.1.1.2,0L11.9.5c0-.2.2-.3.4-.3h3.8a.367.367,0,0,1,.3.1V.6L10.3,12.8v7.6a.446.446,0,0,1-.3.4H6.6s-.2,0-.2-.1" fill="#253f9c"/>
      <path id="Path_56197" data-name="Path 56197" d="M28.4,20.1a7.186,7.186,0,0,1-2.7-2.5,7.873,7.873,0,0,1-1-3.7V.6s0-.2.1-.2L25,.3h3.4s.2,0,.2.1l.1.2V14a3.336,3.336,0,0,0,3.1,3.5h.4a3.336,3.336,0,0,0,3.5-3.1V.6s0-.2.1-.2L36,.3h3.4s.2,0,.2.1l.1.2V14a6.863,6.863,0,0,1-1,3.7A6.52,6.52,0,0,1,36,20.2a9.021,9.021,0,0,1-4,.9,9.34,9.34,0,0,1-4-.9" fill="#253f9c"/>
      <path id="Path_56198" data-name="Path 56198" d="M62.9.2h3.4s.2,0,.2.1c0,0,.1.2,0,.2V20.3a.446.446,0,0,1-.3.4H62.8a.446.446,0,0,1-.4-.3h0V7.4h-.1l-3.1,4.9c0,.1-.2.2-.4.2H57.1c-.2,0-.3,0-.4-.2L53.6,7.4h-.1v13a.446.446,0,0,1-.3.4H49.8a.446.446,0,0,1-.4-.3h0V.6s0-.2.1-.2l.2-.1h3.4c.2,0,.3,0,.4.2l4.4,6.8c0,.1.1.1.2,0L62.5.5c0-.1.2-.2.4-.2" fill="#253f9c"/>
      <path id="Path_56199" data-name="Path 56199" d="M90.3,3.7s-.2.1-.2,0H80.5a.1.1,0,0,0-.1.1h0V8.3a.1.1,0,0,0,.1.1h6.3a.446.446,0,0,1,.4.3h0v2.8a.446.446,0,0,1-.3.4H80.6a.1.1,0,0,0-.1.1h0v4.8a.1.1,0,0,0,.1.1h9.6a.446.446,0,0,1,.4.3h0v3l-.2.1H76.8s-.2,0-.2-.1l-.1-.2V.6s0-.2.1-.2l.2-.1H90.4s.2,0,.2.1c0,0,.1.2,0,.2V3.7" fill="#253f9c"/>
      <path id="Path_56200" data-name="Path 56200" d="M111,20.7s-.1-.2,0-.2V.4l.2-.1h3.4s.2,0,.2.1c0,0,.1.2,0,.2V17.1a.1.1,0,0,0,.1.1h9.6a.446.446,0,0,1,.4.3h0v2.8a.446.446,0,0,1-.3.4H111.1s-.2,0-.2-.1" fill="#253f9c"/>
      <path id="Path_56201" data-name="Path 56201" d="M146.2,20.5l-.9-2.9a.1.1,0,0,0-.1-.1H138a.1.1,0,0,0-.1.1l-.9,2.9c0,.2-.2.3-.4.3h-3.7a.494.494,0,0,1-.3-.1v-.3L138.9.6c0-.2.2-.3.4-.3h4.6c.2,0,.3.1.4.3l6.3,19.8v.1a.265.265,0,0,1-.3.3h-3.7c-.2,0-.3-.1-.4-.3M139,14.3h5.2c.1,0,.2,0,.1-.2l-2.6-8.7h0l-2.6,8.7c0,.1,0,.2.1.2" fill="#253f9c"/>
      <path id="Path_56202" data-name="Path 56202" d="M171.3,10.2a5.1,5.1,0,0,1,2.8,4.8,5,5,0,0,1-1.9,4.3,9.219,9.219,0,0,1-5.1,1.5h-7.6a.43.43,0,0,1-.4-.4h0V.4l.2-.1h7.4c4.6,0,7,1.9,7,5.6a4.407,4.407,0,0,1-2.5,4.2c-.1,0-.1.1,0,.2m-8-6.4V8.5a.1.1,0,0,0,.1.1h3.4a3.7,3.7,0,0,0,2.1-.6,2.342,2.342,0,0,0,.8-1.8,2.055,2.055,0,0,0-.8-1.8,3.322,3.322,0,0,0-2.1-.7h-3.4a.1.1,0,0,0-.1.1h0m6,12.7a2.732,2.732,0,0,0,.8-1.9,2.364,2.364,0,0,0-.8-1.9,3.322,3.322,0,0,0-2.1-.7h-3.6a.1.1,0,0,0-.1.1h0V17a.1.1,0,0,0,.1.1h3.7a3.139,3.139,0,0,0,2.1-.7" fill="#253f9c"/>
      <path id="Path_56203" data-name="Path 56203" d="M186.1,20.3a6.211,6.211,0,0,1-2.7-2.1,6.329,6.329,0,0,1-1-3.2v-.6a.446.446,0,0,1,.3-.4H186a.446.446,0,0,1,.4.3h0v.4a2.432,2.432,0,0,0,1.1,2,4.43,4.43,0,0,0,2.9.8,3.891,3.891,0,0,0,2.3-.7,2.088,2.088,0,0,0,.8-1.6A1.845,1.845,0,0,0,193,14a6.014,6.014,0,0,0-1.3-.9c-.5-.2-1.4-.6-2.6-1a19.235,19.235,0,0,1-3.3-1.4,7.1,7.1,0,0,1-2.3-1.9,4.628,4.628,0,0,1-.9-3,5.614,5.614,0,0,1,.9-3.1,5.456,5.456,0,0,1,2.5-2,9.71,9.71,0,0,1,3.7-.7,9.237,9.237,0,0,1,4,.8A6.435,6.435,0,0,1,196.4,3a5.581,5.581,0,0,1,1,3.3v.4a.446.446,0,0,1-.3.4h-3.4a.446.446,0,0,1-.4-.3h0V6.6a2.814,2.814,0,0,0-1-2.1,4.678,4.678,0,0,0-2.8-.9,4.282,4.282,0,0,0-2.2.6,2.088,2.088,0,0,0-.8,1.6A1.346,1.346,0,0,0,187,7a3.805,3.805,0,0,0,1.3.9c.6.3,1.5.6,2.8,1.1a23.293,23.293,0,0,1,3.3,1.4,5.845,5.845,0,0,1,2.1,1.7,4.719,4.719,0,0,1,1,3,5.707,5.707,0,0,1-2,4.4,8.889,8.889,0,0,1-5.5,1.6,11.409,11.409,0,0,1-4.1-.7" fill="#253f9c"/>
    </g>
  </g>
</svg>
